<?xml version="1.0" encoding="utf-8" ?>
<svg baseProfile="full" height="1167.0px" version="1.1" viewBox="0 0 884.0 1167.0" width="884.0px" xmlns="http://www.w3.org/2000/svg" xmlns:ev="http://www.w3.org/2001/xml-events" xmlns:xlink="http://www.w3.org/1999/xlink"><defs /><rect fill="#FFFFFF" height="1167.0" width="884.0" x="0" y="0" /><rect fill="none" height="1151.0" stroke="#333" stroke-width="1.5" width="868.0" x="8" y="8" /><g><text fill="#222" font-family="Arial, Helvetica, sans-serif" font-size="14px" font-weight="bold" text-anchor="middle" x="442.0" y="50">CROSS-SECTION (LOOKING ALONG RIDER'S PATH)</text><polygon fill="#C4A265" opacity="0.7" points="140.0,217.0 144.59,215.68756664680143 149.18,213.53646761618458 153.77,210.8899183293397 158.36,207.85968324067488 162.95,204.50790538940726 167.54,200.87539780019054 172.13,196.99150077854347 176.72,192.8785594582009 181.31,188.55429040937335 185.9,184.03316467839883 190.49,179.32727651527233 195.07999999999998,174.44691967857082 199.67000000000002,169.40098650511922 204.26,164.1972539891896 208.85,158.84259480885913 213.44,153.34313677171616 218.03,147.70438577769755 222.62,141.93132233523949 227.20999999999998,136.0284784934961 231.8,130.0 248.0,130.0 263.66,173.5 284.53999999999996,203.95 300.2,217.0 300.2,232.0 110,232.0 110,217.0" stroke="none" /><path d="M 140.0,217.0 L 144.59,215.68756664680143 L 149.18,213.53646761618458 L 153.77,210.8899183293397 L 158.36,207.85968324067488 L 162.95,204.50790538940726 L 167.54,200.87539780019054 L 172.13,196.99150077854347 L 176.72,192.8785594582009 L 181.31,188.55429040937335 L 185.9,184.03316467839883 L 190.49,179.32727651527233 L 195.07999999999998,174.44691967857082 L 199.67000000000002,169.40098650511922 L 204.26,164.1972539891896 L 208.85,158.84259480885913 L 213.44,153.34313677171616 L 218.03,147.70438577769755 L 222.62,141.93132233523949 L 227.20999999999998,136.0284784934961 L 231.8,130.0 L 248.0,130.0 " fill="none" stroke="#333333" stroke-width="2.5" /><path d="M 248.0,130.0 L 263.66,173.5 L 284.53999999999996,203.95 L 300.2,217.0 " fill="none" stroke="#333333" stroke-width="1.5" /><line stroke="#888" stroke-dasharray="6,3" stroke-width="0.5" x1="90" x2="330.2" y1="217.0" y2="217.0" /><line stroke="#AAA" stroke-width="0.4" x1="100" x2="106" y1="219.0" y2="227.0" /><line stroke="#AAA" stroke-width="0.4" x1="108" x2="114" y1="219.0" y2="227.0" /><line stroke="#AAA" stroke-width="0.4" x1="116" x2="122" y1="219.0" y2="227.0" /><line stroke="#AAA" stroke-width="0.4" x1="124" x2="130" y1="219.0" y2="227.0" /><line stroke="#AAA" stroke-width="0.4" x1="132" x2="138" y1="219.0" y2="227.0" /><line stroke="#AAA" stroke-width="0.4" x1="140" x2="146" y1="219.0" y2="227.0" /><line stroke="#AAA" stroke-width="0.4" x1="148" x2="154" y1="219.0" y2="227.0" /><line stroke="#AAA" stroke-width="0.4" x1="156" x2="162" y1="219.0" y2="227.0" /><line stroke="#AAA" stroke-width="0.4" x1="164" x2="170" y1="219.0" y2="227.0" /><line stroke="#AAA" stroke-width="0.4" x1="172" x2="178" y1="219.0" y2="227.0" /><line stroke="#AAA" stroke-width="0.4" x1="180" x2="186" y1="219.0" y2="227.0" /><line stroke="#AAA" stroke-width="0.4" x1="188" x2="194" y1="219.0" y2="227.0" /><line stroke="#AAA" stroke-width="0.4" x1="196" x2="202" y1="219.0" y2="227.0" /><line stroke="#AAA" stroke-width="0.4" x1="204" x2="210" y1="219.0" y2="227.0" /><line stroke="#AAA" stroke-width="0.4" x1="212" x2="218" y1="219.0" y2="227.0" /><line stroke="#AAA" stroke-width="0.4" x1="220" x2="226" y1="219.0" y2="227.0" /><line stroke="#AAA" stroke-width="0.4" x1="228" x2="234" y1="219.0" y2="227.0" /><line stroke="#AAA" stroke-width="0.4" x1="236" x2="242" y1="219.0" y2="227.0" /><line stroke="#AAA" stroke-width="0.4" x1="244" x2="250" y1="219.0" y2="227.0" /><line stroke="#AAA" stroke-width="0.4" x1="252" x2="258" y1="219.0" y2="227.0" /><line stroke="#AAA" stroke-width="0.4" x1="260" x2="266" y1="219.0" y2="227.0" /><line stroke="#AAA" stroke-width="0.4" x1="268" x2="274" y1="219.0" y2="227.0" /><line stroke="#AAA" stroke-width="0.4" x1="276" x2="282" y1="219.0" y2="227.0" /><line stroke="#AAA" stroke-width="0.4" x1="284" x2="290" y1="219.0" y2="227.0" /><line stroke="#AAA" stroke-width="0.4" x1="292" x2="298" y1="219.0" y2="227.0" /><line stroke="#AAA" stroke-width="0.4" x1="300" x2="306" y1="219.0" y2="227.0" /><line stroke="#AAA" stroke-width="0.4" x1="308" x2="314" y1="219.0" y2="227.0" /><line stroke="#AAA" stroke-width="0.4" x1="316" x2="322" y1="219.0" y2="227.0" /><text fill="#555" font-family="Arial, Helvetica, sans-serif" font-size="9px" font-style="italic" text-anchor="middle" x="135" y="237.0">Inner edge</text><text fill="#555" font-family="Arial, Helvetica, sans-serif" font-size="9px" font-style="italic" text-anchor="middle" x="135" y="247.0">(low point)</text><text fill="#555" font-family="Arial, Helvetica, sans-serif" font-size="9px" font-style="italic" text-anchor="middle" x="239.9" y="115.0">Flat lip</text><text fill="#555" font-family="Arial, Helvetica, sans-serif" font-size="9px" font-style="italic" text-anchor="start" x="289.1" y="173.5">Back slope</text><text fill="#555" font-family="Arial, Helvetica, sans-serif" font-size="9px" font-style="italic" text-anchor="middle" x="185.9" y="163.5">Riding surface</text><line stroke="#0055AA" stroke-width="0.5" x1="306.0" x2="328.0" y1="130.0" y2="130.0" /><line stroke="#0055AA" stroke-width="0.5" x1="306.0" x2="328.0" y1="217.0" y2="217.0" /><line stroke="#0055AA" stroke-width="0.75" x1="328.0" x2="328.0" y1="130.0" y2="217.0" /><polygon fill="#0055AA" points="328.0,130.0 325.0,136.0 331.0,136.0" /><polygon fill="#0055AA" points="328.0,217.0 325.0,211.0 331.0,211.0" /><text fill="#0055AA" font-family="Arial, Helvetica, sans-serif" font-size="10px" text-anchor="middle" transform="translate(323.0,173.5) rotate(-90)" x="0" y="0">4'-10"</text><line stroke="#0055AA" stroke-width="0.5" x1="140" x2="140" y1="220.0" y2="262.0" /><line stroke="#0055AA" stroke-width="0.5" x1="248.0" x2="248.0" y1="220.0" y2="262.0" /><line stroke="#0055AA" stroke-width="0.75" x1="140" x2="248.0" y1="262.0" y2="262.0" /><polygon fill="#0055AA" points="140,262.0 146,259.0 146,265.0" /><polygon fill="#0055AA" points="248.0,262.0 242.0,259.0 242.0,265.0" /><rect fill="white" height="13" stroke="none" width="32.5" x="177.75" y="252.0" /><text fill="#0055AA" font-family="Arial, Helvetica, sans-serif" font-size="10px" text-anchor="middle" x="194.0" y="261.0">6'-0"</text><path d="M 180,217.0 A 40,40 0 0,0 164.07260092608195,185.0545795981083" fill="none" stroke="#CC0000" stroke-width="1" /><text fill="#CC0000" font-family="Arial, Helvetica, sans-serif" font-size="10px" font-weight="bold" text-anchor="middle" x="186.5365868033053" y="193.79771371828994">53.0°</text><line stroke="#CC0000" stroke-dasharray="4,3" stroke-width="0.75" x1="140" x2="176.1089013891229" y1="217.0" y2="169.08186939716242" /></g><g><text fill="#222" font-family="Arial, Helvetica, sans-serif" font-size="14px" font-weight="bold" text-anchor="middle" x="452.0" y="327.0">TOP VIEW (PLAN)</text><polygon fill="#E0D8C0" points="259.99999999999994,749.0 260.0,569.0 332.0,569.0 331.99999999999994,749.0" stroke="#333333" stroke-width="1" /><polygon fill="#C4A265" points="260.0,569.0 261.05179608929154,548.9305350526105 264.1956606591093,529.0809553629902 269.3971488713305,509.6687370800101 276.5992721326206,490.9065645294463 285.7231224733878,473.0 296.66873708001015,456.1452315598451 309.31619350834035,440.52692357909916 323.5269235790992,426.3161935083403 339.1452315598452,413.6687370800101 355.99999999999994,402.7231224733878 373.9065645294463,393.5992721326206 392.6687370800101,386.3971488713305 412.08095536299027,381.1956606591093 431.93053505261054,378.05179608929154 452.0,377.0 472.06946494738946,378.05179608929154 491.9190446370098,381.1956606591093 511.3312629199899,386.3971488713305 530.0934354705537,393.5992721326206 548.0,402.7231224733878 564.8547684401549,413.6687370800101 580.4730764209007,426.31619350834023 594.6838064916598,440.5269235790993 607.33126291999,456.1452315598452 618.2768775266122,473.0 627.4007278673794,490.9065645294464 634.6028511286695,509.6687370800101 639.8043393408907,529.0809553629903 642.9482039107085,548.9305350526105 644.0,569.0 572.0,569.0 571.3426274441928,556.4565844078816 569.3777120880567,544.0505971018689 566.1267819554184,531.9179606750063 561.6254549171122,520.191602830904 555.9230484541326,509.0 549.0820393249937,498.4657697249032 541.1773790572873,488.70432723693705 532.295672763063,479.82262094271266 522.5342302750968,471.91796067500627 512.0,465.07695154586736 500.808397169096,459.3745450828879 489.0820393249937,454.87321804458156 476.9494028981311,451.6222879119433 464.54341559211844,449.6573725558072 452.0,449.0 439.4565844078816,449.65737255580717 427.0505971018689,451.6222879119433 414.9179606750063,454.87321804458156 403.19160283090395,459.3745450828879 392.0,465.07695154586736 381.4657697249032,471.91796067500627 371.70432723693705,479.82262094271266 362.8226209427127,488.704327236937 354.9179606750063,498.4657697249032 348.07695154586736,509.0 342.3745450828879,520.191602830904 337.87321804458156,531.9179606750063 334.6222879119433,544.0505971018689 332.6573725558072,556.4565844078816 332.0,569.0" stroke="#333333" stroke-width="1.5" /><polygon fill="#E0D8C0" points="644.0,569.0 644.0,749.0 572.0,749.0 572.0,569.0" stroke="#333333" stroke-width="1" /><path d="M 296.0,569.0 L 296.8545843225494,552.693559730246 L 299.4089742855263,536.5657762324296 L 303.63518345795603,520.7933488775082 L 309.4869086077543,505.54908368017516 L 316.90003700962757,491.0 L 325.7933488775082,477.30550064237417 L 336.06940722552656,464.6156254080181 L 347.6156254080181,453.0694072255265 L 360.3055006423742,442.7933488775082 L 374.0,433.90003700962757 L 388.54908368017516,426.48690860775423 L 403.7933488775082,420.63518345795603 L 419.5657762324296,416.4089742855263 L 435.6935597302461,413.8545843225494 L 452.0,413.0 L 468.3064402697539,413.8545843225494 L 484.4342237675704,416.4089742855263 L 500.2066511224918,420.63518345795603 L 515.4509163198248,426.48690860775423 L 530.0,433.90003700962757 L 543.6944993576258,442.7933488775082 L 556.3843745919819,453.06940722552645 L 567.9305927744736,464.61562540801816 L 578.2066511224918,477.30550064237417 L 587.0999629903724,491.0 L 594.5130913922458,505.5490836801752 L 600.364816542044,520.7933488775082 L 604.5910257144737,536.5657762324296 L 607.1454156774506,552.6935597302461 L 608.0,569.0 " fill="none" stroke="#888" stroke-dasharray="6,4" stroke-width="0.75" /><line stroke="#0055AA" stroke-dasharray="4,3" stroke-width="0.75" x1="452.0" x2="452.0" y1="569.0" y2="413.0" /><text fill="#0055AA" font-family="Arial, Helvetica, sans-serif" font-size="10px" font-weight="bold" x="460.0" y="486.0">R = 10'-0"</text><circle cx="452.0" cy="569.0" fill="#0055AA" r="3" /><text fill="#CC0000" font-family="Arial, Helvetica, sans-serif" font-size="10px" font-weight="bold" x="290.99999999999994" y="741.0">ENTRY</text><text fill="#CC0000" font-family="Arial, Helvetica, sans-serif" font-size="10px" font-weight="bold" x="613.0" y="764.0">EXIT</text><polygon fill="#666" points="314.93479460462885,494.8570053899147 310.3345635805359,510.4767079604058 305.00213773111966,507.75970128258626" /><polygon fill="#666" points="463.9835544170549,413.62803147491536 447.8431635599416,415.7786167081126 448.1563796794061,409.80209711981155" /><polygon fill="#666" points="592.547848987247,501.69207829026044 582.6151921137377,488.7893823975889 587.947617963154,486.07237571976935" /><line stroke="#0055AA" stroke-width="0.75" x1="452.0" x2="452.0" y1="377.0" y2="449.0" /><polygon fill="#0055AA" points="452.0,377.0 456.0,373.0 456.0,381.0" /><polygon fill="#0055AA" points="452.0,449.0 448.0,445.0 448.0,453.0" /><text fill="#0055AA" font-family="Arial, Helvetica, sans-serif" font-size="10px" font-weight="bold" x="460.0" y="410.0">6'-0"</text><line stroke="#0055AA" stroke-dasharray="3,2" stroke-width="0.5" x1="259.99999999999994" x2="260.0" y1="749.0" y2="569.0" /><text fill="#0055AA" font-family="Arial, Helvetica, sans-serif" font-size="9px" text-anchor="middle" x="260.0" y="554.0">Entry taper: 15'-0"</text><line stroke="#0055AA" stroke-dasharray="3,2" stroke-width="0.5" x1="644.0" x2="644.0" y1="569.0" y2="749.0" /><text fill="#0055AA" font-family="Arial, Helvetica, sans-serif" font-size="9px" text-anchor="middle" x="644.0" y="769.0">Exit taper: 15'-0"</text><text fill="#555" font-family="Arial, Helvetica, sans-serif" font-size="9px" font-style="italic" x="462.0" y="584.0">180.0° turn</text></g><g><text fill="#111" font-family="Arial, Helvetica, sans-serif" font-size="11px" font-weight="bold" x="80" y="821.0">NOTES:</text><text fill="#333" font-family="Arial, Helvetica, sans-serif" font-size="10px" x="90" y="837.0">1. Compact fill in 6" lifts with plate compactor</text><text fill="#333" font-family="Arial, Helvetica, sans-serif" font-size="10px" x="90" y="853.0">2. Use mineral soil only (clay/gravel mix, no organics)</text><text fill="#333" font-family="Arial, Helvetica, sans-serif" font-size="10px" x="90" y="869.0">3. Surface should be slightly concave to channel riders</text><text fill="#333" font-family="Arial, Helvetica, sans-serif" font-size="10px" x="90" y="885.0">4. Entry/exit tapers must be smooth — no abrupt transitions</text><text fill="#333" font-family="Arial, Helvetica, sans-serif" font-size="10px" x="90" y="901.0">5. Provide drainage path behind outer lip of berm</text><text fill="#333" font-family="Arial, Helvetica, sans-serif" font-size="10px" x="90" y="917.0">6. Bank angle of 53.0° matched to expected entry speed</text><text fill="#111" font-family="Arial, Helvetica, sans-serif" font-size="11px" font-weight="bold" x="80" y="943.0">MATERIALS:</text><rect fill="#E8E8E8" height="18" stroke="#AAA" stroke-width="0.5" width="600" x="80" y="948.0" /><text fill="#111" font-family="Arial, Helvetica, sans-serif" font-size="10px" font-weight="bold" x="85" y="961.0">Item</text><text fill="#111" font-family="Arial, Helvetica, sans-serif" font-size="10px" font-weight="bold" x="365" y="961.0">Quantity</text><text fill="#111" font-family="Arial, Helvetica, sans-serif" font-size="10px" font-weight="bold" x="515" y="961.0">Notes</text><rect fill="none" height="18" stroke="#CCC" stroke-width="0.5" width="600" x="80" y="966.0" /><text fill="#333" font-family="Arial, Helvetica, sans-serif" font-size="10px" x="85" y="979.0">Fill dirt (mineral soil)</text><text fill="#333" font-family="Arial, Helvetica, sans-serif" font-size="10px" x="365" y="979.0">~6-10 cu yd</text><text fill="#333" font-family="Arial, Helvetica, sans-serif" font-size="10px" x="515" y="979.0">Clay/gravel mix preferred</text><rect fill="none" height="18" stroke="#CCC" stroke-width="0.5" width="600" x="80" y="984.0" /><text fill="#333" font-family="Arial, Helvetica, sans-serif" font-size="10px" x="85" y="997.0">Topsoil (finish)</text><text fill="#333" font-family="Arial, Helvetica, sans-serif" font-size="10px" x="365" y="997.0">~1 cu yd</text><text fill="#333" font-family="Arial, Helvetica, sans-serif" font-size="10px" x="515" y="997.0">Final surface layer only</text></g><rect fill="#F0F0F0" height="80" stroke="#333" stroke-width="1.5" width="300" x="564.0" y="1067.0" /><text fill="#111" font-family="Arial, Helvetica, sans-serif" font-size="14px" font-weight="bold" x="574.0" y="1085.0">180° Berm — Option B (15ft from lander, 14mph entry, 53° bank)</text><text fill="#555" font-family="Arial, Helvetica, sans-serif" font-size="9px" x="574.0" y="1102.0">Radius: 10'-0"  |  Bank: 53.0°  |  Height: 4'-10"</text><text fill="#555" font-family="Arial, Helvetica, sans-serif" font-size="9px" x="574.0" y="1115.0">Width: 6'-0"  |  Turn arc: 180.0°</text><text fill="#555" font-family="Arial, Helvetica, sans-serif" font-size="9px" x="574.0" y="1129.0">Date: 2026-03-28</text></svg>