<?xml version="1.0" encoding="utf-8" ?>
<svg baseProfile="full" height="1489.2px" version="1.1" viewBox="0 0 1576.0288042164202 1489.2" width="1576.0288042164202px" xmlns="http://www.w3.org/2000/svg" xmlns:ev="http://www.w3.org/2001/xml-events" xmlns:xlink="http://www.w3.org/1999/xlink"><defs /><rect fill="#FFFFFF" height="1489.2" width="1576.0288042164202" x="0" y="0" /><rect fill="none" height="1473.2" stroke="#333" stroke-width="1.5" width="1560.0288042164202" x="8" y="8" /><g><text fill="#222" font-family="Arial, Helvetica, sans-serif" font-size="14px" font-weight="bold" text-anchor="middle" x="788.0144021082101" y="45">SIDE PROFILE</text><polygon fill="#D5C9A0" opacity="0.25" points="100,175.0 104,174.54545454545456 108,174.0909090909091 112,173.63636363636363 116,173.1818181818182 120,172.72727272727272 124,172.27272727272728 128,171.8181818181818 132,171.36363636363637 136,170.9090909090909 140,170.45454545454547 144,170.0 148,169.54545454545453 152,169.0909090909091 156,168.63636363636363 160,168.1818181818182 164,167.72727272727272 168,167.27272727272728 172,166.8181818181818 176,166.36363636363637 180,165.9090909090909 184,165.45454545454547 188,165.0 192,164.54545454545453 196,164.0909090909091 200,163.63636363636363 204,163.1818181818182 208,162.72727272727272 212,162.27272727272728 216,161.8181818181818 220,161.36363636363637 224,160.9090909090909 228,160.45454545454547 232,160.0 236,166.12424242424242 240,167.24848484848485 244,168.37272727272727 248,169.4969696969697 252,170.62121212121212 256,171.74545454545455 260,172.86969696969697 264,173.9939393939394 268,175.11818181818182 272,176.24242424242425 276,177.36666666666667 280,178.4909090909091 284,179.61515151515152 288,180.73939393939395 292,181.86363636363637 296,182.9878787878788 300,184.11212121212122 304,185.23636363636362 308,186.36060606060607 312,187.48484848484847 316,188.6090909090909 320,189.73333333333332 324,190.85757575757575 328,191.98181818181817 332,193.1060606060606 336,194.23030303030302 340,195.35454545454544 344,196.47878787878787 348,197.6030303030303 352,198.72727272727272 356,199.85151515151514 360,200.97575757575757 364,202.1 368,203.22424242424242 372,204.34848484848484 376,205.47272727272727 380,206.5969696969697 384,207.72121212121212 388,208.84545454545454 392,209.96969696969697 396,211.0939393939394 400,212.21818181818182 404,213.34242424242424 408,214.46666666666664 412,215.59090909090907 416,216.71515151515152 420,217.83939393939394 424,218.96363636363634 428,220.08787878787876 432,221.2121212121212 436,222.33636363636361 440,223.46060606060604 444,224.58484848484846 448,225.7090909090909 452,226.83333333333331 456,227.95757575757574 460,229.08181818181816 464,230.2060606060606 468,231.330303030303 472,232.45454545454544 476,233.57878787878786 480,234.7030303030303 484,235.8272727272727 488,236.95151515151514 492,238.07575757575756 496,239.2 500,266.97811900423875 504,281.303755161222 508,292.90016090097214 512,303.0173592101619 516,312.1600019186698 520,320.5942235018774 524,328.48153700444203 528,335.9290285857873 532,343.012186863706 536,349.78668360075824 540,356.2950254258216 544,362.57057298004565 548,368.64010171009755 552,374.52550472114393 556,380.2449657073594 560,385.8137910899357 564,391.2450154134076 568,396.5498514349924 572,401.73803112881734 576,406.81806836911306 580,411.7974642808981 584,416.6828698938741 588,421.4802165059293 592,426.19482128573526 596,430.83147364873844 600,435.3945065327858 604,437.2348818954476 608,437.2930183878602 612,437.35115488027276 616,437.4092913726854 620,437.467427865098 624,437.5255643575106 628,437.58370084992316 632,437.64183734233575 636,437.69997383474833 640,437.7581103271609 644,437.8162468195735 648,437.8743833119861 652,437.9325198043987 656,437.9906562968113 660,438.0487927892239 664,438.1069292816365 668,438.1650657740491 672,438.22320226646167 676,438.28133875887426 680,438.33947525128684 684,438.39761174369943 688,438.455748236112 692,438.5138847285246 696,438.57202122093724 700,438.63015771334983 704,438.6882942057624 708,438.746430698175 712,438.8045671905876 716,438.8627036830002 720,438.92084017541276 724,438.97897666782535 728,439.03711316023794 732,439.0952496526505 736,439.1533861450631 740,439.21152263747575 744,439.26965912988834 748,439.3277956223009 752,439.3859321147135 756,439.4440686071261 760,439.5022050995387 764,439.56034159195127 768,439.61847808436386 772,439.67661457677644 776,439.73475106918903 780,439.7928875616017 784,439.85102405401426 788,439.90916054642685 792,439.96729703883943 796,440.025433531252 800,440.0835700236646 804,440.1417065160772 808,440.1998430084898 812,440.25797950090237 816,440.31611599331495 820,440.3742524857276 824,440.4323889781402 828,440.49052547055277 832,440.54866196296535 836,440.60679845537794 840,440.6649349477905 844,440.7230714402031 848,440.7812079326157 852,440.8393444250283 856,440.8974809174409 860,440.9556174098535 864,441.0137539022661 868,441.0718903946787 872,441.1300268870913 876,441.18816337950386 880,441.24629987191645 884,441.30443636432904 888,441.3625728567416 892,441.4207093491542 896,441.4788458415668 900,441.5369823339794 904,441.595118826392 908,441.6532553188046 912,441.7113918112172 916,441.7695283036298 920,441.82766479604237 924,441.88580128845496 928,441.94393778086754 932,442.00207427328013 936,442.0602107656927 940,442.1183472581053 944,442.17648375051795 948,442.23462024293053 952,442.2927567353431 956,442.3508932277557 960,442.4090297201683 964,442.4671662125809 968,442.52530270499346 972,442.58343919740605 976,442.64157568981864 980,442.6997121822312 984,442.75784867464387 988,442.81598516705645 992,442.87412165946904 996,442.9322581518816 1000,442.9903946442942 1004,443.0485311367068 1008,443.1066676291194 1012,443.164804121532 1016,443.22294061394456 1020,443.28107710635715 1024,443.3392135987698 1028,443.3973500911824 1032,443.45548658359496 1036,443.51362307600755 1040,443.57175956842013 1044,443.6298960608327 1048,443.6880325532453 1052,443.7461690456579 1056,443.8043055380705 1060,443.86244203048307 1064,443.92057852289565 1068,443.9787150153083 1072,444.0368515077209 1076,444.09498800013347 1080,444.15312449254606 1084,444.21126098495864 1088,444.26939747737123 1092,444.3275339697838 1096,444.3856704621964 1100,444.443806954609 1104,444.5019434470216 1108,444.5600799394342 1112,444.6182164318468 1116,444.6763529242594 1120,444.734489416672 1124,444.79262590908456 1128,444.85076240149715 1132,444.90889889390974 1136,444.9670353863223 1140,445.0251718787349 1144,445.0833083711475 1148,445.14144486356014 1152,445.1995813559727 1156,445.27942391567166 1160,445.35942391567164 1164,445.4394239156716 1168,445.51942391567167 1172,445.59942391567165 1176,445.67942391567163 1180,445.7594239156716 1184,445.83942391567166 1188,445.91942391567164 1192,445.9994239156716 1196,446.07942391567167 1200,446.15942391567165 1204,446.23942391567164 1208,446.3194239156716 1212,446.39942391567166 1216,446.47942391567165 1220,446.55942391567163 1224,446.6394239156716 1228,446.71942391567165 1232,446.79942391567164 1236,446.8794239156716 1240,446.95942391567166 1244,447.03942391567165 1248,447.11942391567163 1252,447.1994239156716 1256,447.27942391567166 1260,447.35942391567164 1264,447.4394239156716 1268,447.51942391567167 1272,447.59942391567165 1276,447.67942391567163 1280,447.7594239156716 1284,447.83942391567166 1288,447.91942391567164 1292,447.9994239156716 1296,448.07942391567167 1300,448.15942391567165 1304,448.23942391567164 1308,448.3194239156716 1312,448.39942391567166 1316,448.47942391567165 1320,448.55942391567163 1324,448.6394239156716 1328,448.71942391567165 1332,448.79942391567164 1336,448.8794239156716 1340,448.95942391567166 1344,449.03942391567165 1348,449.11942391567163 1352,449.1994239156716 1356,449.27942391567166 1360,449.35942391567164 1364,449.4394239156716 1368,449.51942391567167 1372,449.59942391567165 1376,449.67942391567163 1380,449.7594239156716 1384,449.83942391567166 1388,449.91942391567164 1392,449.9994239156716 1396,450.07942391567167 1400,450.15942391567165 1404,450.23942391567164 1408,450.3194239156716 1412,450.39942391567166 1416,450.47942391567165 1420,450.55942391567163 1416.0288042164202,517.2 100.0,517.2" stroke="none" /><path d="M 100,175.0 L 104,174.54545454545456 L 108,174.0909090909091 L 112,173.63636363636363 L 116,173.1818181818182 L 120,172.72727272727272 L 124,172.27272727272728 L 128,171.8181818181818 L 132,171.36363636363637 L 136,170.9090909090909 L 140,170.45454545454547 L 144,170.0 L 148,169.54545454545453 L 152,169.0909090909091 L 156,168.63636363636363 L 160,168.1818181818182 L 164,167.72727272727272 L 168,167.27272727272728 L 172,166.8181818181818 L 176,166.36363636363637 L 180,165.9090909090909 L 184,165.45454545454547 L 188,165.0 L 192,164.54545454545453 L 196,164.0909090909091 L 200,163.63636363636363 L 204,163.1818181818182 L 208,162.72727272727272 L 212,162.27272727272728 L 216,161.8181818181818 L 220,161.36363636363637 L 224,160.9090909090909 L 228,160.45454545454547 L 232,160.0 L 236,166.12424242424242 L 240,167.24848484848485 L 244,168.37272727272727 L 248,169.4969696969697 L 252,170.62121212121212 L 256,171.74545454545455 L 260,172.86969696969697 L 264,173.9939393939394 L 268,175.11818181818182 L 272,176.24242424242425 L 276,177.36666666666667 L 280,178.4909090909091 L 284,179.61515151515152 L 288,180.73939393939395 L 292,181.86363636363637 L 296,182.9878787878788 L 300,184.11212121212122 L 304,185.23636363636362 L 308,186.36060606060607 L 312,187.48484848484847 L 316,188.6090909090909 L 320,189.73333333333332 L 324,190.85757575757575 L 328,191.98181818181817 L 332,193.1060606060606 L 336,194.23030303030302 L 340,195.35454545454544 L 344,196.47878787878787 L 348,197.6030303030303 L 352,198.72727272727272 L 356,199.85151515151514 L 360,200.97575757575757 L 364,202.1 L 368,203.22424242424242 L 372,204.34848484848484 L 376,205.47272727272727 L 380,206.5969696969697 L 384,207.72121212121212 L 388,208.84545454545454 L 392,209.96969696969697 L 396,211.0939393939394 L 400,212.21818181818182 L 404,213.34242424242424 L 408,214.46666666666664 L 412,215.59090909090907 L 416,216.71515151515152 L 420,217.83939393939394 L 424,218.96363636363634 L 428,220.08787878787876 L 432,221.2121212121212 L 436,222.33636363636361 L 440,223.46060606060604 L 444,224.58484848484846 L 448,225.7090909090909 L 452,226.83333333333331 L 456,227.95757575757574 L 460,229.08181818181816 L 464,230.2060606060606 L 468,231.330303030303 L 472,232.45454545454544 L 476,233.57878787878786 L 480,234.7030303030303 L 484,235.8272727272727 L 488,236.95151515151514 L 492,238.07575757575756 L 496,239.2 L 500,266.97811900423875 L 504,281.303755161222 L 508,292.90016090097214 L 512,303.0173592101619 L 516,312.1600019186698 L 520,320.5942235018774 L 524,328.48153700444203 L 528,335.9290285857873 L 532,343.012186863706 L 536,349.78668360075824 L 540,356.2950254258216 L 544,362.57057298004565 L 548,368.64010171009755 L 552,374.52550472114393 L 556,380.2449657073594 L 560,385.8137910899357 L 564,391.2450154134076 L 568,396.5498514349924 L 572,401.73803112881734 L 576,406.81806836911306 L 580,411.7974642808981 L 584,416.6828698938741 L 588,421.4802165059293 L 592,426.19482128573526 L 596,430.83147364873844 L 600,435.3945065327858 L 604,437.2348818954476 L 608,437.2930183878602 L 612,437.35115488027276 L 616,437.4092913726854 L 620,437.467427865098 L 624,437.5255643575106 L 628,437.58370084992316 L 632,437.64183734233575 L 636,437.69997383474833 L 640,437.7581103271609 L 644,437.8162468195735 L 648,437.8743833119861 L 652,437.9325198043987 L 656,437.9906562968113 L 660,438.0487927892239 L 664,438.1069292816365 L 668,438.1650657740491 L 672,438.22320226646167 L 676,438.28133875887426 L 680,438.33947525128684 L 684,438.39761174369943 L 688,438.455748236112 L 692,438.5138847285246 L 696,438.57202122093724 L 700,438.63015771334983 L 704,438.6882942057624 L 708,438.746430698175 L 712,438.8045671905876 L 716,438.8627036830002 L 720,438.92084017541276 L 724,438.97897666782535 L 728,439.03711316023794 L 732,439.0952496526505 L 736,439.1533861450631 L 740,439.21152263747575 L 744,439.26965912988834 L 748,439.3277956223009 L 752,439.3859321147135 L 756,439.4440686071261 L 760,439.5022050995387 L 764,439.56034159195127 L 768,439.61847808436386 L 772,439.67661457677644 L 776,439.73475106918903 L 780,439.7928875616017 L 784,439.85102405401426 L 788,439.90916054642685 L 792,439.96729703883943 L 796,440.025433531252 L 800,440.0835700236646 L 804,440.1417065160772 L 808,440.1998430084898 L 812,440.25797950090237 L 816,440.31611599331495 L 820,440.3742524857276 L 824,440.4323889781402 L 828,440.49052547055277 L 832,440.54866196296535 L 836,440.60679845537794 L 840,440.6649349477905 L 844,440.7230714402031 L 848,440.7812079326157 L 852,440.8393444250283 L 856,440.8974809174409 L 860,440.9556174098535 L 864,441.0137539022661 L 868,441.0718903946787 L 872,441.1300268870913 L 876,441.18816337950386 L 880,441.24629987191645 L 884,441.30443636432904 L 888,441.3625728567416 L 892,441.4207093491542 L 896,441.4788458415668 L 900,441.5369823339794 L 904,441.595118826392 L 908,441.6532553188046 L 912,441.7113918112172 L 916,441.7695283036298 L 920,441.82766479604237 L 924,441.88580128845496 L 928,441.94393778086754 L 932,442.00207427328013 L 936,442.0602107656927 L 940,442.1183472581053 L 944,442.17648375051795 L 948,442.23462024293053 L 952,442.2927567353431 L 956,442.3508932277557 L 960,442.4090297201683 L 964,442.4671662125809 L 968,442.52530270499346 L 972,442.58343919740605 L 976,442.64157568981864 L 980,442.6997121822312 L 984,442.75784867464387 L 988,442.81598516705645 L 992,442.87412165946904 L 996,442.9322581518816 L 1000,442.9903946442942 L 1004,443.0485311367068 L 1008,443.1066676291194 L 1012,443.164804121532 L 1016,443.22294061394456 L 1020,443.28107710635715 L 1024,443.3392135987698 L 1028,443.3973500911824 L 1032,443.45548658359496 L 1036,443.51362307600755 L 1040,443.57175956842013 L 1044,443.6298960608327 L 1048,443.6880325532453 L 1052,443.7461690456579 L 1056,443.8043055380705 L 1060,443.86244203048307 L 1064,443.92057852289565 L 1068,443.9787150153083 L 1072,444.0368515077209 L 1076,444.09498800013347 L 1080,444.15312449254606 L 1084,444.21126098495864 L 1088,444.26939747737123 L 1092,444.3275339697838 L 1096,444.3856704621964 L 1100,444.443806954609 L 1104,444.5019434470216 L 1108,444.5600799394342 L 1112,444.6182164318468 L 1116,444.6763529242594 L 1120,444.734489416672 L 1124,444.79262590908456 L 1128,444.85076240149715 L 1132,444.90889889390974 L 1136,444.9670353863223 L 1140,445.0251718787349 L 1144,445.0833083711475 L 1148,445.14144486356014 L 1152,445.1995813559727 L 1156,445.27942391567166 L 1160,445.35942391567164 L 1164,445.4394239156716 L 1168,445.51942391567167 L 1172,445.59942391567165 L 1176,445.67942391567163 L 1180,445.7594239156716 L 1184,445.83942391567166 L 1188,445.91942391567164 L 1192,445.9994239156716 L 1196,446.07942391567167 L 1200,446.15942391567165 L 1204,446.23942391567164 L 1208,446.3194239156716 L 1212,446.39942391567166 L 1216,446.47942391567165 L 1220,446.55942391567163 L 1224,446.6394239156716 L 1228,446.71942391567165 L 1232,446.79942391567164 L 1236,446.8794239156716 L 1240,446.95942391567166 L 1244,447.03942391567165 L 1248,447.11942391567163 L 1252,447.1994239156716 L 1256,447.27942391567166 L 1260,447.35942391567164 L 1264,447.4394239156716 L 1268,447.51942391567167 L 1272,447.59942391567165 L 1276,447.67942391567163 L 1280,447.7594239156716 L 1284,447.83942391567166 L 1288,447.91942391567164 L 1292,447.9994239156716 L 1296,448.07942391567167 L 1300,448.15942391567165 L 1304,448.23942391567164 L 1308,448.3194239156716 L 1312,448.39942391567166 L 1316,448.47942391567165 L 1320,448.55942391567163 L 1324,448.6394239156716 L 1328,448.71942391567165 L 1332,448.79942391567164 L 1336,448.8794239156716 L 1340,448.95942391567166 L 1344,449.03942391567165 L 1348,449.11942391567163 L 1352,449.1994239156716 L 1356,449.27942391567166 L 1360,449.35942391567164 L 1364,449.4394239156716 L 1368,449.51942391567167 L 1372,449.59942391567165 L 1376,449.67942391567163 L 1380,449.7594239156716 L 1384,449.83942391567166 L 1388,449.91942391567164 L 1392,449.9994239156716 L 1396,450.07942391567167 L 1400,450.15942391567165 L 1404,450.23942391567164 L 1408,450.3194239156716 L 1412,450.39942391567166 L 1416,450.47942391567165 L 1420,450.55942391567163 " fill="none" stroke="#999" stroke-dasharray="6,3" stroke-width="0.75" /><line stroke="#BBB" stroke-width="0.35" x1="100" x2="105" y1="175.0" y2="182.0" /><line stroke="#BBB" stroke-width="0.35" x1="124" x2="129" y1="172.27272727272728" y2="179.27272727272728" /><line stroke="#BBB" stroke-width="0.35" x1="148" x2="153" y1="169.54545454545453" y2="176.54545454545453" /><line stroke="#BBB" stroke-width="0.35" x1="172" x2="177" y1="166.8181818181818" y2="173.8181818181818" /><line stroke="#BBB" stroke-width="0.35" x1="196" x2="201" y1="164.0909090909091" y2="171.0909090909091" /><line stroke="#BBB" stroke-width="0.35" x1="220" x2="225" y1="161.36363636363637" y2="168.36363636363637" /><line stroke="#BBB" stroke-width="0.35" x1="244" x2="249" y1="168.37272727272727" y2="175.37272727272727" /><line stroke="#BBB" stroke-width="0.35" x1="268" x2="273" y1="175.11818181818182" y2="182.11818181818182" /><line stroke="#BBB" stroke-width="0.35" x1="292" x2="297" y1="181.86363636363637" y2="188.86363636363637" /><line stroke="#BBB" stroke-width="0.35" x1="316" x2="321" y1="188.6090909090909" y2="195.6090909090909" /><line stroke="#BBB" stroke-width="0.35" x1="340" x2="345" y1="195.35454545454544" y2="202.35454545454544" /><line stroke="#BBB" stroke-width="0.35" x1="364" x2="369" y1="202.1" y2="209.1" /><line stroke="#BBB" stroke-width="0.35" x1="388" x2="393" y1="208.84545454545454" y2="215.84545454545454" /><line stroke="#BBB" stroke-width="0.35" x1="412" x2="417" y1="215.59090909090907" y2="222.59090909090907" /><line stroke="#BBB" stroke-width="0.35" x1="436" x2="441" y1="222.33636363636361" y2="229.33636363636361" /><line stroke="#BBB" stroke-width="0.35" x1="460" x2="465" y1="229.08181818181816" y2="236.08181818181816" /><line stroke="#BBB" stroke-width="0.35" x1="484" x2="489" y1="235.8272727272727" y2="242.8272727272727" /><line stroke="#BBB" stroke-width="0.35" x1="508" x2="513" y1="292.90016090097214" y2="299.90016090097214" /><line stroke="#BBB" stroke-width="0.35" x1="532" x2="537" y1="343.012186863706" y2="350.012186863706" /><line stroke="#BBB" stroke-width="0.35" x1="556" x2="561" y1="380.2449657073594" y2="387.2449657073594" /><line stroke="#BBB" stroke-width="0.35" x1="580" x2="585" y1="411.7974642808981" y2="418.7974642808981" /><line stroke="#BBB" stroke-width="0.35" x1="604" x2="609" y1="437.2348818954476" y2="444.2348818954476" /><line stroke="#BBB" stroke-width="0.35" x1="628" x2="633" y1="437.58370084992316" y2="444.58370084992316" /><line stroke="#BBB" stroke-width="0.35" x1="652" x2="657" y1="437.9325198043987" y2="444.9325198043987" /><line stroke="#BBB" stroke-width="0.35" x1="676" x2="681" y1="438.28133875887426" y2="445.28133875887426" /><line stroke="#BBB" stroke-width="0.35" x1="700" x2="705" y1="438.63015771334983" y2="445.63015771334983" /><line stroke="#BBB" stroke-width="0.35" x1="724" x2="729" y1="438.97897666782535" y2="445.97897666782535" /><line stroke="#BBB" stroke-width="0.35" x1="748" x2="753" y1="439.3277956223009" y2="446.3277956223009" /><line stroke="#BBB" stroke-width="0.35" x1="772" x2="777" y1="439.67661457677644" y2="446.67661457677644" /><line stroke="#BBB" stroke-width="0.35" x1="796" x2="801" y1="440.025433531252" y2="447.025433531252" /><line stroke="#BBB" stroke-width="0.35" x1="820" x2="825" y1="440.3742524857276" y2="447.3742524857276" /><line stroke="#BBB" stroke-width="0.35" x1="844" x2="849" y1="440.7230714402031" y2="447.7230714402031" /><line stroke="#BBB" stroke-width="0.35" x1="868" x2="873" y1="441.0718903946787" y2="448.0718903946787" /><line stroke="#BBB" stroke-width="0.35" x1="892" x2="897" y1="441.4207093491542" y2="448.4207093491542" /><line stroke="#BBB" stroke-width="0.35" x1="916" x2="921" y1="441.7695283036298" y2="448.7695283036298" /><line stroke="#BBB" stroke-width="0.35" x1="940" x2="945" y1="442.1183472581053" y2="449.1183472581053" /><line stroke="#BBB" stroke-width="0.35" x1="964" x2="969" y1="442.4671662125809" y2="449.4671662125809" /><line stroke="#BBB" stroke-width="0.35" x1="988" x2="993" y1="442.81598516705645" y2="449.81598516705645" /><line stroke="#BBB" stroke-width="0.35" x1="1012" x2="1017" y1="443.164804121532" y2="450.164804121532" /><line stroke="#BBB" stroke-width="0.35" x1="1036" x2="1041" y1="443.51362307600755" y2="450.51362307600755" /><line stroke="#BBB" stroke-width="0.35" x1="1060" x2="1065" y1="443.86244203048307" y2="450.86244203048307" /><line stroke="#BBB" stroke-width="0.35" x1="1084" x2="1089" y1="444.21126098495864" y2="451.21126098495864" /><line stroke="#BBB" stroke-width="0.35" x1="1108" x2="1113" y1="444.5600799394342" y2="451.5600799394342" /><line stroke="#BBB" stroke-width="0.35" x1="1132" x2="1137" y1="444.90889889390974" y2="451.90889889390974" /><line stroke="#BBB" stroke-width="0.35" x1="1156" x2="1161" y1="445.27942391567166" y2="452.27942391567166" /><line stroke="#BBB" stroke-width="0.35" x1="1180" x2="1185" y1="445.7594239156716" y2="452.7594239156716" /><line stroke="#BBB" stroke-width="0.35" x1="1204" x2="1209" y1="446.23942391567164" y2="453.23942391567164" /><line stroke="#BBB" stroke-width="0.35" x1="1228" x2="1233" y1="446.71942391567165" y2="453.71942391567165" /><line stroke="#BBB" stroke-width="0.35" x1="1252" x2="1257" y1="447.1994239156716" y2="454.1994239156716" /><line stroke="#BBB" stroke-width="0.35" x1="1276" x2="1281" y1="447.67942391567163" y2="454.67942391567163" /><line stroke="#BBB" stroke-width="0.35" x1="1300" x2="1305" y1="448.15942391567165" y2="455.15942391567165" /><line stroke="#BBB" stroke-width="0.35" x1="1324" x2="1329" y1="448.6394239156716" y2="455.6394239156716" /><line stroke="#BBB" stroke-width="0.35" x1="1348" x2="1353" y1="449.11942391567163" y2="456.11942391567163" /><line stroke="#BBB" stroke-width="0.35" x1="1372" x2="1377" y1="449.59942391567165" y2="456.59942391567165" /><line stroke="#BBB" stroke-width="0.35" x1="1396" x2="1401" y1="450.07942391567167" y2="457.07942391567167" /><line stroke="#BBB" stroke-width="0.35" x1="1420" x2="1425" y1="450.55942391567163" y2="457.55942391567163" /><polygon fill="#C5B890" opacity="0.3" points="496,239.2 499,262.5743526607169 502,274.628893559305 505,284.38687887560087 508,292.90016090097214 511,300.5933871733121 514,307.690500900647 517,314.32740987660924 520,320.5942235018774 523,326.55446290881804 526,332.2549740127762 529,337.7315247119906 532,343.012186863706 535,348.1194911055425 538,353.0718597489936 541,357.88459376099104 544,362.57057298004565 547,367.14076553688955 550,371.60460658951354 553,375.97028526675336 556,380.2449657073594 559,384.4349598556902 562,388.5458643294928 565,392.582670116406 568,396.5498514349924 571,400.45143841722995 574,404.29107708455274 577,408.07207923998465 580,411.7974642808981 583,415.46999448136125 586,419.0922049530907 589,422.6664292375007 592,426.19482128573526 595,429.67937443297046 598,433.1219378562861 601,436.5242309137524 604,437.2348818954476 601.6,517.2 496.0,517.2" stroke="none" /><rect fill="#D4B87A" height="7.700000000000001" stroke="#333333" stroke-width="1.5" width="264.0" x="232.0" y="152.3" /><rect fill="#C8A96E" height="19.8" stroke="#333333" stroke-width="1" width="264.0" x="232.0" y="160" /><line stroke="#A08050" stroke-width="0.4" x1="232.0" x2="232.0" y1="160" y2="179.8" /><line stroke="#A08050" stroke-width="0.4" x1="267.2" x2="267.2" y1="160" y2="179.8" /><line stroke="#A08050" stroke-width="0.4" x1="302.4" x2="302.4" y1="160" y2="179.8" /><line stroke="#A08050" stroke-width="0.4" x1="337.59999999999997" x2="337.59999999999997" y1="160" y2="179.8" /><line stroke="#A08050" stroke-width="0.4" x1="372.79999999999995" x2="372.79999999999995" y1="160" y2="179.8" /><line stroke="#A08050" stroke-width="0.4" x1="407.99999999999994" x2="407.99999999999994" y1="160" y2="179.8" /><line stroke="#A08050" stroke-width="0.4" x1="443.19999999999993" x2="443.19999999999993" y1="160" y2="179.8" /><line stroke="#A08050" stroke-width="0.4" x1="478.3999999999999" x2="478.3999999999999" y1="160" y2="179.8" /><rect fill="#A07840" height="45.41999999999999" stroke="#333333" stroke-width="1" width="12.100000000000001" x="252.34999999999997" y="179.8" /><rect fill="#888" height="52.80000000000001" opacity="0.2" stroke="none" width="14.100000000000001" x="251.34999999999997" y="172.42" /><rect fill="#A07840" height="60.25999999999999" stroke="#333333" stroke-width="1" width="12.100000000000001" x="305.15" y="179.8" /><rect fill="#888" height="52.80000000000001" opacity="0.2" stroke="none" width="14.100000000000001" x="304.15" y="187.26" /><rect fill="#A07840" height="75.1" stroke="#333333" stroke-width="1" width="12.100000000000001" x="357.95" y="179.8" /><rect fill="#888" height="52.80000000000001" opacity="0.2" stroke="none" width="14.100000000000001" x="356.95" y="202.1" /><rect fill="#A07840" height="89.94" stroke="#333333" stroke-width="1" width="12.100000000000001" x="410.74999999999994" y="179.8" /><rect fill="#888" height="52.80000000000001" opacity="0.2" stroke="none" width="14.100000000000001" x="409.74999999999994" y="216.94" /><rect fill="#A07840" height="104.77999999999997" stroke="#333333" stroke-width="1" width="12.100000000000001" x="463.55" y="179.8" /><rect fill="#888" height="52.79999999999998" opacity="0.2" stroke="none" width="14.100000000000001" x="462.55" y="231.78" /><line stroke="#333333" stroke-width="1.5" x1="100.0" x2="232.0" y1="175.0" y2="152.3" /><polygon fill="#C4A265" opacity="0.45" points="601.6,437.20000000000005 601.6,318.4 786.4000000000001,318.4 804.681440210821,324.4742952974731 822.9628804216421,330.5485905949462 841.2443206324631,336.6228858924193 859.5257608432842,342.6971811898923 877.8072010541051,348.7714764873654 896.0886412649262,354.8457717848385 914.3700814757472,360.9200670823116 932.6515216865681,366.9943623797847 950.9329618973892,373.0686576772578 969.2144021082102,379.14295297473086 987.4958423190312,385.21724827220396 1005.7772825298522,391.29154356967706 1024.0587227406731,397.36583886715016 1042.3401629514942,403.44013416462326 1060.6216031623153,409.51442946209636 1078.9030433731361,415.58872475956946 1097.1844835839572,421.66302005704256 1115.4659237947783,427.7373153545156 1133.7473640055991,433.8116106519887 1152.0288042164202,439.8859059494618 1159.9488042164203,439.9195936908845 1167.8688042164201,440.02370373506494 1175.7888042164202,440.2014035899937 1183.7088042164203,440.45386019261684 1191.6288042164201,440.78012271988166 1199.5488042164202,441.17706436674075 1207.4688042164203,441.6393865348419 1215.38880421642,442.1596871214334 1223.3088042164202,442.7285927580655 1231.2288042164203,443.33495297473087 1239.14880421642,443.9660924106587 1247.0688042164202,444.6081154118464 1254.9888042164202,445.2462557000961 1262.9088042164203,445.8652623185736 1270.8288042164202,446.44981180027986 1278.7488042164202,446.984935508299 1286.6688042164203,447.4564503934882 1294.5888042164202,447.85138103184613 1302.5088042164202,448.15836075692977 1310.4288042164203,448.36800000000005 1310.4288042164203,448.36800000000005 1310,448.35942391567164 1306,448.27942391567166 1302,448.1994239156716 1298,448.11942391567163 1294,448.03942391567165 1290,447.95942391567166 1286,447.8794239156716 1282,447.79942391567164 1278,447.71942391567165 1274,447.6394239156716 1270,447.55942391567163 1266,447.47942391567165 1262,447.39942391567166 1258,447.3194239156716 1254,447.23942391567164 1250,447.15942391567165 1246,447.07942391567167 1242,446.9994239156716 1238,446.91942391567164 1234,446.83942391567166 1230,446.7594239156716 1226,446.67942391567163 1222,446.59942391567165 1218,446.51942391567167 1214,446.4394239156716 1210,446.35942391567164 1206,446.27942391567166 1202,446.1994239156716 1198,446.11942391567163 1194,446.03942391567165 1190,445.95942391567166 1186,445.8794239156716 1182,445.79942391567164 1178,445.71942391567165 1174,445.6394239156716 1170,445.55942391567163 1166,445.47942391567165 1162,445.39942391567166 1158,445.3194239156716 1154,445.23942391567164 1150,445.17051310976643 1146,445.1123766173538 1142,445.0542401249412 1138,444.9961036325286 1134,444.93796714011603 1130,444.87983064770344 1126,444.82169415529086 1122,444.76355766287827 1118,444.7054211704657 1114,444.6472846780531 1110,444.5891481856405 1106,444.5310116932279 1102,444.4728752008153 1098,444.4147387084027 1094,444.3566022159901 1090,444.2984657235775 1086,444.24032923116494 1082,444.18219273875235 1078,444.12405624633976 1074,444.0659197539272 1070,444.0077832615146 1066,443.949646769102 1062,443.89151027668936 1058,443.8333737842768 1054,443.7752372918642 1050,443.7171007994516 1046,443.658964307039 1042,443.6008278146264 1038,443.54269132221384 1034,443.48455482980125 1030,443.42641833738867 1026,443.3682818449761 1022,443.31014535256344 1018,443.25200886015085 1014,443.19387236773827 1010,443.1357358753257 1006,443.0775993829131 1002,443.0194628905005 998,442.9613263980879 994,442.90318990567533 990,442.84505341326275 986,442.78691692085016 982,442.7287804284375 978,442.67064393602493 974,442.61250744361234 970,442.55437095119976 966,442.49623445878717 962,442.4380979663746 958,442.379961473962 954,442.3218249815494 950,442.2636884891368 946,442.20555199672424 942,442.14741550431165 938,442.089279011899 934,442.0311425194864 930,441.97300602707384 926,441.91486953466125 922,441.85673304224866 918,441.7985965498361 914,441.7404600574235 910,441.6823235650109 906,441.6241870725983 902,441.56605058018573 898,441.5079140877731 894,441.4497775953605 890,441.3916411029479 886,441.33350461053533 882,441.27536811812274 878,441.21723162571016 874,441.15909513329757 870,441.100958640885 866,441.0428221484724 862,440.9846856560598 858,440.92654916364717 854,440.8684126712346 850,440.810276178822 846,440.7521396864094 842,440.6940031939968 838,440.63586670158423 834,440.57773020917165 830,440.51959371675906 826,440.4614572243465 822,440.4033207319339 818,440.34518423952125 814,440.28704774710866 810,440.2289112546961 806,440.1707747622835 802,440.1126382698709 798,440.0545017774583 794,439.9963652850457 790,439.93822879263314 786,439.88009230022055 782,439.82195580780797 778,439.7638193153954 774,439.70568282298274 770,439.64754633057015 766,439.58940983815756 762,439.531273345745 758,439.4731368533324 754,439.4150003609198 750,439.3568638685072 746,439.29872737609463 742,439.24059088368205 738,439.18245439126946 734,439.1243178988568 730,439.06618140644423 726,439.00804491403164 722,438.94990842161906 718,438.89177192920647 714,438.8336354367939 710,438.7754989443813 706,438.7173624519687 702,438.6592259595561 698,438.60108946714354 694,438.5429529747309 690,438.4848164823183 686,438.4266799899057 682,438.36854349749314 678,438.31040700508055 674,438.25227051266796 670,438.1941340202554 666,438.1359975278428 662,438.0778610354302 658,438.0197245430176 654,437.961588050605 650,437.9034515581924 646,437.8453150657798 642,437.7871785733672 638,437.7290420809546 634,437.67090558854204 630,437.61276909612945 626,437.55463260371687 622,437.4964961113043 618,437.4383596188917 614,437.38022312647905 610,437.32208663406647 606,437.2639501416539 602,437.2058136492413 601.6,437.20000000000005" stroke="none" /><ellipse cx="601.6" cy="428.40000000000003" fill="#A07840" rx="8.8" ry="8.8" stroke="#333333" stroke-width="1" /><circle cx="601.6" cy="428.40000000000003" fill="none" r="3.5200000000000005" stroke="#6B5030" stroke-width="0.5" /><circle cx="601.6" cy="428.40000000000003" fill="#6B5030" r="1.5" /><ellipse cx="601.6" cy="410.80000000000007" fill="#A07840" rx="8.8" ry="8.8" stroke="#333333" stroke-width="1" /><circle cx="601.6" cy="410.80000000000007" fill="none" r="3.5200000000000005" stroke="#6B5030" stroke-width="0.5" /><circle cx="601.6" cy="410.80000000000007" fill="#6B5030" r="1.5" /><ellipse cx="601.6" cy="393.20000000000005" fill="#A07840" rx="8.8" ry="8.8" stroke="#333333" stroke-width="1" /><circle cx="601.6" cy="393.20000000000005" fill="none" r="3.5200000000000005" stroke="#6B5030" stroke-width="0.5" /><circle cx="601.6" cy="393.20000000000005" fill="#6B5030" r="1.5" /><ellipse cx="601.6" cy="375.6" fill="#A07840" rx="8.8" ry="8.8" stroke="#333333" stroke-width="1" /><circle cx="601.6" cy="375.6" fill="none" r="3.5200000000000005" stroke="#6B5030" stroke-width="0.5" /><circle cx="601.6" cy="375.6" fill="#6B5030" r="1.5" /><ellipse cx="601.6" cy="358.00000000000006" fill="#A07840" rx="8.8" ry="8.8" stroke="#333333" stroke-width="1" /><circle cx="601.6" cy="358.00000000000006" fill="none" r="3.5200000000000005" stroke="#6B5030" stroke-width="0.5" /><circle cx="601.6" cy="358.00000000000006" fill="#6B5030" r="1.5" /><ellipse cx="601.6" cy="340.40000000000003" fill="#A07840" rx="8.8" ry="8.8" stroke="#333333" stroke-width="1" /><circle cx="601.6" cy="340.40000000000003" fill="none" r="3.5200000000000005" stroke="#6B5030" stroke-width="0.5" /><circle cx="601.6" cy="340.40000000000003" fill="#6B5030" r="1.5" /><line stroke="#333333" stroke-width="2.5" x1="601.6" x2="601.6" y1="437.20000000000005" y2="318.4" /><rect fill="#8B6B3D" height="10.56" opacity="0.6" stroke="#333333" stroke-width="0.75" width="105.60000000000001" x="601.6" y="396.7200000000001" /><text fill="#555" font-family="Arial, Helvetica, sans-serif" font-size="7px" font-style="italic" x="712.2" y="405.00000000000006">Deadman tie-back</text><rect fill="#8B6B3D" height="10.56" opacity="0.6" stroke="#333333" stroke-width="0.75" width="105.60000000000001" x="601.6" y="361.5200000000001" /><text fill="#555" font-family="Arial, Helvetica, sans-serif" font-size="7px" font-style="italic" x="712.2" y="369.80000000000007">Deadman tie-back</text><path d="M 601.6,318.4 L 786.4000000000001,318.4 L 804.681440210821,324.4742952974731 L 822.9628804216421,330.5485905949462 L 841.2443206324631,336.6228858924193 L 859.5257608432842,342.6971811898923 L 877.8072010541051,348.7714764873654 L 896.0886412649262,354.8457717848385 L 914.3700814757472,360.9200670823116 L 932.6515216865681,366.9943623797847 L 950.9329618973892,373.0686576772578 L 969.2144021082102,379.14295297473086 L 987.4958423190312,385.21724827220396 L 1005.7772825298522,391.29154356967706 L 1024.0587227406731,397.36583886715016 L 1042.3401629514942,403.44013416462326 L 1060.6216031623153,409.51442946209636 L 1078.9030433731361,415.58872475956946 L 1097.1844835839572,421.66302005704256 L 1115.4659237947783,427.7373153545156 L 1133.7473640055991,433.8116106519887 L 1152.0288042164202,439.8859059494618 L 1159.9488042164203,439.9195936908845 L 1167.8688042164201,440.02370373506494 L 1175.7888042164202,440.2014035899937 L 1183.7088042164203,440.45386019261684 L 1191.6288042164201,440.78012271988166 L 1199.5488042164202,441.17706436674075 L 1207.4688042164203,441.6393865348419 L 1215.38880421642,442.1596871214334 L 1223.3088042164202,442.7285927580655 L 1231.2288042164203,443.33495297473087 L 1239.14880421642,443.9660924106587 L 1247.0688042164202,444.6081154118464 L 1254.9888042164202,445.2462557000961 L 1262.9088042164203,445.8652623185736 L 1270.8288042164202,446.44981180027986 L 1278.7488042164202,446.984935508299 L 1286.6688042164203,447.4564503934882 L 1294.5888042164202,447.85138103184613 L 1302.5088042164202,448.15836075692977 L 1310.4288042164203,448.36800000000005 " fill="none" stroke="#333333" stroke-width="2.5" /><line stroke="#CC0000" stroke-dasharray="3,2" stroke-width="0.6" x1="521.6" x2="599.6" y1="377.8" y2="377.8" /><text fill="#CC0000" font-family="Arial, Helvetica, sans-serif" font-size="9px" font-weight="bold" x="521.6" y="374.8">Log crib wall (vertical)</text><line stroke="#333333" stroke-width="1.5" x1="1310.4288042164203" x2="1416.0288042164202" y1="448.36800000000005" y2="450.48" /><path d="M 496.0,152.3 L 511.4,152.63304451378758 L 526.8,153.63217805515032 L 542.2,155.29740062408823 L 557.6,157.6287122206013 L 573.0,160.62611284468952 L 588.4,164.2896024963529 L 603.8,168.61918117559145 L 619.2,173.61484888240514 L 634.6,179.276605616794 L 650.0,185.60445137875803 L 665.4,192.5983861682972 L 680.8,200.25840998541156 L 696.2,208.58452283010104 L 711.6,217.5767247023657 L 727.0,227.23501560220552 L 742.4,237.55939552962053 L 757.8,248.54986448461068 L 773.2,260.20642246717597 L 788.6,272.5290694773164 L 804.0,285.5178055150321 L 819.4000000000001,299.17263058032285 L 834.8,313.49354467318875 L 850.2,328.4805477936299 L 865.6,344.13363994164615 " fill="none" opacity="0.5" stroke="#CC0000" stroke-dasharray="8,5" stroke-width="1.2" /><text fill="#CC0000" font-family="Arial, Helvetica, sans-serif" font-size="8px" font-style="italic" opacity="0.6" text-anchor="middle" x="640.8" y="192.25840998541156">Flight path</text><circle cx="865.6" cy="344.13363994164615" fill="#CC0000" opacity="0.6" r="4" /><line stroke="#CC0000" stroke-dasharray="3,2" stroke-width="0.6" x1="880.6" x2="865.6" y1="329.13363994164615" y2="344.13363994164615" /><text fill="#CC0000" font-family="Arial, Helvetica, sans-serif" font-size="9px" font-weight="bold" x="880.6" y="326.13363994164615">Sweet spot (9')</text><line stroke="#0055AA" stroke-width="0.5" x1="232.0" x2="232.0" y1="149.3" y2="119.30000000000001" /><line stroke="#0055AA" stroke-width="0.5" x1="496.0" x2="496.0" y1="149.3" y2="119.30000000000001" /><line stroke="#0055AA" stroke-width="0.75" x1="232.0" x2="496.0" y1="122.30000000000001" y2="122.30000000000001" /><polygon fill="#0055AA" points="232.0,122.30000000000001 227.46846106481675,124.41309130870351 227.46846106481675,120.18690869129651" stroke="none" /><polygon fill="#0055AA" points="496.0,122.30000000000001 500.5315389351833,120.18690869129651 500.5315389351832,124.41309130870351" stroke="none" /><rect fill="white" height="13" stroke="none" width="39.0" x="344.5" y="112.30000000000001" /><text fill="#0055AA" font-family="Arial, Helvetica, sans-serif" font-size="10px" text-anchor="middle" x="364.0" y="121.30000000000001">10'-0"</text><line stroke="#0055AA" stroke-width="0.5" x1="504.0" x2="529.0" y1="152.3" y2="152.3" /><line stroke="#0055AA" stroke-width="0.5" x1="504.0" x2="529.0" y1="239.2" y2="239.2" /><line stroke="#0055AA" stroke-width="0.75" x1="526.0" x2="526.0" y1="152.3" y2="239.2" /><polygon fill="#0055AA" points="526.0,152.3 523.8869086912965,147.76846106481676 528.1130913087035,147.76846106481676" stroke="none" /><polygon fill="#0055AA" points="526.0,239.2 528.1130913087035,243.73153893518324 523.8869086912965,243.73153893518324" stroke="none" /><text fill="#0055AA" font-family="Arial, Helvetica, sans-serif" font-size="10px" text-anchor="middle" transform="translate(521.0,195.75) rotate(-90)" x="0" y="0">3'-0"</text><line stroke="#0055AA" stroke-width="0.5" x1="483.0" x2="438.0" y1="152.3" y2="152.3" /><line stroke="#0055AA" stroke-width="0.5" x1="483.0" x2="438.0" y1="437.20000000000005" y2="437.20000000000005" /><line stroke="#0055AA" stroke-width="0.75" x1="441.0" x2="441.0" y1="152.3" y2="437.20000000000005" /><polygon fill="#0055AA" points="441.0,152.3 438.8869086912965,147.76846106481676 443.1130913087035,147.76846106481676" stroke="none" /><polygon fill="#0055AA" points="441.0,437.20000000000005 443.1130913087035,441.73153893518327 438.8869086912965,441.7315389351833" stroke="none" /><text fill="#0055AA" font-family="Arial, Helvetica, sans-serif" font-size="10px" text-anchor="middle" transform="translate(436.0,294.75) rotate(-90)" x="0" y="0">10'-6"</text><line stroke="#0055AA" stroke-width="0.5" x1="799.4000000000001" x2="844.4000000000001" y1="152.3" y2="152.3" /><line stroke="#0055AA" stroke-width="0.5" x1="799.4000000000001" x2="844.4000000000001" y1="318.4" y2="318.4" /><line stroke="#0055AA" stroke-width="0.75" x1="841.4000000000001" x2="841.4000000000001" y1="152.3" y2="318.4" /><polygon fill="#0055AA" points="841.4000000000001,152.3 839.2869086912966,147.76846106481676 843.5130913087036,147.76846106481676" stroke="none" /><polygon fill="#0055AA" points="841.4000000000001,318.4 843.5130913087036,322.9315389351832 839.2869086912966,322.93153893518326" stroke="none" /><text fill="#0055AA" font-family="Arial, Helvetica, sans-serif" font-size="10px" text-anchor="middle" transform="translate(836.4000000000001,235.35) rotate(-90)" x="0" y="0">6'-0"</text><line stroke="#0055AA" stroke-width="0.5" x1="799.4000000000001" x2="879.4000000000001" y1="318.4" y2="318.4" /><line stroke="#0055AA" stroke-width="0.5" x1="799.4000000000001" x2="879.4000000000001" y1="439.8859059494618" y2="439.8859059494618" /><line stroke="#0055AA" stroke-width="0.75" x1="876.4000000000001" x2="876.4000000000001" y1="318.4" y2="439.8859059494618" /><polygon fill="#0055AA" points="876.4000000000001,318.4 874.2869086912966,313.8684610648167 878.5130913087036,313.86846106481676" stroke="none" /><polygon fill="#0055AA" points="876.4000000000001,439.8859059494618 878.5130913087036,444.4174448846451 874.2869086912966,444.4174448846451" stroke="none" /><text fill="#0055AA" font-family="Arial, Helvetica, sans-serif" font-size="10px" text-anchor="middle" transform="translate(871.4000000000001,379.14295297473086) rotate(-90)" x="0" y="0">4'-6"</text><line stroke="#0055AA" stroke-width="0.5" x1="496.0" x2="496.0" y1="149.3" y2="94.30000000000001" /><line stroke="#0055AA" stroke-width="0.5" x1="865.6" x2="865.6" y1="149.3" y2="94.30000000000001" /><line stroke="#0055AA" stroke-width="0.75" x1="496.0" x2="865.6" y1="97.30000000000001" y2="97.30000000000001" /><polygon fill="#0055AA" points="496.0,97.30000000000001 491.4684610648168,99.41309130870351 491.4684610648168,95.18690869129651" stroke="none" /><polygon fill="#0055AA" points="865.6,97.30000000000001 870.1315389351832,95.18690869129651 870.1315389351832,99.41309130870351" stroke="none" /><rect fill="white" height="13" stroke="none" width="39.0" x="661.3" y="87.30000000000001" /><text fill="#0055AA" font-family="Arial, Helvetica, sans-serif" font-size="10px" text-anchor="middle" x="680.8" y="96.30000000000001">14'-0"</text><line stroke="#0055AA" stroke-width="0.5" x1="496.0" x2="496.0" y1="440.20000000000005" y2="470.20000000000005" /><line stroke="#0055AA" stroke-width="0.5" x1="786.4000000000001" x2="786.4000000000001" y1="440.20000000000005" y2="470.20000000000005" /><line stroke="#0055AA" stroke-width="0.75" x1="496.0" x2="786.4000000000001" y1="467.20000000000005" y2="467.20000000000005" /><polygon fill="#0055AA" points="496.0,467.20000000000005 491.4684610648168,469.3130913087035 491.4684610648168,465.08690869129657" stroke="none" /><polygon fill="#0055AA" points="786.4000000000001,467.20000000000005 790.9315389351833,465.08690869129657 790.9315389351833,469.3130913087035" stroke="none" /><rect fill="white" height="13" stroke="none" width="39.0" x="621.7" y="457.20000000000005" /><text fill="#0055AA" font-family="Arial, Helvetica, sans-serif" font-size="10px" text-anchor="middle" x="641.2" y="466.20000000000005">11'-0"</text><line stroke="#0055AA" stroke-width="0.5" x1="496.0" x2="496.0" y1="440.20000000000005" y2="495.20000000000005" /><line stroke="#0055AA" stroke-width="0.5" x1="601.6" x2="601.6" y1="440.20000000000005" y2="495.20000000000005" /><line stroke="#0055AA" stroke-width="0.75" x1="496.0" x2="601.6" y1="492.20000000000005" y2="492.20000000000005" /><polygon fill="#0055AA" points="496.0,492.20000000000005 491.4684610648168,494.3130913087035 491.4684610648168,490.08690869129657" stroke="none" /><polygon fill="#0055AA" points="601.6,492.20000000000005 606.1315389351832,490.08690869129657 606.1315389351832,494.3130913087035" stroke="none" /><rect fill="white" height="13" stroke="none" width="32.5" x="532.55" y="482.20000000000005" /><text fill="#0055AA" font-family="Arial, Helvetica, sans-serif" font-size="10px" text-anchor="middle" x="548.8" y="491.20000000000005">4'-0"</text><line stroke="#CC0000" stroke-dasharray="3,2" stroke-width="0.5" x1="786.4000000000001" x2="831.4000000000001" y1="318.4" y2="318.4" /><path d="M 821.4000000000001,318.4 A 35,35 0 0,1 819.6869780703305,329.2155948031231" fill="none" stroke="#CC0000" stroke-width="1" /><text fill="#CC0000" font-family="Arial, Helvetica, sans-serif" font-size="10px" font-weight="bold" x="834.7967286891618" y="329.0652887869713">18.0°</text><line stroke="#0055AA" stroke-width="0.5" x1="786.4000000000001" x2="786.4000000000001" y1="440.20000000000005" y2="470.20000000000005" /><line stroke="#0055AA" stroke-width="0.5" x1="1152.0288042164202" x2="1152.0288042164202" y1="440.20000000000005" y2="470.20000000000005" /><line stroke="#0055AA" stroke-width="0.75" x1="786.4000000000001" x2="1152.0288042164202" y1="467.20000000000005" y2="467.20000000000005" /><polygon fill="#0055AA" points="786.4000000000001,467.20000000000005 781.8684610648169,469.3130913087035 781.8684610648169,465.08690869129657" stroke="none" /><polygon fill="#0055AA" points="1152.0288042164202,467.20000000000005 1156.5603431516035,465.08690869129657 1156.5603431516035,469.3130913087035" stroke="none" /><rect fill="white" height="13" stroke="none" width="130.0" x="904.2144021082102" y="457.20000000000005" /><text fill="#0055AA" font-family="Arial, Helvetica, sans-serif" font-size="10px" text-anchor="middle" x="969.2144021082102" y="466.20000000000005">Landing run: 13'-10"</text><text fill="#CC0000" font-family="Arial, Helvetica, sans-serif" font-size="9px" font-weight="bold" x="252.0" y="139.3">Bridge: 10'-0" x 2'-0"</text><text fill="#CC0000" font-family="Arial, Helvetica, sans-serif" font-size="9px" font-weight="bold" x="410.4" y="191.66">6x6 pylons into hillside</text><text fill="#CC0000" font-family="Arial, Helvetica, sans-serif" font-size="9px" font-weight="bold" x="896.0886412649261" y="366.8457717848385">Compact lander fill in 6" lifts</text><text fill="#CC0000" font-family="Arial, Helvetica, sans-serif" font-size="9px" font-weight="bold" x="1102.0288042164202" y="451.8859059494618">18° landing slope</text><text fill="#CC0000" font-family="Arial, Helvetica, sans-serif" font-size="9px" font-weight="bold" x="1336.0288042164202" y="459.48">Smooth transition to flat</text><text fill="#CC0000" font-family="Arial, Helvetica, sans-serif" font-size="9px" font-weight="bold" x="488.79999999999995" y="315.20000000000005">Steep hillside</text><line stroke="#CC0000" stroke-dasharray="3,2" stroke-width="0.6" x1="521.6" x2="592.8000000000001" y1="410.80000000000007" y2="410.80000000000007" /><text fill="#CC0000" font-family="Arial, Helvetica, sans-serif" font-size="9px" font-weight="bold" x="521.6" y="407.80000000000007">8.0" dia. logs</text><text fill="#555" font-family="Arial, Helvetica, sans-serif" font-size="8px" font-style="italic" text-anchor="middle" x="364.0" y="149.3">BRIDGE DECK</text><text fill="#555" font-family="Arial, Helvetica, sans-serif" font-size="9px" font-weight="bold" text-anchor="middle" x="896.0886412649261" y="310.4">LOG CRIB LANDER</text></g><g><text fill="#222" font-family="Arial, Helvetica, sans-serif" font-size="14px" font-weight="bold" text-anchor="middle" x="788.0144021082101" y="642.2">TOP VIEW (PLAN)</text><rect fill="#E8E0D0" height="52.800000000000004" stroke="#333333" stroke-width="1" width="132.0" x="100.0" y="690.8000000000001" /><text fill="#555" font-family="Arial, Helvetica, sans-serif" font-size="8px" font-style="italic" text-anchor="middle" x="166.0" y="721.2">Trail</text><rect fill="#D4B87A" height="52.800000000000004" stroke="#333333" stroke-width="1.5" width="264.0" x="232.0" y="690.8000000000001" /><line stroke="#B89860" stroke-width="0.3" x1="232" x2="232" y1="690.8000000000001" y2="743.6" /><line stroke="#B89860" stroke-width="0.3" x1="244" x2="244" y1="690.8000000000001" y2="743.6" /><line stroke="#B89860" stroke-width="0.3" x1="256" x2="256" y1="690.8000000000001" y2="743.6" /><line stroke="#B89860" stroke-width="0.3" x1="268" x2="268" y1="690.8000000000001" y2="743.6" /><line stroke="#B89860" stroke-width="0.3" x1="280" x2="280" y1="690.8000000000001" y2="743.6" /><line stroke="#B89860" stroke-width="0.3" x1="292" x2="292" y1="690.8000000000001" y2="743.6" /><line stroke="#B89860" stroke-width="0.3" x1="304" x2="304" y1="690.8000000000001" y2="743.6" /><line stroke="#B89860" stroke-width="0.3" x1="316" x2="316" y1="690.8000000000001" y2="743.6" /><line stroke="#B89860" stroke-width="0.3" x1="328" x2="328" y1="690.8000000000001" y2="743.6" /><line stroke="#B89860" stroke-width="0.3" x1="340" x2="340" y1="690.8000000000001" y2="743.6" /><line stroke="#B89860" stroke-width="0.3" x1="352" x2="352" y1="690.8000000000001" y2="743.6" /><line stroke="#B89860" stroke-width="0.3" x1="364" x2="364" y1="690.8000000000001" y2="743.6" /><line stroke="#B89860" stroke-width="0.3" x1="376" x2="376" y1="690.8000000000001" y2="743.6" /><line stroke="#B89860" stroke-width="0.3" x1="388" x2="388" y1="690.8000000000001" y2="743.6" /><line stroke="#B89860" stroke-width="0.3" x1="400" x2="400" y1="690.8000000000001" y2="743.6" /><line stroke="#B89860" stroke-width="0.3" x1="412" x2="412" y1="690.8000000000001" y2="743.6" /><line stroke="#B89860" stroke-width="0.3" x1="424" x2="424" y1="690.8000000000001" y2="743.6" /><line stroke="#B89860" stroke-width="0.3" x1="436" x2="436" y1="690.8000000000001" y2="743.6" /><line stroke="#B89860" stroke-width="0.3" x1="448" x2="448" y1="690.8000000000001" y2="743.6" /><line stroke="#B89860" stroke-width="0.3" x1="460" x2="460" y1="690.8000000000001" y2="743.6" /><line stroke="#B89860" stroke-width="0.3" x1="472" x2="472" y1="690.8000000000001" y2="743.6" /><line stroke="#B89860" stroke-width="0.3" x1="484" x2="484" y1="690.8000000000001" y2="743.6" /><text fill="#555" font-family="Arial, Helvetica, sans-serif" font-size="9px" font-weight="bold" text-anchor="middle" x="364.0" y="721.2">BRIDGE</text><rect fill="#F8F4F0" height="82.80000000000001" stroke="#333333" stroke-dasharray="4,2" stroke-width="0.5" width="105.60000000000001" x="496.0" y="675.8000000000001" /><line stroke="#DDD" stroke-width="0.4" x1="496" x2="514" y1="680.8000000000001" y2="753.6" /><line stroke="#DDD" stroke-width="0.4" x1="506" x2="524" y1="680.8000000000001" y2="753.6" /><line stroke="#DDD" stroke-width="0.4" x1="516" x2="534" y1="680.8000000000001" y2="753.6" /><line stroke="#DDD" stroke-width="0.4" x1="526" x2="544" y1="680.8000000000001" y2="753.6" /><line stroke="#DDD" stroke-width="0.4" x1="536" x2="554" y1="680.8000000000001" y2="753.6" /><line stroke="#DDD" stroke-width="0.4" x1="546" x2="564" y1="680.8000000000001" y2="753.6" /><line stroke="#DDD" stroke-width="0.4" x1="556" x2="574" y1="680.8000000000001" y2="753.6" /><line stroke="#DDD" stroke-width="0.4" x1="566" x2="584" y1="680.8000000000001" y2="753.6" /><line stroke="#DDD" stroke-width="0.4" x1="576" x2="594" y1="680.8000000000001" y2="753.6" /><line stroke="#DDD" stroke-width="0.4" x1="586" x2="604" y1="680.8000000000001" y2="753.6" /><line stroke="#DDD" stroke-width="0.4" x1="596" x2="614" y1="680.8000000000001" y2="753.6" /><text fill="#CC0000" font-family="Arial, Helvetica, sans-serif" font-size="9px" font-weight="bold" text-anchor="middle" x="548.8" y="721.2">GAP / DROP ZONE</text><polygon fill="#C4A265" opacity="0.45" points="601.6,638.0 1152.0288042164202,661.76 1310.4288042164203,690.8000000000001 1310.4288042164203,743.6 1152.0288042164202,772.6400000000001 601.6,796.4000000000001" stroke="#333333" stroke-width="1" /><rect fill="#8B6B3D" height="158.4" stroke="#333333" stroke-width="1.5" width="17.6" x="584.0" y="638.0" /><line stroke="#6B5030" stroke-width="0.5" x1="584.0" x2="601.6" y1="638.0" y2="638.0" /><line stroke="#6B5030" stroke-width="0.5" x1="584.0" x2="601.6" y1="652.08" y2="652.08" /><line stroke="#6B5030" stroke-width="0.5" x1="584.0" x2="601.6" y1="666.16" y2="666.16" /><line stroke="#6B5030" stroke-width="0.5" x1="584.0" x2="601.6" y1="680.24" y2="680.24" /><line stroke="#6B5030" stroke-width="0.5" x1="584.0" x2="601.6" y1="694.32" y2="694.32" /><line stroke="#6B5030" stroke-width="0.5" x1="584.0" x2="601.6" y1="708.4" y2="708.4" /><line stroke="#6B5030" stroke-width="0.5" x1="584.0" x2="601.6" y1="722.48" y2="722.48" /><line stroke="#6B5030" stroke-width="0.5" x1="584.0" x2="601.6" y1="736.5600000000001" y2="736.5600000000001" /><line stroke="#6B5030" stroke-width="0.5" x1="584.0" x2="601.6" y1="750.64" y2="750.64" /><line stroke="#6B5030" stroke-width="0.5" x1="584.0" x2="601.6" y1="764.72" y2="764.72" /><line stroke="#6B5030" stroke-width="0.5" x1="584.0" x2="601.6" y1="778.8" y2="778.8" /><rect fill="#8B6B3D" height="17.6" stroke="#333333" stroke-width="1" width="219.3772825298521" x="601.6" y="638.0" /><rect fill="#8B6B3D" height="17.6" stroke="#333333" stroke-width="1" width="219.3772825298521" x="601.6" y="778.8000000000001" /><line stroke="#6B5030" stroke-width="0.5" x1="601.6" x2="601.6" y1="638.0" y2="655.6" /><line stroke="#6B5030" stroke-width="0.5" x1="601.6" x2="601.6" y1="778.8000000000001" y2="796.4000000000001" /><line stroke="#6B5030" stroke-width="0.5" x1="615.6800000000001" x2="615.6800000000001" y1="638.0" y2="655.6" /><line stroke="#6B5030" stroke-width="0.5" x1="615.6800000000001" x2="615.6800000000001" y1="778.8000000000001" y2="796.4000000000001" /><line stroke="#6B5030" stroke-width="0.5" x1="629.76" x2="629.76" y1="638.0" y2="655.6" /><line stroke="#6B5030" stroke-width="0.5" x1="629.76" x2="629.76" y1="778.8000000000001" y2="796.4000000000001" /><line stroke="#6B5030" stroke-width="0.5" x1="643.84" x2="643.84" y1="638.0" y2="655.6" /><line stroke="#6B5030" stroke-width="0.5" x1="643.84" x2="643.84" y1="778.8000000000001" y2="796.4000000000001" /><line stroke="#6B5030" stroke-width="0.5" x1="657.9200000000001" x2="657.9200000000001" y1="638.0" y2="655.6" /><line stroke="#6B5030" stroke-width="0.5" x1="657.9200000000001" x2="657.9200000000001" y1="778.8000000000001" y2="796.4000000000001" /><line stroke="#6B5030" stroke-width="0.5" x1="672.0" x2="672.0" y1="638.0" y2="655.6" /><line stroke="#6B5030" stroke-width="0.5" x1="672.0" x2="672.0" y1="778.8000000000001" y2="796.4000000000001" /><line stroke="#6B5030" stroke-width="0.5" x1="686.08" x2="686.08" y1="638.0" y2="655.6" /><line stroke="#6B5030" stroke-width="0.5" x1="686.08" x2="686.08" y1="778.8000000000001" y2="796.4000000000001" /><line stroke="#6B5030" stroke-width="0.5" x1="700.1600000000001" x2="700.1600000000001" y1="638.0" y2="655.6" /><line stroke="#6B5030" stroke-width="0.5" x1="700.1600000000001" x2="700.1600000000001" y1="778.8000000000001" y2="796.4000000000001" /><line stroke="#6B5030" stroke-width="0.5" x1="714.24" x2="714.24" y1="638.0" y2="655.6" /><line stroke="#6B5030" stroke-width="0.5" x1="714.24" x2="714.24" y1="778.8000000000001" y2="796.4000000000001" /><line stroke="#6B5030" stroke-width="0.5" x1="728.32" x2="728.32" y1="638.0" y2="655.6" /><line stroke="#6B5030" stroke-width="0.5" x1="728.32" x2="728.32" y1="778.8000000000001" y2="796.4000000000001" /><line stroke="#6B5030" stroke-width="0.5" x1="742.4000000000001" x2="742.4000000000001" y1="638.0" y2="655.6" /><line stroke="#6B5030" stroke-width="0.5" x1="742.4000000000001" x2="742.4000000000001" y1="778.8000000000001" y2="796.4000000000001" /><line stroke="#6B5030" stroke-width="0.5" x1="756.48" x2="756.48" y1="638.0" y2="655.6" /><line stroke="#6B5030" stroke-width="0.5" x1="756.48" x2="756.48" y1="778.8000000000001" y2="796.4000000000001" /><line stroke="#6B5030" stroke-width="0.5" x1="770.5600000000001" x2="770.5600000000001" y1="638.0" y2="655.6" /><line stroke="#6B5030" stroke-width="0.5" x1="770.5600000000001" x2="770.5600000000001" y1="778.8000000000001" y2="796.4000000000001" /><line stroke="#6B5030" stroke-width="0.5" x1="784.6400000000001" x2="784.6400000000001" y1="638.0" y2="655.6" /><line stroke="#6B5030" stroke-width="0.5" x1="784.6400000000001" x2="784.6400000000001" y1="778.8000000000001" y2="796.4000000000001" /><line stroke="#6B5030" stroke-width="0.5" x1="798.72" x2="798.72" y1="638.0" y2="655.6" /><line stroke="#6B5030" stroke-width="0.5" x1="798.72" x2="798.72" y1="778.8000000000001" y2="796.4000000000001" /><text fill="#CC0000" font-family="Arial, Helvetica, sans-serif" font-size="7px" font-weight="bold" text-anchor="middle" x="592.8000000000001" y="630.0">Log crib wall (back)</text><text fill="#CC0000" font-family="Arial, Helvetica, sans-serif" font-size="7px" text-anchor="middle" x="711.2886412649261" y="635.0">Side crib</text><text fill="#CC0000" font-family="Arial, Helvetica, sans-serif" font-size="7px" text-anchor="middle" x="711.2886412649261" y="806.4000000000001">Side crib</text><rect fill="#8B6B3D" height="10.56" opacity="0.4" stroke="#333333" stroke-width="0.5" width="79.2" x="601.6" y="672.32" /><rect fill="#8B6B3D" height="10.56" opacity="0.4" stroke="#333333" stroke-width="0.5" width="79.2" x="601.6" y="711.9200000000001" /><rect fill="#8B6B3D" height="10.56" opacity="0.4" stroke="#333333" stroke-width="0.5" width="79.2" x="601.6" y="751.52" /><line stroke="#CC0000" stroke-dasharray="4,3" stroke-width="1" x1="865.6" x2="865.6" y1="643.0" y2="791.4000000000001" /><text fill="#CC0000" font-family="Arial, Helvetica, sans-serif" font-size="8px" font-weight="bold" text-anchor="middle" x="865.6" y="810.4000000000001">Sweet spot (9')</text><text fill="#555" font-family="Arial, Helvetica, sans-serif" font-size="9px" font-weight="bold" text-anchor="middle" x="969.2144021082102" y="721.2">LANDER (fill)</text><text fill="#555" font-family="Arial, Helvetica, sans-serif" font-size="8px" font-style="italic" text-anchor="middle" x="969.2144021082102" y="733.2">18° landing slope</text><rect fill="#E8E0D0" height="52.800000000000004" stroke="#333333" stroke-width="1" width="105.60000000000001" x="1310.4288042164203" y="690.8000000000001" /><text fill="#555" font-family="Arial, Helvetica, sans-serif" font-size="8px" font-style="italic" text-anchor="middle" x="1363.2288042164203" y="721.2">Runout</text><path d="M 496.0,753.6 C 556.0,851.4000000000001 865.6,851.4000000000001 1152.0288042164202,753.6" fill="none" stroke="#66AA66" stroke-dasharray="6,3" stroke-width="1.5" /><text fill="#66AA66" font-family="Arial, Helvetica, sans-serif" font-size="9px" font-style="italic" text-anchor="middle" x="824.0144021082101" y="866.4000000000001">Bypass / roll-around</text><line stroke="#0055AA" stroke-width="0.5" x1="232.0" x2="232.0" y1="687.8000000000001" y2="662.8000000000001" /><line stroke="#0055AA" stroke-width="0.5" x1="496.0" x2="496.0" y1="687.8000000000001" y2="662.8000000000001" /><line stroke="#0055AA" stroke-width="0.75" x1="232.0" x2="496.0" y1="665.8000000000001" y2="665.8000000000001" /><polygon fill="#0055AA" points="232.0,665.8000000000001 227.46846106481675,667.9130913087035 227.46846106481675,663.6869086912966" stroke="none" /><polygon fill="#0055AA" points="496.0,665.8000000000001 500.5315389351833,663.6869086912966 500.5315389351832,667.9130913087035" stroke="none" /><rect fill="white" height="13" stroke="none" width="39.0" x="344.5" y="655.8000000000001" /><text fill="#0055AA" font-family="Arial, Helvetica, sans-serif" font-size="10px" text-anchor="middle" x="364.0" y="664.8000000000001">10'-0"</text><line stroke="#0055AA" stroke-width="0.5" x1="219.0" x2="189.0" y1="690.8000000000001" y2="690.8000000000001" /><line stroke="#0055AA" stroke-width="0.5" x1="219.0" x2="189.0" y1="743.6" y2="743.6" /><line stroke="#0055AA" stroke-width="0.75" x1="192.0" x2="192.0" y1="690.8000000000001" y2="743.6" /><polygon fill="#0055AA" points="192.0,690.8000000000001 189.8869086912965,686.2684610648168 194.1130913087035,686.2684610648168" stroke="none" /><polygon fill="#0055AA" points="192.0,743.6 194.1130913087035,748.1315389351832 189.8869086912965,748.1315389351832" stroke="none" /><text fill="#0055AA" font-family="Arial, Helvetica, sans-serif" font-size="10px" text-anchor="middle" transform="translate(187.0,717.2) rotate(-90)" x="0" y="0">2'-0"</text><line stroke="#0055AA" stroke-width="0.5" x1="496.0" x2="496.0" y1="687.8000000000001" y2="662.8000000000001" /><line stroke="#0055AA" stroke-width="0.5" x1="601.6" x2="601.6" y1="687.8000000000001" y2="662.8000000000001" /><line stroke="#0055AA" stroke-width="0.75" x1="496.0" x2="601.6" y1="665.8000000000001" y2="665.8000000000001" /><polygon fill="#0055AA" points="496.0,665.8000000000001 491.4684610648168,667.9130913087035 491.4684610648168,663.6869086912966" stroke="none" /><polygon fill="#0055AA" points="601.6,665.8000000000001 606.1315389351832,663.6869086912966 606.1315389351832,667.9130913087035" stroke="none" /><rect fill="white" height="13" stroke="none" width="32.5" x="532.55" y="655.8000000000001" /><text fill="#0055AA" font-family="Arial, Helvetica, sans-serif" font-size="10px" text-anchor="middle" x="548.8" y="664.8000000000001">4'-0"</text><line stroke="#0055AA" stroke-width="0.5" x1="496.0" x2="496.0" y1="635.0" y2="610.0" /><line stroke="#0055AA" stroke-width="0.5" x1="865.6" x2="865.6" y1="635.0" y2="610.0" /><line stroke="#0055AA" stroke-width="0.75" x1="496.0" x2="865.6" y1="613.0" y2="613.0" /><polygon fill="#0055AA" points="496.0,613.0 491.4684610648168,615.1130913087035 491.4684610648168,610.8869086912965" stroke="none" /><polygon fill="#0055AA" points="865.6,613.0 870.1315389351832,610.8869086912965 870.1315389351832,615.1130913087035" stroke="none" /><rect fill="white" height="13" stroke="none" width="39.0" x="661.3" y="603.0" /><text fill="#0055AA" font-family="Arial, Helvetica, sans-serif" font-size="10px" text-anchor="middle" x="680.8" y="612.0">14'-0"</text></g><g><text fill="#111" font-family="Arial, Helvetica, sans-serif" font-size="11px" font-weight="bold" x="100" y="969.2">NOTES:</text><text fill="#333" font-family="Arial, Helvetica, sans-serif" font-size="10px" x="110" y="985.2">1. All dimensions in inches unless noted</text><text fill="#333" font-family="Arial, Helvetica, sans-serif" font-size="10px" x="110" y="1001.2">2. Bridge: pressure-treated lumber or rot-resistant species (cedar, locust)</text><text fill="#333" font-family="Arial, Helvetica, sans-serif" font-size="10px" x="110" y="1017.2">3. Pylons: 6x6 PT posts driven/buried min 24" into hillside with compacted gravel</text><text fill="#333" font-family="Arial, Helvetica, sans-serif" font-size="10px" x="110" y="1033.2">4. All hardware: hot-dipped galvanized or stainless steel</text><text fill="#333" font-family="Arial, Helvetica, sans-serif" font-size="10px" x="110" y="1049.2">5. Attach non-slip mesh (chicken wire) to bridge deck surface</text><text fill="#333" font-family="Arial, Helvetica, sans-serif" font-size="10px" x="110" y="1065.2">6. Lander: compact fill in 6" lifts with plate compactor</text><text fill="#333" font-family="Arial, Helvetica, sans-serif" font-size="10px" x="110" y="1081.2">7. Use mineral soil only (clay/gravel mix, no organics)</text><text fill="#333" font-family="Arial, Helvetica, sans-serif" font-size="10px" x="110" y="1097.2">8. Landing slope (18.0°) provides gradual deceleration — no kicker at base</text><text fill="#333" font-family="Arial, Helvetica, sans-serif" font-size="10px" x="110" y="1113.2">9. Rider must have clear sight line from bridge to landing zone</text><text fill="#333" font-family="Arial, Helvetica, sans-serif" font-size="10px" x="110" y="1129.2">10. ALWAYS provide a bypass / roll-around for this feature</text><text fill="#333" font-family="Arial, Helvetica, sans-serif" font-size="10px" x="110" y="1145.2">11. Total vertical drop from deck to lander peak: 6'-0" — expert-level feature</text><text fill="#333" font-family="Arial, Helvetica, sans-serif" font-size="10px" x="110" y="1161.2">12. Log crib wall: 8.0" dia. logs, peeled, stacked horizontally, pinned with #4 rebar</text><text fill="#333" font-family="Arial, Helvetica, sans-serif" font-size="10px" x="110" y="1177.2">13. Pin each log course to the one below — drive 24" rebar through pre-drilled holes</text><text fill="#333" font-family="Arial, Helvetica, sans-serif" font-size="10px" x="110" y="1193.2">14. Deadman tie-backs every 2-3 courses extending 4 ft into compacted fill behind wall</text><text fill="#333" font-family="Arial, Helvetica, sans-serif" font-size="10px" x="110" y="1209.2">15. Place 3/4" crushed gravel behind crib wall with filter fabric for drainage</text><text fill="#333" font-family="Arial, Helvetica, sans-serif" font-size="10px" x="110" y="1225.2">16. Bottom course of logs set on compacted gravel pad, first rebar pins driven into native soil</text><text fill="#111" font-family="Arial, Helvetica, sans-serif" font-size="11px" font-weight="bold" x="100" y="1251.2">MATERIALS:</text><rect fill="#E8E8E8" height="18" stroke="#AAA" stroke-width="0.5" width="650" x="100" y="1256.2" /><text fill="#111" font-family="Arial, Helvetica, sans-serif" font-size="10px" font-weight="bold" x="105" y="1269.2">Item</text><text fill="#111" font-family="Arial, Helvetica, sans-serif" font-size="10px" font-weight="bold" x="295" y="1269.2">Size</text><text fill="#111" font-family="Arial, Helvetica, sans-serif" font-size="10px" font-weight="bold" x="415" y="1269.2">Qty</text><text fill="#111" font-family="Arial, Helvetica, sans-serif" font-size="10px" font-weight="bold" x="485" y="1269.2">Notes</text><rect fill="none" height="18" stroke="#CCC" stroke-width="0.5" width="650" x="100" y="1274.2" /><text fill="#333" font-family="Arial, Helvetica, sans-serif" font-size="10px" x="105" y="1287.2">Bridge beams</text><text fill="#333" font-family="Arial, Helvetica, sans-serif" font-size="10px" x="295" y="1287.2">4x8 or doubled 2x8</text><text fill="#333" font-family="Arial, Helvetica, sans-serif" font-size="10px" x="415" y="1287.2">2</text><text fill="#333" font-family="Arial, Helvetica, sans-serif" font-size="10px" x="485" y="1287.2">Full length (10'-0")</text><rect fill="none" height="18" stroke="#CCC" stroke-width="0.5" width="650" x="100" y="1292.2" /><text fill="#333" font-family="Arial, Helvetica, sans-serif" font-size="10px" x="105" y="1305.2">Bridge decking</text><text fill="#333" font-family="Arial, Helvetica, sans-serif" font-size="10px" x="295" y="1305.2">2x6</text><text fill="#333" font-family="Arial, Helvetica, sans-serif" font-size="10px" x="415" y="1305.2">5 boards x 10'-0"</text><text fill="#333" font-family="Arial, Helvetica, sans-serif" font-size="10px" x="485" y="1305.2">PT lumber, 1/8" gap</text><rect fill="none" height="18" stroke="#CCC" stroke-width="0.5" width="650" x="100" y="1310.2" /><text fill="#333" font-family="Arial, Helvetica, sans-serif" font-size="10px" x="105" y="1323.2">Joists</text><text fill="#333" font-family="Arial, Helvetica, sans-serif" font-size="10px" x="295" y="1323.2">2x6</text><text fill="#333" font-family="Arial, Helvetica, sans-serif" font-size="10px" x="415" y="1323.2">8</text><text fill="#333" font-family="Arial, Helvetica, sans-serif" font-size="10px" x="485" y="1323.2">16" OC</text><rect fill="none" height="18" stroke="#CCC" stroke-width="0.5" width="650" x="100" y="1328.2" /><text fill="#333" font-family="Arial, Helvetica, sans-serif" font-size="10px" x="105" y="1341.2">Pylons</text><text fill="#333" font-family="Arial, Helvetica, sans-serif" font-size="10px" x="295" y="1341.2">6x6</text><text fill="#333" font-family="Arial, Helvetica, sans-serif" font-size="10px" x="415" y="1341.2">5</text><text fill="#333" font-family="Arial, Helvetica, sans-serif" font-size="10px" x="485" y="1341.2">PT, min 24" buried into hillside</text><rect fill="none" height="18" stroke="#CCC" stroke-width="0.5" width="650" x="100" y="1346.2" /><text fill="#333" font-family="Arial, Helvetica, sans-serif" font-size="10px" x="105" y="1359.2">Cross-bracing</text><text fill="#333" font-family="Arial, Helvetica, sans-serif" font-size="10px" x="295" y="1359.2">2x6</text><text fill="#333" font-family="Arial, Helvetica, sans-serif" font-size="10px" x="415" y="1359.2">4</text><text fill="#333" font-family="Arial, Helvetica, sans-serif" font-size="10px" x="485" y="1359.2">Between pylons for lateral stability</text><rect fill="none" height="18" stroke="#CCC" stroke-width="0.5" width="650" x="100" y="1364.2" /><text fill="#333" font-family="Arial, Helvetica, sans-serif" font-size="10px" x="105" y="1377.2">Non-slip mesh</text><text fill="#333" font-family="Arial, Helvetica, sans-serif" font-size="10px" x="295" y="1377.2">Chicken wire</text><text fill="#333" font-family="Arial, Helvetica, sans-serif" font-size="10px" x="415" y="1377.2">10'-0" x 2'-0"</text><text fill="#333" font-family="Arial, Helvetica, sans-serif" font-size="10px" x="485" y="1377.2">Stapled to deck</text><rect fill="none" height="18" stroke="#CCC" stroke-width="0.5" width="650" x="100" y="1382.2" /><text fill="#333" font-family="Arial, Helvetica, sans-serif" font-size="10px" x="105" y="1395.2">Fill dirt (lander)</text><text fill="#333" font-family="Arial, Helvetica, sans-serif" font-size="10px" x="295" y="1395.2">Mineral soil</text><text fill="#333" font-family="Arial, Helvetica, sans-serif" font-size="10px" x="415" y="1395.2">~10-15 cu yd</text><text fill="#333" font-family="Arial, Helvetica, sans-serif" font-size="10px" x="485" y="1395.2">Compact in 6" lifts</text><rect fill="none" height="18" stroke="#CCC" stroke-width="0.5" width="650" x="100" y="1400.2" /><text fill="#333" font-family="Arial, Helvetica, sans-serif" font-size="10px" x="105" y="1413.2">Topsoil (lander finish)</text><text fill="#333" font-family="Arial, Helvetica, sans-serif" font-size="10px" x="295" y="1413.2" /><text fill="#333" font-family="Arial, Helvetica, sans-serif" font-size="10px" x="415" y="1413.2">~1-2 cu yd</text><text fill="#333" font-family="Arial, Helvetica, sans-serif" font-size="10px" x="485" y="1413.2">Final shaping layer only</text><rect fill="none" height="18" stroke="#CCC" stroke-width="0.5" width="650" x="100" y="1418.2" /><text fill="#333" font-family="Arial, Helvetica, sans-serif" font-size="10px" x="105" y="1431.2">Crib wall logs</text><text fill="#333" font-family="Arial, Helvetica, sans-serif" font-size="10px" x="295" y="1431.2">8.0" dia. x 6-8' long</text><text fill="#333" font-family="Arial, Helvetica, sans-serif" font-size="10px" x="415" y="1431.2">~28</text><text fill="#333" font-family="Arial, Helvetica, sans-serif" font-size="10px" x="485" y="1431.2">Back wall + 2 side walls, peeled</text><rect fill="none" height="18" stroke="#CCC" stroke-width="0.5" width="650" x="100" y="1436.2" /><text fill="#333" font-family="Arial, Helvetica, sans-serif" font-size="10px" x="105" y="1449.2">Deadman tie-back logs</text><text fill="#333" font-family="Arial, Helvetica, sans-serif" font-size="10px" x="295" y="1449.2">8.0" dia. x 4' long</text><text fill="#333" font-family="Arial, Helvetica, sans-serif" font-size="10px" x="415" y="1449.2">6-8</text><text fill="#333" font-family="Arial, Helvetica, sans-serif" font-size="10px" x="485" y="1449.2">Perpendicular tie-backs every 2-3 courses</text><rect fill="none" height="18" stroke="#CCC" stroke-width="0.5" width="650" x="100" y="1454.2" /><text fill="#333" font-family="Arial, Helvetica, sans-serif" font-size="10px" x="105" y="1467.2">Rebar pins</text><text fill="#333" font-family="Arial, Helvetica, sans-serif" font-size="10px" x="295" y="1467.2">#4 rebar, 24" long</text><text fill="#333" font-family="Arial, Helvetica, sans-serif" font-size="10px" x="415" y="1467.2">~20-24</text><text fill="#333" font-family="Arial, Helvetica, sans-serif" font-size="10px" x="485" y="1467.2">Pin logs together + anchor to ground</text><rect fill="none" height="18" stroke="#CCC" stroke-width="0.5" width="650" x="100" y="1472.2" /><text fill="#333" font-family="Arial, Helvetica, sans-serif" font-size="10px" x="105" y="1485.2">Gravel backfill</text><text fill="#333" font-family="Arial, Helvetica, sans-serif" font-size="10px" x="295" y="1485.2">3/4" crushed</text><text fill="#333" font-family="Arial, Helvetica, sans-serif" font-size="10px" x="415" y="1485.2">~2-3 cu yd</text><text fill="#333" font-family="Arial, Helvetica, sans-serif" font-size="10px" x="485" y="1485.2">Behind crib wall for drainage</text><rect fill="none" height="18" stroke="#CCC" stroke-width="0.5" width="650" x="100" y="1490.2" /><text fill="#333" font-family="Arial, Helvetica, sans-serif" font-size="10px" x="105" y="1503.2">Filter fabric</text><text fill="#333" font-family="Arial, Helvetica, sans-serif" font-size="10px" x="295" y="1503.2">Non-woven geotextile</text><text fill="#333" font-family="Arial, Helvetica, sans-serif" font-size="10px" x="415" y="1503.2">~50 sq ft</text><text fill="#333" font-family="Arial, Helvetica, sans-serif" font-size="10px" x="485" y="1503.2">Between gravel and fill behind crib</text></g><rect fill="#F0F0F0" height="100" stroke="#333" stroke-width="1.5" width="360" x="1196.0288042164202" y="1369.2" /><text fill="#111" font-family="Arial, Helvetica, sans-serif" font-size="14px" font-weight="bold" x="1206.0288042164202" y="1389.2">Bridge Drop</text><text fill="#555" font-family="Arial, Helvetica, sans-serif" font-size="9px" x="1206.0288042164202" y="1407.2">Bridge: 10'-0" x 2'-0"  |  Deck to ground: 3'-0"</text><text fill="#555" font-family="Arial, Helvetica, sans-serif" font-size="9px" x="1206.0288042164202" y="1421.2">Vertical drop to lander: 6'-0"  |  Drop to ground: 10'-6"</text><text fill="#555" font-family="Arial, Helvetica, sans-serif" font-size="9px" x="1206.0288042164202" y="1435.2">Sweet spot: 14'-0" horiz  |  Lander: 4'-6" tall  |  Landing: 18.0°</text><text fill="#CC0000" font-family="Arial, Helvetica, sans-serif" font-size="9px" font-weight="bold" x="1206.0288042164202" y="1449.2">Rating: BLACK — Advanced</text><text fill="#555" font-family="Arial, Helvetica, sans-serif" font-size="9px" x="1206.0288042164202" y="1462.2">Date: 2026-03-27</text></svg>