<?xml version="1.0" encoding="utf-8" ?>
<svg baseProfile="full" height="1621.2px" version="1.1" viewBox="0 0 1248.063983200963 1621.2" width="1248.063983200963px" xmlns="http://www.w3.org/2000/svg" xmlns:ev="http://www.w3.org/2001/xml-events" xmlns:xlink="http://www.w3.org/1999/xlink"><defs /><rect fill="#FFFFFF" height="1621.2" width="1248.063983200963" x="0" y="0" /><rect fill="none" height="1605.2" stroke="#333" stroke-width="1.5" width="1232.063983200963" x="8" y="8" /><g><text fill="#222" font-family="Arial, Helvetica, sans-serif" font-size="14px" font-weight="bold" text-anchor="middle" x="624.0319916004815" y="45">SIDE PROFILE</text><polygon fill="#D5C9A0" opacity="0.25" points="100,175.0 104,174.54545454545456 108,174.0909090909091 112,173.63636363636363 116,173.1818181818182 120,172.72727272727272 124,172.27272727272728 128,171.8181818181818 132,171.36363636363637 136,170.9090909090909 140,170.45454545454547 144,170.0 148,169.54545454545453 152,169.0909090909091 156,168.63636363636363 160,168.1818181818182 164,167.72727272727272 168,167.27272727272728 172,166.8181818181818 176,166.36363636363637 180,165.9090909090909 184,165.45454545454547 188,165.0 192,164.54545454545453 196,164.0909090909091 200,163.63636363636363 204,163.1818181818182 208,162.72727272727272 212,162.27272727272728 216,161.8181818181818 220,161.36363636363637 224,160.9090909090909 228,160.45454545454547 232,160.0 236,166.12424242424242 240,167.24848484848485 244,168.37272727272727 248,169.4969696969697 252,170.62121212121212 256,171.74545454545455 260,172.86969696969697 264,173.9939393939394 268,175.11818181818182 272,176.24242424242425 276,177.36666666666667 280,178.4909090909091 284,179.61515151515152 288,180.73939393939395 292,181.86363636363637 296,182.9878787878788 300,184.11212121212122 304,185.23636363636362 308,186.36060606060607 312,187.48484848484847 316,188.6090909090909 320,189.73333333333332 324,190.85757575757575 328,191.98181818181817 332,193.1060606060606 336,194.23030303030302 340,195.35454545454544 344,196.47878787878787 348,197.6030303030303 352,198.72727272727272 356,199.85151515151514 360,200.97575757575757 364,202.1 368,203.22424242424242 372,204.34848484848484 376,205.47272727272727 380,206.5969696969697 384,207.72121212121212 388,208.84545454545454 392,209.96969696969697 396,211.0939393939394 400,212.21818181818182 404,213.34242424242424 408,214.46666666666664 412,215.59090909090907 416,216.71515151515152 420,217.83939393939394 424,218.96363636363634 428,220.08787878787876 432,221.2121212121212 436,222.33636363636361 440,223.46060606060604 444,224.58484848484846 448,225.7090909090909 452,226.83333333333331 456,227.95757575757574 460,229.08181818181816 464,230.2060606060606 468,231.330303030303 472,232.45454545454544 476,233.57878787878786 480,234.7030303030303 484,235.8272727272727 488,236.95151515151514 492,238.07575757575756 496,239.2 500,285.49686500706457 504,309.3729252687034 508,328.7002681682869 512,345.5622653502698 516,360.800003197783 520,374.8570391697957 524,388.0025616740701 528,400.41504764297883 532,412.22031143951006 536,423.51113933459703 540,434.35837570970267 544,444.8176216334094 548,454.9335028501626 552,464.74250786857317 556,474.274942845599 560,483.55631848322616 564,492.608359022346 568,501.44975239165393 572,510.0967185480289 576,518.5634472818551 580,526.8624404681634 584,535.0047831564568 588,543.0003608432155 592,550.8580354762255 596,558.585789414564 600,566.1908442213096 604,569.2863061054817 608,569.4301496146177 612,569.5739931237537 616,569.7178366328897 620,569.8616801420256 624,570.0055236511616 628,570.1493671602976 632,570.2932106694337 636,570.4370541785697 640,570.5808976877057 644,570.7247411968417 648,570.8685847059777 652,571.0124282151137 656,571.1562717242497 660,571.3001152333858 664,571.4439587425218 668,571.5878022516578 672,571.7316457607938 676,571.8754892699297 680,572.0193327790657 684,572.1631762882017 688,572.3070197973377 692,572.4508633064738 696,572.5947068156098 700,572.7385503247458 704,572.8823938338818 708,573.0262373430178 712,573.1700808521538 716,573.3139243612898 720,573.4577678704259 724,573.6016113795619 728,573.7454548886979 732,573.8892983978338 736,574.0331419069698 740,574.1769854161058 744,574.3208289252418 748,574.4646724343778 752,574.6085159435139 756,574.7523594526499 760,574.8962029617859 764,575.0400464709219 768,575.1838899800579 772,575.3277334891939 776,575.4715769983299 780,575.615420507466 784,575.759264016602 788,575.9031075257379 792,576.0469510348739 796,576.1907945440099 800,576.3346380531459 804,576.4784815622819 808,576.6223250714179 812,576.766168580554 816,576.91001208969 820,577.053855598826 824,577.197699107962 828,577.2787203359808 832,577.3587203359808 836,577.4387203359807 840,577.5187203359808 844,577.5987203359808 848,577.6787203359808 852,577.7587203359808 856,577.8387203359807 860,577.9187203359808 864,577.9987203359808 868,578.0787203359807 872,578.1587203359808 876,578.2387203359808 880,578.3187203359807 884,578.3987203359808 888,578.4787203359808 892,578.5587203359808 896,578.6387203359808 900,578.7187203359808 904,578.7987203359808 908,578.8787203359808 912,578.9587203359807 916,579.0387203359808 920,579.1187203359808 924,579.1987203359807 928,579.2787203359808 932,579.3587203359808 936,579.4387203359807 940,579.5187203359808 944,579.5987203359808 948,579.6787203359808 952,579.7587203359808 956,579.8387203359807 960,579.9187203359808 964,579.9987203359808 968,580.0787203359807 972,580.1587203359808 976,580.2387203359808 980,580.3187203359807 984,580.3987203359808 988,580.4787203359808 992,580.5587203359808 996,580.6387203359808 1000,580.7187203359808 1004,580.7987203359808 1008,580.8787203359808 1012,580.9587203359807 1016,581.0387203359808 1020,581.1187203359808 1024,581.1987203359807 1028,581.2787203359808 1032,581.3587203359808 1036,581.4387203359807 1040,581.5187203359808 1044,581.5987203359808 1048,581.6787203359808 1052,581.7587203359808 1056,581.8387203359807 1060,581.9187203359808 1064,581.9987203359808 1068,582.0787203359807 1072,582.1587203359808 1076,582.2387203359808 1080,582.3187203359807 1084,582.3987203359808 1088,582.4787203359808 1092,582.5587203359808 1088.063983200963,649.2 100.0,649.2" stroke="none" /><path d="M 100,175.0 L 104,174.54545454545456 L 108,174.0909090909091 L 112,173.63636363636363 L 116,173.1818181818182 L 120,172.72727272727272 L 124,172.27272727272728 L 128,171.8181818181818 L 132,171.36363636363637 L 136,170.9090909090909 L 140,170.45454545454547 L 144,170.0 L 148,169.54545454545453 L 152,169.0909090909091 L 156,168.63636363636363 L 160,168.1818181818182 L 164,167.72727272727272 L 168,167.27272727272728 L 172,166.8181818181818 L 176,166.36363636363637 L 180,165.9090909090909 L 184,165.45454545454547 L 188,165.0 L 192,164.54545454545453 L 196,164.0909090909091 L 200,163.63636363636363 L 204,163.1818181818182 L 208,162.72727272727272 L 212,162.27272727272728 L 216,161.8181818181818 L 220,161.36363636363637 L 224,160.9090909090909 L 228,160.45454545454547 L 232,160.0 L 236,166.12424242424242 L 240,167.24848484848485 L 244,168.37272727272727 L 248,169.4969696969697 L 252,170.62121212121212 L 256,171.74545454545455 L 260,172.86969696969697 L 264,173.9939393939394 L 268,175.11818181818182 L 272,176.24242424242425 L 276,177.36666666666667 L 280,178.4909090909091 L 284,179.61515151515152 L 288,180.73939393939395 L 292,181.86363636363637 L 296,182.9878787878788 L 300,184.11212121212122 L 304,185.23636363636362 L 308,186.36060606060607 L 312,187.48484848484847 L 316,188.6090909090909 L 320,189.73333333333332 L 324,190.85757575757575 L 328,191.98181818181817 L 332,193.1060606060606 L 336,194.23030303030302 L 340,195.35454545454544 L 344,196.47878787878787 L 348,197.6030303030303 L 352,198.72727272727272 L 356,199.85151515151514 L 360,200.97575757575757 L 364,202.1 L 368,203.22424242424242 L 372,204.34848484848484 L 376,205.47272727272727 L 380,206.5969696969697 L 384,207.72121212121212 L 388,208.84545454545454 L 392,209.96969696969697 L 396,211.0939393939394 L 400,212.21818181818182 L 404,213.34242424242424 L 408,214.46666666666664 L 412,215.59090909090907 L 416,216.71515151515152 L 420,217.83939393939394 L 424,218.96363636363634 L 428,220.08787878787876 L 432,221.2121212121212 L 436,222.33636363636361 L 440,223.46060606060604 L 444,224.58484848484846 L 448,225.7090909090909 L 452,226.83333333333331 L 456,227.95757575757574 L 460,229.08181818181816 L 464,230.2060606060606 L 468,231.330303030303 L 472,232.45454545454544 L 476,233.57878787878786 L 480,234.7030303030303 L 484,235.8272727272727 L 488,236.95151515151514 L 492,238.07575757575756 L 496,239.2 L 500,285.49686500706457 L 504,309.3729252687034 L 508,328.7002681682869 L 512,345.5622653502698 L 516,360.800003197783 L 520,374.8570391697957 L 524,388.0025616740701 L 528,400.41504764297883 L 532,412.22031143951006 L 536,423.51113933459703 L 540,434.35837570970267 L 544,444.8176216334094 L 548,454.9335028501626 L 552,464.74250786857317 L 556,474.274942845599 L 560,483.55631848322616 L 564,492.608359022346 L 568,501.44975239165393 L 572,510.0967185480289 L 576,518.5634472818551 L 580,526.8624404681634 L 584,535.0047831564568 L 588,543.0003608432155 L 592,550.8580354762255 L 596,558.585789414564 L 600,566.1908442213096 L 604,569.2863061054817 L 608,569.4301496146177 L 612,569.5739931237537 L 616,569.7178366328897 L 620,569.8616801420256 L 624,570.0055236511616 L 628,570.1493671602976 L 632,570.2932106694337 L 636,570.4370541785697 L 640,570.5808976877057 L 644,570.7247411968417 L 648,570.8685847059777 L 652,571.0124282151137 L 656,571.1562717242497 L 660,571.3001152333858 L 664,571.4439587425218 L 668,571.5878022516578 L 672,571.7316457607938 L 676,571.8754892699297 L 680,572.0193327790657 L 684,572.1631762882017 L 688,572.3070197973377 L 692,572.4508633064738 L 696,572.5947068156098 L 700,572.7385503247458 L 704,572.8823938338818 L 708,573.0262373430178 L 712,573.1700808521538 L 716,573.3139243612898 L 720,573.4577678704259 L 724,573.6016113795619 L 728,573.7454548886979 L 732,573.8892983978338 L 736,574.0331419069698 L 740,574.1769854161058 L 744,574.3208289252418 L 748,574.4646724343778 L 752,574.6085159435139 L 756,574.7523594526499 L 760,574.8962029617859 L 764,575.0400464709219 L 768,575.1838899800579 L 772,575.3277334891939 L 776,575.4715769983299 L 780,575.615420507466 L 784,575.759264016602 L 788,575.9031075257379 L 792,576.0469510348739 L 796,576.1907945440099 L 800,576.3346380531459 L 804,576.4784815622819 L 808,576.6223250714179 L 812,576.766168580554 L 816,576.91001208969 L 820,577.053855598826 L 824,577.197699107962 L 828,577.2787203359808 L 832,577.3587203359808 L 836,577.4387203359807 L 840,577.5187203359808 L 844,577.5987203359808 L 848,577.6787203359808 L 852,577.7587203359808 L 856,577.8387203359807 L 860,577.9187203359808 L 864,577.9987203359808 L 868,578.0787203359807 L 872,578.1587203359808 L 876,578.2387203359808 L 880,578.3187203359807 L 884,578.3987203359808 L 888,578.4787203359808 L 892,578.5587203359808 L 896,578.6387203359808 L 900,578.7187203359808 L 904,578.7987203359808 L 908,578.8787203359808 L 912,578.9587203359807 L 916,579.0387203359808 L 920,579.1187203359808 L 924,579.1987203359807 L 928,579.2787203359808 L 932,579.3587203359808 L 936,579.4387203359807 L 940,579.5187203359808 L 944,579.5987203359808 L 948,579.6787203359808 L 952,579.7587203359808 L 956,579.8387203359807 L 960,579.9187203359808 L 964,579.9987203359808 L 968,580.0787203359807 L 972,580.1587203359808 L 976,580.2387203359808 L 980,580.3187203359807 L 984,580.3987203359808 L 988,580.4787203359808 L 992,580.5587203359808 L 996,580.6387203359808 L 1000,580.7187203359808 L 1004,580.7987203359808 L 1008,580.8787203359808 L 1012,580.9587203359807 L 1016,581.0387203359808 L 1020,581.1187203359808 L 1024,581.1987203359807 L 1028,581.2787203359808 L 1032,581.3587203359808 L 1036,581.4387203359807 L 1040,581.5187203359808 L 1044,581.5987203359808 L 1048,581.6787203359808 L 1052,581.7587203359808 L 1056,581.8387203359807 L 1060,581.9187203359808 L 1064,581.9987203359808 L 1068,582.0787203359807 L 1072,582.1587203359808 L 1076,582.2387203359808 L 1080,582.3187203359807 L 1084,582.3987203359808 L 1088,582.4787203359808 L 1092,582.5587203359808 " fill="none" stroke="#999" stroke-dasharray="6,3" stroke-width="0.75" /><line stroke="#BBB" stroke-width="0.35" x1="100" x2="105" y1="175.0" y2="182.0" /><line stroke="#BBB" stroke-width="0.35" x1="124" x2="129" y1="172.27272727272728" y2="179.27272727272728" /><line stroke="#BBB" stroke-width="0.35" x1="148" x2="153" y1="169.54545454545453" y2="176.54545454545453" /><line stroke="#BBB" stroke-width="0.35" x1="172" x2="177" y1="166.8181818181818" y2="173.8181818181818" /><line stroke="#BBB" stroke-width="0.35" x1="196" x2="201" y1="164.0909090909091" y2="171.0909090909091" /><line stroke="#BBB" stroke-width="0.35" x1="220" x2="225" y1="161.36363636363637" y2="168.36363636363637" /><line stroke="#BBB" stroke-width="0.35" x1="244" x2="249" y1="168.37272727272727" y2="175.37272727272727" /><line stroke="#BBB" stroke-width="0.35" x1="268" x2="273" y1="175.11818181818182" y2="182.11818181818182" /><line stroke="#BBB" stroke-width="0.35" x1="292" x2="297" y1="181.86363636363637" y2="188.86363636363637" /><line stroke="#BBB" stroke-width="0.35" x1="316" x2="321" y1="188.6090909090909" y2="195.6090909090909" /><line stroke="#BBB" stroke-width="0.35" x1="340" x2="345" y1="195.35454545454544" y2="202.35454545454544" /><line stroke="#BBB" stroke-width="0.35" x1="364" x2="369" y1="202.1" y2="209.1" /><line stroke="#BBB" stroke-width="0.35" x1="388" x2="393" y1="208.84545454545454" y2="215.84545454545454" /><line stroke="#BBB" stroke-width="0.35" x1="412" x2="417" y1="215.59090909090907" y2="222.59090909090907" /><line stroke="#BBB" stroke-width="0.35" x1="436" x2="441" y1="222.33636363636361" y2="229.33636363636361" /><line stroke="#BBB" stroke-width="0.35" x1="460" x2="465" y1="229.08181818181816" y2="236.08181818181816" /><line stroke="#BBB" stroke-width="0.35" x1="484" x2="489" y1="235.8272727272727" y2="242.8272727272727" /><line stroke="#BBB" stroke-width="0.35" x1="508" x2="513" y1="328.7002681682869" y2="335.7002681682869" /><line stroke="#BBB" stroke-width="0.35" x1="532" x2="537" y1="412.22031143951006" y2="419.22031143951006" /><line stroke="#BBB" stroke-width="0.35" x1="556" x2="561" y1="474.274942845599" y2="481.274942845599" /><line stroke="#BBB" stroke-width="0.35" x1="580" x2="585" y1="526.8624404681634" y2="533.8624404681634" /><line stroke="#BBB" stroke-width="0.35" x1="604" x2="609" y1="569.2863061054817" y2="576.2863061054817" /><line stroke="#BBB" stroke-width="0.35" x1="628" x2="633" y1="570.1493671602976" y2="577.1493671602976" /><line stroke="#BBB" stroke-width="0.35" x1="652" x2="657" y1="571.0124282151137" y2="578.0124282151137" /><line stroke="#BBB" stroke-width="0.35" x1="676" x2="681" y1="571.8754892699297" y2="578.8754892699297" /><line stroke="#BBB" stroke-width="0.35" x1="700" x2="705" y1="572.7385503247458" y2="579.7385503247458" /><line stroke="#BBB" stroke-width="0.35" x1="724" x2="729" y1="573.6016113795619" y2="580.6016113795619" /><line stroke="#BBB" stroke-width="0.35" x1="748" x2="753" y1="574.4646724343778" y2="581.4646724343778" /><line stroke="#BBB" stroke-width="0.35" x1="772" x2="777" y1="575.3277334891939" y2="582.3277334891939" /><line stroke="#BBB" stroke-width="0.35" x1="796" x2="801" y1="576.1907945440099" y2="583.1907945440099" /><line stroke="#BBB" stroke-width="0.35" x1="820" x2="825" y1="577.053855598826" y2="584.053855598826" /><line stroke="#BBB" stroke-width="0.35" x1="844" x2="849" y1="577.5987203359808" y2="584.5987203359808" /><line stroke="#BBB" stroke-width="0.35" x1="868" x2="873" y1="578.0787203359807" y2="585.0787203359807" /><line stroke="#BBB" stroke-width="0.35" x1="892" x2="897" y1="578.5587203359808" y2="585.5587203359808" /><line stroke="#BBB" stroke-width="0.35" x1="916" x2="921" y1="579.0387203359808" y2="586.0387203359808" /><line stroke="#BBB" stroke-width="0.35" x1="940" x2="945" y1="579.5187203359808" y2="586.5187203359808" /><line stroke="#BBB" stroke-width="0.35" x1="964" x2="969" y1="579.9987203359808" y2="586.9987203359808" /><line stroke="#BBB" stroke-width="0.35" x1="988" x2="993" y1="580.4787203359808" y2="587.4787203359808" /><line stroke="#BBB" stroke-width="0.35" x1="1012" x2="1017" y1="580.9587203359807" y2="587.9587203359807" /><line stroke="#BBB" stroke-width="0.35" x1="1036" x2="1041" y1="581.4387203359807" y2="588.4387203359807" /><line stroke="#BBB" stroke-width="0.35" x1="1060" x2="1065" y1="581.9187203359808" y2="588.9187203359808" /><line stroke="#BBB" stroke-width="0.35" x1="1084" x2="1089" y1="582.3987203359808" y2="589.3987203359808" /><polygon fill="#C5B890" opacity="0.3" points="496,239.2 499,278.15725443452817 502,298.248155932175 505,314.51146479266816 508,328.7002681682869 511,341.5223119555202 514,353.3508348344117 517,364.41234979434876 520,374.8570391697957 523,384.7907715146967 526,394.29162335462695 529,403.41920785331763 532,412.22031143951006 535,420.73248517590423 538,428.9864329149892 541,437.0076562683183 544,444.8176216334094 547,452.4346092281492 550,459.8743443158559 553,467.15047544458895 556,474.274942845599 559,481.25826642615027 562,488.10977388248796 565,494.8377835273433 568,501.44975239165393 571,507.95239736204985 574,514.3517951409212 577,520.6534653999744 580,526.8624404681634 583,532.9833241356021 586,539.0203415884844 589,544.9773820625012 592,550.8580354762255 595,556.6656240549507 598,562.4032297604767 601,568.0737181895873 604,569.2863061054817 601.6,649.2 496.0,649.2" stroke="none" /><rect fill="#D4B87A" height="7.700000000000001" stroke="#333333" stroke-width="1.5" width="264.0" x="232.0" y="152.3" /><rect fill="#C8A96E" height="19.8" stroke="#333333" stroke-width="1" width="264.0" x="232.0" y="160" /><line stroke="#A08050" stroke-width="0.4" x1="232.0" x2="232.0" y1="160" y2="179.8" /><line stroke="#A08050" stroke-width="0.4" x1="267.2" x2="267.2" y1="160" y2="179.8" /><line stroke="#A08050" stroke-width="0.4" x1="302.4" x2="302.4" y1="160" y2="179.8" /><line stroke="#A08050" stroke-width="0.4" x1="337.59999999999997" x2="337.59999999999997" y1="160" y2="179.8" /><line stroke="#A08050" stroke-width="0.4" x1="372.79999999999995" x2="372.79999999999995" y1="160" y2="179.8" /><line stroke="#A08050" stroke-width="0.4" x1="407.99999999999994" x2="407.99999999999994" y1="160" y2="179.8" /><line stroke="#A08050" stroke-width="0.4" x1="443.19999999999993" x2="443.19999999999993" y1="160" y2="179.8" /><line stroke="#A08050" stroke-width="0.4" x1="478.3999999999999" x2="478.3999999999999" y1="160" y2="179.8" /><rect fill="#A07840" height="45.41999999999999" stroke="#333333" stroke-width="1" width="12.100000000000001" x="252.34999999999997" y="179.8" /><rect fill="#888" height="52.80000000000001" opacity="0.2" stroke="none" width="14.100000000000001" x="251.34999999999997" y="172.42" /><rect fill="#A07840" height="60.25999999999999" stroke="#333333" stroke-width="1" width="12.100000000000001" x="305.15" y="179.8" /><rect fill="#888" height="52.80000000000001" opacity="0.2" stroke="none" width="14.100000000000001" x="304.15" y="187.26" /><rect fill="#A07840" height="75.1" stroke="#333333" stroke-width="1" width="12.100000000000001" x="357.95" y="179.8" /><rect fill="#888" height="52.80000000000001" opacity="0.2" stroke="none" width="14.100000000000001" x="356.95" y="202.1" /><rect fill="#A07840" height="89.94" stroke="#333333" stroke-width="1" width="12.100000000000001" x="410.74999999999994" y="179.8" /><rect fill="#888" height="52.80000000000001" opacity="0.2" stroke="none" width="14.100000000000001" x="409.74999999999994" y="216.94" /><rect fill="#A07840" height="104.77999999999997" stroke="#333333" stroke-width="1" width="12.100000000000001" x="463.55" y="179.8" /><rect fill="#888" height="52.79999999999998" opacity="0.2" stroke="none" width="14.100000000000001" x="462.55" y="231.78" /><line stroke="#333333" stroke-width="1.5" x1="100.0" x2="232.0" y1="175.0" y2="152.3" /><polygon fill="#C4A265" opacity="0.45" points="601.6,569.2 601.6,450.40000000000003 654.4,450.40000000000003 662.8831991600481,456.4349367160298 671.3663983200963,462.46987343205956 679.8495974801444,468.50481014808935 688.3327966401927,474.5397468641191 696.8159958002408,480.57468358014887 705.2991949602889,486.6096202961786 713.7823941203371,492.6445570122084 722.2655932803852,498.6794937282382 730.7487924404335,504.7144304442679 739.2319916004816,510.74936716029765 747.7151907605298,516.7843038763275 756.1983899205779,522.8192405923572 764.681589080626,528.854177308387 773.1647882406743,534.8891140244167 781.6479874007224,540.9240507404465 790.1311865607706,546.9589874564763 798.6143857208187,552.993924172506 807.0975848808669,559.0288608885357 815.5807840409151,565.0637976045656 824.0639832009632,571.0987343205953 831.9839832009632,571.1372677565118 839.9039832009632,571.2557955670937 847.8239832009632,571.4571302470724 855.7439832009632,571.7418567655623 863.6639832009632,572.1082297070839 871.5839832009632,572.5521346150722 879.5039832009631,573.0671164998238 887.4239832009632,573.6444766015953 895.3439832009632,574.273436557304 903.2639832009633,574.9413671602977 911.1839832009632,575.6340769825537 919.1039832009632,576.3361543028179 927.0239832009632,577.0313541062479 934.9439832009632,577.7030204413757 942.8639832009633,578.3345331842112 950.7839832009632,578.9097673064871 958.7039832009632,579.4135521075431 966.6239832009633,579.8321175709509 974.5439832009632,580.1535150624359 982.4639832009632,580.368 982.4639832009632,580.368 982,580.3587203359808 978,580.2787203359808 974,580.1987203359807 970,580.1187203359808 966,580.0387203359808 962,579.9587203359807 958,579.8787203359808 954,579.7987203359808 950,579.7187203359808 946,579.6387203359808 942,579.5587203359808 938,579.4787203359808 934,579.3987203359808 930,579.3187203359807 926,579.2387203359808 922,579.1587203359808 918,579.0787203359807 914,578.9987203359808 910,578.9187203359808 906,578.8387203359807 902,578.7587203359808 898,578.6787203359808 894,578.5987203359808 890,578.5187203359808 886,578.4387203359807 882,578.3587203359808 878,578.2787203359808 874,578.1987203359807 870,578.1187203359808 866,578.0387203359808 862,577.9587203359807 858,577.8787203359808 854,577.7987203359808 850,577.7187203359808 846,577.6387203359808 842,577.5587203359808 838,577.4787203359808 834,577.3987203359808 830,577.3187203359807 826,577.2387203359808 822,577.1257773533939 818,576.9819338442579 814,576.8380903351219 810,576.6942468259859 806,576.55040331685 802,576.406559807714 798,576.262716298578 794,576.118872789442 790,575.9750292803059 786,575.8311857711699 782,575.6873422620339 778,575.5434987528979 774,575.3996552437619 770,575.2558117346259 766,575.1119682254899 762,574.9681247163538 758,574.8242812072178 754,574.6804376980818 750,574.5365941889459 746,574.3927506798099 742,574.2489071706739 738,574.1050636615379 734,573.9612201524019 730,573.8173766432658 726,573.6735331341298 722,573.5296896249938 718,573.3858461158578 714,573.2420026067218 710,573.0981590975858 706,572.9543155884498 702,572.8104720793137 698,572.6666285701777 694,572.5227850610418 690,572.3789415519058 686,572.2350980427698 682,572.0912545336338 678,571.9474110244978 674,571.8035675153618 670,571.6597240062257 666,571.5158804970897 662,571.3720369879537 658,571.2281934788177 654,571.0843499696817 650,570.9405064605457 646,570.7966629514098 642,570.6528194422737 638,570.5089759331377 634,570.3651324240017 630,570.2212889148657 626,570.0774454057297 622,569.9336018965937 618,569.7897583874577 614,569.6459148783217 610,569.5020713691856 606,569.3582278600496 602,569.2143843509136 601.6,569.2" stroke="none" /><ellipse cx="601.6" cy="560.4000000000001" fill="#A07840" rx="8.8" ry="8.8" stroke="#333333" stroke-width="1" /><circle cx="601.6" cy="560.4000000000001" fill="none" r="3.5200000000000005" stroke="#6B5030" stroke-width="0.5" /><circle cx="601.6" cy="560.4000000000001" fill="#6B5030" r="1.5" /><ellipse cx="601.6" cy="542.8000000000001" fill="#A07840" rx="8.8" ry="8.8" stroke="#333333" stroke-width="1" /><circle cx="601.6" cy="542.8000000000001" fill="none" r="3.5200000000000005" stroke="#6B5030" stroke-width="0.5" /><circle cx="601.6" cy="542.8000000000001" fill="#6B5030" r="1.5" /><ellipse cx="601.6" cy="525.2" fill="#A07840" rx="8.8" ry="8.8" stroke="#333333" stroke-width="1" /><circle cx="601.6" cy="525.2" fill="none" r="3.5200000000000005" stroke="#6B5030" stroke-width="0.5" /><circle cx="601.6" cy="525.2" fill="#6B5030" r="1.5" /><ellipse cx="601.6" cy="507.6" fill="#A07840" rx="8.8" ry="8.8" stroke="#333333" stroke-width="1" /><circle cx="601.6" cy="507.6" fill="none" r="3.5200000000000005" stroke="#6B5030" stroke-width="0.5" /><circle cx="601.6" cy="507.6" fill="#6B5030" r="1.5" /><ellipse cx="601.6" cy="490.00000000000006" fill="#A07840" rx="8.8" ry="8.8" stroke="#333333" stroke-width="1" /><circle cx="601.6" cy="490.00000000000006" fill="none" r="3.5200000000000005" stroke="#6B5030" stroke-width="0.5" /><circle cx="601.6" cy="490.00000000000006" fill="#6B5030" r="1.5" /><ellipse cx="601.6" cy="472.40000000000003" fill="#A07840" rx="8.8" ry="8.8" stroke="#333333" stroke-width="1" /><circle cx="601.6" cy="472.40000000000003" fill="none" r="3.5200000000000005" stroke="#6B5030" stroke-width="0.5" /><circle cx="601.6" cy="472.40000000000003" fill="#6B5030" r="1.5" /><line stroke="#333333" stroke-width="2.5" x1="601.6" x2="601.6" y1="569.2" y2="450.40000000000003" /><rect fill="#8B6B3D" height="10.56" opacity="0.6" stroke="#333333" stroke-width="0.75" width="105.60000000000001" x="601.6" y="528.72" /><text fill="#555" font-family="Arial, Helvetica, sans-serif" font-size="7px" font-style="italic" x="712.2" y="537.0">Deadman tie-back</text><rect fill="#8B6B3D" height="10.56" opacity="0.6" stroke="#333333" stroke-width="0.75" width="105.60000000000001" x="601.6" y="493.5200000000001" /><text fill="#555" font-family="Arial, Helvetica, sans-serif" font-size="7px" font-style="italic" x="712.2" y="501.80000000000007">Deadman tie-back</text><path d="M 601.6,450.40000000000003 L 654.4,450.40000000000003 L 662.8831991600481,456.4349367160298 L 671.3663983200963,462.46987343205956 L 679.8495974801444,468.50481014808935 L 688.3327966401927,474.5397468641191 L 696.8159958002408,480.57468358014887 L 705.2991949602889,486.6096202961786 L 713.7823941203371,492.6445570122084 L 722.2655932803852,498.6794937282382 L 730.7487924404335,504.7144304442679 L 739.2319916004816,510.74936716029765 L 747.7151907605298,516.7843038763275 L 756.1983899205779,522.8192405923572 L 764.681589080626,528.854177308387 L 773.1647882406743,534.8891140244167 L 781.6479874007224,540.9240507404465 L 790.1311865607706,546.9589874564763 L 798.6143857208187,552.993924172506 L 807.0975848808669,559.0288608885357 L 815.5807840409151,565.0637976045656 L 824.0639832009632,571.0987343205953 L 831.9839832009632,571.1372677565118 L 839.9039832009632,571.2557955670937 L 847.8239832009632,571.4571302470724 L 855.7439832009632,571.7418567655623 L 863.6639832009632,572.1082297070839 L 871.5839832009632,572.5521346150722 L 879.5039832009631,573.0671164998238 L 887.4239832009632,573.6444766015953 L 895.3439832009632,574.273436557304 L 903.2639832009633,574.9413671602977 L 911.1839832009632,575.6340769825537 L 919.1039832009632,576.3361543028179 L 927.0239832009632,577.0313541062479 L 934.9439832009632,577.7030204413757 L 942.8639832009633,578.3345331842112 L 950.7839832009632,578.9097673064871 L 958.7039832009632,579.4135521075431 L 966.6239832009633,579.8321175709509 L 974.5439832009632,580.1535150624359 L 982.4639832009632,580.368 " fill="none" stroke="#333333" stroke-width="2.5" /><line stroke="#CC0000" stroke-dasharray="3,2" stroke-width="0.6" x1="521.6" x2="599.6" y1="509.80000000000007" y2="509.80000000000007" /><text fill="#CC0000" font-family="Arial, Helvetica, sans-serif" font-size="9px" font-weight="bold" x="521.6" y="506.80000000000007">Log crib wall (vertical)</text><line stroke="#333333" stroke-width="1.5" x1="982.4639832009632" x2="1088.063983200963" y1="580.368" y2="582.48" /><path d="M 496.0,152.3 L 505.9,152.91381325872607 L 515.8,154.75525303490423 L 525.7,157.82431932853453 L 535.6,162.12101213961694 L 545.5,167.64533146815145 L 555.4,174.39727731413808 L 565.3,182.37684967757684 L 575.2,191.58404855846769 L 585.1,202.01887395681067 L 595.0,213.68132587260575 L 604.9,226.57140430585292 L 614.8,240.68910925655229 L 624.7,256.0344407247037 L 634.6,272.6073987103073 L 644.5,290.4079832133629 L 654.4,309.43619423387065 L 664.3,329.6920317718306 L 674.2,351.17549582724257 L 684.1,373.8865864001067 L 694.0,397.825303490423 L 703.9000000000001,422.9916470981913 L 713.8,449.3856172234117 L 723.7,477.0072138660844 L 733.6,505.85643702620905 " fill="none" opacity="0.5" stroke="#CC0000" stroke-dasharray="8,5" stroke-width="1.2" /><text fill="#CC0000" font-family="Arial, Helvetica, sans-serif" font-size="8px" font-style="italic" opacity="0.6" text-anchor="middle" x="574.8" y="232.68910925655229">Flight path</text><circle cx="733.6" cy="505.85643702620905" fill="#CC0000" opacity="0.6" r="4" /><line stroke="#CC0000" stroke-dasharray="3,2" stroke-width="0.6" x1="748.6" x2="733.6" y1="490.85643702620905" y2="505.85643702620905" /><text fill="#CC0000" font-family="Arial, Helvetica, sans-serif" font-size="9px" font-weight="bold" x="748.6" y="487.85643702620905">Sweet spot (9')</text><line stroke="#0055AA" stroke-width="0.5" x1="232.0" x2="232.0" y1="149.3" y2="119.30000000000001" /><line stroke="#0055AA" stroke-width="0.5" x1="496.0" x2="496.0" y1="149.3" y2="119.30000000000001" /><line stroke="#0055AA" stroke-width="0.75" x1="232.0" x2="496.0" y1="122.30000000000001" y2="122.30000000000001" /><polygon fill="#0055AA" points="232.0,122.30000000000001 227.46846106481675,124.41309130870351 227.46846106481675,120.18690869129651" stroke="none" /><polygon fill="#0055AA" points="496.0,122.30000000000001 500.5315389351833,120.18690869129651 500.5315389351832,124.41309130870351" stroke="none" /><rect fill="white" height="13" stroke="none" width="39.0" x="344.5" y="112.30000000000001" /><text fill="#0055AA" font-family="Arial, Helvetica, sans-serif" font-size="10px" text-anchor="middle" x="364.0" y="121.30000000000001">10'-0"</text><line stroke="#0055AA" stroke-width="0.5" x1="504.0" x2="529.0" y1="152.3" y2="152.3" /><line stroke="#0055AA" stroke-width="0.5" x1="504.0" x2="529.0" y1="239.2" y2="239.2" /><line stroke="#0055AA" stroke-width="0.75" x1="526.0" x2="526.0" y1="152.3" y2="239.2" /><polygon fill="#0055AA" points="526.0,152.3 523.8869086912965,147.76846106481676 528.1130913087035,147.76846106481676" stroke="none" /><polygon fill="#0055AA" points="526.0,239.2 528.1130913087035,243.73153893518324 523.8869086912965,243.73153893518324" stroke="none" /><text fill="#0055AA" font-family="Arial, Helvetica, sans-serif" font-size="10px" text-anchor="middle" transform="translate(521.0,195.75) rotate(-90)" x="0" y="0">3'-0"</text><line stroke="#0055AA" stroke-width="0.5" x1="483.0" x2="438.0" y1="152.3" y2="152.3" /><line stroke="#0055AA" stroke-width="0.5" x1="483.0" x2="438.0" y1="569.2" y2="569.2" /><line stroke="#0055AA" stroke-width="0.75" x1="441.0" x2="441.0" y1="152.3" y2="569.2" /><polygon fill="#0055AA" points="441.0,152.3 438.8869086912965,147.76846106481676 443.1130913087035,147.76846106481676" stroke="none" /><polygon fill="#0055AA" points="441.0,569.2 443.1130913087035,573.7315389351833 438.8869086912965,573.7315389351833" stroke="none" /><text fill="#0055AA" font-family="Arial, Helvetica, sans-serif" font-size="10px" text-anchor="middle" transform="translate(436.0,360.75) rotate(-90)" x="0" y="0">15'-6"</text><line stroke="#0055AA" stroke-width="0.5" x1="667.4" x2="712.4" y1="152.3" y2="152.3" /><line stroke="#0055AA" stroke-width="0.5" x1="667.4" x2="712.4" y1="450.40000000000003" y2="450.40000000000003" /><line stroke="#0055AA" stroke-width="0.75" x1="709.4" x2="709.4" y1="152.3" y2="450.40000000000003" /><polygon fill="#0055AA" points="709.4,152.3 707.2869086912965,147.76846106481676 711.5130913087035,147.76846106481676" stroke="none" /><polygon fill="#0055AA" points="709.4,450.40000000000003 711.5130913087035,454.9315389351833 707.2869086912965,454.9315389351833" stroke="none" /><text fill="#0055AA" font-family="Arial, Helvetica, sans-serif" font-size="10px" text-anchor="middle" transform="translate(704.4,301.35) rotate(-90)" x="0" y="0">11'-0"</text><line stroke="#0055AA" stroke-width="0.5" x1="667.4" x2="747.4" y1="450.40000000000003" y2="450.40000000000003" /><line stroke="#0055AA" stroke-width="0.5" x1="667.4" x2="747.4" y1="571.0987343205953" y2="571.0987343205953" /><line stroke="#0055AA" stroke-width="0.75" x1="744.4" x2="744.4" y1="450.40000000000003" y2="571.0987343205953" /><polygon fill="#0055AA" points="744.4,450.40000000000003 742.2869086912965,445.86846106481676 746.5130913087035,445.86846106481676" stroke="none" /><polygon fill="#0055AA" points="744.4,571.0987343205953 746.5130913087035,575.6302732557785 742.2869086912965,575.6302732557785" stroke="none" /><text fill="#0055AA" font-family="Arial, Helvetica, sans-serif" font-size="10px" text-anchor="middle" transform="translate(739.4,510.74936716029765) rotate(-90)" x="0" y="0">4'-6"</text><line stroke="#0055AA" stroke-width="0.5" x1="496.0" x2="496.0" y1="149.3" y2="94.30000000000001" /><line stroke="#0055AA" stroke-width="0.5" x1="733.6" x2="733.6" y1="149.3" y2="94.30000000000001" /><line stroke="#0055AA" stroke-width="0.75" x1="496.0" x2="733.6" y1="97.30000000000001" y2="97.30000000000001" /><polygon fill="#0055AA" points="496.0,97.30000000000001 491.4684610648168,99.41309130870351 491.4684610648168,95.18690869129651" stroke="none" /><polygon fill="#0055AA" points="733.6,97.30000000000001 738.1315389351832,95.18690869129651 738.1315389351832,99.41309130870351" stroke="none" /><rect fill="white" height="13" stroke="none" width="32.5" x="598.55" y="87.30000000000001" /><text fill="#0055AA" font-family="Arial, Helvetica, sans-serif" font-size="10px" text-anchor="middle" x="614.8" y="96.30000000000001">9'-0"</text><line stroke="#0055AA" stroke-width="0.5" x1="496.0" x2="496.0" y1="572.2" y2="602.2" /><line stroke="#0055AA" stroke-width="0.5" x1="654.4" x2="654.4" y1="572.2" y2="602.2" /><line stroke="#0055AA" stroke-width="0.75" x1="496.0" x2="654.4" y1="599.2" y2="599.2" /><polygon fill="#0055AA" points="496.0,599.2 491.4684610648168,601.3130913087035 491.4684610648168,597.0869086912966" stroke="none" /><polygon fill="#0055AA" points="654.4,599.2 658.9315389351832,597.0869086912966 658.9315389351832,601.3130913087035" stroke="none" /><rect fill="white" height="13" stroke="none" width="32.5" x="558.95" y="589.2" /><text fill="#0055AA" font-family="Arial, Helvetica, sans-serif" font-size="10px" text-anchor="middle" x="575.2" y="598.2">6'-0"</text><line stroke="#0055AA" stroke-width="0.5" x1="496.0" x2="496.0" y1="572.2" y2="627.2" /><line stroke="#0055AA" stroke-width="0.5" x1="601.6" x2="601.6" y1="572.2" y2="627.2" /><line stroke="#0055AA" stroke-width="0.75" x1="496.0" x2="601.6" y1="624.2" y2="624.2" /><polygon fill="#0055AA" points="496.0,624.2 491.4684610648168,626.3130913087035 491.4684610648168,622.0869086912966" stroke="none" /><polygon fill="#0055AA" points="601.6,624.2 606.1315389351832,622.0869086912966 606.1315389351832,626.3130913087035" stroke="none" /><rect fill="white" height="13" stroke="none" width="32.5" x="532.55" y="614.2" /><text fill="#0055AA" font-family="Arial, Helvetica, sans-serif" font-size="10px" text-anchor="middle" x="548.8" y="623.2">4'-0"</text><line stroke="#CC0000" stroke-dasharray="3,2" stroke-width="0.5" x1="654.4" x2="699.4" y1="450.40000000000003" y2="450.40000000000003" /><path d="M 689.4,450.40000000000003 A 35,35 0 0,1 683.0703215501147,470.47517527228666" fill="none" stroke="#CC0000" stroke-width="1" /><text fill="#CC0000" font-family="Arial, Helvetica, sans-serif" font-size="10px" font-weight="bold" x="701.1321305866632" y="468.1345841757094">35.0°</text><line stroke="#0055AA" stroke-width="0.5" x1="654.4" x2="654.4" y1="572.2" y2="602.2" /><line stroke="#0055AA" stroke-width="0.5" x1="824.0639832009632" x2="824.0639832009632" y1="572.2" y2="602.2" /><line stroke="#0055AA" stroke-width="0.75" x1="654.4" x2="824.0639832009632" y1="599.2" y2="599.2" /><polygon fill="#0055AA" points="654.4,599.2 649.8684610648168,601.3130913087035 649.8684610648168,597.0869086912966" stroke="none" /><polygon fill="#0055AA" points="824.0639832009632,599.2 828.5955221361464,597.0869086912966 828.5955221361464,601.3130913087035" stroke="none" /><rect fill="white" height="13" stroke="none" width="117.0" x="680.7319916004816" y="589.2" /><text fill="#0055AA" font-family="Arial, Helvetica, sans-serif" font-size="10px" text-anchor="middle" x="739.2319916004816" y="598.2">Landing run: 6'-5"</text><text fill="#CC0000" font-family="Arial, Helvetica, sans-serif" font-size="9px" font-weight="bold" x="252.0" y="139.3">Bridge: 10'-0" x 2'-0"</text><text fill="#CC0000" font-family="Arial, Helvetica, sans-serif" font-size="9px" font-weight="bold" x="410.4" y="191.66">6x6 pylons into hillside</text><text fill="#CC0000" font-family="Arial, Helvetica, sans-serif" font-size="9px" font-weight="bold" x="705.2991949602889" y="498.6096202961786">Compact lander fill in 6" lifts</text><text fill="#CC0000" font-family="Arial, Helvetica, sans-serif" font-size="9px" font-weight="bold" x="774.0639832009632" y="583.0987343205953">18° landing slope</text><text fill="#CC0000" font-family="Arial, Helvetica, sans-serif" font-size="9px" font-weight="bold" x="1008.0639832009631" y="591.48">Smooth transition to flat</text><text fill="#CC0000" font-family="Arial, Helvetica, sans-serif" font-size="9px" font-weight="bold" x="488.79999999999995" y="381.20000000000005">Steep hillside</text><line stroke="#CC0000" stroke-dasharray="3,2" stroke-width="0.6" x1="521.6" x2="592.8000000000001" y1="542.8000000000001" y2="542.8000000000001" /><text fill="#CC0000" font-family="Arial, Helvetica, sans-serif" font-size="9px" font-weight="bold" x="521.6" y="539.8000000000001">8.0" dia. logs</text><text fill="#555" font-family="Arial, Helvetica, sans-serif" font-size="8px" font-style="italic" text-anchor="middle" x="364.0" y="149.3">BRIDGE DECK</text><text fill="#555" font-family="Arial, Helvetica, sans-serif" font-size="9px" font-weight="bold" text-anchor="middle" x="705.2991949602889" y="442.40000000000003">LOG CRIB LANDER</text></g><g><text fill="#222" font-family="Arial, Helvetica, sans-serif" font-size="14px" font-weight="bold" text-anchor="middle" x="624.0319916004815" y="774.2">TOP VIEW (PLAN)</text><rect fill="#E8E0D0" height="52.800000000000004" stroke="#333333" stroke-width="1" width="132.0" x="100.0" y="822.8000000000001" /><text fill="#555" font-family="Arial, Helvetica, sans-serif" font-size="8px" font-style="italic" text-anchor="middle" x="166.0" y="853.2">Trail</text><rect fill="#D4B87A" height="52.800000000000004" stroke="#333333" stroke-width="1.5" width="264.0" x="232.0" y="822.8000000000001" /><line stroke="#B89860" stroke-width="0.3" x1="232" x2="232" y1="822.8000000000001" y2="875.6" /><line stroke="#B89860" stroke-width="0.3" x1="244" x2="244" y1="822.8000000000001" y2="875.6" /><line stroke="#B89860" stroke-width="0.3" x1="256" x2="256" y1="822.8000000000001" y2="875.6" /><line stroke="#B89860" stroke-width="0.3" x1="268" x2="268" y1="822.8000000000001" y2="875.6" /><line stroke="#B89860" stroke-width="0.3" x1="280" x2="280" y1="822.8000000000001" y2="875.6" /><line stroke="#B89860" stroke-width="0.3" x1="292" x2="292" y1="822.8000000000001" y2="875.6" /><line stroke="#B89860" stroke-width="0.3" x1="304" x2="304" y1="822.8000000000001" y2="875.6" /><line stroke="#B89860" stroke-width="0.3" x1="316" x2="316" y1="822.8000000000001" y2="875.6" /><line stroke="#B89860" stroke-width="0.3" x1="328" x2="328" y1="822.8000000000001" y2="875.6" /><line stroke="#B89860" stroke-width="0.3" x1="340" x2="340" y1="822.8000000000001" y2="875.6" /><line stroke="#B89860" stroke-width="0.3" x1="352" x2="352" y1="822.8000000000001" y2="875.6" /><line stroke="#B89860" stroke-width="0.3" x1="364" x2="364" y1="822.8000000000001" y2="875.6" /><line stroke="#B89860" stroke-width="0.3" x1="376" x2="376" y1="822.8000000000001" y2="875.6" /><line stroke="#B89860" stroke-width="0.3" x1="388" x2="388" y1="822.8000000000001" y2="875.6" /><line stroke="#B89860" stroke-width="0.3" x1="400" x2="400" y1="822.8000000000001" y2="875.6" /><line stroke="#B89860" stroke-width="0.3" x1="412" x2="412" y1="822.8000000000001" y2="875.6" /><line stroke="#B89860" stroke-width="0.3" x1="424" x2="424" y1="822.8000000000001" y2="875.6" /><line stroke="#B89860" stroke-width="0.3" x1="436" x2="436" y1="822.8000000000001" y2="875.6" /><line stroke="#B89860" stroke-width="0.3" x1="448" x2="448" y1="822.8000000000001" y2="875.6" /><line stroke="#B89860" stroke-width="0.3" x1="460" x2="460" y1="822.8000000000001" y2="875.6" /><line stroke="#B89860" stroke-width="0.3" x1="472" x2="472" y1="822.8000000000001" y2="875.6" /><line stroke="#B89860" stroke-width="0.3" x1="484" x2="484" y1="822.8000000000001" y2="875.6" /><text fill="#555" font-family="Arial, Helvetica, sans-serif" font-size="9px" font-weight="bold" text-anchor="middle" x="364.0" y="853.2">BRIDGE</text><rect fill="#F8F4F0" height="82.80000000000001" stroke="#333333" stroke-dasharray="4,2" stroke-width="0.5" width="105.60000000000001" x="496.0" y="807.8000000000001" /><line stroke="#DDD" stroke-width="0.4" x1="496" x2="514" y1="812.8000000000001" y2="885.6" /><line stroke="#DDD" stroke-width="0.4" x1="506" x2="524" y1="812.8000000000001" y2="885.6" /><line stroke="#DDD" stroke-width="0.4" x1="516" x2="534" y1="812.8000000000001" y2="885.6" /><line stroke="#DDD" stroke-width="0.4" x1="526" x2="544" y1="812.8000000000001" y2="885.6" /><line stroke="#DDD" stroke-width="0.4" x1="536" x2="554" y1="812.8000000000001" y2="885.6" /><line stroke="#DDD" stroke-width="0.4" x1="546" x2="564" y1="812.8000000000001" y2="885.6" /><line stroke="#DDD" stroke-width="0.4" x1="556" x2="574" y1="812.8000000000001" y2="885.6" /><line stroke="#DDD" stroke-width="0.4" x1="566" x2="584" y1="812.8000000000001" y2="885.6" /><line stroke="#DDD" stroke-width="0.4" x1="576" x2="594" y1="812.8000000000001" y2="885.6" /><line stroke="#DDD" stroke-width="0.4" x1="586" x2="604" y1="812.8000000000001" y2="885.6" /><line stroke="#DDD" stroke-width="0.4" x1="596" x2="614" y1="812.8000000000001" y2="885.6" /><text fill="#CC0000" font-family="Arial, Helvetica, sans-serif" font-size="9px" font-weight="bold" text-anchor="middle" x="548.8" y="853.2">GAP / DROP ZONE</text><polygon fill="#C4A265" opacity="0.45" points="601.6,770.0 824.0639832009632,793.76 982.4639832009631,822.8000000000001 982.4639832009631,875.6 824.0639832009632,904.6400000000001 601.6,928.4000000000001" stroke="#333333" stroke-width="1" /><rect fill="#8B6B3D" height="158.4" stroke="#333333" stroke-width="1.5" width="17.6" x="584.0" y="770.0" /><line stroke="#6B5030" stroke-width="0.5" x1="584.0" x2="601.6" y1="770.0" y2="770.0" /><line stroke="#6B5030" stroke-width="0.5" x1="584.0" x2="601.6" y1="784.08" y2="784.08" /><line stroke="#6B5030" stroke-width="0.5" x1="584.0" x2="601.6" y1="798.16" y2="798.16" /><line stroke="#6B5030" stroke-width="0.5" x1="584.0" x2="601.6" y1="812.24" y2="812.24" /><line stroke="#6B5030" stroke-width="0.5" x1="584.0" x2="601.6" y1="826.32" y2="826.32" /><line stroke="#6B5030" stroke-width="0.5" x1="584.0" x2="601.6" y1="840.4" y2="840.4" /><line stroke="#6B5030" stroke-width="0.5" x1="584.0" x2="601.6" y1="854.48" y2="854.48" /><line stroke="#6B5030" stroke-width="0.5" x1="584.0" x2="601.6" y1="868.5600000000001" y2="868.5600000000001" /><line stroke="#6B5030" stroke-width="0.5" x1="584.0" x2="601.6" y1="882.64" y2="882.64" /><line stroke="#6B5030" stroke-width="0.5" x1="584.0" x2="601.6" y1="896.72" y2="896.72" /><line stroke="#6B5030" stroke-width="0.5" x1="584.0" x2="601.6" y1="910.8" y2="910.8" /><rect fill="#8B6B3D" height="17.6" stroke="#333333" stroke-width="1" width="88.98559328038527" x="601.6" y="770.0" /><rect fill="#8B6B3D" height="17.6" stroke="#333333" stroke-width="1" width="88.98559328038527" x="601.6" y="910.8000000000001" /><line stroke="#6B5030" stroke-width="0.5" x1="601.6" x2="601.6" y1="770.0" y2="787.6" /><line stroke="#6B5030" stroke-width="0.5" x1="601.6" x2="601.6" y1="910.8000000000001" y2="928.4000000000001" /><line stroke="#6B5030" stroke-width="0.5" x1="615.6800000000001" x2="615.6800000000001" y1="770.0" y2="787.6" /><line stroke="#6B5030" stroke-width="0.5" x1="615.6800000000001" x2="615.6800000000001" y1="910.8000000000001" y2="928.4000000000001" /><line stroke="#6B5030" stroke-width="0.5" x1="629.76" x2="629.76" y1="770.0" y2="787.6" /><line stroke="#6B5030" stroke-width="0.5" x1="629.76" x2="629.76" y1="910.8000000000001" y2="928.4000000000001" /><line stroke="#6B5030" stroke-width="0.5" x1="643.84" x2="643.84" y1="770.0" y2="787.6" /><line stroke="#6B5030" stroke-width="0.5" x1="643.84" x2="643.84" y1="910.8000000000001" y2="928.4000000000001" /><line stroke="#6B5030" stroke-width="0.5" x1="657.9200000000001" x2="657.9200000000001" y1="770.0" y2="787.6" /><line stroke="#6B5030" stroke-width="0.5" x1="657.9200000000001" x2="657.9200000000001" y1="910.8000000000001" y2="928.4000000000001" /><line stroke="#6B5030" stroke-width="0.5" x1="672.0" x2="672.0" y1="770.0" y2="787.6" /><line stroke="#6B5030" stroke-width="0.5" x1="672.0" x2="672.0" y1="910.8000000000001" y2="928.4000000000001" /><text fill="#CC0000" font-family="Arial, Helvetica, sans-serif" font-size="7px" font-weight="bold" text-anchor="middle" x="592.8000000000001" y="762.0">Log crib wall (back)</text><text fill="#CC0000" font-family="Arial, Helvetica, sans-serif" font-size="7px" text-anchor="middle" x="646.0927966401927" y="767.0">Side crib</text><text fill="#CC0000" font-family="Arial, Helvetica, sans-serif" font-size="7px" text-anchor="middle" x="646.0927966401927" y="938.4000000000001">Side crib</text><rect fill="#8B6B3D" height="10.56" opacity="0.4" stroke="#333333" stroke-width="0.5" width="79.2" x="601.6" y="804.32" /><rect fill="#8B6B3D" height="10.56" opacity="0.4" stroke="#333333" stroke-width="0.5" width="79.2" x="601.6" y="843.9200000000001" /><rect fill="#8B6B3D" height="10.56" opacity="0.4" stroke="#333333" stroke-width="0.5" width="79.2" x="601.6" y="883.52" /><line stroke="#CC0000" stroke-dasharray="4,3" stroke-width="1" x1="733.6" x2="733.6" y1="775.0" y2="923.4000000000001" /><text fill="#CC0000" font-family="Arial, Helvetica, sans-serif" font-size="8px" font-weight="bold" text-anchor="middle" x="733.6" y="942.4000000000001">Sweet spot (9')</text><text fill="#555" font-family="Arial, Helvetica, sans-serif" font-size="9px" font-weight="bold" text-anchor="middle" x="739.2319916004816" y="853.2">LANDER (fill)</text><text fill="#555" font-family="Arial, Helvetica, sans-serif" font-size="8px" font-style="italic" text-anchor="middle" x="739.2319916004816" y="865.2">18° landing slope</text><rect fill="#E8E0D0" height="52.800000000000004" stroke="#333333" stroke-width="1" width="105.60000000000001" x="982.4639832009631" y="822.8000000000001" /><text fill="#555" font-family="Arial, Helvetica, sans-serif" font-size="8px" font-style="italic" text-anchor="middle" x="1035.2639832009631" y="853.2">Runout</text><path d="M 496.0,885.6 C 556.0,983.4000000000001 733.6,983.4000000000001 824.0639832009632,885.6" fill="none" stroke="#66AA66" stroke-dasharray="6,3" stroke-width="1.5" /><text fill="#66AA66" font-family="Arial, Helvetica, sans-serif" font-size="9px" font-style="italic" text-anchor="middle" x="660.0319916004817" y="998.4000000000001">Bypass / roll-around</text><line stroke="#0055AA" stroke-width="0.5" x1="232.0" x2="232.0" y1="819.8000000000001" y2="794.8000000000001" /><line stroke="#0055AA" stroke-width="0.5" x1="496.0" x2="496.0" y1="819.8000000000001" y2="794.8000000000001" /><line stroke="#0055AA" stroke-width="0.75" x1="232.0" x2="496.0" y1="797.8000000000001" y2="797.8000000000001" /><polygon fill="#0055AA" points="232.0,797.8000000000001 227.46846106481675,799.9130913087035 227.46846106481675,795.6869086912966" stroke="none" /><polygon fill="#0055AA" points="496.0,797.8000000000001 500.5315389351833,795.6869086912966 500.5315389351832,799.9130913087035" stroke="none" /><rect fill="white" height="13" stroke="none" width="39.0" x="344.5" y="787.8000000000001" /><text fill="#0055AA" font-family="Arial, Helvetica, sans-serif" font-size="10px" text-anchor="middle" x="364.0" y="796.8000000000001">10'-0"</text><line stroke="#0055AA" stroke-width="0.5" x1="219.0" x2="189.0" y1="822.8000000000001" y2="822.8000000000001" /><line stroke="#0055AA" stroke-width="0.5" x1="219.0" x2="189.0" y1="875.6" y2="875.6" /><line stroke="#0055AA" stroke-width="0.75" x1="192.0" x2="192.0" y1="822.8000000000001" y2="875.6" /><polygon fill="#0055AA" points="192.0,822.8000000000001 189.8869086912965,818.2684610648168 194.1130913087035,818.2684610648168" stroke="none" /><polygon fill="#0055AA" points="192.0,875.6 194.1130913087035,880.1315389351832 189.8869086912965,880.1315389351832" stroke="none" /><text fill="#0055AA" font-family="Arial, Helvetica, sans-serif" font-size="10px" text-anchor="middle" transform="translate(187.0,849.2) rotate(-90)" x="0" y="0">2'-0"</text><line stroke="#0055AA" stroke-width="0.5" x1="496.0" x2="496.0" y1="819.8000000000001" y2="794.8000000000001" /><line stroke="#0055AA" stroke-width="0.5" x1="601.6" x2="601.6" y1="819.8000000000001" y2="794.8000000000001" /><line stroke="#0055AA" stroke-width="0.75" x1="496.0" x2="601.6" y1="797.8000000000001" y2="797.8000000000001" /><polygon fill="#0055AA" points="496.0,797.8000000000001 491.4684610648168,799.9130913087035 491.4684610648168,795.6869086912966" stroke="none" /><polygon fill="#0055AA" points="601.6,797.8000000000001 606.1315389351832,795.6869086912966 606.1315389351832,799.9130913087035" stroke="none" /><rect fill="white" height="13" stroke="none" width="32.5" x="532.55" y="787.8000000000001" /><text fill="#0055AA" font-family="Arial, Helvetica, sans-serif" font-size="10px" text-anchor="middle" x="548.8" y="796.8000000000001">4'-0"</text><line stroke="#0055AA" stroke-width="0.5" x1="496.0" x2="496.0" y1="767.0" y2="742.0" /><line stroke="#0055AA" stroke-width="0.5" x1="733.6" x2="733.6" y1="767.0" y2="742.0" /><line stroke="#0055AA" stroke-width="0.75" x1="496.0" x2="733.6" y1="745.0" y2="745.0" /><polygon fill="#0055AA" points="496.0,745.0 491.4684610648168,747.1130913087035 491.4684610648168,742.8869086912965" stroke="none" /><polygon fill="#0055AA" points="733.6,745.0 738.1315389351832,742.8869086912965 738.1315389351832,747.1130913087035" stroke="none" /><rect fill="white" height="13" stroke="none" width="32.5" x="598.55" y="735.0" /><text fill="#0055AA" font-family="Arial, Helvetica, sans-serif" font-size="10px" text-anchor="middle" x="614.8" y="744.0">9'-0"</text></g><g><text fill="#111" font-family="Arial, Helvetica, sans-serif" font-size="11px" font-weight="bold" x="100" y="1101.2">NOTES:</text><text fill="#333" font-family="Arial, Helvetica, sans-serif" font-size="10px" x="110" y="1117.2">1. All dimensions in inches unless noted</text><text fill="#333" font-family="Arial, Helvetica, sans-serif" font-size="10px" x="110" y="1133.2">2. Bridge: pressure-treated lumber or rot-resistant species (cedar, locust)</text><text fill="#333" font-family="Arial, Helvetica, sans-serif" font-size="10px" x="110" y="1149.2">3. Pylons: 6x6 PT posts driven/buried min 24" into hillside with compacted gravel</text><text fill="#333" font-family="Arial, Helvetica, sans-serif" font-size="10px" x="110" y="1165.2">4. All hardware: hot-dipped galvanized or stainless steel</text><text fill="#333" font-family="Arial, Helvetica, sans-serif" font-size="10px" x="110" y="1181.2">5. Attach non-slip mesh (chicken wire) to bridge deck surface</text><text fill="#333" font-family="Arial, Helvetica, sans-serif" font-size="10px" x="110" y="1197.2">6. Lander: compact fill in 6" lifts with plate compactor</text><text fill="#333" font-family="Arial, Helvetica, sans-serif" font-size="10px" x="110" y="1213.2">7. Use mineral soil only (clay/gravel mix, no organics)</text><text fill="#333" font-family="Arial, Helvetica, sans-serif" font-size="10px" x="110" y="1229.2">8. Landing slope (35.0°) provides gradual deceleration — no kicker at base</text><text fill="#333" font-family="Arial, Helvetica, sans-serif" font-size="10px" x="110" y="1245.2">9. Rider must have clear sight line from bridge to landing zone</text><text fill="#333" font-family="Arial, Helvetica, sans-serif" font-size="10px" x="110" y="1261.2">10. ALWAYS provide a bypass / roll-around for this feature</text><text fill="#333" font-family="Arial, Helvetica, sans-serif" font-size="10px" x="110" y="1277.2">11. Total vertical drop from deck to lander peak: 11'-0" — expert-level feature</text><text fill="#333" font-family="Arial, Helvetica, sans-serif" font-size="10px" x="110" y="1293.2">12. Log crib wall: 8.0" dia. logs, peeled, stacked horizontally, pinned with #4 rebar</text><text fill="#333" font-family="Arial, Helvetica, sans-serif" font-size="10px" x="110" y="1309.2">13. Pin each log course to the one below — drive 24" rebar through pre-drilled holes</text><text fill="#333" font-family="Arial, Helvetica, sans-serif" font-size="10px" x="110" y="1325.2">14. Deadman tie-backs every 2-3 courses extending 4 ft into compacted fill behind wall</text><text fill="#333" font-family="Arial, Helvetica, sans-serif" font-size="10px" x="110" y="1341.2">15. Place 3/4" crushed gravel behind crib wall with filter fabric for drainage</text><text fill="#333" font-family="Arial, Helvetica, sans-serif" font-size="10px" x="110" y="1357.2">16. Bottom course of logs set on compacted gravel pad, first rebar pins driven into native soil</text><text fill="#111" font-family="Arial, Helvetica, sans-serif" font-size="11px" font-weight="bold" x="100" y="1383.2">MATERIALS:</text><rect fill="#E8E8E8" height="18" stroke="#AAA" stroke-width="0.5" width="650" x="100" y="1388.2" /><text fill="#111" font-family="Arial, Helvetica, sans-serif" font-size="10px" font-weight="bold" x="105" y="1401.2">Item</text><text fill="#111" font-family="Arial, Helvetica, sans-serif" font-size="10px" font-weight="bold" x="295" y="1401.2">Size</text><text fill="#111" font-family="Arial, Helvetica, sans-serif" font-size="10px" font-weight="bold" x="415" y="1401.2">Qty</text><text fill="#111" font-family="Arial, Helvetica, sans-serif" font-size="10px" font-weight="bold" x="485" y="1401.2">Notes</text><rect fill="none" height="18" stroke="#CCC" stroke-width="0.5" width="650" x="100" y="1406.2" /><text fill="#333" font-family="Arial, Helvetica, sans-serif" font-size="10px" x="105" y="1419.2">Bridge beams</text><text fill="#333" font-family="Arial, Helvetica, sans-serif" font-size="10px" x="295" y="1419.2">4x8 or doubled 2x8</text><text fill="#333" font-family="Arial, Helvetica, sans-serif" font-size="10px" x="415" y="1419.2">2</text><text fill="#333" font-family="Arial, Helvetica, sans-serif" font-size="10px" x="485" y="1419.2">Full length (10'-0")</text><rect fill="none" height="18" stroke="#CCC" stroke-width="0.5" width="650" x="100" y="1424.2" /><text fill="#333" font-family="Arial, Helvetica, sans-serif" font-size="10px" x="105" y="1437.2">Bridge decking</text><text fill="#333" font-family="Arial, Helvetica, sans-serif" font-size="10px" x="295" y="1437.2">2x6</text><text fill="#333" font-family="Arial, Helvetica, sans-serif" font-size="10px" x="415" y="1437.2">5 boards x 10'-0"</text><text fill="#333" font-family="Arial, Helvetica, sans-serif" font-size="10px" x="485" y="1437.2">PT lumber, 1/8" gap</text><rect fill="none" height="18" stroke="#CCC" stroke-width="0.5" width="650" x="100" y="1442.2" /><text fill="#333" font-family="Arial, Helvetica, sans-serif" font-size="10px" x="105" y="1455.2">Joists</text><text fill="#333" font-family="Arial, Helvetica, sans-serif" font-size="10px" x="295" y="1455.2">2x6</text><text fill="#333" font-family="Arial, Helvetica, sans-serif" font-size="10px" x="415" y="1455.2">8</text><text fill="#333" font-family="Arial, Helvetica, sans-serif" font-size="10px" x="485" y="1455.2">16" OC</text><rect fill="none" height="18" stroke="#CCC" stroke-width="0.5" width="650" x="100" y="1460.2" /><text fill="#333" font-family="Arial, Helvetica, sans-serif" font-size="10px" x="105" y="1473.2">Pylons</text><text fill="#333" font-family="Arial, Helvetica, sans-serif" font-size="10px" x="295" y="1473.2">6x6</text><text fill="#333" font-family="Arial, Helvetica, sans-serif" font-size="10px" x="415" y="1473.2">5</text><text fill="#333" font-family="Arial, Helvetica, sans-serif" font-size="10px" x="485" y="1473.2">PT, min 24" buried into hillside</text><rect fill="none" height="18" stroke="#CCC" stroke-width="0.5" width="650" x="100" y="1478.2" /><text fill="#333" font-family="Arial, Helvetica, sans-serif" font-size="10px" x="105" y="1491.2">Cross-bracing</text><text fill="#333" font-family="Arial, Helvetica, sans-serif" font-size="10px" x="295" y="1491.2">2x6</text><text fill="#333" font-family="Arial, Helvetica, sans-serif" font-size="10px" x="415" y="1491.2">4</text><text fill="#333" font-family="Arial, Helvetica, sans-serif" font-size="10px" x="485" y="1491.2">Between pylons for lateral stability</text><rect fill="none" height="18" stroke="#CCC" stroke-width="0.5" width="650" x="100" y="1496.2" /><text fill="#333" font-family="Arial, Helvetica, sans-serif" font-size="10px" x="105" y="1509.2">Non-slip mesh</text><text fill="#333" font-family="Arial, Helvetica, sans-serif" font-size="10px" x="295" y="1509.2">Chicken wire</text><text fill="#333" font-family="Arial, Helvetica, sans-serif" font-size="10px" x="415" y="1509.2">10'-0" x 2'-0"</text><text fill="#333" font-family="Arial, Helvetica, sans-serif" font-size="10px" x="485" y="1509.2">Stapled to deck</text><rect fill="none" height="18" stroke="#CCC" stroke-width="0.5" width="650" x="100" y="1514.2" /><text fill="#333" font-family="Arial, Helvetica, sans-serif" font-size="10px" x="105" y="1527.2">Fill dirt (lander)</text><text fill="#333" font-family="Arial, Helvetica, sans-serif" font-size="10px" x="295" y="1527.2">Mineral soil</text><text fill="#333" font-family="Arial, Helvetica, sans-serif" font-size="10px" x="415" y="1527.2">~10-15 cu yd</text><text fill="#333" font-family="Arial, Helvetica, sans-serif" font-size="10px" x="485" y="1527.2">Compact in 6" lifts</text><rect fill="none" height="18" stroke="#CCC" stroke-width="0.5" width="650" x="100" y="1532.2" /><text fill="#333" font-family="Arial, Helvetica, sans-serif" font-size="10px" x="105" y="1545.2">Topsoil (lander finish)</text><text fill="#333" font-family="Arial, Helvetica, sans-serif" font-size="10px" x="295" y="1545.2" /><text fill="#333" font-family="Arial, Helvetica, sans-serif" font-size="10px" x="415" y="1545.2">~1-2 cu yd</text><text fill="#333" font-family="Arial, Helvetica, sans-serif" font-size="10px" x="485" y="1545.2">Final shaping layer only</text><rect fill="none" height="18" stroke="#CCC" stroke-width="0.5" width="650" x="100" y="1550.2" /><text fill="#333" font-family="Arial, Helvetica, sans-serif" font-size="10px" x="105" y="1563.2">Crib wall logs</text><text fill="#333" font-family="Arial, Helvetica, sans-serif" font-size="10px" x="295" y="1563.2">8.0" dia. x 6-8' long</text><text fill="#333" font-family="Arial, Helvetica, sans-serif" font-size="10px" x="415" y="1563.2">~28</text><text fill="#333" font-family="Arial, Helvetica, sans-serif" font-size="10px" x="485" y="1563.2">Back wall + 2 side walls, peeled</text><rect fill="none" height="18" stroke="#CCC" stroke-width="0.5" width="650" x="100" y="1568.2" /><text fill="#333" font-family="Arial, Helvetica, sans-serif" font-size="10px" x="105" y="1581.2">Deadman tie-back logs</text><text fill="#333" font-family="Arial, Helvetica, sans-serif" font-size="10px" x="295" y="1581.2">8.0" dia. x 4' long</text><text fill="#333" font-family="Arial, Helvetica, sans-serif" font-size="10px" x="415" y="1581.2">6-8</text><text fill="#333" font-family="Arial, Helvetica, sans-serif" font-size="10px" x="485" y="1581.2">Perpendicular tie-backs every 2-3 courses</text><rect fill="none" height="18" stroke="#CCC" stroke-width="0.5" width="650" x="100" y="1586.2" /><text fill="#333" font-family="Arial, Helvetica, sans-serif" font-size="10px" x="105" y="1599.2">Rebar pins</text><text fill="#333" font-family="Arial, Helvetica, sans-serif" font-size="10px" x="295" y="1599.2">#4 rebar, 24" long</text><text fill="#333" font-family="Arial, Helvetica, sans-serif" font-size="10px" x="415" y="1599.2">~20-24</text><text fill="#333" font-family="Arial, Helvetica, sans-serif" font-size="10px" x="485" y="1599.2">Pin logs together + anchor to ground</text><rect fill="none" height="18" stroke="#CCC" stroke-width="0.5" width="650" x="100" y="1604.2" /><text fill="#333" font-family="Arial, Helvetica, sans-serif" font-size="10px" x="105" y="1617.2">Gravel backfill</text><text fill="#333" font-family="Arial, Helvetica, sans-serif" font-size="10px" x="295" y="1617.2">3/4" crushed</text><text fill="#333" font-family="Arial, Helvetica, sans-serif" font-size="10px" x="415" y="1617.2">~2-3 cu yd</text><text fill="#333" font-family="Arial, Helvetica, sans-serif" font-size="10px" x="485" y="1617.2">Behind crib wall for drainage</text><rect fill="none" height="18" stroke="#CCC" stroke-width="0.5" width="650" x="100" y="1622.2" /><text fill="#333" font-family="Arial, Helvetica, sans-serif" font-size="10px" x="105" y="1635.2">Filter fabric</text><text fill="#333" font-family="Arial, Helvetica, sans-serif" font-size="10px" x="295" y="1635.2">Non-woven geotextile</text><text fill="#333" font-family="Arial, Helvetica, sans-serif" font-size="10px" x="415" y="1635.2">~50 sq ft</text><text fill="#333" font-family="Arial, Helvetica, sans-serif" font-size="10px" x="485" y="1635.2">Between gravel and fill behind crib</text></g><rect fill="#F0F0F0" height="100" stroke="#333" stroke-width="1.5" width="360" x="868.0639832009631" y="1501.2" /><text fill="#111" font-family="Arial, Helvetica, sans-serif" font-size="14px" font-weight="bold" x="878.0639832009631" y="1521.2">Bridge Drop — 35° Lander</text><text fill="#555" font-family="Arial, Helvetica, sans-serif" font-size="9px" x="878.0639832009631" y="1539.2">Bridge: 10'-0" x 2'-0"  |  Deck to ground: 3'-0"</text><text fill="#555" font-family="Arial, Helvetica, sans-serif" font-size="9px" x="878.0639832009631" y="1553.2">Vertical drop to lander: 11'-0"  |  Drop to ground: 15'-6"</text><text fill="#555" font-family="Arial, Helvetica, sans-serif" font-size="9px" x="878.0639832009631" y="1567.2">Sweet spot: 9'-0" horiz  |  Lander: 4'-6" tall  |  Landing: 35.0°</text><text fill="#CC0000" font-family="Arial, Helvetica, sans-serif" font-size="9px" font-weight="bold" x="878.0639832009631" y="1581.2">Rating: DOUBLE BLACK — Expert only</text><text fill="#555" font-family="Arial, Helvetica, sans-serif" font-size="9px" x="878.0639832009631" y="1594.2">Date: 2026-03-27</text></svg>