<?xml version="1.0" encoding="utf-8" ?>
<svg baseProfile="full" height="1621.2px" version="1.1" viewBox="0 0 1333.1674221565356 1621.2" width="1333.1674221565356px" xmlns="http://www.w3.org/2000/svg" xmlns:ev="http://www.w3.org/2001/xml-events" xmlns:xlink="http://www.w3.org/1999/xlink"><defs /><rect fill="#FFFFFF" height="1621.2" width="1333.1674221565356" x="0" y="0" /><rect fill="none" height="1605.2" stroke="#333" stroke-width="1.5" width="1317.1674221565356" x="8" y="8" /><g><text fill="#222" font-family="Arial, Helvetica, sans-serif" font-size="14px" font-weight="bold" text-anchor="middle" x="666.5837110782678" y="45">SIDE PROFILE</text><polygon fill="#D5C9A0" opacity="0.25" points="100,175.0 104,174.54545454545456 108,174.0909090909091 112,173.63636363636363 116,173.1818181818182 120,172.72727272727272 124,172.27272727272728 128,171.8181818181818 132,171.36363636363637 136,170.9090909090909 140,170.45454545454547 144,170.0 148,169.54545454545453 152,169.0909090909091 156,168.63636363636363 160,168.1818181818182 164,167.72727272727272 168,167.27272727272728 172,166.8181818181818 176,166.36363636363637 180,165.9090909090909 184,165.45454545454547 188,165.0 192,164.54545454545453 196,164.0909090909091 200,163.63636363636363 204,163.1818181818182 208,162.72727272727272 212,162.27272727272728 216,161.8181818181818 220,161.36363636363637 224,160.9090909090909 228,160.45454545454547 232,160.0 236,166.12424242424242 240,167.24848484848485 244,168.37272727272727 248,169.4969696969697 252,170.62121212121212 256,171.74545454545455 260,172.86969696969697 264,173.9939393939394 268,175.11818181818182 272,176.24242424242425 276,177.36666666666667 280,178.4909090909091 284,179.61515151515152 288,180.73939393939395 292,181.86363636363637 296,182.9878787878788 300,184.11212121212122 304,185.23636363636362 308,186.36060606060607 312,187.48484848484847 316,188.6090909090909 320,189.73333333333332 324,190.85757575757575 328,191.98181818181817 332,193.1060606060606 336,194.23030303030302 340,195.35454545454544 344,196.47878787878787 348,197.6030303030303 352,198.72727272727272 356,199.85151515151514 360,200.97575757575757 364,202.1 368,203.22424242424242 372,204.34848484848484 376,205.47272727272727 380,206.5969696969697 384,207.72121212121212 388,208.84545454545454 392,209.96969696969697 396,211.0939393939394 400,212.21818181818182 404,213.34242424242424 408,214.46666666666664 412,215.59090909090907 416,216.71515151515152 420,217.83939393939394 424,218.96363636363634 428,220.08787878787876 432,221.2121212121212 436,222.33636363636361 440,223.46060606060604 444,224.58484848484846 448,225.7090909090909 452,226.83333333333331 456,227.95757575757574 460,229.08181818181816 464,230.2060606060606 468,231.330303030303 472,232.45454545454544 476,233.57878787878786 480,234.7030303030303 484,235.8272727272727 488,236.95151515151514 492,238.07575757575756 496,239.2 500,285.49686500706457 504,309.3729252687034 508,328.7002681682869 512,345.5622653502698 516,360.800003197783 520,374.8570391697957 524,388.0025616740701 528,400.41504764297883 532,412.22031143951006 536,423.51113933459703 540,434.35837570970267 544,444.8176216334094 548,454.9335028501626 552,464.74250786857317 556,474.274942845599 560,483.55631848322616 564,492.608359022346 568,501.44975239165393 572,510.0967185480289 576,518.5634472818551 580,526.8624404681634 584,535.0047831564568 588,543.0003608432155 592,550.8580354762255 596,558.585789414564 600,566.1908442213096 604,569.2624253370705 608,569.3664675655211 612,569.4705097939718 616,569.5745520224225 620,569.6785942508732 624,569.7826364793239 628,569.8866787077746 632,569.9907209362253 636,570.094763164676 640,570.1988053931267 644,570.3028476215774 648,570.406889850028 652,570.5109320784787 656,570.6149743069294 660,570.7190165353801 664,570.8230587638308 668,570.9271009922815 672,571.0311432207321 676,571.1351854491829 680,571.2392276776336 684,571.3432699060843 688,571.447312134535 692,571.5513543629856 696,571.6553965914363 700,571.759438819887 704,571.8634810483377 708,571.9675232767884 712,572.071565505239 716,572.1756077336897 720,572.2796499621404 724,572.3836921905912 728,572.4877344190419 732,572.5917766474926 736,572.6958188759432 740,572.7998611043939 744,572.9039033328446 748,573.0079455612953 752,573.111987789746 756,573.2160300181966 760,573.3200722466473 764,573.424114475098 768,573.5281567035487 772,573.6321989319995 776,573.7362411604502 780,573.8402833889008 784,573.9443256173515 788,574.0483678458022 792,574.1524100742529 796,574.2564523027036 800,574.3604945311542 804,574.4645367596049 808,574.5685789880556 812,574.6726212165063 816,574.776663444957 820,574.8807056734076 824,574.9847479018584 828,575.0887901303091 832,575.1928323587598 836,575.2968745872105 840,575.4009168156612 844,575.5049590441118 848,575.6090012725625 852,575.7130435010132 856,575.8170857294639 860,575.9211279579146 864,576.0251701863652 868,576.1292124148159 872,576.2332546432667 876,576.3372968717174 880,576.4413391001681 884,576.5453813286188 888,576.6494235570694 892,576.7534657855201 896,576.8575080139708 900,576.9615502424215 904,577.0655924708722 908,577.1696346993228 912,577.2566515568693 916,577.3366515568694 920,577.4166515568693 924,577.4966515568693 928,577.5766515568694 932,577.6566515568693 936,577.7366515568693 940,577.8166515568694 944,577.8966515568693 948,577.9766515568693 952,578.0566515568694 956,578.1366515568693 960,578.2166515568694 964,578.2966515568693 968,578.3766515568693 972,578.4566515568694 976,578.5366515568693 980,578.6166515568693 984,578.6966515568694 988,578.7766515568693 992,578.8566515568693 996,578.9366515568694 1000,579.0166515568693 1004,579.0966515568693 1008,579.1766515568694 1012,579.2566515568693 1016,579.3366515568694 1020,579.4166515568693 1024,579.4966515568693 1028,579.5766515568694 1032,579.6566515568693 1036,579.7366515568693 1040,579.8166515568694 1044,579.8966515568693 1048,579.9766515568693 1052,580.0566515568694 1056,580.1366515568693 1060,580.2166515568694 1064,580.2966515568693 1068,580.3766515568693 1072,580.4566515568694 1076,580.5366515568693 1080,580.6166515568693 1084,580.6966515568694 1088,580.7766515568693 1092,580.8566515568693 1096,580.9366515568694 1100,581.0166515568693 1104,581.0966515568693 1108,581.1766515568694 1112,581.2566515568693 1116,581.3366515568694 1120,581.4166515568693 1124,581.4966515568693 1128,581.5766515568694 1132,581.6566515568693 1136,581.7366515568693 1140,581.8166515568694 1144,581.8966515568693 1148,581.9766515568693 1152,582.0566515568694 1156,582.1366515568693 1160,582.2166515568694 1164,582.2966515568693 1168,582.3766515568693 1172,582.4566515568694 1176,582.5366515568693 1173.1674221565356,649.2 100.0,649.2" stroke="none" /><path d="M 100,175.0 L 104,174.54545454545456 L 108,174.0909090909091 L 112,173.63636363636363 L 116,173.1818181818182 L 120,172.72727272727272 L 124,172.27272727272728 L 128,171.8181818181818 L 132,171.36363636363637 L 136,170.9090909090909 L 140,170.45454545454547 L 144,170.0 L 148,169.54545454545453 L 152,169.0909090909091 L 156,168.63636363636363 L 160,168.1818181818182 L 164,167.72727272727272 L 168,167.27272727272728 L 172,166.8181818181818 L 176,166.36363636363637 L 180,165.9090909090909 L 184,165.45454545454547 L 188,165.0 L 192,164.54545454545453 L 196,164.0909090909091 L 200,163.63636363636363 L 204,163.1818181818182 L 208,162.72727272727272 L 212,162.27272727272728 L 216,161.8181818181818 L 220,161.36363636363637 L 224,160.9090909090909 L 228,160.45454545454547 L 232,160.0 L 236,166.12424242424242 L 240,167.24848484848485 L 244,168.37272727272727 L 248,169.4969696969697 L 252,170.62121212121212 L 256,171.74545454545455 L 260,172.86969696969697 L 264,173.9939393939394 L 268,175.11818181818182 L 272,176.24242424242425 L 276,177.36666666666667 L 280,178.4909090909091 L 284,179.61515151515152 L 288,180.73939393939395 L 292,181.86363636363637 L 296,182.9878787878788 L 300,184.11212121212122 L 304,185.23636363636362 L 308,186.36060606060607 L 312,187.48484848484847 L 316,188.6090909090909 L 320,189.73333333333332 L 324,190.85757575757575 L 328,191.98181818181817 L 332,193.1060606060606 L 336,194.23030303030302 L 340,195.35454545454544 L 344,196.47878787878787 L 348,197.6030303030303 L 352,198.72727272727272 L 356,199.85151515151514 L 360,200.97575757575757 L 364,202.1 L 368,203.22424242424242 L 372,204.34848484848484 L 376,205.47272727272727 L 380,206.5969696969697 L 384,207.72121212121212 L 388,208.84545454545454 L 392,209.96969696969697 L 396,211.0939393939394 L 400,212.21818181818182 L 404,213.34242424242424 L 408,214.46666666666664 L 412,215.59090909090907 L 416,216.71515151515152 L 420,217.83939393939394 L 424,218.96363636363634 L 428,220.08787878787876 L 432,221.2121212121212 L 436,222.33636363636361 L 440,223.46060606060604 L 444,224.58484848484846 L 448,225.7090909090909 L 452,226.83333333333331 L 456,227.95757575757574 L 460,229.08181818181816 L 464,230.2060606060606 L 468,231.330303030303 L 472,232.45454545454544 L 476,233.57878787878786 L 480,234.7030303030303 L 484,235.8272727272727 L 488,236.95151515151514 L 492,238.07575757575756 L 496,239.2 L 500,285.49686500706457 L 504,309.3729252687034 L 508,328.7002681682869 L 512,345.5622653502698 L 516,360.800003197783 L 520,374.8570391697957 L 524,388.0025616740701 L 528,400.41504764297883 L 532,412.22031143951006 L 536,423.51113933459703 L 540,434.35837570970267 L 544,444.8176216334094 L 548,454.9335028501626 L 552,464.74250786857317 L 556,474.274942845599 L 560,483.55631848322616 L 564,492.608359022346 L 568,501.44975239165393 L 572,510.0967185480289 L 576,518.5634472818551 L 580,526.8624404681634 L 584,535.0047831564568 L 588,543.0003608432155 L 592,550.8580354762255 L 596,558.585789414564 L 600,566.1908442213096 L 604,569.2624253370705 L 608,569.3664675655211 L 612,569.4705097939718 L 616,569.5745520224225 L 620,569.6785942508732 L 624,569.7826364793239 L 628,569.8866787077746 L 632,569.9907209362253 L 636,570.094763164676 L 640,570.1988053931267 L 644,570.3028476215774 L 648,570.406889850028 L 652,570.5109320784787 L 656,570.6149743069294 L 660,570.7190165353801 L 664,570.8230587638308 L 668,570.9271009922815 L 672,571.0311432207321 L 676,571.1351854491829 L 680,571.2392276776336 L 684,571.3432699060843 L 688,571.447312134535 L 692,571.5513543629856 L 696,571.6553965914363 L 700,571.759438819887 L 704,571.8634810483377 L 708,571.9675232767884 L 712,572.071565505239 L 716,572.1756077336897 L 720,572.2796499621404 L 724,572.3836921905912 L 728,572.4877344190419 L 732,572.5917766474926 L 736,572.6958188759432 L 740,572.7998611043939 L 744,572.9039033328446 L 748,573.0079455612953 L 752,573.111987789746 L 756,573.2160300181966 L 760,573.3200722466473 L 764,573.424114475098 L 768,573.5281567035487 L 772,573.6321989319995 L 776,573.7362411604502 L 780,573.8402833889008 L 784,573.9443256173515 L 788,574.0483678458022 L 792,574.1524100742529 L 796,574.2564523027036 L 800,574.3604945311542 L 804,574.4645367596049 L 808,574.5685789880556 L 812,574.6726212165063 L 816,574.776663444957 L 820,574.8807056734076 L 824,574.9847479018584 L 828,575.0887901303091 L 832,575.1928323587598 L 836,575.2968745872105 L 840,575.4009168156612 L 844,575.5049590441118 L 848,575.6090012725625 L 852,575.7130435010132 L 856,575.8170857294639 L 860,575.9211279579146 L 864,576.0251701863652 L 868,576.1292124148159 L 872,576.2332546432667 L 876,576.3372968717174 L 880,576.4413391001681 L 884,576.5453813286188 L 888,576.6494235570694 L 892,576.7534657855201 L 896,576.8575080139708 L 900,576.9615502424215 L 904,577.0655924708722 L 908,577.1696346993228 L 912,577.2566515568693 L 916,577.3366515568694 L 920,577.4166515568693 L 924,577.4966515568693 L 928,577.5766515568694 L 932,577.6566515568693 L 936,577.7366515568693 L 940,577.8166515568694 L 944,577.8966515568693 L 948,577.9766515568693 L 952,578.0566515568694 L 956,578.1366515568693 L 960,578.2166515568694 L 964,578.2966515568693 L 968,578.3766515568693 L 972,578.4566515568694 L 976,578.5366515568693 L 980,578.6166515568693 L 984,578.6966515568694 L 988,578.7766515568693 L 992,578.8566515568693 L 996,578.9366515568694 L 1000,579.0166515568693 L 1004,579.0966515568693 L 1008,579.1766515568694 L 1012,579.2566515568693 L 1016,579.3366515568694 L 1020,579.4166515568693 L 1024,579.4966515568693 L 1028,579.5766515568694 L 1032,579.6566515568693 L 1036,579.7366515568693 L 1040,579.8166515568694 L 1044,579.8966515568693 L 1048,579.9766515568693 L 1052,580.0566515568694 L 1056,580.1366515568693 L 1060,580.2166515568694 L 1064,580.2966515568693 L 1068,580.3766515568693 L 1072,580.4566515568694 L 1076,580.5366515568693 L 1080,580.6166515568693 L 1084,580.6966515568694 L 1088,580.7766515568693 L 1092,580.8566515568693 L 1096,580.9366515568694 L 1100,581.0166515568693 L 1104,581.0966515568693 L 1108,581.1766515568694 L 1112,581.2566515568693 L 1116,581.3366515568694 L 1120,581.4166515568693 L 1124,581.4966515568693 L 1128,581.5766515568694 L 1132,581.6566515568693 L 1136,581.7366515568693 L 1140,581.8166515568694 L 1144,581.8966515568693 L 1148,581.9766515568693 L 1152,582.0566515568694 L 1156,582.1366515568693 L 1160,582.2166515568694 L 1164,582.2966515568693 L 1168,582.3766515568693 L 1172,582.4566515568694 L 1176,582.5366515568693 " fill="none" stroke="#999" stroke-dasharray="6,3" stroke-width="0.75" /><line stroke="#BBB" stroke-width="0.35" x1="100" x2="105" y1="175.0" y2="182.0" /><line stroke="#BBB" stroke-width="0.35" x1="124" x2="129" y1="172.27272727272728" y2="179.27272727272728" /><line stroke="#BBB" stroke-width="0.35" x1="148" x2="153" y1="169.54545454545453" y2="176.54545454545453" /><line stroke="#BBB" stroke-width="0.35" x1="172" x2="177" y1="166.8181818181818" y2="173.8181818181818" /><line stroke="#BBB" stroke-width="0.35" x1="196" x2="201" y1="164.0909090909091" y2="171.0909090909091" /><line stroke="#BBB" stroke-width="0.35" x1="220" x2="225" y1="161.36363636363637" y2="168.36363636363637" /><line stroke="#BBB" stroke-width="0.35" x1="244" x2="249" y1="168.37272727272727" y2="175.37272727272727" /><line stroke="#BBB" stroke-width="0.35" x1="268" x2="273" y1="175.11818181818182" y2="182.11818181818182" /><line stroke="#BBB" stroke-width="0.35" x1="292" x2="297" y1="181.86363636363637" y2="188.86363636363637" /><line stroke="#BBB" stroke-width="0.35" x1="316" x2="321" y1="188.6090909090909" y2="195.6090909090909" /><line stroke="#BBB" stroke-width="0.35" x1="340" x2="345" y1="195.35454545454544" y2="202.35454545454544" /><line stroke="#BBB" stroke-width="0.35" x1="364" x2="369" y1="202.1" y2="209.1" /><line stroke="#BBB" stroke-width="0.35" x1="388" x2="393" y1="208.84545454545454" y2="215.84545454545454" /><line stroke="#BBB" stroke-width="0.35" x1="412" x2="417" y1="215.59090909090907" y2="222.59090909090907" /><line stroke="#BBB" stroke-width="0.35" x1="436" x2="441" y1="222.33636363636361" y2="229.33636363636361" /><line stroke="#BBB" stroke-width="0.35" x1="460" x2="465" y1="229.08181818181816" y2="236.08181818181816" /><line stroke="#BBB" stroke-width="0.35" x1="484" x2="489" y1="235.8272727272727" y2="242.8272727272727" /><line stroke="#BBB" stroke-width="0.35" x1="508" x2="513" y1="328.7002681682869" y2="335.7002681682869" /><line stroke="#BBB" stroke-width="0.35" x1="532" x2="537" y1="412.22031143951006" y2="419.22031143951006" /><line stroke="#BBB" stroke-width="0.35" x1="556" x2="561" y1="474.274942845599" y2="481.274942845599" /><line stroke="#BBB" stroke-width="0.35" x1="580" x2="585" y1="526.8624404681634" y2="533.8624404681634" /><line stroke="#BBB" stroke-width="0.35" x1="604" x2="609" y1="569.2624253370705" y2="576.2624253370705" /><line stroke="#BBB" stroke-width="0.35" x1="628" x2="633" y1="569.8866787077746" y2="576.8866787077746" /><line stroke="#BBB" stroke-width="0.35" x1="652" x2="657" y1="570.5109320784787" y2="577.5109320784787" /><line stroke="#BBB" stroke-width="0.35" x1="676" x2="681" y1="571.1351854491829" y2="578.1351854491829" /><line stroke="#BBB" stroke-width="0.35" x1="700" x2="705" y1="571.759438819887" y2="578.759438819887" /><line stroke="#BBB" stroke-width="0.35" x1="724" x2="729" y1="572.3836921905912" y2="579.3836921905912" /><line stroke="#BBB" stroke-width="0.35" x1="748" x2="753" y1="573.0079455612953" y2="580.0079455612953" /><line stroke="#BBB" stroke-width="0.35" x1="772" x2="777" y1="573.6321989319995" y2="580.6321989319995" /><line stroke="#BBB" stroke-width="0.35" x1="796" x2="801" y1="574.2564523027036" y2="581.2564523027036" /><line stroke="#BBB" stroke-width="0.35" x1="820" x2="825" y1="574.8807056734076" y2="581.8807056734076" /><line stroke="#BBB" stroke-width="0.35" x1="844" x2="849" y1="575.5049590441118" y2="582.5049590441118" /><line stroke="#BBB" stroke-width="0.35" x1="868" x2="873" y1="576.1292124148159" y2="583.1292124148159" /><line stroke="#BBB" stroke-width="0.35" x1="892" x2="897" y1="576.7534657855201" y2="583.7534657855201" /><line stroke="#BBB" stroke-width="0.35" x1="916" x2="921" y1="577.3366515568694" y2="584.3366515568694" /><line stroke="#BBB" stroke-width="0.35" x1="940" x2="945" y1="577.8166515568694" y2="584.8166515568694" /><line stroke="#BBB" stroke-width="0.35" x1="964" x2="969" y1="578.2966515568693" y2="585.2966515568693" /><line stroke="#BBB" stroke-width="0.35" x1="988" x2="993" y1="578.7766515568693" y2="585.7766515568693" /><line stroke="#BBB" stroke-width="0.35" x1="1012" x2="1017" y1="579.2566515568693" y2="586.2566515568693" /><line stroke="#BBB" stroke-width="0.35" x1="1036" x2="1041" y1="579.7366515568693" y2="586.7366515568693" /><line stroke="#BBB" stroke-width="0.35" x1="1060" x2="1065" y1="580.2166515568694" y2="587.2166515568694" /><line stroke="#BBB" stroke-width="0.35" x1="1084" x2="1089" y1="580.6966515568694" y2="587.6966515568694" /><line stroke="#BBB" stroke-width="0.35" x1="1108" x2="1113" y1="581.1766515568694" y2="588.1766515568694" /><line stroke="#BBB" stroke-width="0.35" x1="1132" x2="1137" y1="581.6566515568693" y2="588.6566515568693" /><line stroke="#BBB" stroke-width="0.35" x1="1156" x2="1161" y1="582.1366515568693" y2="589.1366515568693" /><polygon fill="#C5B890" opacity="0.3" points="496,239.2 499,278.15725443452817 502,298.248155932175 505,314.51146479266816 508,328.7002681682869 511,341.5223119555202 514,353.3508348344117 517,364.41234979434876 520,374.8570391697957 523,384.7907715146967 526,394.29162335462695 529,403.41920785331763 532,412.22031143951006 535,420.73248517590423 538,428.9864329149892 541,437.0076562683183 544,444.8176216334094 547,452.4346092281492 550,459.8743443158559 553,467.15047544458895 556,474.274942845599 559,481.25826642615027 562,488.10977388248796 565,494.8377835273433 568,501.44975239165393 571,507.95239736204985 574,514.3517951409212 577,520.6534653999744 580,526.8624404681634 583,532.9833241356021 586,539.0203415884844 589,544.9773820625012 592,550.8580354762255 595,556.6656240549507 598,562.4032297604767 601,568.0737181895873 604,569.2624253370705 601.6,649.2 496.0,649.2" stroke="none" /><rect fill="#D4B87A" height="7.700000000000001" stroke="#333333" stroke-width="1.5" width="264.0" x="232.0" y="152.3" /><rect fill="#C8A96E" height="19.8" stroke="#333333" stroke-width="1" width="264.0" x="232.0" y="160" /><line stroke="#A08050" stroke-width="0.4" x1="232.0" x2="232.0" y1="160" y2="179.8" /><line stroke="#A08050" stroke-width="0.4" x1="267.2" x2="267.2" y1="160" y2="179.8" /><line stroke="#A08050" stroke-width="0.4" x1="302.4" x2="302.4" y1="160" y2="179.8" /><line stroke="#A08050" stroke-width="0.4" x1="337.59999999999997" x2="337.59999999999997" y1="160" y2="179.8" /><line stroke="#A08050" stroke-width="0.4" x1="372.79999999999995" x2="372.79999999999995" y1="160" y2="179.8" /><line stroke="#A08050" stroke-width="0.4" x1="407.99999999999994" x2="407.99999999999994" y1="160" y2="179.8" /><line stroke="#A08050" stroke-width="0.4" x1="443.19999999999993" x2="443.19999999999993" y1="160" y2="179.8" /><line stroke="#A08050" stroke-width="0.4" x1="478.3999999999999" x2="478.3999999999999" y1="160" y2="179.8" /><rect fill="#A07840" height="45.41999999999999" stroke="#333333" stroke-width="1" width="12.100000000000001" x="252.34999999999997" y="179.8" /><rect fill="#888" height="52.80000000000001" opacity="0.2" stroke="none" width="14.100000000000001" x="251.34999999999997" y="172.42" /><rect fill="#A07840" height="60.25999999999999" stroke="#333333" stroke-width="1" width="12.100000000000001" x="305.15" y="179.8" /><rect fill="#888" height="52.80000000000001" opacity="0.2" stroke="none" width="14.100000000000001" x="304.15" y="187.26" /><rect fill="#A07840" height="75.1" stroke="#333333" stroke-width="1" width="12.100000000000001" x="357.95" y="179.8" /><rect fill="#888" height="52.80000000000001" opacity="0.2" stroke="none" width="14.100000000000001" x="356.95" y="202.1" /><rect fill="#A07840" height="89.94" stroke="#333333" stroke-width="1" width="12.100000000000001" x="410.74999999999994" y="179.8" /><rect fill="#888" height="52.80000000000001" opacity="0.2" stroke="none" width="14.100000000000001" x="409.74999999999994" y="216.94" /><rect fill="#A07840" height="104.77999999999997" stroke="#333333" stroke-width="1" width="12.100000000000001" x="463.55" y="179.8" /><rect fill="#888" height="52.79999999999998" opacity="0.2" stroke="none" width="14.100000000000001" x="462.55" y="231.78" /><line stroke="#333333" stroke-width="1.5" x1="100.0" x2="232.0" y1="175.0" y2="152.3" /><polygon fill="#C4A265" opacity="0.45" points="601.6,569.2 601.6,450.40000000000003 654.4,450.40000000000003 667.1383711078267,456.4086678707775 679.8767422156535,462.41733574155495 692.6151133234803,468.4260036123324 705.3534844313072,474.43467148310987 718.0918555391339,480.4433393538873 730.8302266469607,486.4520072246648 743.5685977547874,492.46067509544224 756.3069688626142,498.4693429662197 769.045339970441,504.47801083699716 781.7837110782677,510.48667870777456 794.5220821860946,516.495346578552 807.2604532939213,522.5040144493295 819.9988244017482,528.5126823201069 832.7371955095749,534.5213501908844 845.4755666174017,540.5300180616618 858.2139377252284,546.5386859324393 870.9523088330552,552.5473538032168 883.690679940882,558.5560216739942 896.4290510487087,564.5646895447717 909.1674221565356,570.5733574155491 917.0874221565356,570.6151249822227 925.0074221565357,570.743275550043 932.9274221565356,570.9603846695223 940.8474221565356,571.2666488907219 948.7674221565356,571.6597924684422 956.6874221565356,572.1350417642084 964.6074221565357,572.6851699854639 972.5274221565356,573.3006129530166 980.4474221565356,573.9696545772382 988.3674221565357,574.6786787077745 996.2874221565356,575.4124820575732 1004.2074221565356,576.1546410463505 1012.1274221565357,576.8879237155616 1020.0474221565356,577.5947363871932 1027.9674221565356,578.2575935178065 1035.8874221565356,578.8595982762812 1043.8074221565357,579.384920780047 1051.7274221565356,579.8192606829555 1059.6474221565356,580.1502809316788 1067.5674221565357,580.368 1067.5674221565357,580.368 1067,580.3566515568693 1063,580.2766515568693 1059,580.1966515568694 1055,580.1166515568693 1051,580.0366515568693 1047,579.9566515568694 1043,579.8766515568693 1039,579.7966515568693 1035,579.7166515568694 1031,579.6366515568693 1027,579.5566515568694 1023,579.4766515568693 1019,579.3966515568693 1015,579.3166515568694 1011,579.2366515568693 1007,579.1566515568693 1003,579.0766515568694 999,578.9966515568693 995,578.9166515568693 991,578.8366515568694 987,578.7566515568693 983,578.6766515568694 979,578.5966515568693 975,578.5166515568693 971,578.4366515568694 967,578.3566515568693 963,578.2766515568693 959,578.1966515568694 955,578.1166515568693 951,578.0366515568693 947,577.9566515568694 943,577.8766515568693 939,577.7966515568693 935,577.7166515568694 931,577.6366515568693 927,577.5566515568694 923,577.4766515568693 919,577.3966515568693 915,577.3166515568694 911,577.2366515568693 907,577.1436241422102 903,577.0395819137595 899,576.9355396853089 895,576.8314974568582 891,576.7274552284074 887,576.6234129999567 883,576.519370771506 879,576.4153285430554 875,576.3112863146047 871,576.207244086154 867,576.1032018577033 863,575.9991596292526 859,575.895117400802 855,575.7910751723513 851,575.6870329439006 847,575.5829907154499 843,575.4789484869991 839,575.3749062585484 835,575.2708640300978 831,575.1668218016471 827,575.0627795731964 823,574.9587373447457 819,574.854695116295 815,574.7506528878444 811,574.6466106593937 807,574.542568430943 803,574.4385262024923 799,574.3344839740416 795,574.2304417455908 791,574.1263995171402 787,574.0223572886895 783,573.9183150602388 779,573.8142728317881 775,573.7102306033374 771,573.6061883748868 767,573.5021461464361 763,573.3981039179854 759,573.2940616895347 755,573.190019461084 751,573.0859772326334 747,572.9819350041826 743,572.8778927757319 739,572.7738505472812 735,572.6698083188305 731,572.5657660903798 727,572.4617238619292 723,572.3576816334785 719,572.2536394050278 715,572.1495971765771 711,572.0455549481264 707,571.9415127196758 703,571.8374704912251 699,571.7334282627744 695,571.6293860343236 691,571.5253438058729 687,571.4213015774222 683,571.3172593489716 679,571.2132171205209 675,571.1091748920702 671,571.0051326636195 667,570.9010904351688 663,570.7970482067182 659,570.6930059782675 655,570.5889637498168 651,570.4849215213661 647,570.3808792929153 643,570.2768370644646 639,570.172794836014 635,570.0687526075633 631,569.9647103791126 627,569.8606681506619 623,569.7566259222112 619,569.6525836937606 615,569.5485414653099 611,569.4444992368592 607,569.3404570084085 603,569.2364147799578 601.6,569.2" stroke="none" /><ellipse cx="601.6" cy="560.4000000000001" fill="#A07840" rx="8.8" ry="8.8" stroke="#333333" stroke-width="1" /><circle cx="601.6" cy="560.4000000000001" fill="none" r="3.5200000000000005" stroke="#6B5030" stroke-width="0.5" /><circle cx="601.6" cy="560.4000000000001" fill="#6B5030" r="1.5" /><ellipse cx="601.6" cy="542.8000000000001" fill="#A07840" rx="8.8" ry="8.8" stroke="#333333" stroke-width="1" /><circle cx="601.6" cy="542.8000000000001" fill="none" r="3.5200000000000005" stroke="#6B5030" stroke-width="0.5" /><circle cx="601.6" cy="542.8000000000001" fill="#6B5030" r="1.5" /><ellipse cx="601.6" cy="525.2" fill="#A07840" rx="8.8" ry="8.8" stroke="#333333" stroke-width="1" /><circle cx="601.6" cy="525.2" fill="none" r="3.5200000000000005" stroke="#6B5030" stroke-width="0.5" /><circle cx="601.6" cy="525.2" fill="#6B5030" r="1.5" /><ellipse cx="601.6" cy="507.6" fill="#A07840" rx="8.8" ry="8.8" stroke="#333333" stroke-width="1" /><circle cx="601.6" cy="507.6" fill="none" r="3.5200000000000005" stroke="#6B5030" stroke-width="0.5" /><circle cx="601.6" cy="507.6" fill="#6B5030" r="1.5" /><ellipse cx="601.6" cy="490.00000000000006" fill="#A07840" rx="8.8" ry="8.8" stroke="#333333" stroke-width="1" /><circle cx="601.6" cy="490.00000000000006" fill="none" r="3.5200000000000005" stroke="#6B5030" stroke-width="0.5" /><circle cx="601.6" cy="490.00000000000006" fill="#6B5030" r="1.5" /><ellipse cx="601.6" cy="472.40000000000003" fill="#A07840" rx="8.8" ry="8.8" stroke="#333333" stroke-width="1" /><circle cx="601.6" cy="472.40000000000003" fill="none" r="3.5200000000000005" stroke="#6B5030" stroke-width="0.5" /><circle cx="601.6" cy="472.40000000000003" fill="#6B5030" r="1.5" /><line stroke="#333333" stroke-width="2.5" x1="601.6" x2="601.6" y1="569.2" y2="450.40000000000003" /><rect fill="#8B6B3D" height="10.56" opacity="0.6" stroke="#333333" stroke-width="0.75" width="105.60000000000001" x="601.6" y="528.72" /><text fill="#555" font-family="Arial, Helvetica, sans-serif" font-size="7px" font-style="italic" x="712.2" y="537.0">Deadman tie-back</text><rect fill="#8B6B3D" height="10.56" opacity="0.6" stroke="#333333" stroke-width="0.75" width="105.60000000000001" x="601.6" y="493.5200000000001" /><text fill="#555" font-family="Arial, Helvetica, sans-serif" font-size="7px" font-style="italic" x="712.2" y="501.80000000000007">Deadman tie-back</text><path d="M 601.6,450.40000000000003 L 654.4,450.40000000000003 L 667.1383711078267,456.4086678707775 L 679.8767422156535,462.41733574155495 L 692.6151133234803,468.4260036123324 L 705.3534844313072,474.43467148310987 L 718.0918555391339,480.4433393538873 L 730.8302266469607,486.4520072246648 L 743.5685977547874,492.46067509544224 L 756.3069688626142,498.4693429662197 L 769.045339970441,504.47801083699716 L 781.7837110782677,510.48667870777456 L 794.5220821860946,516.495346578552 L 807.2604532939213,522.5040144493295 L 819.9988244017482,528.5126823201069 L 832.7371955095749,534.5213501908844 L 845.4755666174017,540.5300180616618 L 858.2139377252284,546.5386859324393 L 870.9523088330552,552.5473538032168 L 883.690679940882,558.5560216739942 L 896.4290510487087,564.5646895447717 L 909.1674221565356,570.5733574155491 L 917.0874221565356,570.6151249822227 L 925.0074221565357,570.743275550043 L 932.9274221565356,570.9603846695223 L 940.8474221565356,571.2666488907219 L 948.7674221565356,571.6597924684422 L 956.6874221565356,572.1350417642084 L 964.6074221565357,572.6851699854639 L 972.5274221565356,573.3006129530166 L 980.4474221565356,573.9696545772382 L 988.3674221565357,574.6786787077745 L 996.2874221565356,575.4124820575732 L 1004.2074221565356,576.1546410463505 L 1012.1274221565357,576.8879237155616 L 1020.0474221565356,577.5947363871932 L 1027.9674221565356,578.2575935178065 L 1035.8874221565356,578.8595982762812 L 1043.8074221565357,579.384920780047 L 1051.7274221565356,579.8192606829555 L 1059.6474221565356,580.1502809316788 L 1067.5674221565357,580.368 " fill="none" stroke="#333333" stroke-width="2.5" /><line stroke="#CC0000" stroke-dasharray="3,2" stroke-width="0.6" x1="521.6" x2="599.6" y1="509.80000000000007" y2="509.80000000000007" /><text fill="#CC0000" font-family="Arial, Helvetica, sans-serif" font-size="9px" font-weight="bold" x="521.6" y="506.80000000000007">Log crib wall (vertical)</text><line stroke="#333333" stroke-width="1.5" x1="1067.5674221565357" x2="1173.1674221565356" y1="580.368" y2="582.48" /><path d="M 496.0,152.3 L 505.9,152.88165202521856 L 515.8,154.62660810087414 L 525.7,157.53486822696684 L 535.6,161.60643240349657 L 545.5,166.84130063046337 L 555.4,173.23947290786725 L 565.3,180.8009492357082 L 575.2,189.52572961398621 L 585.1,199.41381404270132 L 595.0,210.46520252185348 L 604.9,222.67989505144268 L 614.8,236.05789163146898 L 624.7,250.59919226193233 L 634.6,266.30379694283283 L 644.5,283.1717056741703 L 654.4,301.2029184559449 L 664.3,320.39743528815654 L 674.2,340.7552561708052 L 684.1,362.27638110389097 L 694.0,384.96081008741385 L 703.9000000000001,408.80854312137376 L 713.8,433.8195802057707 L 723.7,459.99392134060486 L 733.6,487.3315665258759 " fill="none" opacity="0.5" stroke="#CC0000" stroke-dasharray="8,5" stroke-width="1.2" /><text fill="#CC0000" font-family="Arial, Helvetica, sans-serif" font-size="8px" font-style="italic" opacity="0.6" text-anchor="middle" x="574.8" y="228.05789163146898">Flight path</text><circle cx="733.6" cy="487.3315665258759" fill="#CC0000" opacity="0.6" r="4" /><line stroke="#CC0000" stroke-dasharray="3,2" stroke-width="0.6" x1="748.6" x2="733.6" y1="472.3315665258759" y2="487.3315665258759" /><text fill="#CC0000" font-family="Arial, Helvetica, sans-serif" font-size="9px" font-weight="bold" x="748.6" y="469.3315665258759">Sweet spot (9')</text><line stroke="#0055AA" stroke-width="0.5" x1="232.0" x2="232.0" y1="149.3" y2="119.30000000000001" /><line stroke="#0055AA" stroke-width="0.5" x1="496.0" x2="496.0" y1="149.3" y2="119.30000000000001" /><line stroke="#0055AA" stroke-width="0.75" x1="232.0" x2="496.0" y1="122.30000000000001" y2="122.30000000000001" /><polygon fill="#0055AA" points="232.0,122.30000000000001 227.46846106481675,124.41309130870351 227.46846106481675,120.18690869129651" stroke="none" /><polygon fill="#0055AA" points="496.0,122.30000000000001 500.5315389351833,120.18690869129651 500.5315389351832,124.41309130870351" stroke="none" /><rect fill="white" height="13" stroke="none" width="39.0" x="344.5" y="112.30000000000001" /><text fill="#0055AA" font-family="Arial, Helvetica, sans-serif" font-size="10px" text-anchor="middle" x="364.0" y="121.30000000000001">10'-0"</text><line stroke="#0055AA" stroke-width="0.5" x1="504.0" x2="529.0" y1="152.3" y2="152.3" /><line stroke="#0055AA" stroke-width="0.5" x1="504.0" x2="529.0" y1="239.2" y2="239.2" /><line stroke="#0055AA" stroke-width="0.75" x1="526.0" x2="526.0" y1="152.3" y2="239.2" /><polygon fill="#0055AA" points="526.0,152.3 523.8869086912965,147.76846106481676 528.1130913087035,147.76846106481676" stroke="none" /><polygon fill="#0055AA" points="526.0,239.2 528.1130913087035,243.73153893518324 523.8869086912965,243.73153893518324" stroke="none" /><text fill="#0055AA" font-family="Arial, Helvetica, sans-serif" font-size="10px" text-anchor="middle" transform="translate(521.0,195.75) rotate(-90)" x="0" y="0">3'-0"</text><line stroke="#0055AA" stroke-width="0.5" x1="483.0" x2="438.0" y1="152.3" y2="152.3" /><line stroke="#0055AA" stroke-width="0.5" x1="483.0" x2="438.0" y1="569.2" y2="569.2" /><line stroke="#0055AA" stroke-width="0.75" x1="441.0" x2="441.0" y1="152.3" y2="569.2" /><polygon fill="#0055AA" points="441.0,152.3 438.8869086912965,147.76846106481676 443.1130913087035,147.76846106481676" stroke="none" /><polygon fill="#0055AA" points="441.0,569.2 443.1130913087035,573.7315389351833 438.8869086912965,573.7315389351833" stroke="none" /><text fill="#0055AA" font-family="Arial, Helvetica, sans-serif" font-size="10px" text-anchor="middle" transform="translate(436.0,360.75) rotate(-90)" x="0" y="0">15'-6"</text><line stroke="#0055AA" stroke-width="0.5" x1="667.4" x2="712.4" y1="152.3" y2="152.3" /><line stroke="#0055AA" stroke-width="0.5" x1="667.4" x2="712.4" y1="450.40000000000003" y2="450.40000000000003" /><line stroke="#0055AA" stroke-width="0.75" x1="709.4" x2="709.4" y1="152.3" y2="450.40000000000003" /><polygon fill="#0055AA" points="709.4,152.3 707.2869086912965,147.76846106481676 711.5130913087035,147.76846106481676" stroke="none" /><polygon fill="#0055AA" points="709.4,450.40000000000003 711.5130913087035,454.9315389351833 707.2869086912965,454.9315389351833" stroke="none" /><text fill="#0055AA" font-family="Arial, Helvetica, sans-serif" font-size="10px" text-anchor="middle" transform="translate(704.4,301.35) rotate(-90)" x="0" y="0">11'-0"</text><line stroke="#0055AA" stroke-width="0.5" x1="667.4" x2="747.4" y1="450.40000000000003" y2="450.40000000000003" /><line stroke="#0055AA" stroke-width="0.5" x1="667.4" x2="747.4" y1="570.5733574155491" y2="570.5733574155491" /><line stroke="#0055AA" stroke-width="0.75" x1="744.4" x2="744.4" y1="450.40000000000003" y2="570.5733574155491" /><polygon fill="#0055AA" points="744.4,450.40000000000003 742.2869086912965,445.86846106481676 746.5130913087035,445.86846106481676" stroke="none" /><polygon fill="#0055AA" points="744.4,570.5733574155491 746.5130913087035,575.1048963507324 742.2869086912965,575.1048963507324" stroke="none" /><text fill="#0055AA" font-family="Arial, Helvetica, sans-serif" font-size="10px" text-anchor="middle" transform="translate(739.4,510.48667870777456) rotate(-90)" x="0" y="0">4'-6"</text><line stroke="#0055AA" stroke-width="0.5" x1="496.0" x2="496.0" y1="149.3" y2="94.30000000000001" /><line stroke="#0055AA" stroke-width="0.5" x1="733.6" x2="733.6" y1="149.3" y2="94.30000000000001" /><line stroke="#0055AA" stroke-width="0.75" x1="496.0" x2="733.6" y1="97.30000000000001" y2="97.30000000000001" /><polygon fill="#0055AA" points="496.0,97.30000000000001 491.4684610648168,99.41309130870351 491.4684610648168,95.18690869129651" stroke="none" /><polygon fill="#0055AA" points="733.6,97.30000000000001 738.1315389351832,95.18690869129651 738.1315389351832,99.41309130870351" stroke="none" /><rect fill="white" height="13" stroke="none" width="32.5" x="598.55" y="87.30000000000001" /><text fill="#0055AA" font-family="Arial, Helvetica, sans-serif" font-size="10px" text-anchor="middle" x="614.8" y="96.30000000000001">9'-0"</text><line stroke="#0055AA" stroke-width="0.5" x1="496.0" x2="496.0" y1="572.2" y2="602.2" /><line stroke="#0055AA" stroke-width="0.5" x1="654.4" x2="654.4" y1="572.2" y2="602.2" /><line stroke="#0055AA" stroke-width="0.75" x1="496.0" x2="654.4" y1="599.2" y2="599.2" /><polygon fill="#0055AA" points="496.0,599.2 491.4684610648168,601.3130913087035 491.4684610648168,597.0869086912966" stroke="none" /><polygon fill="#0055AA" points="654.4,599.2 658.9315389351832,597.0869086912966 658.9315389351832,601.3130913087035" stroke="none" /><rect fill="white" height="13" stroke="none" width="32.5" x="558.95" y="589.2" /><text fill="#0055AA" font-family="Arial, Helvetica, sans-serif" font-size="10px" text-anchor="middle" x="575.2" y="598.2">6'-0"</text><line stroke="#0055AA" stroke-width="0.5" x1="496.0" x2="496.0" y1="572.2" y2="627.2" /><line stroke="#0055AA" stroke-width="0.5" x1="601.6" x2="601.6" y1="572.2" y2="627.2" /><line stroke="#0055AA" stroke-width="0.75" x1="496.0" x2="601.6" y1="624.2" y2="624.2" /><polygon fill="#0055AA" points="496.0,624.2 491.4684610648168,626.3130913087035 491.4684610648168,622.0869086912966" stroke="none" /><polygon fill="#0055AA" points="601.6,624.2 606.1315389351832,622.0869086912966 606.1315389351832,626.3130913087035" stroke="none" /><rect fill="white" height="13" stroke="none" width="32.5" x="532.55" y="614.2" /><text fill="#0055AA" font-family="Arial, Helvetica, sans-serif" font-size="10px" text-anchor="middle" x="548.8" y="623.2">4'-0"</text><line stroke="#CC0000" stroke-dasharray="3,2" stroke-width="0.5" x1="654.4" x2="699.4" y1="450.40000000000003" y2="450.40000000000003" /><path d="M 689.4,450.40000000000003 A 35,35 0 0,1 686.1207725462828,465.1916391609245" fill="none" stroke="#CC0000" stroke-width="1" /><text fill="#CC0000" font-family="Arial, Helvetica, sans-serif" font-size="10px" font-weight="bold" x="702.2385043488767" y="464.00554108296706">25.0°</text><line stroke="#0055AA" stroke-width="0.5" x1="654.4" x2="654.4" y1="572.2" y2="602.2" /><line stroke="#0055AA" stroke-width="0.5" x1="909.1674221565356" x2="909.1674221565356" y1="572.2" y2="602.2" /><line stroke="#0055AA" stroke-width="0.75" x1="654.4" x2="909.1674221565356" y1="599.2" y2="599.2" /><polygon fill="#0055AA" points="654.4,599.2 649.8684610648168,601.3130913087035 649.8684610648168,597.0869086912966" stroke="none" /><polygon fill="#0055AA" points="909.1674221565356,599.2 913.6989610917188,597.0869086912966 913.6989610917188,601.3130913087035" stroke="none" /><rect fill="white" height="13" stroke="none" width="117.0" x="723.2837110782677" y="589.2" /><text fill="#0055AA" font-family="Arial, Helvetica, sans-serif" font-size="10px" text-anchor="middle" x="781.7837110782677" y="598.2">Landing run: 9'-8"</text><text fill="#CC0000" font-family="Arial, Helvetica, sans-serif" font-size="9px" font-weight="bold" x="252.0" y="139.3">Bridge: 10'-0" x 2'-0"</text><text fill="#CC0000" font-family="Arial, Helvetica, sans-serif" font-size="9px" font-weight="bold" x="410.4" y="191.66">6x6 pylons into hillside</text><text fill="#CC0000" font-family="Arial, Helvetica, sans-serif" font-size="9px" font-weight="bold" x="730.8302266469607" y="498.4520072246648">Compact lander fill in 6" lifts</text><text fill="#CC0000" font-family="Arial, Helvetica, sans-serif" font-size="9px" font-weight="bold" x="859.1674221565356" y="582.5733574155491">18° landing slope</text><text fill="#CC0000" font-family="Arial, Helvetica, sans-serif" font-size="9px" font-weight="bold" x="1093.1674221565356" y="591.48">Smooth transition to flat</text><text fill="#CC0000" font-family="Arial, Helvetica, sans-serif" font-size="9px" font-weight="bold" x="488.79999999999995" y="381.20000000000005">Steep hillside</text><line stroke="#CC0000" stroke-dasharray="3,2" stroke-width="0.6" x1="521.6" x2="592.8000000000001" y1="542.8000000000001" y2="542.8000000000001" /><text fill="#CC0000" font-family="Arial, Helvetica, sans-serif" font-size="9px" font-weight="bold" x="521.6" y="539.8000000000001">8.0" dia. logs</text><text fill="#555" font-family="Arial, Helvetica, sans-serif" font-size="8px" font-style="italic" text-anchor="middle" x="364.0" y="149.3">BRIDGE DECK</text><text fill="#555" font-family="Arial, Helvetica, sans-serif" font-size="9px" font-weight="bold" text-anchor="middle" x="730.8302266469607" y="442.40000000000003">LOG CRIB LANDER</text></g><g><text fill="#222" font-family="Arial, Helvetica, sans-serif" font-size="14px" font-weight="bold" text-anchor="middle" x="666.5837110782678" y="774.2">TOP VIEW (PLAN)</text><rect fill="#E8E0D0" height="52.800000000000004" stroke="#333333" stroke-width="1" width="132.0" x="100.0" y="822.8000000000001" /><text fill="#555" font-family="Arial, Helvetica, sans-serif" font-size="8px" font-style="italic" text-anchor="middle" x="166.0" y="853.2">Trail</text><rect fill="#D4B87A" height="52.800000000000004" stroke="#333333" stroke-width="1.5" width="264.0" x="232.0" y="822.8000000000001" /><line stroke="#B89860" stroke-width="0.3" x1="232" x2="232" y1="822.8000000000001" y2="875.6" /><line stroke="#B89860" stroke-width="0.3" x1="244" x2="244" y1="822.8000000000001" y2="875.6" /><line stroke="#B89860" stroke-width="0.3" x1="256" x2="256" y1="822.8000000000001" y2="875.6" /><line stroke="#B89860" stroke-width="0.3" x1="268" x2="268" y1="822.8000000000001" y2="875.6" /><line stroke="#B89860" stroke-width="0.3" x1="280" x2="280" y1="822.8000000000001" y2="875.6" /><line stroke="#B89860" stroke-width="0.3" x1="292" x2="292" y1="822.8000000000001" y2="875.6" /><line stroke="#B89860" stroke-width="0.3" x1="304" x2="304" y1="822.8000000000001" y2="875.6" /><line stroke="#B89860" stroke-width="0.3" x1="316" x2="316" y1="822.8000000000001" y2="875.6" /><line stroke="#B89860" stroke-width="0.3" x1="328" x2="328" y1="822.8000000000001" y2="875.6" /><line stroke="#B89860" stroke-width="0.3" x1="340" x2="340" y1="822.8000000000001" y2="875.6" /><line stroke="#B89860" stroke-width="0.3" x1="352" x2="352" y1="822.8000000000001" y2="875.6" /><line stroke="#B89860" stroke-width="0.3" x1="364" x2="364" y1="822.8000000000001" y2="875.6" /><line stroke="#B89860" stroke-width="0.3" x1="376" x2="376" y1="822.8000000000001" y2="875.6" /><line stroke="#B89860" stroke-width="0.3" x1="388" x2="388" y1="822.8000000000001" y2="875.6" /><line stroke="#B89860" stroke-width="0.3" x1="400" x2="400" y1="822.8000000000001" y2="875.6" /><line stroke="#B89860" stroke-width="0.3" x1="412" x2="412" y1="822.8000000000001" y2="875.6" /><line stroke="#B89860" stroke-width="0.3" x1="424" x2="424" y1="822.8000000000001" y2="875.6" /><line stroke="#B89860" stroke-width="0.3" x1="436" x2="436" y1="822.8000000000001" y2="875.6" /><line stroke="#B89860" stroke-width="0.3" x1="448" x2="448" y1="822.8000000000001" y2="875.6" /><line stroke="#B89860" stroke-width="0.3" x1="460" x2="460" y1="822.8000000000001" y2="875.6" /><line stroke="#B89860" stroke-width="0.3" x1="472" x2="472" y1="822.8000000000001" y2="875.6" /><line stroke="#B89860" stroke-width="0.3" x1="484" x2="484" y1="822.8000000000001" y2="875.6" /><text fill="#555" font-family="Arial, Helvetica, sans-serif" font-size="9px" font-weight="bold" text-anchor="middle" x="364.0" y="853.2">BRIDGE</text><rect fill="#F8F4F0" height="82.80000000000001" stroke="#333333" stroke-dasharray="4,2" stroke-width="0.5" width="105.60000000000001" x="496.0" y="807.8000000000001" /><line stroke="#DDD" stroke-width="0.4" x1="496" x2="514" y1="812.8000000000001" y2="885.6" /><line stroke="#DDD" stroke-width="0.4" x1="506" x2="524" y1="812.8000000000001" y2="885.6" /><line stroke="#DDD" stroke-width="0.4" x1="516" x2="534" y1="812.8000000000001" y2="885.6" /><line stroke="#DDD" stroke-width="0.4" x1="526" x2="544" y1="812.8000000000001" y2="885.6" /><line stroke="#DDD" stroke-width="0.4" x1="536" x2="554" y1="812.8000000000001" y2="885.6" /><line stroke="#DDD" stroke-width="0.4" x1="546" x2="564" y1="812.8000000000001" y2="885.6" /><line stroke="#DDD" stroke-width="0.4" x1="556" x2="574" y1="812.8000000000001" y2="885.6" /><line stroke="#DDD" stroke-width="0.4" x1="566" x2="584" y1="812.8000000000001" y2="885.6" /><line stroke="#DDD" stroke-width="0.4" x1="576" x2="594" y1="812.8000000000001" y2="885.6" /><line stroke="#DDD" stroke-width="0.4" x1="586" x2="604" y1="812.8000000000001" y2="885.6" /><line stroke="#DDD" stroke-width="0.4" x1="596" x2="614" y1="812.8000000000001" y2="885.6" /><text fill="#CC0000" font-family="Arial, Helvetica, sans-serif" font-size="9px" font-weight="bold" text-anchor="middle" x="548.8" y="853.2">GAP / DROP ZONE</text><polygon fill="#C4A265" opacity="0.45" points="601.6,770.0 909.1674221565356,793.76 1067.5674221565357,822.8000000000001 1067.5674221565357,875.6 909.1674221565356,904.6400000000001 601.6,928.4000000000001" stroke="#333333" stroke-width="1" /><rect fill="#8B6B3D" height="158.4" stroke="#333333" stroke-width="1.5" width="17.6" x="584.0" y="770.0" /><line stroke="#6B5030" stroke-width="0.5" x1="584.0" x2="601.6" y1="770.0" y2="770.0" /><line stroke="#6B5030" stroke-width="0.5" x1="584.0" x2="601.6" y1="784.08" y2="784.08" /><line stroke="#6B5030" stroke-width="0.5" x1="584.0" x2="601.6" y1="798.16" y2="798.16" /><line stroke="#6B5030" stroke-width="0.5" x1="584.0" x2="601.6" y1="812.24" y2="812.24" /><line stroke="#6B5030" stroke-width="0.5" x1="584.0" x2="601.6" y1="826.32" y2="826.32" /><line stroke="#6B5030" stroke-width="0.5" x1="584.0" x2="601.6" y1="840.4" y2="840.4" /><line stroke="#6B5030" stroke-width="0.5" x1="584.0" x2="601.6" y1="854.48" y2="854.48" /><line stroke="#6B5030" stroke-width="0.5" x1="584.0" x2="601.6" y1="868.5600000000001" y2="868.5600000000001" /><line stroke="#6B5030" stroke-width="0.5" x1="584.0" x2="601.6" y1="882.64" y2="882.64" /><line stroke="#6B5030" stroke-width="0.5" x1="584.0" x2="601.6" y1="896.72" y2="896.72" /><line stroke="#6B5030" stroke-width="0.5" x1="584.0" x2="601.6" y1="910.8" y2="910.8" /><rect fill="#8B6B3D" height="17.6" stroke="#333333" stroke-width="1" width="123.02696886261424" x="601.6" y="770.0" /><rect fill="#8B6B3D" height="17.6" stroke="#333333" stroke-width="1" width="123.02696886261424" x="601.6" y="910.8000000000001" /><line stroke="#6B5030" stroke-width="0.5" x1="601.6" x2="601.6" y1="770.0" y2="787.6" /><line stroke="#6B5030" stroke-width="0.5" x1="601.6" x2="601.6" y1="910.8000000000001" y2="928.4000000000001" /><line stroke="#6B5030" stroke-width="0.5" x1="615.6800000000001" x2="615.6800000000001" y1="770.0" y2="787.6" /><line stroke="#6B5030" stroke-width="0.5" x1="615.6800000000001" x2="615.6800000000001" y1="910.8000000000001" y2="928.4000000000001" /><line stroke="#6B5030" stroke-width="0.5" x1="629.76" x2="629.76" y1="770.0" y2="787.6" /><line stroke="#6B5030" stroke-width="0.5" x1="629.76" x2="629.76" y1="910.8000000000001" y2="928.4000000000001" /><line stroke="#6B5030" stroke-width="0.5" x1="643.84" x2="643.84" y1="770.0" y2="787.6" /><line stroke="#6B5030" stroke-width="0.5" x1="643.84" x2="643.84" y1="910.8000000000001" y2="928.4000000000001" /><line stroke="#6B5030" stroke-width="0.5" x1="657.9200000000001" x2="657.9200000000001" y1="770.0" y2="787.6" /><line stroke="#6B5030" stroke-width="0.5" x1="657.9200000000001" x2="657.9200000000001" y1="910.8000000000001" y2="928.4000000000001" /><line stroke="#6B5030" stroke-width="0.5" x1="672.0" x2="672.0" y1="770.0" y2="787.6" /><line stroke="#6B5030" stroke-width="0.5" x1="672.0" x2="672.0" y1="910.8000000000001" y2="928.4000000000001" /><line stroke="#6B5030" stroke-width="0.5" x1="686.08" x2="686.08" y1="770.0" y2="787.6" /><line stroke="#6B5030" stroke-width="0.5" x1="686.08" x2="686.08" y1="910.8000000000001" y2="928.4000000000001" /><line stroke="#6B5030" stroke-width="0.5" x1="700.1600000000001" x2="700.1600000000001" y1="770.0" y2="787.6" /><line stroke="#6B5030" stroke-width="0.5" x1="700.1600000000001" x2="700.1600000000001" y1="910.8000000000001" y2="928.4000000000001" /><text fill="#CC0000" font-family="Arial, Helvetica, sans-serif" font-size="7px" font-weight="bold" text-anchor="middle" x="592.8000000000001" y="762.0">Log crib wall (back)</text><text fill="#CC0000" font-family="Arial, Helvetica, sans-serif" font-size="7px" text-anchor="middle" x="663.1134844313071" y="767.0">Side crib</text><text fill="#CC0000" font-family="Arial, Helvetica, sans-serif" font-size="7px" text-anchor="middle" x="663.1134844313071" y="938.4000000000001">Side crib</text><rect fill="#8B6B3D" height="10.56" opacity="0.4" stroke="#333333" stroke-width="0.5" width="79.2" x="601.6" y="804.32" /><rect fill="#8B6B3D" height="10.56" opacity="0.4" stroke="#333333" stroke-width="0.5" width="79.2" x="601.6" y="843.9200000000001" /><rect fill="#8B6B3D" height="10.56" opacity="0.4" stroke="#333333" stroke-width="0.5" width="79.2" x="601.6" y="883.52" /><line stroke="#CC0000" stroke-dasharray="4,3" stroke-width="1" x1="733.6" x2="733.6" y1="775.0" y2="923.4000000000001" /><text fill="#CC0000" font-family="Arial, Helvetica, sans-serif" font-size="8px" font-weight="bold" text-anchor="middle" x="733.6" y="942.4000000000001">Sweet spot (9')</text><text fill="#555" font-family="Arial, Helvetica, sans-serif" font-size="9px" font-weight="bold" text-anchor="middle" x="781.7837110782677" y="853.2">LANDER (fill)</text><text fill="#555" font-family="Arial, Helvetica, sans-serif" font-size="8px" font-style="italic" text-anchor="middle" x="781.7837110782677" y="865.2">18° landing slope</text><rect fill="#E8E0D0" height="52.800000000000004" stroke="#333333" stroke-width="1" width="105.60000000000001" x="1067.5674221565357" y="822.8000000000001" /><text fill="#555" font-family="Arial, Helvetica, sans-serif" font-size="8px" font-style="italic" text-anchor="middle" x="1120.3674221565357" y="853.2">Runout</text><path d="M 496.0,885.6 C 556.0,983.4000000000001 733.6,983.4000000000001 909.1674221565356,885.6" fill="none" stroke="#66AA66" stroke-dasharray="6,3" stroke-width="1.5" /><text fill="#66AA66" font-family="Arial, Helvetica, sans-serif" font-size="9px" font-style="italic" text-anchor="middle" x="702.5837110782678" y="998.4000000000001">Bypass / roll-around</text><line stroke="#0055AA" stroke-width="0.5" x1="232.0" x2="232.0" y1="819.8000000000001" y2="794.8000000000001" /><line stroke="#0055AA" stroke-width="0.5" x1="496.0" x2="496.0" y1="819.8000000000001" y2="794.8000000000001" /><line stroke="#0055AA" stroke-width="0.75" x1="232.0" x2="496.0" y1="797.8000000000001" y2="797.8000000000001" /><polygon fill="#0055AA" points="232.0,797.8000000000001 227.46846106481675,799.9130913087035 227.46846106481675,795.6869086912966" stroke="none" /><polygon fill="#0055AA" points="496.0,797.8000000000001 500.5315389351833,795.6869086912966 500.5315389351832,799.9130913087035" stroke="none" /><rect fill="white" height="13" stroke="none" width="39.0" x="344.5" y="787.8000000000001" /><text fill="#0055AA" font-family="Arial, Helvetica, sans-serif" font-size="10px" text-anchor="middle" x="364.0" y="796.8000000000001">10'-0"</text><line stroke="#0055AA" stroke-width="0.5" x1="219.0" x2="189.0" y1="822.8000000000001" y2="822.8000000000001" /><line stroke="#0055AA" stroke-width="0.5" x1="219.0" x2="189.0" y1="875.6" y2="875.6" /><line stroke="#0055AA" stroke-width="0.75" x1="192.0" x2="192.0" y1="822.8000000000001" y2="875.6" /><polygon fill="#0055AA" points="192.0,822.8000000000001 189.8869086912965,818.2684610648168 194.1130913087035,818.2684610648168" stroke="none" /><polygon fill="#0055AA" points="192.0,875.6 194.1130913087035,880.1315389351832 189.8869086912965,880.1315389351832" stroke="none" /><text fill="#0055AA" font-family="Arial, Helvetica, sans-serif" font-size="10px" text-anchor="middle" transform="translate(187.0,849.2) rotate(-90)" x="0" y="0">2'-0"</text><line stroke="#0055AA" stroke-width="0.5" x1="496.0" x2="496.0" y1="819.8000000000001" y2="794.8000000000001" /><line stroke="#0055AA" stroke-width="0.5" x1="601.6" x2="601.6" y1="819.8000000000001" y2="794.8000000000001" /><line stroke="#0055AA" stroke-width="0.75" x1="496.0" x2="601.6" y1="797.8000000000001" y2="797.8000000000001" /><polygon fill="#0055AA" points="496.0,797.8000000000001 491.4684610648168,799.9130913087035 491.4684610648168,795.6869086912966" stroke="none" /><polygon fill="#0055AA" points="601.6,797.8000000000001 606.1315389351832,795.6869086912966 606.1315389351832,799.9130913087035" stroke="none" /><rect fill="white" height="13" stroke="none" width="32.5" x="532.55" y="787.8000000000001" /><text fill="#0055AA" font-family="Arial, Helvetica, sans-serif" font-size="10px" text-anchor="middle" x="548.8" y="796.8000000000001">4'-0"</text><line stroke="#0055AA" stroke-width="0.5" x1="496.0" x2="496.0" y1="767.0" y2="742.0" /><line stroke="#0055AA" stroke-width="0.5" x1="733.6" x2="733.6" y1="767.0" y2="742.0" /><line stroke="#0055AA" stroke-width="0.75" x1="496.0" x2="733.6" y1="745.0" y2="745.0" /><polygon fill="#0055AA" points="496.0,745.0 491.4684610648168,747.1130913087035 491.4684610648168,742.8869086912965" stroke="none" /><polygon fill="#0055AA" points="733.6,745.0 738.1315389351832,742.8869086912965 738.1315389351832,747.1130913087035" stroke="none" /><rect fill="white" height="13" stroke="none" width="32.5" x="598.55" y="735.0" /><text fill="#0055AA" font-family="Arial, Helvetica, sans-serif" font-size="10px" text-anchor="middle" x="614.8" y="744.0">9'-0"</text></g><g><text fill="#111" font-family="Arial, Helvetica, sans-serif" font-size="11px" font-weight="bold" x="100" y="1101.2">NOTES:</text><text fill="#333" font-family="Arial, Helvetica, sans-serif" font-size="10px" x="110" y="1117.2">1. All dimensions in inches unless noted</text><text fill="#333" font-family="Arial, Helvetica, sans-serif" font-size="10px" x="110" y="1133.2">2. Bridge: pressure-treated lumber or rot-resistant species (cedar, locust)</text><text fill="#333" font-family="Arial, Helvetica, sans-serif" font-size="10px" x="110" y="1149.2">3. Pylons: 6x6 PT posts driven/buried min 24" into hillside with compacted gravel</text><text fill="#333" font-family="Arial, Helvetica, sans-serif" font-size="10px" x="110" y="1165.2">4. All hardware: hot-dipped galvanized or stainless steel</text><text fill="#333" font-family="Arial, Helvetica, sans-serif" font-size="10px" x="110" y="1181.2">5. Attach non-slip mesh (chicken wire) to bridge deck surface</text><text fill="#333" font-family="Arial, Helvetica, sans-serif" font-size="10px" x="110" y="1197.2">6. Lander: compact fill in 6" lifts with plate compactor</text><text fill="#333" font-family="Arial, Helvetica, sans-serif" font-size="10px" x="110" y="1213.2">7. Use mineral soil only (clay/gravel mix, no organics)</text><text fill="#333" font-family="Arial, Helvetica, sans-serif" font-size="10px" x="110" y="1229.2">8. Landing slope (25.0°) provides gradual deceleration — no kicker at base</text><text fill="#333" font-family="Arial, Helvetica, sans-serif" font-size="10px" x="110" y="1245.2">9. Rider must have clear sight line from bridge to landing zone</text><text fill="#333" font-family="Arial, Helvetica, sans-serif" font-size="10px" x="110" y="1261.2">10. ALWAYS provide a bypass / roll-around for this feature</text><text fill="#333" font-family="Arial, Helvetica, sans-serif" font-size="10px" x="110" y="1277.2">11. Total vertical drop from deck to lander peak: 11'-0" — expert-level feature</text><text fill="#333" font-family="Arial, Helvetica, sans-serif" font-size="10px" x="110" y="1293.2">12. Log crib wall: 8.0" dia. logs, peeled, stacked horizontally, pinned with #4 rebar</text><text fill="#333" font-family="Arial, Helvetica, sans-serif" font-size="10px" x="110" y="1309.2">13. Pin each log course to the one below — drive 24" rebar through pre-drilled holes</text><text fill="#333" font-family="Arial, Helvetica, sans-serif" font-size="10px" x="110" y="1325.2">14. Deadman tie-backs every 2-3 courses extending 4 ft into compacted fill behind wall</text><text fill="#333" font-family="Arial, Helvetica, sans-serif" font-size="10px" x="110" y="1341.2">15. Place 3/4" crushed gravel behind crib wall with filter fabric for drainage</text><text fill="#333" font-family="Arial, Helvetica, sans-serif" font-size="10px" x="110" y="1357.2">16. Bottom course of logs set on compacted gravel pad, first rebar pins driven into native soil</text><text fill="#111" font-family="Arial, Helvetica, sans-serif" font-size="11px" font-weight="bold" x="100" y="1383.2">MATERIALS:</text><rect fill="#E8E8E8" height="18" stroke="#AAA" stroke-width="0.5" width="650" x="100" y="1388.2" /><text fill="#111" font-family="Arial, Helvetica, sans-serif" font-size="10px" font-weight="bold" x="105" y="1401.2">Item</text><text fill="#111" font-family="Arial, Helvetica, sans-serif" font-size="10px" font-weight="bold" x="295" y="1401.2">Size</text><text fill="#111" font-family="Arial, Helvetica, sans-serif" font-size="10px" font-weight="bold" x="415" y="1401.2">Qty</text><text fill="#111" font-family="Arial, Helvetica, sans-serif" font-size="10px" font-weight="bold" x="485" y="1401.2">Notes</text><rect fill="none" height="18" stroke="#CCC" stroke-width="0.5" width="650" x="100" y="1406.2" /><text fill="#333" font-family="Arial, Helvetica, sans-serif" font-size="10px" x="105" y="1419.2">Bridge beams</text><text fill="#333" font-family="Arial, Helvetica, sans-serif" font-size="10px" x="295" y="1419.2">4x8 or doubled 2x8</text><text fill="#333" font-family="Arial, Helvetica, sans-serif" font-size="10px" x="415" y="1419.2">2</text><text fill="#333" font-family="Arial, Helvetica, sans-serif" font-size="10px" x="485" y="1419.2">Full length (10'-0")</text><rect fill="none" height="18" stroke="#CCC" stroke-width="0.5" width="650" x="100" y="1424.2" /><text fill="#333" font-family="Arial, Helvetica, sans-serif" font-size="10px" x="105" y="1437.2">Bridge decking</text><text fill="#333" font-family="Arial, Helvetica, sans-serif" font-size="10px" x="295" y="1437.2">2x6</text><text fill="#333" font-family="Arial, Helvetica, sans-serif" font-size="10px" x="415" y="1437.2">5 boards x 10'-0"</text><text fill="#333" font-family="Arial, Helvetica, sans-serif" font-size="10px" x="485" y="1437.2">PT lumber, 1/8" gap</text><rect fill="none" height="18" stroke="#CCC" stroke-width="0.5" width="650" x="100" y="1442.2" /><text fill="#333" font-family="Arial, Helvetica, sans-serif" font-size="10px" x="105" y="1455.2">Joists</text><text fill="#333" font-family="Arial, Helvetica, sans-serif" font-size="10px" x="295" y="1455.2">2x6</text><text fill="#333" font-family="Arial, Helvetica, sans-serif" font-size="10px" x="415" y="1455.2">8</text><text fill="#333" font-family="Arial, Helvetica, sans-serif" font-size="10px" x="485" y="1455.2">16" OC</text><rect fill="none" height="18" stroke="#CCC" stroke-width="0.5" width="650" x="100" y="1460.2" /><text fill="#333" font-family="Arial, Helvetica, sans-serif" font-size="10px" x="105" y="1473.2">Pylons</text><text fill="#333" font-family="Arial, Helvetica, sans-serif" font-size="10px" x="295" y="1473.2">6x6</text><text fill="#333" font-family="Arial, Helvetica, sans-serif" font-size="10px" x="415" y="1473.2">5</text><text fill="#333" font-family="Arial, Helvetica, sans-serif" font-size="10px" x="485" y="1473.2">PT, min 24" buried into hillside</text><rect fill="none" height="18" stroke="#CCC" stroke-width="0.5" width="650" x="100" y="1478.2" /><text fill="#333" font-family="Arial, Helvetica, sans-serif" font-size="10px" x="105" y="1491.2">Cross-bracing</text><text fill="#333" font-family="Arial, Helvetica, sans-serif" font-size="10px" x="295" y="1491.2">2x6</text><text fill="#333" font-family="Arial, Helvetica, sans-serif" font-size="10px" x="415" y="1491.2">4</text><text fill="#333" font-family="Arial, Helvetica, sans-serif" font-size="10px" x="485" y="1491.2">Between pylons for lateral stability</text><rect fill="none" height="18" stroke="#CCC" stroke-width="0.5" width="650" x="100" y="1496.2" /><text fill="#333" font-family="Arial, Helvetica, sans-serif" font-size="10px" x="105" y="1509.2">Non-slip mesh</text><text fill="#333" font-family="Arial, Helvetica, sans-serif" font-size="10px" x="295" y="1509.2">Chicken wire</text><text fill="#333" font-family="Arial, Helvetica, sans-serif" font-size="10px" x="415" y="1509.2">10'-0" x 2'-0"</text><text fill="#333" font-family="Arial, Helvetica, sans-serif" font-size="10px" x="485" y="1509.2">Stapled to deck</text><rect fill="none" height="18" stroke="#CCC" stroke-width="0.5" width="650" x="100" y="1514.2" /><text fill="#333" font-family="Arial, Helvetica, sans-serif" font-size="10px" x="105" y="1527.2">Fill dirt (lander)</text><text fill="#333" font-family="Arial, Helvetica, sans-serif" font-size="10px" x="295" y="1527.2">Mineral soil</text><text fill="#333" font-family="Arial, Helvetica, sans-serif" font-size="10px" x="415" y="1527.2">~10-15 cu yd</text><text fill="#333" font-family="Arial, Helvetica, sans-serif" font-size="10px" x="485" y="1527.2">Compact in 6" lifts</text><rect fill="none" height="18" stroke="#CCC" stroke-width="0.5" width="650" x="100" y="1532.2" /><text fill="#333" font-family="Arial, Helvetica, sans-serif" font-size="10px" x="105" y="1545.2">Topsoil (lander finish)</text><text fill="#333" font-family="Arial, Helvetica, sans-serif" font-size="10px" x="295" y="1545.2" /><text fill="#333" font-family="Arial, Helvetica, sans-serif" font-size="10px" x="415" y="1545.2">~1-2 cu yd</text><text fill="#333" font-family="Arial, Helvetica, sans-serif" font-size="10px" x="485" y="1545.2">Final shaping layer only</text><rect fill="none" height="18" stroke="#CCC" stroke-width="0.5" width="650" x="100" y="1550.2" /><text fill="#333" font-family="Arial, Helvetica, sans-serif" font-size="10px" x="105" y="1563.2">Crib wall logs</text><text fill="#333" font-family="Arial, Helvetica, sans-serif" font-size="10px" x="295" y="1563.2">8.0" dia. x 6-8' long</text><text fill="#333" font-family="Arial, Helvetica, sans-serif" font-size="10px" x="415" y="1563.2">~28</text><text fill="#333" font-family="Arial, Helvetica, sans-serif" font-size="10px" x="485" y="1563.2">Back wall + 2 side walls, peeled</text><rect fill="none" height="18" stroke="#CCC" stroke-width="0.5" width="650" x="100" y="1568.2" /><text fill="#333" font-family="Arial, Helvetica, sans-serif" font-size="10px" x="105" y="1581.2">Deadman tie-back logs</text><text fill="#333" font-family="Arial, Helvetica, sans-serif" font-size="10px" x="295" y="1581.2">8.0" dia. x 4' long</text><text fill="#333" font-family="Arial, Helvetica, sans-serif" font-size="10px" x="415" y="1581.2">6-8</text><text fill="#333" font-family="Arial, Helvetica, sans-serif" font-size="10px" x="485" y="1581.2">Perpendicular tie-backs every 2-3 courses</text><rect fill="none" height="18" stroke="#CCC" stroke-width="0.5" width="650" x="100" y="1586.2" /><text fill="#333" font-family="Arial, Helvetica, sans-serif" font-size="10px" x="105" y="1599.2">Rebar pins</text><text fill="#333" font-family="Arial, Helvetica, sans-serif" font-size="10px" x="295" y="1599.2">#4 rebar, 24" long</text><text fill="#333" font-family="Arial, Helvetica, sans-serif" font-size="10px" x="415" y="1599.2">~20-24</text><text fill="#333" font-family="Arial, Helvetica, sans-serif" font-size="10px" x="485" y="1599.2">Pin logs together + anchor to ground</text><rect fill="none" height="18" stroke="#CCC" stroke-width="0.5" width="650" x="100" y="1604.2" /><text fill="#333" font-family="Arial, Helvetica, sans-serif" font-size="10px" x="105" y="1617.2">Gravel backfill</text><text fill="#333" font-family="Arial, Helvetica, sans-serif" font-size="10px" x="295" y="1617.2">3/4" crushed</text><text fill="#333" font-family="Arial, Helvetica, sans-serif" font-size="10px" x="415" y="1617.2">~2-3 cu yd</text><text fill="#333" font-family="Arial, Helvetica, sans-serif" font-size="10px" x="485" y="1617.2">Behind crib wall for drainage</text><rect fill="none" height="18" stroke="#CCC" stroke-width="0.5" width="650" x="100" y="1622.2" /><text fill="#333" font-family="Arial, Helvetica, sans-serif" font-size="10px" x="105" y="1635.2">Filter fabric</text><text fill="#333" font-family="Arial, Helvetica, sans-serif" font-size="10px" x="295" y="1635.2">Non-woven geotextile</text><text fill="#333" font-family="Arial, Helvetica, sans-serif" font-size="10px" x="415" y="1635.2">~50 sq ft</text><text fill="#333" font-family="Arial, Helvetica, sans-serif" font-size="10px" x="485" y="1635.2">Between gravel and fill behind crib</text></g><rect fill="#F0F0F0" height="100" stroke="#333" stroke-width="1.5" width="360" x="953.1674221565356" y="1501.2" /><text fill="#111" font-family="Arial, Helvetica, sans-serif" font-size="14px" font-weight="bold" x="963.1674221565356" y="1521.2">Bridge Drop — 25° Lander</text><text fill="#555" font-family="Arial, Helvetica, sans-serif" font-size="9px" x="963.1674221565356" y="1539.2">Bridge: 10'-0" x 2'-0"  |  Deck to ground: 3'-0"</text><text fill="#555" font-family="Arial, Helvetica, sans-serif" font-size="9px" x="963.1674221565356" y="1553.2">Vertical drop to lander: 11'-0"  |  Drop to ground: 15'-6"</text><text fill="#555" font-family="Arial, Helvetica, sans-serif" font-size="9px" x="963.1674221565356" y="1567.2">Sweet spot: 9'-0" horiz  |  Lander: 4'-6" tall  |  Landing: 25.0°</text><text fill="#CC0000" font-family="Arial, Helvetica, sans-serif" font-size="9px" font-weight="bold" x="963.1674221565356" y="1581.2">Rating: DOUBLE BLACK — Expert only</text><text fill="#555" font-family="Arial, Helvetica, sans-serif" font-size="9px" x="963.1674221565356" y="1594.2">Date: 2026-03-27</text></svg>