<?xml version="1.0" encoding="utf-8" ?>
<svg baseProfile="full" height="1621.2px" version="1.1" viewBox="0 0 1272.7803268001921 1621.2" width="1272.7803268001921px" xmlns="http://www.w3.org/2000/svg" xmlns:ev="http://www.w3.org/2001/xml-events" xmlns:xlink="http://www.w3.org/1999/xlink"><defs /><rect fill="#FFFFFF" height="1621.2" width="1272.7803268001921" x="0" y="0" /><rect fill="none" height="1605.2" stroke="#333" stroke-width="1.5" width="1256.7803268001921" x="8" y="8" /><g><text fill="#222" font-family="Arial, Helvetica, sans-serif" font-size="14px" font-weight="bold" text-anchor="middle" x="636.3901634000961" y="45">SIDE PROFILE</text><polygon fill="#D5C9A0" opacity="0.25" points="100,175.0 104,174.54545454545456 108,174.0909090909091 112,173.63636363636363 116,173.1818181818182 120,172.72727272727272 124,172.27272727272728 128,171.8181818181818 132,171.36363636363637 136,170.9090909090909 140,170.45454545454547 144,170.0 148,169.54545454545453 152,169.0909090909091 156,168.63636363636363 160,168.1818181818182 164,167.72727272727272 168,167.27272727272728 172,166.8181818181818 176,166.36363636363637 180,165.9090909090909 184,165.45454545454547 188,165.0 192,164.54545454545453 196,164.0909090909091 200,163.63636363636363 204,163.1818181818182 208,162.72727272727272 212,162.27272727272728 216,161.8181818181818 220,161.36363636363637 224,160.9090909090909 228,160.45454545454547 232,160.0 236,166.12424242424242 240,167.24848484848485 244,168.37272727272727 248,169.4969696969697 252,170.62121212121212 256,171.74545454545455 260,172.86969696969697 264,173.9939393939394 268,175.11818181818182 272,176.24242424242425 276,177.36666666666667 280,178.4909090909091 284,179.61515151515152 288,180.73939393939395 292,181.86363636363637 296,182.9878787878788 300,184.11212121212122 304,185.23636363636362 308,186.36060606060607 312,187.48484848484847 316,188.6090909090909 320,189.73333333333332 324,190.85757575757575 328,191.98181818181817 332,193.1060606060606 336,194.23030303030302 340,195.35454545454544 344,196.47878787878787 348,197.6030303030303 352,198.72727272727272 356,199.85151515151514 360,200.97575757575757 364,202.1 368,203.22424242424242 372,204.34848484848484 376,205.47272727272727 380,206.5969696969697 384,207.72121212121212 388,208.84545454545454 392,209.96969696969697 396,211.0939393939394 400,212.21818181818182 404,213.34242424242424 408,214.46666666666664 412,215.59090909090907 416,216.71515151515152 420,217.83939393939394 424,218.96363636363634 428,220.08787878787876 432,221.2121212121212 436,222.33636363636361 440,223.46060606060604 444,224.58484848484846 448,225.7090909090909 452,226.83333333333331 456,227.95757575757574 460,229.08181818181816 464,230.2060606060606 468,231.330303030303 472,232.45454545454544 476,233.57878787878786 480,234.7030303030303 484,235.8272727272727 488,236.95151515151514 492,238.07575757575756 496,239.2 500,285.49686500706457 504,309.3729252687034 508,328.7002681682869 512,345.5622653502698 516,360.800003197783 520,374.8570391697957 524,388.0025616740701 528,400.41504764297883 532,412.22031143951006 536,423.51113933459703 540,434.35837570970267 544,444.8176216334094 548,454.9335028501626 552,464.74250786857317 556,474.274942845599 560,483.55631848322616 564,492.608359022346 568,501.44975239165393 572,510.0967185480289 576,518.5634472818551 580,526.8624404681634 584,535.0047831564568 588,543.0003608432155 592,550.8580354762255 596,558.585789414564 600,566.1908442213096 604,569.2776760846972 608,569.4071362258591 612,569.536596367021 616,569.6660565081829 620,569.7955166493448 624,569.9249767905068 628,570.0544369316686 632,570.1838970728305 636,570.3133572139925 640,570.4428173551544 644,570.5722774963162 648,570.7017376374782 652,570.8311977786401 656,570.960657919802 660,571.090118060964 664,571.2195782021258 668,571.3490383432877 672,571.4784984844497 676,571.6079586256116 680,571.7374187667734 684,571.8668789079354 688,571.9963390490973 692,572.1257991902593 696,572.2552593314211 700,572.384719472583 704,572.514179613745 708,572.6436397549069 712,572.7730998960687 716,572.9025600372307 720,573.0320201783926 724,573.1614803195545 728,573.2909404607165 732,573.4204006018783 736,573.5498607430402 740,573.6793208842022 744,573.808781025364 748,573.9382411665259 752,574.0677013076879 756,574.1971614488498 760,574.3266215900117 764,574.4560817311736 768,574.5855418723355 772,574.7150020134974 776,574.8444621546594 780,574.9739222958212 784,575.1033824369831 788,575.2328425781451 792,575.362302719307 796,575.4917628604688 800,575.6212230016308 804,575.7506831427927 808,575.8801432839546 812,576.0096034251166 816,576.1390635662784 820,576.2685237074403 824,576.3979838486023 828,576.5274439897642 832,576.656904130926 836,576.786364272088 840,576.9158244132499 844,577.0452845544119 848,577.1747446955737 852,577.2643934639962 856,577.3443934639962 860,577.4243934639962 864,577.5043934639962 868,577.5843934639962 872,577.6643934639962 876,577.7443934639962 880,577.8243934639962 884,577.9043934639963 888,577.9843934639962 892,578.0643934639962 896,578.1443934639962 900,578.2243934639962 904,578.3043934639962 908,578.3843934639962 912,578.4643934639962 916,578.5443934639962 920,578.6243934639962 924,578.7043934639962 928,578.7843934639963 932,578.8643934639962 936,578.9443934639962 940,579.0243934639961 944,579.1043934639962 948,579.1843934639962 952,579.2643934639962 956,579.3443934639962 960,579.4243934639962 964,579.5043934639962 968,579.5843934639962 972,579.6643934639962 976,579.7443934639962 980,579.8243934639962 984,579.9043934639963 988,579.9843934639962 992,580.0643934639962 996,580.1443934639962 1000,580.2243934639962 1004,580.3043934639962 1008,580.3843934639962 1012,580.4643934639962 1016,580.5443934639962 1020,580.6243934639962 1024,580.7043934639962 1028,580.7843934639963 1032,580.8643934639962 1036,580.9443934639962 1040,581.0243934639961 1044,581.1043934639962 1048,581.1843934639962 1052,581.2643934639962 1056,581.3443934639962 1060,581.4243934639962 1064,581.5043934639962 1068,581.5843934639962 1072,581.6643934639962 1076,581.7443934639962 1080,581.8243934639962 1084,581.9043934639963 1088,581.9843934639962 1092,582.0643934639962 1096,582.1443934639962 1100,582.2243934639962 1104,582.3043934639962 1108,582.3843934639962 1112,582.4643934639962 1116,582.5443934639962 1112.7803268001921,649.2 100.0,649.2" stroke="none" /><path d="M 100,175.0 L 104,174.54545454545456 L 108,174.0909090909091 L 112,173.63636363636363 L 116,173.1818181818182 L 120,172.72727272727272 L 124,172.27272727272728 L 128,171.8181818181818 L 132,171.36363636363637 L 136,170.9090909090909 L 140,170.45454545454547 L 144,170.0 L 148,169.54545454545453 L 152,169.0909090909091 L 156,168.63636363636363 L 160,168.1818181818182 L 164,167.72727272727272 L 168,167.27272727272728 L 172,166.8181818181818 L 176,166.36363636363637 L 180,165.9090909090909 L 184,165.45454545454547 L 188,165.0 L 192,164.54545454545453 L 196,164.0909090909091 L 200,163.63636363636363 L 204,163.1818181818182 L 208,162.72727272727272 L 212,162.27272727272728 L 216,161.8181818181818 L 220,161.36363636363637 L 224,160.9090909090909 L 228,160.45454545454547 L 232,160.0 L 236,166.12424242424242 L 240,167.24848484848485 L 244,168.37272727272727 L 248,169.4969696969697 L 252,170.62121212121212 L 256,171.74545454545455 L 260,172.86969696969697 L 264,173.9939393939394 L 268,175.11818181818182 L 272,176.24242424242425 L 276,177.36666666666667 L 280,178.4909090909091 L 284,179.61515151515152 L 288,180.73939393939395 L 292,181.86363636363637 L 296,182.9878787878788 L 300,184.11212121212122 L 304,185.23636363636362 L 308,186.36060606060607 L 312,187.48484848484847 L 316,188.6090909090909 L 320,189.73333333333332 L 324,190.85757575757575 L 328,191.98181818181817 L 332,193.1060606060606 L 336,194.23030303030302 L 340,195.35454545454544 L 344,196.47878787878787 L 348,197.6030303030303 L 352,198.72727272727272 L 356,199.85151515151514 L 360,200.97575757575757 L 364,202.1 L 368,203.22424242424242 L 372,204.34848484848484 L 376,205.47272727272727 L 380,206.5969696969697 L 384,207.72121212121212 L 388,208.84545454545454 L 392,209.96969696969697 L 396,211.0939393939394 L 400,212.21818181818182 L 404,213.34242424242424 L 408,214.46666666666664 L 412,215.59090909090907 L 416,216.71515151515152 L 420,217.83939393939394 L 424,218.96363636363634 L 428,220.08787878787876 L 432,221.2121212121212 L 436,222.33636363636361 L 440,223.46060606060604 L 444,224.58484848484846 L 448,225.7090909090909 L 452,226.83333333333331 L 456,227.95757575757574 L 460,229.08181818181816 L 464,230.2060606060606 L 468,231.330303030303 L 472,232.45454545454544 L 476,233.57878787878786 L 480,234.7030303030303 L 484,235.8272727272727 L 488,236.95151515151514 L 492,238.07575757575756 L 496,239.2 L 500,285.49686500706457 L 504,309.3729252687034 L 508,328.7002681682869 L 512,345.5622653502698 L 516,360.800003197783 L 520,374.8570391697957 L 524,388.0025616740701 L 528,400.41504764297883 L 532,412.22031143951006 L 536,423.51113933459703 L 540,434.35837570970267 L 544,444.8176216334094 L 548,454.9335028501626 L 552,464.74250786857317 L 556,474.274942845599 L 560,483.55631848322616 L 564,492.608359022346 L 568,501.44975239165393 L 572,510.0967185480289 L 576,518.5634472818551 L 580,526.8624404681634 L 584,535.0047831564568 L 588,543.0003608432155 L 592,550.8580354762255 L 596,558.585789414564 L 600,566.1908442213096 L 604,569.2776760846972 L 608,569.4071362258591 L 612,569.536596367021 L 616,569.6660565081829 L 620,569.7955166493448 L 624,569.9249767905068 L 628,570.0544369316686 L 632,570.1838970728305 L 636,570.3133572139925 L 640,570.4428173551544 L 644,570.5722774963162 L 648,570.7017376374782 L 652,570.8311977786401 L 656,570.960657919802 L 660,571.090118060964 L 664,571.2195782021258 L 668,571.3490383432877 L 672,571.4784984844497 L 676,571.6079586256116 L 680,571.7374187667734 L 684,571.8668789079354 L 688,571.9963390490973 L 692,572.1257991902593 L 696,572.2552593314211 L 700,572.384719472583 L 704,572.514179613745 L 708,572.6436397549069 L 712,572.7730998960687 L 716,572.9025600372307 L 720,573.0320201783926 L 724,573.1614803195545 L 728,573.2909404607165 L 732,573.4204006018783 L 736,573.5498607430402 L 740,573.6793208842022 L 744,573.808781025364 L 748,573.9382411665259 L 752,574.0677013076879 L 756,574.1971614488498 L 760,574.3266215900117 L 764,574.4560817311736 L 768,574.5855418723355 L 772,574.7150020134974 L 776,574.8444621546594 L 780,574.9739222958212 L 784,575.1033824369831 L 788,575.2328425781451 L 792,575.362302719307 L 796,575.4917628604688 L 800,575.6212230016308 L 804,575.7506831427927 L 808,575.8801432839546 L 812,576.0096034251166 L 816,576.1390635662784 L 820,576.2685237074403 L 824,576.3979838486023 L 828,576.5274439897642 L 832,576.656904130926 L 836,576.786364272088 L 840,576.9158244132499 L 844,577.0452845544119 L 848,577.1747446955737 L 852,577.2643934639962 L 856,577.3443934639962 L 860,577.4243934639962 L 864,577.5043934639962 L 868,577.5843934639962 L 872,577.6643934639962 L 876,577.7443934639962 L 880,577.8243934639962 L 884,577.9043934639963 L 888,577.9843934639962 L 892,578.0643934639962 L 896,578.1443934639962 L 900,578.2243934639962 L 904,578.3043934639962 L 908,578.3843934639962 L 912,578.4643934639962 L 916,578.5443934639962 L 920,578.6243934639962 L 924,578.7043934639962 L 928,578.7843934639963 L 932,578.8643934639962 L 936,578.9443934639962 L 940,579.0243934639961 L 944,579.1043934639962 L 948,579.1843934639962 L 952,579.2643934639962 L 956,579.3443934639962 L 960,579.4243934639962 L 964,579.5043934639962 L 968,579.5843934639962 L 972,579.6643934639962 L 976,579.7443934639962 L 980,579.8243934639962 L 984,579.9043934639963 L 988,579.9843934639962 L 992,580.0643934639962 L 996,580.1443934639962 L 1000,580.2243934639962 L 1004,580.3043934639962 L 1008,580.3843934639962 L 1012,580.4643934639962 L 1016,580.5443934639962 L 1020,580.6243934639962 L 1024,580.7043934639962 L 1028,580.7843934639963 L 1032,580.8643934639962 L 1036,580.9443934639962 L 1040,581.0243934639961 L 1044,581.1043934639962 L 1048,581.1843934639962 L 1052,581.2643934639962 L 1056,581.3443934639962 L 1060,581.4243934639962 L 1064,581.5043934639962 L 1068,581.5843934639962 L 1072,581.6643934639962 L 1076,581.7443934639962 L 1080,581.8243934639962 L 1084,581.9043934639963 L 1088,581.9843934639962 L 1092,582.0643934639962 L 1096,582.1443934639962 L 1100,582.2243934639962 L 1104,582.3043934639962 L 1108,582.3843934639962 L 1112,582.4643934639962 L 1116,582.5443934639962 " fill="none" stroke="#999" stroke-dasharray="6,3" stroke-width="0.75" /><line stroke="#BBB" stroke-width="0.35" x1="100" x2="105" y1="175.0" y2="182.0" /><line stroke="#BBB" stroke-width="0.35" x1="124" x2="129" y1="172.27272727272728" y2="179.27272727272728" /><line stroke="#BBB" stroke-width="0.35" x1="148" x2="153" y1="169.54545454545453" y2="176.54545454545453" /><line stroke="#BBB" stroke-width="0.35" x1="172" x2="177" y1="166.8181818181818" y2="173.8181818181818" /><line stroke="#BBB" stroke-width="0.35" x1="196" x2="201" y1="164.0909090909091" y2="171.0909090909091" /><line stroke="#BBB" stroke-width="0.35" x1="220" x2="225" y1="161.36363636363637" y2="168.36363636363637" /><line stroke="#BBB" stroke-width="0.35" x1="244" x2="249" y1="168.37272727272727" y2="175.37272727272727" /><line stroke="#BBB" stroke-width="0.35" x1="268" x2="273" y1="175.11818181818182" y2="182.11818181818182" /><line stroke="#BBB" stroke-width="0.35" x1="292" x2="297" y1="181.86363636363637" y2="188.86363636363637" /><line stroke="#BBB" stroke-width="0.35" x1="316" x2="321" y1="188.6090909090909" y2="195.6090909090909" /><line stroke="#BBB" stroke-width="0.35" x1="340" x2="345" y1="195.35454545454544" y2="202.35454545454544" /><line stroke="#BBB" stroke-width="0.35" x1="364" x2="369" y1="202.1" y2="209.1" /><line stroke="#BBB" stroke-width="0.35" x1="388" x2="393" y1="208.84545454545454" y2="215.84545454545454" /><line stroke="#BBB" stroke-width="0.35" x1="412" x2="417" y1="215.59090909090907" y2="222.59090909090907" /><line stroke="#BBB" stroke-width="0.35" x1="436" x2="441" y1="222.33636363636361" y2="229.33636363636361" /><line stroke="#BBB" stroke-width="0.35" x1="460" x2="465" y1="229.08181818181816" y2="236.08181818181816" /><line stroke="#BBB" stroke-width="0.35" x1="484" x2="489" y1="235.8272727272727" y2="242.8272727272727" /><line stroke="#BBB" stroke-width="0.35" x1="508" x2="513" y1="328.7002681682869" y2="335.7002681682869" /><line stroke="#BBB" stroke-width="0.35" x1="532" x2="537" y1="412.22031143951006" y2="419.22031143951006" /><line stroke="#BBB" stroke-width="0.35" x1="556" x2="561" y1="474.274942845599" y2="481.274942845599" /><line stroke="#BBB" stroke-width="0.35" x1="580" x2="585" y1="526.8624404681634" y2="533.8624404681634" /><line stroke="#BBB" stroke-width="0.35" x1="604" x2="609" y1="569.2776760846972" y2="576.2776760846972" /><line stroke="#BBB" stroke-width="0.35" x1="628" x2="633" y1="570.0544369316686" y2="577.0544369316686" /><line stroke="#BBB" stroke-width="0.35" x1="652" x2="657" y1="570.8311977786401" y2="577.8311977786401" /><line stroke="#BBB" stroke-width="0.35" x1="676" x2="681" y1="571.6079586256116" y2="578.6079586256116" /><line stroke="#BBB" stroke-width="0.35" x1="700" x2="705" y1="572.384719472583" y2="579.384719472583" /><line stroke="#BBB" stroke-width="0.35" x1="724" x2="729" y1="573.1614803195545" y2="580.1614803195545" /><line stroke="#BBB" stroke-width="0.35" x1="748" x2="753" y1="573.9382411665259" y2="580.9382411665259" /><line stroke="#BBB" stroke-width="0.35" x1="772" x2="777" y1="574.7150020134974" y2="581.7150020134974" /><line stroke="#BBB" stroke-width="0.35" x1="796" x2="801" y1="575.4917628604688" y2="582.4917628604688" /><line stroke="#BBB" stroke-width="0.35" x1="820" x2="825" y1="576.2685237074403" y2="583.2685237074403" /><line stroke="#BBB" stroke-width="0.35" x1="844" x2="849" y1="577.0452845544119" y2="584.0452845544119" /><line stroke="#BBB" stroke-width="0.35" x1="868" x2="873" y1="577.5843934639962" y2="584.5843934639962" /><line stroke="#BBB" stroke-width="0.35" x1="892" x2="897" y1="578.0643934639962" y2="585.0643934639962" /><line stroke="#BBB" stroke-width="0.35" x1="916" x2="921" y1="578.5443934639962" y2="585.5443934639962" /><line stroke="#BBB" stroke-width="0.35" x1="940" x2="945" y1="579.0243934639961" y2="586.0243934639961" /><line stroke="#BBB" stroke-width="0.35" x1="964" x2="969" y1="579.5043934639962" y2="586.5043934639962" /><line stroke="#BBB" stroke-width="0.35" x1="988" x2="993" y1="579.9843934639962" y2="586.9843934639962" /><line stroke="#BBB" stroke-width="0.35" x1="1012" x2="1017" y1="580.4643934639962" y2="587.4643934639962" /><line stroke="#BBB" stroke-width="0.35" x1="1036" x2="1041" y1="580.9443934639962" y2="587.9443934639962" /><line stroke="#BBB" stroke-width="0.35" x1="1060" x2="1065" y1="581.4243934639962" y2="588.4243934639962" /><line stroke="#BBB" stroke-width="0.35" x1="1084" x2="1089" y1="581.9043934639963" y2="588.9043934639963" /><line stroke="#BBB" stroke-width="0.35" x1="1108" x2="1113" y1="582.3843934639962" y2="589.3843934639962" /><polygon fill="#C5B890" opacity="0.3" points="496,239.2 499,278.15725443452817 502,298.248155932175 505,314.51146479266816 508,328.7002681682869 511,341.5223119555202 514,353.3508348344117 517,364.41234979434876 520,374.8570391697957 523,384.7907715146967 526,394.29162335462695 529,403.41920785331763 532,412.22031143951006 535,420.73248517590423 538,428.9864329149892 541,437.0076562683183 544,444.8176216334094 547,452.4346092281492 550,459.8743443158559 553,467.15047544458895 556,474.274942845599 559,481.25826642615027 562,488.10977388248796 565,494.8377835273433 568,501.44975239165393 571,507.95239736204985 574,514.3517951409212 577,520.6534653999744 580,526.8624404681634 583,532.9833241356021 586,539.0203415884844 589,544.9773820625012 592,550.8580354762255 595,556.6656240549507 598,562.4032297604767 601,568.0737181895873 604,569.2776760846972 601.6,649.2 496.0,649.2" stroke="none" /><rect fill="#D4B87A" height="7.700000000000001" stroke="#333333" stroke-width="1.5" width="264.0" x="232.0" y="152.3" /><rect fill="#C8A96E" height="19.8" stroke="#333333" stroke-width="1" width="264.0" x="232.0" y="160" /><line stroke="#A08050" stroke-width="0.4" x1="232.0" x2="232.0" y1="160" y2="179.8" /><line stroke="#A08050" stroke-width="0.4" x1="267.2" x2="267.2" y1="160" y2="179.8" /><line stroke="#A08050" stroke-width="0.4" x1="302.4" x2="302.4" y1="160" y2="179.8" /><line stroke="#A08050" stroke-width="0.4" x1="337.59999999999997" x2="337.59999999999997" y1="160" y2="179.8" /><line stroke="#A08050" stroke-width="0.4" x1="372.79999999999995" x2="372.79999999999995" y1="160" y2="179.8" /><line stroke="#A08050" stroke-width="0.4" x1="407.99999999999994" x2="407.99999999999994" y1="160" y2="179.8" /><line stroke="#A08050" stroke-width="0.4" x1="443.19999999999993" x2="443.19999999999993" y1="160" y2="179.8" /><line stroke="#A08050" stroke-width="0.4" x1="478.3999999999999" x2="478.3999999999999" y1="160" y2="179.8" /><rect fill="#A07840" height="45.41999999999999" stroke="#333333" stroke-width="1" width="12.100000000000001" x="252.34999999999997" y="179.8" /><rect fill="#888" height="52.80000000000001" opacity="0.2" stroke="none" width="14.100000000000001" x="251.34999999999997" y="172.42" /><rect fill="#A07840" height="60.25999999999999" stroke="#333333" stroke-width="1" width="12.100000000000001" x="305.15" y="179.8" /><rect fill="#888" height="52.80000000000001" opacity="0.2" stroke="none" width="14.100000000000001" x="304.15" y="187.26" /><rect fill="#A07840" height="75.1" stroke="#333333" stroke-width="1" width="12.100000000000001" x="357.95" y="179.8" /><rect fill="#888" height="52.80000000000001" opacity="0.2" stroke="none" width="14.100000000000001" x="356.95" y="202.1" /><rect fill="#A07840" height="89.94" stroke="#333333" stroke-width="1" width="12.100000000000001" x="410.74999999999994" y="179.8" /><rect fill="#888" height="52.80000000000001" opacity="0.2" stroke="none" width="14.100000000000001" x="409.74999999999994" y="216.94" /><rect fill="#A07840" height="104.77999999999997" stroke="#333333" stroke-width="1" width="12.100000000000001" x="463.55" y="179.8" /><rect fill="#888" height="52.79999999999998" opacity="0.2" stroke="none" width="14.100000000000001" x="462.55" y="231.78" /><line stroke="#333333" stroke-width="1.5" x1="100.0" x2="232.0" y1="175.0" y2="152.3" /><polygon fill="#C4A265" opacity="0.45" points="601.6,569.2 601.6,450.40000000000003 707.2,450.40000000000003 714.2790163400097,456.51088738633376 721.3580326800193,462.6217747726675 728.4370490200289,468.7326621590012 735.5160653600385,474.8435495453349 742.5950817000481,480.9544369316686 749.6740980400577,487.06532431800235 756.7531143800674,493.1762117043361 763.832130720077,499.2870990906698 770.9111470600865,505.39798647700354 777.9901634000961,511.50887386333727 785.0691797401057,517.619761249671 792.1481960801153,523.7306486360047 799.2272124201249,529.8415360223385 806.3062287601346,535.9524234086721 813.3852451001442,542.0633107950058 820.4642614401538,548.1741981813395 827.5432777801634,554.2850855676733 834.622294120173,560.395972954007 841.7013104601826,566.5068603403407 848.7803268001923,572.6177477266745 856.7003268001922,572.6469303747474 864.6203268001923,572.7376360692289 872.5403268001922,572.893362377685 880.4603268001922,573.1158172987025 888.3803268001923,573.4047887501994 896.3003268001922,573.7580681571757 904.2203268001922,574.1714320305317 912.1403268001923,574.6386837832158 920.0603268001922,575.151756285128 927.9803268001923,575.7008738633372 935.9003268001923,576.2747706608088 943.8203268001922,576.8609605272766 951.7403268001923,577.446051981619 959.6603268001923,578.0161003053513 967.5803268001923,578.5569875471748 975.5003268001923,579.054820179426 983.4203268001922,579.4963333830096 991.3403268001923,579.8692904748949 999.2603268001923,580.1628658502794 1007.1803268001922,580.368 1007.1803268001922,580.368 1007,580.3643934639962 1003,580.2843934639963 999,580.2043934639962 995,580.1243934639962 991,580.0443934639962 987,579.9643934639962 983,579.8843934639962 979,579.8043934639962 975,579.7243934639962 971,579.6443934639962 967,579.5643934639962 963,579.4843934639962 959,579.4043934639963 955,579.3243934639962 951,579.2443934639962 947,579.1643934639962 943,579.0843934639962 939,579.0043934639962 935,578.9243934639962 931,578.8443934639962 927,578.7643934639962 923,578.6843934639962 919,578.6043934639962 915,578.5243934639961 911,578.4443934639962 907,578.3643934639962 903,578.2843934639963 899,578.2043934639962 895,578.1243934639962 891,578.0443934639962 887,577.9643934639962 883,577.8843934639962 879,577.8043934639962 875,577.7243934639962 871,577.6443934639962 867,577.5643934639962 863,577.4843934639962 859,577.4043934639963 855,577.3243934639962 851,577.2443934639962 847,577.1423796602833 843,577.0129195191213 839,576.8834593779594 835,576.7539992367975 831,576.6245390956356 827,576.4950789544737 823,576.3656188133118 819,576.2361586721498 815,576.106698530988 811,575.9772383898261 807,575.8477782486641 803,575.7183181075022 799,575.5888579663404 795,575.4593978251784 791,575.3299376840165 787,575.2004775428546 783,575.0710174016926 779,574.9415572605308 775,574.8120971193689 771,574.6826369782069 767,574.553176837045 763,574.4237166958832 759,574.2942565547212 755,574.1647964135593 751,574.0353362723974 747,573.9058761312355 743,573.7764159900736 739,573.6469558489117 735,573.5174957077497 731,573.3880355665879 727,573.258575425426 723,573.129115284264 719,572.9996551431021 715,572.8701950019401 711,572.7407348607783 707,572.6112747196164 703,572.4818145784544 699,572.3523544372925 695,572.2228942961307 691,572.0934341549687 687,571.9639740138068 683,571.834513872645 679,571.705053731483 675,571.5755935903211 671,571.4461334491592 667,571.3166733079972 663,571.1872131668354 659,571.0577530256735 655,570.9282928845115 651,570.7988327433496 647,570.6693726021878 643,570.5399124610258 639,570.4104523198639 635,570.280992178702 631,570.15153203754 627,570.0220718963782 623,569.8926117552163 619,569.7631516140543 615,569.6336914728925 611,569.5042313317306 607,569.3747711905686 603,569.2453110494067 601.6,569.2" stroke="none" /><ellipse cx="601.6" cy="560.4000000000001" fill="#A07840" rx="8.8" ry="8.8" stroke="#333333" stroke-width="1" /><circle cx="601.6" cy="560.4000000000001" fill="none" r="3.5200000000000005" stroke="#6B5030" stroke-width="0.5" /><circle cx="601.6" cy="560.4000000000001" fill="#6B5030" r="1.5" /><ellipse cx="601.6" cy="542.8000000000001" fill="#A07840" rx="8.8" ry="8.8" stroke="#333333" stroke-width="1" /><circle cx="601.6" cy="542.8000000000001" fill="none" r="3.5200000000000005" stroke="#6B5030" stroke-width="0.5" /><circle cx="601.6" cy="542.8000000000001" fill="#6B5030" r="1.5" /><ellipse cx="601.6" cy="525.2" fill="#A07840" rx="8.8" ry="8.8" stroke="#333333" stroke-width="1" /><circle cx="601.6" cy="525.2" fill="none" r="3.5200000000000005" stroke="#6B5030" stroke-width="0.5" /><circle cx="601.6" cy="525.2" fill="#6B5030" r="1.5" /><ellipse cx="601.6" cy="507.6" fill="#A07840" rx="8.8" ry="8.8" stroke="#333333" stroke-width="1" /><circle cx="601.6" cy="507.6" fill="none" r="3.5200000000000005" stroke="#6B5030" stroke-width="0.5" /><circle cx="601.6" cy="507.6" fill="#6B5030" r="1.5" /><ellipse cx="601.6" cy="490.00000000000006" fill="#A07840" rx="8.8" ry="8.8" stroke="#333333" stroke-width="1" /><circle cx="601.6" cy="490.00000000000006" fill="none" r="3.5200000000000005" stroke="#6B5030" stroke-width="0.5" /><circle cx="601.6" cy="490.00000000000006" fill="#6B5030" r="1.5" /><ellipse cx="601.6" cy="472.40000000000003" fill="#A07840" rx="8.8" ry="8.8" stroke="#333333" stroke-width="1" /><circle cx="601.6" cy="472.40000000000003" fill="none" r="3.5200000000000005" stroke="#6B5030" stroke-width="0.5" /><circle cx="601.6" cy="472.40000000000003" fill="#6B5030" r="1.5" /><line stroke="#333333" stroke-width="2.5" x1="601.6" x2="601.6" y1="569.2" y2="450.40000000000003" /><rect fill="#8B6B3D" height="10.56" opacity="0.6" stroke="#333333" stroke-width="0.75" width="105.60000000000001" x="601.6" y="528.72" /><text fill="#555" font-family="Arial, Helvetica, sans-serif" font-size="7px" font-style="italic" x="712.2" y="537.0">Deadman tie-back</text><rect fill="#8B6B3D" height="10.56" opacity="0.6" stroke="#333333" stroke-width="0.75" width="105.60000000000001" x="601.6" y="493.5200000000001" /><text fill="#555" font-family="Arial, Helvetica, sans-serif" font-size="7px" font-style="italic" x="712.2" y="501.80000000000007">Deadman tie-back</text><path d="M 601.6,450.40000000000003 L 707.2,450.40000000000003 L 714.2790163400097,456.51088738633376 L 721.3580326800193,462.6217747726675 L 728.4370490200289,468.7326621590012 L 735.5160653600385,474.8435495453349 L 742.5950817000481,480.9544369316686 L 749.6740980400577,487.06532431800235 L 756.7531143800674,493.1762117043361 L 763.832130720077,499.2870990906698 L 770.9111470600865,505.39798647700354 L 777.9901634000961,511.50887386333727 L 785.0691797401057,517.619761249671 L 792.1481960801153,523.7306486360047 L 799.2272124201249,529.8415360223385 L 806.3062287601346,535.9524234086721 L 813.3852451001442,542.0633107950058 L 820.4642614401538,548.1741981813395 L 827.5432777801634,554.2850855676733 L 834.622294120173,560.395972954007 L 841.7013104601826,566.5068603403407 L 848.7803268001923,572.6177477266745 L 856.7003268001922,572.6469303747474 L 864.6203268001923,572.7376360692289 L 872.5403268001922,572.893362377685 L 880.4603268001922,573.1158172987025 L 888.3803268001923,573.4047887501994 L 896.3003268001922,573.7580681571757 L 904.2203268001922,574.1714320305317 L 912.1403268001923,574.6386837832158 L 920.0603268001922,575.151756285128 L 927.9803268001923,575.7008738633372 L 935.9003268001923,576.2747706608088 L 943.8203268001922,576.8609605272766 L 951.7403268001923,577.446051981619 L 959.6603268001923,578.0161003053513 L 967.5803268001923,578.5569875471748 L 975.5003268001923,579.054820179426 L 983.4203268001922,579.4963333830096 L 991.3403268001923,579.8692904748949 L 999.2603268001923,580.1628658502794 L 1007.1803268001922,580.368 " fill="none" stroke="#333333" stroke-width="2.5" /><line stroke="#CC0000" stroke-dasharray="3,2" stroke-width="0.6" x1="521.6" x2="599.6" y1="509.80000000000007" y2="509.80000000000007" /><text fill="#CC0000" font-family="Arial, Helvetica, sans-serif" font-size="9px" font-weight="bold" x="521.6" y="506.80000000000007">Log crib wall (vertical)</text><line stroke="#333333" stroke-width="1.5" x1="1007.1803268001922" x2="1112.7803268001921" y1="580.368" y2="582.48" /><path d="M 496.0,152.3 L 509.2,152.97136965460473 L 522.4,154.9854786184189 L 535.6,158.34232689144253 L 548.8,163.0419144736756 L 562.0,169.0842413651181 L 575.2,176.46930756577007 L 588.4,185.19711307563148 L 601.6,195.26765789470232 L 614.8,206.68094202298263 L 628.0,219.43696546047238 L 641.1999999999999,233.53572820717156 L 654.4,248.97723026308023 L 667.5999999999999,265.7614716281983 L 680.8,283.8884523025259 L 694.0,303.3581722860628 L 707.1999999999999,324.17063157880926 L 720.4,346.32583018076514 L 733.5999999999999,369.82376809193045 L 746.8,394.66444531230525 L 760.0,420.8478618418895 L 773.1999999999999,448.37401768068315 L 786.3999999999999,477.2429128286862 L 799.5999999999999,507.45454728589885 L 812.8,539.0089210523208 " fill="none" opacity="0.5" stroke="#CC0000" stroke-dasharray="8,5" stroke-width="1.2" /><text fill="#CC0000" font-family="Arial, Helvetica, sans-serif" font-size="8px" font-style="italic" opacity="0.6" text-anchor="middle" x="614.4" y="240.97723026308023">Flight path</text><circle cx="812.8" cy="539.0089210523208" fill="#CC0000" opacity="0.6" r="4" /><line stroke="#CC0000" stroke-dasharray="3,2" stroke-width="0.6" x1="827.8" x2="812.8" y1="524.0089210523208" y2="539.0089210523208" /><text fill="#CC0000" font-family="Arial, Helvetica, sans-serif" font-size="9px" font-weight="bold" x="827.8" y="521.0089210523208">Sweet spot (9')</text><line stroke="#0055AA" stroke-width="0.5" x1="232.0" x2="232.0" y1="149.3" y2="119.30000000000001" /><line stroke="#0055AA" stroke-width="0.5" x1="496.0" x2="496.0" y1="149.3" y2="119.30000000000001" /><line stroke="#0055AA" stroke-width="0.75" x1="232.0" x2="496.0" y1="122.30000000000001" y2="122.30000000000001" /><polygon fill="#0055AA" points="232.0,122.30000000000001 227.46846106481675,124.41309130870351 227.46846106481675,120.18690869129651" stroke="none" /><polygon fill="#0055AA" points="496.0,122.30000000000001 500.5315389351833,120.18690869129651 500.5315389351832,124.41309130870351" stroke="none" /><rect fill="white" height="13" stroke="none" width="39.0" x="344.5" y="112.30000000000001" /><text fill="#0055AA" font-family="Arial, Helvetica, sans-serif" font-size="10px" text-anchor="middle" x="364.0" y="121.30000000000001">10'-0"</text><line stroke="#0055AA" stroke-width="0.5" x1="504.0" x2="529.0" y1="152.3" y2="152.3" /><line stroke="#0055AA" stroke-width="0.5" x1="504.0" x2="529.0" y1="239.2" y2="239.2" /><line stroke="#0055AA" stroke-width="0.75" x1="526.0" x2="526.0" y1="152.3" y2="239.2" /><polygon fill="#0055AA" points="526.0,152.3 523.8869086912965,147.76846106481676 528.1130913087035,147.76846106481676" stroke="none" /><polygon fill="#0055AA" points="526.0,239.2 528.1130913087035,243.73153893518324 523.8869086912965,243.73153893518324" stroke="none" /><text fill="#0055AA" font-family="Arial, Helvetica, sans-serif" font-size="10px" text-anchor="middle" transform="translate(521.0,195.75) rotate(-90)" x="0" y="0">3'-0"</text><line stroke="#0055AA" stroke-width="0.5" x1="483.0" x2="438.0" y1="152.3" y2="152.3" /><line stroke="#0055AA" stroke-width="0.5" x1="483.0" x2="438.0" y1="569.2" y2="569.2" /><line stroke="#0055AA" stroke-width="0.75" x1="441.0" x2="441.0" y1="152.3" y2="569.2" /><polygon fill="#0055AA" points="441.0,152.3 438.8869086912965,147.76846106481676 443.1130913087035,147.76846106481676" stroke="none" /><polygon fill="#0055AA" points="441.0,569.2 443.1130913087035,573.7315389351833 438.8869086912965,573.7315389351833" stroke="none" /><text fill="#0055AA" font-family="Arial, Helvetica, sans-serif" font-size="10px" text-anchor="middle" transform="translate(436.0,360.75) rotate(-90)" x="0" y="0">15'-6"</text><line stroke="#0055AA" stroke-width="0.5" x1="720.2" x2="765.2" y1="152.3" y2="152.3" /><line stroke="#0055AA" stroke-width="0.5" x1="720.2" x2="765.2" y1="450.40000000000003" y2="450.40000000000003" /><line stroke="#0055AA" stroke-width="0.75" x1="762.2" x2="762.2" y1="152.3" y2="450.40000000000003" /><polygon fill="#0055AA" points="762.2,152.3 760.0869086912966,147.76846106481676 764.3130913087035,147.76846106481676" stroke="none" /><polygon fill="#0055AA" points="762.2,450.40000000000003 764.3130913087035,454.9315389351833 760.0869086912966,454.9315389351833" stroke="none" /><text fill="#0055AA" font-family="Arial, Helvetica, sans-serif" font-size="10px" text-anchor="middle" transform="translate(757.2,301.35) rotate(-90)" x="0" y="0">11'-0"</text><line stroke="#0055AA" stroke-width="0.5" x1="720.2" x2="800.2" y1="450.40000000000003" y2="450.40000000000003" /><line stroke="#0055AA" stroke-width="0.5" x1="720.2" x2="800.2" y1="572.6177477266745" y2="572.6177477266745" /><line stroke="#0055AA" stroke-width="0.75" x1="797.2" x2="797.2" y1="450.40000000000003" y2="572.6177477266745" /><polygon fill="#0055AA" points="797.2,450.40000000000003 795.0869086912966,445.86846106481676 799.3130913087035,445.86846106481676" stroke="none" /><polygon fill="#0055AA" points="797.2,572.6177477266745 799.3130913087035,577.1492866618577 795.0869086912966,577.1492866618577" stroke="none" /><text fill="#0055AA" font-family="Arial, Helvetica, sans-serif" font-size="10px" text-anchor="middle" transform="translate(792.2,511.50887386333727) rotate(-90)" x="0" y="0">4'-6"</text><line stroke="#0055AA" stroke-width="0.5" x1="496.0" x2="496.0" y1="149.3" y2="94.30000000000001" /><line stroke="#0055AA" stroke-width="0.5" x1="812.8" x2="812.8" y1="149.3" y2="94.30000000000001" /><line stroke="#0055AA" stroke-width="0.75" x1="496.0" x2="812.8" y1="97.30000000000001" y2="97.30000000000001" /><polygon fill="#0055AA" points="496.0,97.30000000000001 491.4684610648168,99.41309130870351 491.4684610648168,95.18690869129651" stroke="none" /><polygon fill="#0055AA" points="812.8,97.30000000000001 817.3315389351832,95.18690869129651 817.3315389351832,99.41309130870351" stroke="none" /><rect fill="white" height="13" stroke="none" width="39.0" x="634.9" y="87.30000000000001" /><text fill="#0055AA" font-family="Arial, Helvetica, sans-serif" font-size="10px" text-anchor="middle" x="654.4" y="96.30000000000001">12'-0"</text><line stroke="#0055AA" stroke-width="0.5" x1="496.0" x2="496.0" y1="572.2" y2="602.2" /><line stroke="#0055AA" stroke-width="0.5" x1="707.2" x2="707.2" y1="572.2" y2="602.2" /><line stroke="#0055AA" stroke-width="0.75" x1="496.0" x2="707.2" y1="599.2" y2="599.2" /><polygon fill="#0055AA" points="496.0,599.2 491.4684610648168,601.3130913087035 491.4684610648168,597.0869086912966" stroke="none" /><polygon fill="#0055AA" points="707.2,599.2 711.7315389351833,597.0869086912966 711.7315389351833,601.3130913087035" stroke="none" /><rect fill="white" height="13" stroke="none" width="32.5" x="585.35" y="589.2" /><text fill="#0055AA" font-family="Arial, Helvetica, sans-serif" font-size="10px" text-anchor="middle" x="601.6" y="598.2">8'-0"</text><line stroke="#0055AA" stroke-width="0.5" x1="496.0" x2="496.0" y1="572.2" y2="627.2" /><line stroke="#0055AA" stroke-width="0.5" x1="601.6" x2="601.6" y1="572.2" y2="627.2" /><line stroke="#0055AA" stroke-width="0.75" x1="496.0" x2="601.6" y1="624.2" y2="624.2" /><polygon fill="#0055AA" points="496.0,624.2 491.4684610648168,626.3130913087035 491.4684610648168,622.0869086912966" stroke="none" /><polygon fill="#0055AA" points="601.6,624.2 606.1315389351832,622.0869086912966 606.1315389351832,626.3130913087035" stroke="none" /><rect fill="white" height="13" stroke="none" width="32.5" x="532.55" y="614.2" /><text fill="#0055AA" font-family="Arial, Helvetica, sans-serif" font-size="10px" text-anchor="middle" x="548.8" y="623.2">4'-0"</text><line stroke="#CC0000" stroke-dasharray="3,2" stroke-width="0.5" x1="707.2" x2="752.2" y1="450.40000000000003" y2="450.40000000000003" /><path d="M 742.2,450.40000000000003 A 35,35 0 0,1 734.0115555091643,472.8975663390289" fill="none" stroke="#CC0000" stroke-width="1" /><text fill="#CC0000" font-family="Arial, Helvetica, sans-serif" font-size="10px" font-weight="bold" x="753.2449384185096" y="470.15898702295783">40.0°</text><line stroke="#0055AA" stroke-width="0.5" x1="707.2" x2="707.2" y1="572.2" y2="602.2" /><line stroke="#0055AA" stroke-width="0.5" x1="848.7803268001923" x2="848.7803268001923" y1="572.2" y2="602.2" /><line stroke="#0055AA" stroke-width="0.75" x1="707.2" x2="848.7803268001923" y1="599.2" y2="599.2" /><polygon fill="#0055AA" points="707.2,599.2 702.6684610648168,601.3130913087035 702.6684610648168,597.0869086912966" stroke="none" /><polygon fill="#0055AA" points="848.7803268001923,599.2 853.3118657353755,597.0869086912966 853.3118657353755,601.3130913087035" stroke="none" /><rect fill="white" height="13" stroke="none" width="117.0" x="719.4901634000962" y="589.2" /><text fill="#0055AA" font-family="Arial, Helvetica, sans-serif" font-size="10px" text-anchor="middle" x="777.9901634000962" y="598.2">Landing run: 5'-4"</text><text fill="#CC0000" font-family="Arial, Helvetica, sans-serif" font-size="9px" font-weight="bold" x="252.0" y="139.3">Bridge: 10'-0" x 2'-0"</text><text fill="#CC0000" font-family="Arial, Helvetica, sans-serif" font-size="9px" font-weight="bold" x="410.4" y="191.66">6x6 pylons into hillside</text><text fill="#CC0000" font-family="Arial, Helvetica, sans-serif" font-size="9px" font-weight="bold" x="749.6740980400577" y="499.06532431800235">Compact lander fill in 6" lifts</text><text fill="#CC0000" font-family="Arial, Helvetica, sans-serif" font-size="9px" font-weight="bold" x="798.7803268001923" y="584.6177477266745">18° landing slope</text><text fill="#CC0000" font-family="Arial, Helvetica, sans-serif" font-size="9px" font-weight="bold" x="1032.7803268001921" y="591.48">Smooth transition to flat</text><text fill="#CC0000" font-family="Arial, Helvetica, sans-serif" font-size="9px" font-weight="bold" x="488.79999999999995" y="381.20000000000005">Steep hillside</text><line stroke="#CC0000" stroke-dasharray="3,2" stroke-width="0.6" x1="521.6" x2="592.8000000000001" y1="542.8000000000001" y2="542.8000000000001" /><text fill="#CC0000" font-family="Arial, Helvetica, sans-serif" font-size="9px" font-weight="bold" x="521.6" y="539.8000000000001">8.0" dia. logs</text><text fill="#555" font-family="Arial, Helvetica, sans-serif" font-size="8px" font-style="italic" text-anchor="middle" x="364.0" y="149.3">BRIDGE DECK</text><text fill="#555" font-family="Arial, Helvetica, sans-serif" font-size="9px" font-weight="bold" text-anchor="middle" x="749.6740980400577" y="442.40000000000003">LOG CRIB LANDER</text></g><g><text fill="#222" font-family="Arial, Helvetica, sans-serif" font-size="14px" font-weight="bold" text-anchor="middle" x="636.3901634000961" y="774.2">TOP VIEW (PLAN)</text><rect fill="#E8E0D0" height="52.800000000000004" stroke="#333333" stroke-width="1" width="132.0" x="100.0" y="822.8000000000001" /><text fill="#555" font-family="Arial, Helvetica, sans-serif" font-size="8px" font-style="italic" text-anchor="middle" x="166.0" y="853.2">Trail</text><rect fill="#D4B87A" height="52.800000000000004" stroke="#333333" stroke-width="1.5" width="264.0" x="232.0" y="822.8000000000001" /><line stroke="#B89860" stroke-width="0.3" x1="232" x2="232" y1="822.8000000000001" y2="875.6" /><line stroke="#B89860" stroke-width="0.3" x1="244" x2="244" y1="822.8000000000001" y2="875.6" /><line stroke="#B89860" stroke-width="0.3" x1="256" x2="256" y1="822.8000000000001" y2="875.6" /><line stroke="#B89860" stroke-width="0.3" x1="268" x2="268" y1="822.8000000000001" y2="875.6" /><line stroke="#B89860" stroke-width="0.3" x1="280" x2="280" y1="822.8000000000001" y2="875.6" /><line stroke="#B89860" stroke-width="0.3" x1="292" x2="292" y1="822.8000000000001" y2="875.6" /><line stroke="#B89860" stroke-width="0.3" x1="304" x2="304" y1="822.8000000000001" y2="875.6" /><line stroke="#B89860" stroke-width="0.3" x1="316" x2="316" y1="822.8000000000001" y2="875.6" /><line stroke="#B89860" stroke-width="0.3" x1="328" x2="328" y1="822.8000000000001" y2="875.6" /><line stroke="#B89860" stroke-width="0.3" x1="340" x2="340" y1="822.8000000000001" y2="875.6" /><line stroke="#B89860" stroke-width="0.3" x1="352" x2="352" y1="822.8000000000001" y2="875.6" /><line stroke="#B89860" stroke-width="0.3" x1="364" x2="364" y1="822.8000000000001" y2="875.6" /><line stroke="#B89860" stroke-width="0.3" x1="376" x2="376" y1="822.8000000000001" y2="875.6" /><line stroke="#B89860" stroke-width="0.3" x1="388" x2="388" y1="822.8000000000001" y2="875.6" /><line stroke="#B89860" stroke-width="0.3" x1="400" x2="400" y1="822.8000000000001" y2="875.6" /><line stroke="#B89860" stroke-width="0.3" x1="412" x2="412" y1="822.8000000000001" y2="875.6" /><line stroke="#B89860" stroke-width="0.3" x1="424" x2="424" y1="822.8000000000001" y2="875.6" /><line stroke="#B89860" stroke-width="0.3" x1="436" x2="436" y1="822.8000000000001" y2="875.6" /><line stroke="#B89860" stroke-width="0.3" x1="448" x2="448" y1="822.8000000000001" y2="875.6" /><line stroke="#B89860" stroke-width="0.3" x1="460" x2="460" y1="822.8000000000001" y2="875.6" /><line stroke="#B89860" stroke-width="0.3" x1="472" x2="472" y1="822.8000000000001" y2="875.6" /><line stroke="#B89860" stroke-width="0.3" x1="484" x2="484" y1="822.8000000000001" y2="875.6" /><text fill="#555" font-family="Arial, Helvetica, sans-serif" font-size="9px" font-weight="bold" text-anchor="middle" x="364.0" y="853.2">BRIDGE</text><rect fill="#F8F4F0" height="82.80000000000001" stroke="#333333" stroke-dasharray="4,2" stroke-width="0.5" width="105.60000000000001" x="496.0" y="807.8000000000001" /><line stroke="#DDD" stroke-width="0.4" x1="496" x2="514" y1="812.8000000000001" y2="885.6" /><line stroke="#DDD" stroke-width="0.4" x1="506" x2="524" y1="812.8000000000001" y2="885.6" /><line stroke="#DDD" stroke-width="0.4" x1="516" x2="534" y1="812.8000000000001" y2="885.6" /><line stroke="#DDD" stroke-width="0.4" x1="526" x2="544" y1="812.8000000000001" y2="885.6" /><line stroke="#DDD" stroke-width="0.4" x1="536" x2="554" y1="812.8000000000001" y2="885.6" /><line stroke="#DDD" stroke-width="0.4" x1="546" x2="564" y1="812.8000000000001" y2="885.6" /><line stroke="#DDD" stroke-width="0.4" x1="556" x2="574" y1="812.8000000000001" y2="885.6" /><line stroke="#DDD" stroke-width="0.4" x1="566" x2="584" y1="812.8000000000001" y2="885.6" /><line stroke="#DDD" stroke-width="0.4" x1="576" x2="594" y1="812.8000000000001" y2="885.6" /><line stroke="#DDD" stroke-width="0.4" x1="586" x2="604" y1="812.8000000000001" y2="885.6" /><line stroke="#DDD" stroke-width="0.4" x1="596" x2="614" y1="812.8000000000001" y2="885.6" /><text fill="#CC0000" font-family="Arial, Helvetica, sans-serif" font-size="9px" font-weight="bold" text-anchor="middle" x="548.8" y="853.2">GAP / DROP ZONE</text><polygon fill="#C4A265" opacity="0.45" points="601.6,770.0 848.7803268001923,793.76 1007.1803268001921,822.8000000000001 1007.1803268001921,875.6 848.7803268001923,904.6400000000001 601.6,928.4000000000001" stroke="#333333" stroke-width="1" /><rect fill="#8B6B3D" height="158.4" stroke="#333333" stroke-width="1.5" width="17.6" x="584.0" y="770.0" /><line stroke="#6B5030" stroke-width="0.5" x1="584.0" x2="601.6" y1="770.0" y2="770.0" /><line stroke="#6B5030" stroke-width="0.5" x1="584.0" x2="601.6" y1="784.08" y2="784.08" /><line stroke="#6B5030" stroke-width="0.5" x1="584.0" x2="601.6" y1="798.16" y2="798.16" /><line stroke="#6B5030" stroke-width="0.5" x1="584.0" x2="601.6" y1="812.24" y2="812.24" /><line stroke="#6B5030" stroke-width="0.5" x1="584.0" x2="601.6" y1="826.32" y2="826.32" /><line stroke="#6B5030" stroke-width="0.5" x1="584.0" x2="601.6" y1="840.4" y2="840.4" /><line stroke="#6B5030" stroke-width="0.5" x1="584.0" x2="601.6" y1="854.48" y2="854.48" /><line stroke="#6B5030" stroke-width="0.5" x1="584.0" x2="601.6" y1="868.5600000000001" y2="868.5600000000001" /><line stroke="#6B5030" stroke-width="0.5" x1="584.0" x2="601.6" y1="882.64" y2="882.64" /><line stroke="#6B5030" stroke-width="0.5" x1="584.0" x2="601.6" y1="896.72" y2="896.72" /><line stroke="#6B5030" stroke-width="0.5" x1="584.0" x2="601.6" y1="910.8" y2="910.8" /><rect fill="#8B6B3D" height="17.6" stroke="#333333" stroke-width="1" width="84.94819608011531" x="601.6" y="770.0" /><rect fill="#8B6B3D" height="17.6" stroke="#333333" stroke-width="1" width="84.94819608011531" x="601.6" y="910.8000000000001" /><line stroke="#6B5030" stroke-width="0.5" x1="601.6" x2="601.6" y1="770.0" y2="787.6" /><line stroke="#6B5030" stroke-width="0.5" x1="601.6" x2="601.6" y1="910.8000000000001" y2="928.4000000000001" /><line stroke="#6B5030" stroke-width="0.5" x1="615.6800000000001" x2="615.6800000000001" y1="770.0" y2="787.6" /><line stroke="#6B5030" stroke-width="0.5" x1="615.6800000000001" x2="615.6800000000001" y1="910.8000000000001" y2="928.4000000000001" /><line stroke="#6B5030" stroke-width="0.5" x1="629.76" x2="629.76" y1="770.0" y2="787.6" /><line stroke="#6B5030" stroke-width="0.5" x1="629.76" x2="629.76" y1="910.8000000000001" y2="928.4000000000001" /><line stroke="#6B5030" stroke-width="0.5" x1="643.84" x2="643.84" y1="770.0" y2="787.6" /><line stroke="#6B5030" stroke-width="0.5" x1="643.84" x2="643.84" y1="910.8000000000001" y2="928.4000000000001" /><line stroke="#6B5030" stroke-width="0.5" x1="657.9200000000001" x2="657.9200000000001" y1="770.0" y2="787.6" /><line stroke="#6B5030" stroke-width="0.5" x1="657.9200000000001" x2="657.9200000000001" y1="910.8000000000001" y2="928.4000000000001" /><line stroke="#6B5030" stroke-width="0.5" x1="672.0" x2="672.0" y1="770.0" y2="787.6" /><line stroke="#6B5030" stroke-width="0.5" x1="672.0" x2="672.0" y1="910.8000000000001" y2="928.4000000000001" /><text fill="#CC0000" font-family="Arial, Helvetica, sans-serif" font-size="7px" font-weight="bold" text-anchor="middle" x="592.8000000000001" y="762.0">Log crib wall (back)</text><text fill="#CC0000" font-family="Arial, Helvetica, sans-serif" font-size="7px" text-anchor="middle" x="644.0740980400577" y="767.0">Side crib</text><text fill="#CC0000" font-family="Arial, Helvetica, sans-serif" font-size="7px" text-anchor="middle" x="644.0740980400577" y="938.4000000000001">Side crib</text><rect fill="#8B6B3D" height="10.56" opacity="0.4" stroke="#333333" stroke-width="0.5" width="79.2" x="601.6" y="804.32" /><rect fill="#8B6B3D" height="10.56" opacity="0.4" stroke="#333333" stroke-width="0.5" width="79.2" x="601.6" y="843.9200000000001" /><rect fill="#8B6B3D" height="10.56" opacity="0.4" stroke="#333333" stroke-width="0.5" width="79.2" x="601.6" y="883.52" /><line stroke="#CC0000" stroke-dasharray="4,3" stroke-width="1" x1="812.8" x2="812.8" y1="775.0" y2="923.4000000000001" /><text fill="#CC0000" font-family="Arial, Helvetica, sans-serif" font-size="8px" font-weight="bold" text-anchor="middle" x="812.8" y="942.4000000000001">Sweet spot (9')</text><text fill="#555" font-family="Arial, Helvetica, sans-serif" font-size="9px" font-weight="bold" text-anchor="middle" x="777.9901634000962" y="853.2">LANDER (fill)</text><text fill="#555" font-family="Arial, Helvetica, sans-serif" font-size="8px" font-style="italic" text-anchor="middle" x="777.9901634000962" y="865.2">18° landing slope</text><rect fill="#E8E0D0" height="52.800000000000004" stroke="#333333" stroke-width="1" width="105.60000000000001" x="1007.1803268001921" y="822.8000000000001" /><text fill="#555" font-family="Arial, Helvetica, sans-serif" font-size="8px" font-style="italic" text-anchor="middle" x="1059.9803268001922" y="853.2">Runout</text><path d="M 496.0,885.6 C 556.0,983.4000000000001 812.8,983.4000000000001 848.7803268001923,885.6" fill="none" stroke="#66AA66" stroke-dasharray="6,3" stroke-width="1.5" /><text fill="#66AA66" font-family="Arial, Helvetica, sans-serif" font-size="9px" font-style="italic" text-anchor="middle" x="672.3901634000961" y="998.4000000000001">Bypass / roll-around</text><line stroke="#0055AA" stroke-width="0.5" x1="232.0" x2="232.0" y1="819.8000000000001" y2="794.8000000000001" /><line stroke="#0055AA" stroke-width="0.5" x1="496.0" x2="496.0" y1="819.8000000000001" y2="794.8000000000001" /><line stroke="#0055AA" stroke-width="0.75" x1="232.0" x2="496.0" y1="797.8000000000001" y2="797.8000000000001" /><polygon fill="#0055AA" points="232.0,797.8000000000001 227.46846106481675,799.9130913087035 227.46846106481675,795.6869086912966" stroke="none" /><polygon fill="#0055AA" points="496.0,797.8000000000001 500.5315389351833,795.6869086912966 500.5315389351832,799.9130913087035" stroke="none" /><rect fill="white" height="13" stroke="none" width="39.0" x="344.5" y="787.8000000000001" /><text fill="#0055AA" font-family="Arial, Helvetica, sans-serif" font-size="10px" text-anchor="middle" x="364.0" y="796.8000000000001">10'-0"</text><line stroke="#0055AA" stroke-width="0.5" x1="219.0" x2="189.0" y1="822.8000000000001" y2="822.8000000000001" /><line stroke="#0055AA" stroke-width="0.5" x1="219.0" x2="189.0" y1="875.6" y2="875.6" /><line stroke="#0055AA" stroke-width="0.75" x1="192.0" x2="192.0" y1="822.8000000000001" y2="875.6" /><polygon fill="#0055AA" points="192.0,822.8000000000001 189.8869086912965,818.2684610648168 194.1130913087035,818.2684610648168" stroke="none" /><polygon fill="#0055AA" points="192.0,875.6 194.1130913087035,880.1315389351832 189.8869086912965,880.1315389351832" stroke="none" /><text fill="#0055AA" font-family="Arial, Helvetica, sans-serif" font-size="10px" text-anchor="middle" transform="translate(187.0,849.2) rotate(-90)" x="0" y="0">2'-0"</text><line stroke="#0055AA" stroke-width="0.5" x1="496.0" x2="496.0" y1="819.8000000000001" y2="794.8000000000001" /><line stroke="#0055AA" stroke-width="0.5" x1="601.6" x2="601.6" y1="819.8000000000001" y2="794.8000000000001" /><line stroke="#0055AA" stroke-width="0.75" x1="496.0" x2="601.6" y1="797.8000000000001" y2="797.8000000000001" /><polygon fill="#0055AA" points="496.0,797.8000000000001 491.4684610648168,799.9130913087035 491.4684610648168,795.6869086912966" stroke="none" /><polygon fill="#0055AA" points="601.6,797.8000000000001 606.1315389351832,795.6869086912966 606.1315389351832,799.9130913087035" stroke="none" /><rect fill="white" height="13" stroke="none" width="32.5" x="532.55" y="787.8000000000001" /><text fill="#0055AA" font-family="Arial, Helvetica, sans-serif" font-size="10px" text-anchor="middle" x="548.8" y="796.8000000000001">4'-0"</text><line stroke="#0055AA" stroke-width="0.5" x1="496.0" x2="496.0" y1="767.0" y2="742.0" /><line stroke="#0055AA" stroke-width="0.5" x1="812.8" x2="812.8" y1="767.0" y2="742.0" /><line stroke="#0055AA" stroke-width="0.75" x1="496.0" x2="812.8" y1="745.0" y2="745.0" /><polygon fill="#0055AA" points="496.0,745.0 491.4684610648168,747.1130913087035 491.4684610648168,742.8869086912965" stroke="none" /><polygon fill="#0055AA" points="812.8,745.0 817.3315389351832,742.8869086912965 817.3315389351832,747.1130913087035" stroke="none" /><rect fill="white" height="13" stroke="none" width="39.0" x="634.9" y="735.0" /><text fill="#0055AA" font-family="Arial, Helvetica, sans-serif" font-size="10px" text-anchor="middle" x="654.4" y="744.0">12'-0"</text></g><g><text fill="#111" font-family="Arial, Helvetica, sans-serif" font-size="11px" font-weight="bold" x="100" y="1101.2">NOTES:</text><text fill="#333" font-family="Arial, Helvetica, sans-serif" font-size="10px" x="110" y="1117.2">1. All dimensions in inches unless noted</text><text fill="#333" font-family="Arial, Helvetica, sans-serif" font-size="10px" x="110" y="1133.2">2. Bridge: pressure-treated lumber or rot-resistant species (cedar, locust)</text><text fill="#333" font-family="Arial, Helvetica, sans-serif" font-size="10px" x="110" y="1149.2">3. Pylons: 6x6 PT posts driven/buried min 24" into hillside with compacted gravel</text><text fill="#333" font-family="Arial, Helvetica, sans-serif" font-size="10px" x="110" y="1165.2">4. All hardware: hot-dipped galvanized or stainless steel</text><text fill="#333" font-family="Arial, Helvetica, sans-serif" font-size="10px" x="110" y="1181.2">5. Attach non-slip mesh (chicken wire) to bridge deck surface</text><text fill="#333" font-family="Arial, Helvetica, sans-serif" font-size="10px" x="110" y="1197.2">6. Lander: compact fill in 6" lifts with plate compactor</text><text fill="#333" font-family="Arial, Helvetica, sans-serif" font-size="10px" x="110" y="1213.2">7. Use mineral soil only (clay/gravel mix, no organics)</text><text fill="#333" font-family="Arial, Helvetica, sans-serif" font-size="10px" x="110" y="1229.2">8. Landing slope (40.0°) provides gradual deceleration — no kicker at base</text><text fill="#333" font-family="Arial, Helvetica, sans-serif" font-size="10px" x="110" y="1245.2">9. Rider must have clear sight line from bridge to landing zone</text><text fill="#333" font-family="Arial, Helvetica, sans-serif" font-size="10px" x="110" y="1261.2">10. ALWAYS provide a bypass / roll-around for this feature</text><text fill="#333" font-family="Arial, Helvetica, sans-serif" font-size="10px" x="110" y="1277.2">11. Total vertical drop from deck to lander peak: 11'-0" — expert-level feature</text><text fill="#333" font-family="Arial, Helvetica, sans-serif" font-size="10px" x="110" y="1293.2">12. Log crib wall: 8.0" dia. logs, peeled, stacked horizontally, pinned with #4 rebar</text><text fill="#333" font-family="Arial, Helvetica, sans-serif" font-size="10px" x="110" y="1309.2">13. Pin each log course to the one below — drive 24" rebar through pre-drilled holes</text><text fill="#333" font-family="Arial, Helvetica, sans-serif" font-size="10px" x="110" y="1325.2">14. Deadman tie-backs every 2-3 courses extending 4 ft into compacted fill behind wall</text><text fill="#333" font-family="Arial, Helvetica, sans-serif" font-size="10px" x="110" y="1341.2">15. Place 3/4" crushed gravel behind crib wall with filter fabric for drainage</text><text fill="#333" font-family="Arial, Helvetica, sans-serif" font-size="10px" x="110" y="1357.2">16. Bottom course of logs set on compacted gravel pad, first rebar pins driven into native soil</text><text fill="#111" font-family="Arial, Helvetica, sans-serif" font-size="11px" font-weight="bold" x="100" y="1383.2">MATERIALS:</text><rect fill="#E8E8E8" height="18" stroke="#AAA" stroke-width="0.5" width="650" x="100" y="1388.2" /><text fill="#111" font-family="Arial, Helvetica, sans-serif" font-size="10px" font-weight="bold" x="105" y="1401.2">Item</text><text fill="#111" font-family="Arial, Helvetica, sans-serif" font-size="10px" font-weight="bold" x="295" y="1401.2">Size</text><text fill="#111" font-family="Arial, Helvetica, sans-serif" font-size="10px" font-weight="bold" x="415" y="1401.2">Qty</text><text fill="#111" font-family="Arial, Helvetica, sans-serif" font-size="10px" font-weight="bold" x="485" y="1401.2">Notes</text><rect fill="none" height="18" stroke="#CCC" stroke-width="0.5" width="650" x="100" y="1406.2" /><text fill="#333" font-family="Arial, Helvetica, sans-serif" font-size="10px" x="105" y="1419.2">Bridge beams</text><text fill="#333" font-family="Arial, Helvetica, sans-serif" font-size="10px" x="295" y="1419.2">4x8 or doubled 2x8</text><text fill="#333" font-family="Arial, Helvetica, sans-serif" font-size="10px" x="415" y="1419.2">2</text><text fill="#333" font-family="Arial, Helvetica, sans-serif" font-size="10px" x="485" y="1419.2">Full length (10'-0")</text><rect fill="none" height="18" stroke="#CCC" stroke-width="0.5" width="650" x="100" y="1424.2" /><text fill="#333" font-family="Arial, Helvetica, sans-serif" font-size="10px" x="105" y="1437.2">Bridge decking</text><text fill="#333" font-family="Arial, Helvetica, sans-serif" font-size="10px" x="295" y="1437.2">2x6</text><text fill="#333" font-family="Arial, Helvetica, sans-serif" font-size="10px" x="415" y="1437.2">5 boards x 10'-0"</text><text fill="#333" font-family="Arial, Helvetica, sans-serif" font-size="10px" x="485" y="1437.2">PT lumber, 1/8" gap</text><rect fill="none" height="18" stroke="#CCC" stroke-width="0.5" width="650" x="100" y="1442.2" /><text fill="#333" font-family="Arial, Helvetica, sans-serif" font-size="10px" x="105" y="1455.2">Joists</text><text fill="#333" font-family="Arial, Helvetica, sans-serif" font-size="10px" x="295" y="1455.2">2x6</text><text fill="#333" font-family="Arial, Helvetica, sans-serif" font-size="10px" x="415" y="1455.2">8</text><text fill="#333" font-family="Arial, Helvetica, sans-serif" font-size="10px" x="485" y="1455.2">16" OC</text><rect fill="none" height="18" stroke="#CCC" stroke-width="0.5" width="650" x="100" y="1460.2" /><text fill="#333" font-family="Arial, Helvetica, sans-serif" font-size="10px" x="105" y="1473.2">Pylons</text><text fill="#333" font-family="Arial, Helvetica, sans-serif" font-size="10px" x="295" y="1473.2">6x6</text><text fill="#333" font-family="Arial, Helvetica, sans-serif" font-size="10px" x="415" y="1473.2">5</text><text fill="#333" font-family="Arial, Helvetica, sans-serif" font-size="10px" x="485" y="1473.2">PT, min 24" buried into hillside</text><rect fill="none" height="18" stroke="#CCC" stroke-width="0.5" width="650" x="100" y="1478.2" /><text fill="#333" font-family="Arial, Helvetica, sans-serif" font-size="10px" x="105" y="1491.2">Cross-bracing</text><text fill="#333" font-family="Arial, Helvetica, sans-serif" font-size="10px" x="295" y="1491.2">2x6</text><text fill="#333" font-family="Arial, Helvetica, sans-serif" font-size="10px" x="415" y="1491.2">4</text><text fill="#333" font-family="Arial, Helvetica, sans-serif" font-size="10px" x="485" y="1491.2">Between pylons for lateral stability</text><rect fill="none" height="18" stroke="#CCC" stroke-width="0.5" width="650" x="100" y="1496.2" /><text fill="#333" font-family="Arial, Helvetica, sans-serif" font-size="10px" x="105" y="1509.2">Non-slip mesh</text><text fill="#333" font-family="Arial, Helvetica, sans-serif" font-size="10px" x="295" y="1509.2">Chicken wire</text><text fill="#333" font-family="Arial, Helvetica, sans-serif" font-size="10px" x="415" y="1509.2">10'-0" x 2'-0"</text><text fill="#333" font-family="Arial, Helvetica, sans-serif" font-size="10px" x="485" y="1509.2">Stapled to deck</text><rect fill="none" height="18" stroke="#CCC" stroke-width="0.5" width="650" x="100" y="1514.2" /><text fill="#333" font-family="Arial, Helvetica, sans-serif" font-size="10px" x="105" y="1527.2">Fill dirt (lander)</text><text fill="#333" font-family="Arial, Helvetica, sans-serif" font-size="10px" x="295" y="1527.2">Mineral soil</text><text fill="#333" font-family="Arial, Helvetica, sans-serif" font-size="10px" x="415" y="1527.2">~10-15 cu yd</text><text fill="#333" font-family="Arial, Helvetica, sans-serif" font-size="10px" x="485" y="1527.2">Compact in 6" lifts</text><rect fill="none" height="18" stroke="#CCC" stroke-width="0.5" width="650" x="100" y="1532.2" /><text fill="#333" font-family="Arial, Helvetica, sans-serif" font-size="10px" x="105" y="1545.2">Topsoil (lander finish)</text><text fill="#333" font-family="Arial, Helvetica, sans-serif" font-size="10px" x="295" y="1545.2" /><text fill="#333" font-family="Arial, Helvetica, sans-serif" font-size="10px" x="415" y="1545.2">~1-2 cu yd</text><text fill="#333" font-family="Arial, Helvetica, sans-serif" font-size="10px" x="485" y="1545.2">Final shaping layer only</text><rect fill="none" height="18" stroke="#CCC" stroke-width="0.5" width="650" x="100" y="1550.2" /><text fill="#333" font-family="Arial, Helvetica, sans-serif" font-size="10px" x="105" y="1563.2">Crib wall logs</text><text fill="#333" font-family="Arial, Helvetica, sans-serif" font-size="10px" x="295" y="1563.2">8.0" dia. x 6-8' long</text><text fill="#333" font-family="Arial, Helvetica, sans-serif" font-size="10px" x="415" y="1563.2">~28</text><text fill="#333" font-family="Arial, Helvetica, sans-serif" font-size="10px" x="485" y="1563.2">Back wall + 2 side walls, peeled</text><rect fill="none" height="18" stroke="#CCC" stroke-width="0.5" width="650" x="100" y="1568.2" /><text fill="#333" font-family="Arial, Helvetica, sans-serif" font-size="10px" x="105" y="1581.2">Deadman tie-back logs</text><text fill="#333" font-family="Arial, Helvetica, sans-serif" font-size="10px" x="295" y="1581.2">8.0" dia. x 4' long</text><text fill="#333" font-family="Arial, Helvetica, sans-serif" font-size="10px" x="415" y="1581.2">6-8</text><text fill="#333" font-family="Arial, Helvetica, sans-serif" font-size="10px" x="485" y="1581.2">Perpendicular tie-backs every 2-3 courses</text><rect fill="none" height="18" stroke="#CCC" stroke-width="0.5" width="650" x="100" y="1586.2" /><text fill="#333" font-family="Arial, Helvetica, sans-serif" font-size="10px" x="105" y="1599.2">Rebar pins</text><text fill="#333" font-family="Arial, Helvetica, sans-serif" font-size="10px" x="295" y="1599.2">#4 rebar, 24" long</text><text fill="#333" font-family="Arial, Helvetica, sans-serif" font-size="10px" x="415" y="1599.2">~20-24</text><text fill="#333" font-family="Arial, Helvetica, sans-serif" font-size="10px" x="485" y="1599.2">Pin logs together + anchor to ground</text><rect fill="none" height="18" stroke="#CCC" stroke-width="0.5" width="650" x="100" y="1604.2" /><text fill="#333" font-family="Arial, Helvetica, sans-serif" font-size="10px" x="105" y="1617.2">Gravel backfill</text><text fill="#333" font-family="Arial, Helvetica, sans-serif" font-size="10px" x="295" y="1617.2">3/4" crushed</text><text fill="#333" font-family="Arial, Helvetica, sans-serif" font-size="10px" x="415" y="1617.2">~2-3 cu yd</text><text fill="#333" font-family="Arial, Helvetica, sans-serif" font-size="10px" x="485" y="1617.2">Behind crib wall for drainage</text><rect fill="none" height="18" stroke="#CCC" stroke-width="0.5" width="650" x="100" y="1622.2" /><text fill="#333" font-family="Arial, Helvetica, sans-serif" font-size="10px" x="105" y="1635.2">Filter fabric</text><text fill="#333" font-family="Arial, Helvetica, sans-serif" font-size="10px" x="295" y="1635.2">Non-woven geotextile</text><text fill="#333" font-family="Arial, Helvetica, sans-serif" font-size="10px" x="415" y="1635.2">~50 sq ft</text><text fill="#333" font-family="Arial, Helvetica, sans-serif" font-size="10px" x="485" y="1635.2">Between gravel and fill behind crib</text></g><rect fill="#F0F0F0" height="100" stroke="#333" stroke-width="1.5" width="360" x="892.7803268001921" y="1501.2" /><text fill="#111" font-family="Arial, Helvetica, sans-serif" font-size="14px" font-weight="bold" x="902.7803268001921" y="1521.2">Option E — 40° Lander, 4ft Case Pad, 12ft Sweet Spot</text><text fill="#555" font-family="Arial, Helvetica, sans-serif" font-size="9px" x="902.7803268001921" y="1539.2">Bridge: 10'-0" x 2'-0"  |  Deck to ground: 3'-0"</text><text fill="#555" font-family="Arial, Helvetica, sans-serif" font-size="9px" x="902.7803268001921" y="1553.2">Vertical drop to lander: 11'-0"  |  Drop to ground: 15'-6"</text><text fill="#555" font-family="Arial, Helvetica, sans-serif" font-size="9px" x="902.7803268001921" y="1567.2">Sweet spot: 12'-0" horiz  |  Lander: 4'-6" tall  |  Landing: 40.0°</text><text fill="#CC0000" font-family="Arial, Helvetica, sans-serif" font-size="9px" font-weight="bold" x="902.7803268001921" y="1581.2">Rating: DOUBLE BLACK — Expert only</text><text fill="#555" font-family="Arial, Helvetica, sans-serif" font-size="9px" x="902.7803268001921" y="1594.2">Date: 2026-03-27</text></svg>