<?xml version="1.0" encoding="utf-8" ?>
<svg baseProfile="full" height="1621.2px" version="1.1" viewBox="0 0 1284.1676359391827 1621.2" width="1284.1676359391827px" xmlns="http://www.w3.org/2000/svg" xmlns:ev="http://www.w3.org/2001/xml-events" xmlns:xlink="http://www.w3.org/1999/xlink"><defs /><rect fill="#FFFFFF" height="1621.2" width="1284.1676359391827" x="0" y="0" /><rect fill="none" height="1605.2" stroke="#333" stroke-width="1.5" width="1268.1676359391827" x="8" y="8" /><g><text fill="#222" font-family="Arial, Helvetica, sans-serif" font-size="14px" font-weight="bold" text-anchor="middle" x="642.0838179695913" y="45">SIDE PROFILE</text><polygon fill="#D5C9A0" opacity="0.25" points="100,175.0 104,174.54545454545456 108,174.0909090909091 112,173.63636363636363 116,173.1818181818182 120,172.72727272727272 124,172.27272727272728 128,171.8181818181818 132,171.36363636363637 136,170.9090909090909 140,170.45454545454547 144,170.0 148,169.54545454545453 152,169.0909090909091 156,168.63636363636363 160,168.1818181818182 164,167.72727272727272 168,167.27272727272728 172,166.8181818181818 176,166.36363636363637 180,165.9090909090909 184,165.45454545454547 188,165.0 192,164.54545454545453 196,164.0909090909091 200,163.63636363636363 204,163.1818181818182 208,162.72727272727272 212,162.27272727272728 216,161.8181818181818 220,161.36363636363637 224,160.9090909090909 228,160.45454545454547 232,160.0 236,166.12424242424242 240,167.24848484848485 244,168.37272727272727 248,169.4969696969697 252,170.62121212121212 256,171.74545454545455 260,172.86969696969697 264,173.9939393939394 268,175.11818181818182 272,176.24242424242425 276,177.36666666666667 280,178.4909090909091 284,179.61515151515152 288,180.73939393939395 292,181.86363636363637 296,182.9878787878788 300,184.11212121212122 304,185.23636363636362 308,186.36060606060607 312,187.48484848484847 316,188.6090909090909 320,189.73333333333332 324,190.85757575757575 328,191.98181818181817 332,193.1060606060606 336,194.23030303030302 340,195.35454545454544 344,196.47878787878787 348,197.6030303030303 352,198.72727272727272 356,199.85151515151514 360,200.97575757575757 364,202.1 368,203.22424242424242 372,204.34848484848484 376,205.47272727272727 380,206.5969696969697 384,207.72121212121212 388,208.84545454545454 392,209.96969696969697 396,211.0939393939394 400,212.21818181818182 404,213.34242424242424 408,214.46666666666664 412,215.59090909090907 416,216.71515151515152 420,217.83939393939394 424,218.96363636363634 428,220.08787878787876 432,221.2121212121212 436,222.33636363636361 440,223.46060606060604 444,224.58484848484846 448,225.7090909090909 452,226.83333333333331 456,227.95757575757574 460,229.08181818181816 464,230.2060606060606 468,231.330303030303 472,232.45454545454544 476,233.57878787878786 480,234.7030303030303 484,235.8272727272727 488,236.95151515151514 492,238.07575757575756 496,239.2 500,285.49686500706457 504,309.3729252687034 508,328.7002681682869 512,345.5622653502698 516,360.800003197783 520,374.8570391697957 524,388.0025616740701 528,400.41504764297883 532,412.22031143951006 536,423.51113933459703 540,434.35837570970267 544,444.8176216334094 548,454.9335028501626 552,464.74250786857317 556,474.274942845599 560,483.55631848322616 564,492.608359022346 568,501.44975239165393 572,510.0967185480289 576,518.5634472818551 580,526.8624404681634 584,535.0047831564568 588,543.0003608432155 592,550.8580354762255 596,558.585789414564 600,566.1908442213096 604,569.2742552327953 608,569.3980139541209 612,569.5217726754464 616,569.645531396772 620,569.7692901180975 624,569.893048839423 628,570.0168075607486 632,570.1405662820741 636,570.2643250033997 640,570.3880837247252 644,570.5118424460508 648,570.6356011673763 652,570.7593598887019 656,570.8831186100273 660,571.0068773313528 664,571.1306360526784 668,571.2543947740039 672,571.3781534953295 676,571.501912216655 680,571.6256709379805 684,571.7494296593061 688,571.8731883806316 692,571.9969471019572 696,572.1207058232827 700,572.2444645446083 704,572.3682232659338 708,572.4919819872594 712,572.6157407085849 716,572.7394994299103 720,572.8632581512359 724,572.9870168725614 728,573.110775593887 732,573.2345343152125 736,573.358293036538 740,573.4820517578636 744,573.6058104791891 748,573.7295692005147 752,573.8533279218402 756,573.9770866431658 760,574.1008453644913 764,574.2246040858168 768,574.3483628071424 772,574.4721215284679 776,574.5958802497934 780,574.7196389711189 784,574.8433976924445 788,574.96715641377 792,575.0909151350955 796,575.2146738564211 800,575.3384325777466 804,575.4621912990722 808,575.5859500203977 812,575.7097087417233 816,575.8334674630488 820,575.9572261843743 824,576.0809849056999 828,576.2047436270254 832,576.328502348351 836,576.4522610696764 840,576.576019791002 844,576.6997785123275 848,576.823537233653 852,576.9472959549786 856,577.0710546763041 860,577.1948133976297 864,577.2766472812164 868,577.3566472812164 872,577.4366472812164 876,577.5166472812164 880,577.5966472812164 884,577.6766472812164 888,577.7566472812164 892,577.8366472812164 896,577.9166472812163 900,577.9966472812164 904,578.0766472812164 908,578.1566472812164 912,578.2366472812164 916,578.3166472812164 920,578.3966472812164 924,578.4766472812164 928,578.5566472812164 932,578.6366472812164 936,578.7166472812164 940,578.7966472812163 944,578.8766472812164 948,578.9566472812164 952,579.0366472812163 956,579.1166472812164 960,579.1966472812164 964,579.2766472812164 968,579.3566472812164 972,579.4366472812164 976,579.5166472812164 980,579.5966472812164 984,579.6766472812164 988,579.7566472812164 992,579.8366472812164 996,579.9166472812163 1000,579.9966472812164 1004,580.0766472812164 1008,580.1566472812164 1012,580.2366472812164 1016,580.3166472812164 1020,580.3966472812164 1024,580.4766472812164 1028,580.5566472812164 1032,580.6366472812164 1036,580.7166472812164 1040,580.7966472812163 1044,580.8766472812164 1048,580.9566472812164 1052,581.0366472812163 1056,581.1166472812164 1060,581.1966472812164 1064,581.2766472812164 1068,581.3566472812164 1072,581.4366472812164 1076,581.5166472812164 1080,581.5966472812164 1084,581.6766472812164 1088,581.7566472812164 1092,581.8366472812164 1096,581.9166472812163 1100,581.9966472812164 1104,582.0766472812164 1108,582.1566472812164 1112,582.2366472812164 1116,582.3166472812164 1120,582.3966472812164 1124,582.4766472812164 1128,582.5566472812164 1124.1676359391827,649.2 100.0,649.2" stroke="none" /><path d="M 100,175.0 L 104,174.54545454545456 L 108,174.0909090909091 L 112,173.63636363636363 L 116,173.1818181818182 L 120,172.72727272727272 L 124,172.27272727272728 L 128,171.8181818181818 L 132,171.36363636363637 L 136,170.9090909090909 L 140,170.45454545454547 L 144,170.0 L 148,169.54545454545453 L 152,169.0909090909091 L 156,168.63636363636363 L 160,168.1818181818182 L 164,167.72727272727272 L 168,167.27272727272728 L 172,166.8181818181818 L 176,166.36363636363637 L 180,165.9090909090909 L 184,165.45454545454547 L 188,165.0 L 192,164.54545454545453 L 196,164.0909090909091 L 200,163.63636363636363 L 204,163.1818181818182 L 208,162.72727272727272 L 212,162.27272727272728 L 216,161.8181818181818 L 220,161.36363636363637 L 224,160.9090909090909 L 228,160.45454545454547 L 232,160.0 L 236,166.12424242424242 L 240,167.24848484848485 L 244,168.37272727272727 L 248,169.4969696969697 L 252,170.62121212121212 L 256,171.74545454545455 L 260,172.86969696969697 L 264,173.9939393939394 L 268,175.11818181818182 L 272,176.24242424242425 L 276,177.36666666666667 L 280,178.4909090909091 L 284,179.61515151515152 L 288,180.73939393939395 L 292,181.86363636363637 L 296,182.9878787878788 L 300,184.11212121212122 L 304,185.23636363636362 L 308,186.36060606060607 L 312,187.48484848484847 L 316,188.6090909090909 L 320,189.73333333333332 L 324,190.85757575757575 L 328,191.98181818181817 L 332,193.1060606060606 L 336,194.23030303030302 L 340,195.35454545454544 L 344,196.47878787878787 L 348,197.6030303030303 L 352,198.72727272727272 L 356,199.85151515151514 L 360,200.97575757575757 L 364,202.1 L 368,203.22424242424242 L 372,204.34848484848484 L 376,205.47272727272727 L 380,206.5969696969697 L 384,207.72121212121212 L 388,208.84545454545454 L 392,209.96969696969697 L 396,211.0939393939394 L 400,212.21818181818182 L 404,213.34242424242424 L 408,214.46666666666664 L 412,215.59090909090907 L 416,216.71515151515152 L 420,217.83939393939394 L 424,218.96363636363634 L 428,220.08787878787876 L 432,221.2121212121212 L 436,222.33636363636361 L 440,223.46060606060604 L 444,224.58484848484846 L 448,225.7090909090909 L 452,226.83333333333331 L 456,227.95757575757574 L 460,229.08181818181816 L 464,230.2060606060606 L 468,231.330303030303 L 472,232.45454545454544 L 476,233.57878787878786 L 480,234.7030303030303 L 484,235.8272727272727 L 488,236.95151515151514 L 492,238.07575757575756 L 496,239.2 L 500,285.49686500706457 L 504,309.3729252687034 L 508,328.7002681682869 L 512,345.5622653502698 L 516,360.800003197783 L 520,374.8570391697957 L 524,388.0025616740701 L 528,400.41504764297883 L 532,412.22031143951006 L 536,423.51113933459703 L 540,434.35837570970267 L 544,444.8176216334094 L 548,454.9335028501626 L 552,464.74250786857317 L 556,474.274942845599 L 560,483.55631848322616 L 564,492.608359022346 L 568,501.44975239165393 L 572,510.0967185480289 L 576,518.5634472818551 L 580,526.8624404681634 L 584,535.0047831564568 L 588,543.0003608432155 L 592,550.8580354762255 L 596,558.585789414564 L 600,566.1908442213096 L 604,569.2742552327953 L 608,569.3980139541209 L 612,569.5217726754464 L 616,569.645531396772 L 620,569.7692901180975 L 624,569.893048839423 L 628,570.0168075607486 L 632,570.1405662820741 L 636,570.2643250033997 L 640,570.3880837247252 L 644,570.5118424460508 L 648,570.6356011673763 L 652,570.7593598887019 L 656,570.8831186100273 L 660,571.0068773313528 L 664,571.1306360526784 L 668,571.2543947740039 L 672,571.3781534953295 L 676,571.501912216655 L 680,571.6256709379805 L 684,571.7494296593061 L 688,571.8731883806316 L 692,571.9969471019572 L 696,572.1207058232827 L 700,572.2444645446083 L 704,572.3682232659338 L 708,572.4919819872594 L 712,572.6157407085849 L 716,572.7394994299103 L 720,572.8632581512359 L 724,572.9870168725614 L 728,573.110775593887 L 732,573.2345343152125 L 736,573.358293036538 L 740,573.4820517578636 L 744,573.6058104791891 L 748,573.7295692005147 L 752,573.8533279218402 L 756,573.9770866431658 L 760,574.1008453644913 L 764,574.2246040858168 L 768,574.3483628071424 L 772,574.4721215284679 L 776,574.5958802497934 L 780,574.7196389711189 L 784,574.8433976924445 L 788,574.96715641377 L 792,575.0909151350955 L 796,575.2146738564211 L 800,575.3384325777466 L 804,575.4621912990722 L 808,575.5859500203977 L 812,575.7097087417233 L 816,575.8334674630488 L 820,575.9572261843743 L 824,576.0809849056999 L 828,576.2047436270254 L 832,576.328502348351 L 836,576.4522610696764 L 840,576.576019791002 L 844,576.6997785123275 L 848,576.823537233653 L 852,576.9472959549786 L 856,577.0710546763041 L 860,577.1948133976297 L 864,577.2766472812164 L 868,577.3566472812164 L 872,577.4366472812164 L 876,577.5166472812164 L 880,577.5966472812164 L 884,577.6766472812164 L 888,577.7566472812164 L 892,577.8366472812164 L 896,577.9166472812163 L 900,577.9966472812164 L 904,578.0766472812164 L 908,578.1566472812164 L 912,578.2366472812164 L 916,578.3166472812164 L 920,578.3966472812164 L 924,578.4766472812164 L 928,578.5566472812164 L 932,578.6366472812164 L 936,578.7166472812164 L 940,578.7966472812163 L 944,578.8766472812164 L 948,578.9566472812164 L 952,579.0366472812163 L 956,579.1166472812164 L 960,579.1966472812164 L 964,579.2766472812164 L 968,579.3566472812164 L 972,579.4366472812164 L 976,579.5166472812164 L 980,579.5966472812164 L 984,579.6766472812164 L 988,579.7566472812164 L 992,579.8366472812164 L 996,579.9166472812163 L 1000,579.9966472812164 L 1004,580.0766472812164 L 1008,580.1566472812164 L 1012,580.2366472812164 L 1016,580.3166472812164 L 1020,580.3966472812164 L 1024,580.4766472812164 L 1028,580.5566472812164 L 1032,580.6366472812164 L 1036,580.7166472812164 L 1040,580.7966472812163 L 1044,580.8766472812164 L 1048,580.9566472812164 L 1052,581.0366472812163 L 1056,581.1166472812164 L 1060,581.1966472812164 L 1064,581.2766472812164 L 1068,581.3566472812164 L 1072,581.4366472812164 L 1076,581.5166472812164 L 1080,581.5966472812164 L 1084,581.6766472812164 L 1088,581.7566472812164 L 1092,581.8366472812164 L 1096,581.9166472812163 L 1100,581.9966472812164 L 1104,582.0766472812164 L 1108,582.1566472812164 L 1112,582.2366472812164 L 1116,582.3166472812164 L 1120,582.3966472812164 L 1124,582.4766472812164 L 1128,582.5566472812164 " fill="none" stroke="#999" stroke-dasharray="6,3" stroke-width="0.75" /><line stroke="#BBB" stroke-width="0.35" x1="100" x2="105" y1="175.0" y2="182.0" /><line stroke="#BBB" stroke-width="0.35" x1="124" x2="129" y1="172.27272727272728" y2="179.27272727272728" /><line stroke="#BBB" stroke-width="0.35" x1="148" x2="153" y1="169.54545454545453" y2="176.54545454545453" /><line stroke="#BBB" stroke-width="0.35" x1="172" x2="177" y1="166.8181818181818" y2="173.8181818181818" /><line stroke="#BBB" stroke-width="0.35" x1="196" x2="201" y1="164.0909090909091" y2="171.0909090909091" /><line stroke="#BBB" stroke-width="0.35" x1="220" x2="225" y1="161.36363636363637" y2="168.36363636363637" /><line stroke="#BBB" stroke-width="0.35" x1="244" x2="249" y1="168.37272727272727" y2="175.37272727272727" /><line stroke="#BBB" stroke-width="0.35" x1="268" x2="273" y1="175.11818181818182" y2="182.11818181818182" /><line stroke="#BBB" stroke-width="0.35" x1="292" x2="297" y1="181.86363636363637" y2="188.86363636363637" /><line stroke="#BBB" stroke-width="0.35" x1="316" x2="321" y1="188.6090909090909" y2="195.6090909090909" /><line stroke="#BBB" stroke-width="0.35" x1="340" x2="345" y1="195.35454545454544" y2="202.35454545454544" /><line stroke="#BBB" stroke-width="0.35" x1="364" x2="369" y1="202.1" y2="209.1" /><line stroke="#BBB" stroke-width="0.35" x1="388" x2="393" y1="208.84545454545454" y2="215.84545454545454" /><line stroke="#BBB" stroke-width="0.35" x1="412" x2="417" y1="215.59090909090907" y2="222.59090909090907" /><line stroke="#BBB" stroke-width="0.35" x1="436" x2="441" y1="222.33636363636361" y2="229.33636363636361" /><line stroke="#BBB" stroke-width="0.35" x1="460" x2="465" y1="229.08181818181816" y2="236.08181818181816" /><line stroke="#BBB" stroke-width="0.35" x1="484" x2="489" y1="235.8272727272727" y2="242.8272727272727" /><line stroke="#BBB" stroke-width="0.35" x1="508" x2="513" y1="328.7002681682869" y2="335.7002681682869" /><line stroke="#BBB" stroke-width="0.35" x1="532" x2="537" y1="412.22031143951006" y2="419.22031143951006" /><line stroke="#BBB" stroke-width="0.35" x1="556" x2="561" y1="474.274942845599" y2="481.274942845599" /><line stroke="#BBB" stroke-width="0.35" x1="580" x2="585" y1="526.8624404681634" y2="533.8624404681634" /><line stroke="#BBB" stroke-width="0.35" x1="604" x2="609" y1="569.2742552327953" y2="576.2742552327953" /><line stroke="#BBB" stroke-width="0.35" x1="628" x2="633" y1="570.0168075607486" y2="577.0168075607486" /><line stroke="#BBB" stroke-width="0.35" x1="652" x2="657" y1="570.7593598887019" y2="577.7593598887019" /><line stroke="#BBB" stroke-width="0.35" x1="676" x2="681" y1="571.501912216655" y2="578.501912216655" /><line stroke="#BBB" stroke-width="0.35" x1="700" x2="705" y1="572.2444645446083" y2="579.2444645446083" /><line stroke="#BBB" stroke-width="0.35" x1="724" x2="729" y1="572.9870168725614" y2="579.9870168725614" /><line stroke="#BBB" stroke-width="0.35" x1="748" x2="753" y1="573.7295692005147" y2="580.7295692005147" /><line stroke="#BBB" stroke-width="0.35" x1="772" x2="777" y1="574.4721215284679" y2="581.4721215284679" /><line stroke="#BBB" stroke-width="0.35" x1="796" x2="801" y1="575.2146738564211" y2="582.2146738564211" /><line stroke="#BBB" stroke-width="0.35" x1="820" x2="825" y1="575.9572261843743" y2="582.9572261843743" /><line stroke="#BBB" stroke-width="0.35" x1="844" x2="849" y1="576.6997785123275" y2="583.6997785123275" /><line stroke="#BBB" stroke-width="0.35" x1="868" x2="873" y1="577.3566472812164" y2="584.3566472812164" /><line stroke="#BBB" stroke-width="0.35" x1="892" x2="897" y1="577.8366472812164" y2="584.8366472812164" /><line stroke="#BBB" stroke-width="0.35" x1="916" x2="921" y1="578.3166472812164" y2="585.3166472812164" /><line stroke="#BBB" stroke-width="0.35" x1="940" x2="945" y1="578.7966472812163" y2="585.7966472812163" /><line stroke="#BBB" stroke-width="0.35" x1="964" x2="969" y1="579.2766472812164" y2="586.2766472812164" /><line stroke="#BBB" stroke-width="0.35" x1="988" x2="993" y1="579.7566472812164" y2="586.7566472812164" /><line stroke="#BBB" stroke-width="0.35" x1="1012" x2="1017" y1="580.2366472812164" y2="587.2366472812164" /><line stroke="#BBB" stroke-width="0.35" x1="1036" x2="1041" y1="580.7166472812164" y2="587.7166472812164" /><line stroke="#BBB" stroke-width="0.35" x1="1060" x2="1065" y1="581.1966472812164" y2="588.1966472812164" /><line stroke="#BBB" stroke-width="0.35" x1="1084" x2="1089" y1="581.6766472812164" y2="588.6766472812164" /><line stroke="#BBB" stroke-width="0.35" x1="1108" x2="1113" y1="582.1566472812164" y2="589.1566472812164" /><polygon fill="#C5B890" opacity="0.3" points="496,239.2 499,278.15725443452817 502,298.248155932175 505,314.51146479266816 508,328.7002681682869 511,341.5223119555202 514,353.3508348344117 517,364.41234979434876 520,374.8570391697957 523,384.7907715146967 526,394.29162335462695 529,403.41920785331763 532,412.22031143951006 535,420.73248517590423 538,428.9864329149892 541,437.0076562683183 544,444.8176216334094 547,452.4346092281492 550,459.8743443158559 553,467.15047544458895 556,474.274942845599 559,481.25826642615027 562,488.10977388248796 565,494.8377835273433 568,501.44975239165393 571,507.95239736204985 574,514.3517951409212 577,520.6534653999744 580,526.8624404681634 583,532.9833241356021 586,539.0203415884844 589,544.9773820625012 592,550.8580354762255 595,556.6656240549507 598,562.4032297604767 601,568.0737181895873 604,569.2742552327953 601.6,649.2 496.0,649.2" stroke="none" /><rect fill="#D4B87A" height="7.700000000000001" stroke="#333333" stroke-width="1.5" width="264.0" x="232.0" y="152.3" /><rect fill="#C8A96E" height="19.8" stroke="#333333" stroke-width="1" width="264.0" x="232.0" y="160" /><line stroke="#A08050" stroke-width="0.4" x1="232.0" x2="232.0" y1="160" y2="179.8" /><line stroke="#A08050" stroke-width="0.4" x1="267.2" x2="267.2" y1="160" y2="179.8" /><line stroke="#A08050" stroke-width="0.4" x1="302.4" x2="302.4" y1="160" y2="179.8" /><line stroke="#A08050" stroke-width="0.4" x1="337.59999999999997" x2="337.59999999999997" y1="160" y2="179.8" /><line stroke="#A08050" stroke-width="0.4" x1="372.79999999999995" x2="372.79999999999995" y1="160" y2="179.8" /><line stroke="#A08050" stroke-width="0.4" x1="407.99999999999994" x2="407.99999999999994" y1="160" y2="179.8" /><line stroke="#A08050" stroke-width="0.4" x1="443.19999999999993" x2="443.19999999999993" y1="160" y2="179.8" /><line stroke="#A08050" stroke-width="0.4" x1="478.3999999999999" x2="478.3999999999999" y1="160" y2="179.8" /><rect fill="#A07840" height="45.41999999999999" stroke="#333333" stroke-width="1" width="12.100000000000001" x="252.34999999999997" y="179.8" /><rect fill="#888" height="52.80000000000001" opacity="0.2" stroke="none" width="14.100000000000001" x="251.34999999999997" y="172.42" /><rect fill="#A07840" height="60.25999999999999" stroke="#333333" stroke-width="1" width="12.100000000000001" x="305.15" y="179.8" /><rect fill="#888" height="52.80000000000001" opacity="0.2" stroke="none" width="14.100000000000001" x="304.15" y="187.26" /><rect fill="#A07840" height="75.1" stroke="#333333" stroke-width="1" width="12.100000000000001" x="357.95" y="179.8" /><rect fill="#888" height="52.80000000000001" opacity="0.2" stroke="none" width="14.100000000000001" x="356.95" y="202.1" /><rect fill="#A07840" height="89.94" stroke="#333333" stroke-width="1" width="12.100000000000001" x="410.74999999999994" y="179.8" /><rect fill="#888" height="52.80000000000001" opacity="0.2" stroke="none" width="14.100000000000001" x="409.74999999999994" y="216.94" /><rect fill="#A07840" height="104.77999999999997" stroke="#333333" stroke-width="1" width="12.100000000000001" x="463.55" y="179.8" /><rect fill="#888" height="52.79999999999998" opacity="0.2" stroke="none" width="14.100000000000001" x="462.55" y="231.78" /><line stroke="#333333" stroke-width="1.5" x1="100.0" x2="232.0" y1="175.0" y2="152.3" /><polygon fill="#C4A265" opacity="0.45" points="601.6,569.2 601.6,450.40000000000003 654.4,450.40000000000003 664.6883817969591,456.42168075607486 674.9767635939182,462.44336151214975 685.2651453908774,468.4650422682246 695.5535271878365,474.48672302429947 705.8419089847956,480.5084037803743 716.1302907817548,486.5300845364492 726.4186725787139,492.551765292524 736.707054375673,498.5734460485989 746.9954361726321,504.5951268046737 757.2838179695913,510.6168075607486 767.5721997665504,516.6384883168234 777.8605815635095,522.6601690728983 788.1489633604688,528.6818498289731 798.4373451574278,534.703530585048 808.725726954387,540.7252113411229 819.0141087513462,546.7468920971977 829.3024905483052,552.7685728532725 839.5908723452644,558.7902536093475 849.8792541422235,564.8119343654223 860.1676359391827,570.8336151214971 868.0876359391826,570.8737805860542 876.0076359391827,570.997164296596 883.9276359391827,571.2064591794813 891.8476359391826,571.5020541972103 899.7676359391827,571.8819363157822 907.6876359391827,572.3416584378583 915.6076359391827,572.87437610143 923.5276359391827,573.470953833018 931.4476359391826,574.1201400677135 939.3676359391827,574.8088075607485 947.2876359391827,575.522254273046 955.2076359391826,576.244557872297 963.1276359391827,576.9589753055434 971.0476359391827,577.6483774194913 978.9676359391826,578.2957073764146 986.8876359391827,578.8844506757407 994.8076359391827,579.399103976036 1002.7276359391826,579.8256296423505 1010.6476359391827,580.1518830337953 1018.5676359391827,580.368 1018.5676359391827,580.368 1018,580.3566472812164 1014,580.2766472812164 1010,580.1966472812164 1006,580.1166472812164 1002,580.0366472812163 998,579.9566472812164 994,579.8766472812164 990,579.7966472812163 986,579.7166472812164 982,579.6366472812164 978,579.5566472812164 974,579.4766472812164 970,579.3966472812164 966,579.3166472812164 962,579.2366472812164 958,579.1566472812164 954,579.0766472812164 950,578.9966472812164 946,578.9166472812163 942,578.8366472812164 938,578.7566472812164 934,578.6766472812164 930,578.5966472812164 926,578.5166472812164 922,578.4366472812164 918,578.3566472812164 914,578.2766472812164 910,578.1966472812164 906,578.1166472812164 902,578.0366472812163 898,577.9566472812164 894,577.8766472812164 890,577.7966472812163 886,577.7166472812164 882,577.6366472812164 878,577.5566472812164 874,577.4766472812164 870,577.3966472812164 866,577.3166472812164 862,577.2366472812164 858,577.132934036967 854,577.0091753156414 850,576.8854165943159 846,576.7616578729903 842,576.6378991516648 838,576.5141404303392 834,576.3903817090137 830,576.2666229876882 826,576.1428642663626 822,576.0191055450371 818,575.8953468237115 814,575.771588102386 810,575.6478293810604 806,575.5240706597349 802,575.4003119384095 798,575.2765532170839 794,575.1527944957584 790,575.0290357744328 786,574.9052770531073 782,574.7815183317817 778,574.6577596104562 774,574.5340008891307 770,574.4102421678051 766,574.2864834464796 762,574.162724725154 758,574.0389660038285 754,573.9152072825029 750,573.7914485611774 746,573.6676898398518 742,573.5439311185264 738,573.4201723972009 734,573.2964136758753 730,573.1726549545498 726,573.0488962332242 722,572.9251375118987 718,572.8013787905732 714,572.6776200692476 710,572.5538613479221 706,572.4301026265965 702,572.306343905271 698,572.1825851839454 694,572.0588264626199 690,571.9350677412943 686,571.8113090199688 682,571.6875502986434 678,571.5637915773178 674,571.4400328559923 670,571.3162741346667 666,571.1925154133412 662,571.0687566920157 658,570.9449979706901 654,570.8212392493646 650,570.697480528039 646,570.5737218067135 642,570.4499630853879 638,570.3262043640624 634,570.2024456427368 630,570.0786869214113 626,569.9549282000858 622,569.8311694787603 618,569.7074107574348 614,569.5836520361092 610,569.4598933147837 606,569.3361345934582 602,569.2123758721326 601.6,569.2" stroke="none" /><ellipse cx="601.6" cy="560.4000000000001" fill="#A07840" rx="8.8" ry="8.8" stroke="#333333" stroke-width="1" /><circle cx="601.6" cy="560.4000000000001" fill="none" r="3.5200000000000005" stroke="#6B5030" stroke-width="0.5" /><circle cx="601.6" cy="560.4000000000001" fill="#6B5030" r="1.5" /><ellipse cx="601.6" cy="542.8000000000001" fill="#A07840" rx="8.8" ry="8.8" stroke="#333333" stroke-width="1" /><circle cx="601.6" cy="542.8000000000001" fill="none" r="3.5200000000000005" stroke="#6B5030" stroke-width="0.5" /><circle cx="601.6" cy="542.8000000000001" fill="#6B5030" r="1.5" /><ellipse cx="601.6" cy="525.2" fill="#A07840" rx="8.8" ry="8.8" stroke="#333333" stroke-width="1" /><circle cx="601.6" cy="525.2" fill="none" r="3.5200000000000005" stroke="#6B5030" stroke-width="0.5" /><circle cx="601.6" cy="525.2" fill="#6B5030" r="1.5" /><ellipse cx="601.6" cy="507.6" fill="#A07840" rx="8.8" ry="8.8" stroke="#333333" stroke-width="1" /><circle cx="601.6" cy="507.6" fill="none" r="3.5200000000000005" stroke="#6B5030" stroke-width="0.5" /><circle cx="601.6" cy="507.6" fill="#6B5030" r="1.5" /><ellipse cx="601.6" cy="490.00000000000006" fill="#A07840" rx="8.8" ry="8.8" stroke="#333333" stroke-width="1" /><circle cx="601.6" cy="490.00000000000006" fill="none" r="3.5200000000000005" stroke="#6B5030" stroke-width="0.5" /><circle cx="601.6" cy="490.00000000000006" fill="#6B5030" r="1.5" /><ellipse cx="601.6" cy="472.40000000000003" fill="#A07840" rx="8.8" ry="8.8" stroke="#333333" stroke-width="1" /><circle cx="601.6" cy="472.40000000000003" fill="none" r="3.5200000000000005" stroke="#6B5030" stroke-width="0.5" /><circle cx="601.6" cy="472.40000000000003" fill="#6B5030" r="1.5" /><line stroke="#333333" stroke-width="2.5" x1="601.6" x2="601.6" y1="569.2" y2="450.40000000000003" /><rect fill="#8B6B3D" height="10.56" opacity="0.6" stroke="#333333" stroke-width="0.75" width="105.60000000000001" x="601.6" y="528.72" /><text fill="#555" font-family="Arial, Helvetica, sans-serif" font-size="7px" font-style="italic" x="712.2" y="537.0">Deadman tie-back</text><rect fill="#8B6B3D" height="10.56" opacity="0.6" stroke="#333333" stroke-width="0.75" width="105.60000000000001" x="601.6" y="493.5200000000001" /><text fill="#555" font-family="Arial, Helvetica, sans-serif" font-size="7px" font-style="italic" x="712.2" y="501.80000000000007">Deadman tie-back</text><path d="M 601.6,450.40000000000003 L 654.4,450.40000000000003 L 664.6883817969591,456.42168075607486 L 674.9767635939182,462.44336151214975 L 685.2651453908774,468.4650422682246 L 695.5535271878365,474.48672302429947 L 705.8419089847956,480.5084037803743 L 716.1302907817548,486.5300845364492 L 726.4186725787139,492.551765292524 L 736.707054375673,498.5734460485989 L 746.9954361726321,504.5951268046737 L 757.2838179695913,510.6168075607486 L 767.5721997665504,516.6384883168234 L 777.8605815635095,522.6601690728983 L 788.1489633604688,528.6818498289731 L 798.4373451574278,534.703530585048 L 808.725726954387,540.7252113411229 L 819.0141087513462,546.7468920971977 L 829.3024905483052,552.7685728532725 L 839.5908723452644,558.7902536093475 L 849.8792541422235,564.8119343654223 L 860.1676359391827,570.8336151214971 L 868.0876359391826,570.8737805860542 L 876.0076359391827,570.997164296596 L 883.9276359391827,571.2064591794813 L 891.8476359391826,571.5020541972103 L 899.7676359391827,571.8819363157822 L 907.6876359391827,572.3416584378583 L 915.6076359391827,572.87437610143 L 923.5276359391827,573.470953833018 L 931.4476359391826,574.1201400677135 L 939.3676359391827,574.8088075607485 L 947.2876359391827,575.522254273046 L 955.2076359391826,576.244557872297 L 963.1276359391827,576.9589753055434 L 971.0476359391827,577.6483774194913 L 978.9676359391826,578.2957073764146 L 986.8876359391827,578.8844506757407 L 994.8076359391827,579.399103976036 L 1002.7276359391826,579.8256296423505 L 1010.6476359391827,580.1518830337953 L 1018.5676359391827,580.368 " fill="none" stroke="#333333" stroke-width="2.5" /><line stroke="#CC0000" stroke-dasharray="3,2" stroke-width="0.6" x1="521.6" x2="599.6" y1="509.80000000000007" y2="509.80000000000007" /><text fill="#CC0000" font-family="Arial, Helvetica, sans-serif" font-size="9px" font-weight="bold" x="521.6" y="506.80000000000007">Log crib wall (vertical)</text><line stroke="#333333" stroke-width="1.5" x1="1018.5676359391827" x2="1124.1676359391827" y1="580.368" y2="582.48" /><path d="M 496.0,152.3 L 505.9,152.8969203842358 L 515.8,154.6876815369432 L 525.7,157.67228345812217 L 535.6,161.85072614777275 L 545.5,167.2230096058949 L 555.4,173.78913383248866 L 565.3,181.54909882755402 L 575.2,190.50290459109095 L 585.1,200.6505511230995 L 595.0,211.9920384235796 L 604.9,224.5273664925313 L 614.8,238.2565353299546 L 624.7,253.1795449358495 L 634.6,269.29639531021604 L 644.5,286.6070864530541 L 654.4,305.1116183643637 L 664.3,324.809991044145 L 674.2,345.70220449239787 L 684.1,367.78825870912226 L 694.0,391.0681536943184 L 703.9000000000001,415.54188944798597 L 713.8,441.20946597012517 L 723.7,468.0708832607361 L 733.6,496.12614131981843 " fill="none" opacity="0.5" stroke="#CC0000" stroke-dasharray="8,5" stroke-width="1.2" /><text fill="#CC0000" font-family="Arial, Helvetica, sans-serif" font-size="8px" font-style="italic" opacity="0.6" text-anchor="middle" x="574.8" y="230.2565353299546">Flight path</text><circle cx="733.6" cy="496.12614131981843" fill="#CC0000" opacity="0.6" r="4" /><line stroke="#CC0000" stroke-dasharray="3,2" stroke-width="0.6" x1="748.6" x2="733.6" y1="481.12614131981843" y2="496.12614131981843" /><text fill="#CC0000" font-family="Arial, Helvetica, sans-serif" font-size="9px" font-weight="bold" x="748.6" y="478.12614131981843">Sweet spot (9')</text><line stroke="#0055AA" stroke-width="0.5" x1="232.0" x2="232.0" y1="149.3" y2="119.30000000000001" /><line stroke="#0055AA" stroke-width="0.5" x1="496.0" x2="496.0" y1="149.3" y2="119.30000000000001" /><line stroke="#0055AA" stroke-width="0.75" x1="232.0" x2="496.0" y1="122.30000000000001" y2="122.30000000000001" /><polygon fill="#0055AA" points="232.0,122.30000000000001 227.46846106481675,124.41309130870351 227.46846106481675,120.18690869129651" stroke="none" /><polygon fill="#0055AA" points="496.0,122.30000000000001 500.5315389351833,120.18690869129651 500.5315389351832,124.41309130870351" stroke="none" /><rect fill="white" height="13" stroke="none" width="39.0" x="344.5" y="112.30000000000001" /><text fill="#0055AA" font-family="Arial, Helvetica, sans-serif" font-size="10px" text-anchor="middle" x="364.0" y="121.30000000000001">10'-0"</text><line stroke="#0055AA" stroke-width="0.5" x1="504.0" x2="529.0" y1="152.3" y2="152.3" /><line stroke="#0055AA" stroke-width="0.5" x1="504.0" x2="529.0" y1="239.2" y2="239.2" /><line stroke="#0055AA" stroke-width="0.75" x1="526.0" x2="526.0" y1="152.3" y2="239.2" /><polygon fill="#0055AA" points="526.0,152.3 523.8869086912965,147.76846106481676 528.1130913087035,147.76846106481676" stroke="none" /><polygon fill="#0055AA" points="526.0,239.2 528.1130913087035,243.73153893518324 523.8869086912965,243.73153893518324" stroke="none" /><text fill="#0055AA" font-family="Arial, Helvetica, sans-serif" font-size="10px" text-anchor="middle" transform="translate(521.0,195.75) rotate(-90)" x="0" y="0">3'-0"</text><line stroke="#0055AA" stroke-width="0.5" x1="483.0" x2="438.0" y1="152.3" y2="152.3" /><line stroke="#0055AA" stroke-width="0.5" x1="483.0" x2="438.0" y1="569.2" y2="569.2" /><line stroke="#0055AA" stroke-width="0.75" x1="441.0" x2="441.0" y1="152.3" y2="569.2" /><polygon fill="#0055AA" points="441.0,152.3 438.8869086912965,147.76846106481676 443.1130913087035,147.76846106481676" stroke="none" /><polygon fill="#0055AA" points="441.0,569.2 443.1130913087035,573.7315389351833 438.8869086912965,573.7315389351833" stroke="none" /><text fill="#0055AA" font-family="Arial, Helvetica, sans-serif" font-size="10px" text-anchor="middle" transform="translate(436.0,360.75) rotate(-90)" x="0" y="0">15'-6"</text><line stroke="#0055AA" stroke-width="0.5" x1="667.4" x2="712.4" y1="152.3" y2="152.3" /><line stroke="#0055AA" stroke-width="0.5" x1="667.4" x2="712.4" y1="450.40000000000003" y2="450.40000000000003" /><line stroke="#0055AA" stroke-width="0.75" x1="709.4" x2="709.4" y1="152.3" y2="450.40000000000003" /><polygon fill="#0055AA" points="709.4,152.3 707.2869086912965,147.76846106481676 711.5130913087035,147.76846106481676" stroke="none" /><polygon fill="#0055AA" points="709.4,450.40000000000003 711.5130913087035,454.9315389351833 707.2869086912965,454.9315389351833" stroke="none" /><text fill="#0055AA" font-family="Arial, Helvetica, sans-serif" font-size="10px" text-anchor="middle" transform="translate(704.4,301.35) rotate(-90)" x="0" y="0">11'-0"</text><line stroke="#0055AA" stroke-width="0.5" x1="667.4" x2="747.4" y1="450.40000000000003" y2="450.40000000000003" /><line stroke="#0055AA" stroke-width="0.5" x1="667.4" x2="747.4" y1="570.8336151214971" y2="570.8336151214971" /><line stroke="#0055AA" stroke-width="0.75" x1="744.4" x2="744.4" y1="450.40000000000003" y2="570.8336151214971" /><polygon fill="#0055AA" points="744.4,450.40000000000003 742.2869086912965,445.86846106481676 746.5130913087035,445.86846106481676" stroke="none" /><polygon fill="#0055AA" points="744.4,570.8336151214971 746.5130913087035,575.3651540566804 742.2869086912965,575.3651540566804" stroke="none" /><text fill="#0055AA" font-family="Arial, Helvetica, sans-serif" font-size="10px" text-anchor="middle" transform="translate(739.4,510.6168075607486) rotate(-90)" x="0" y="0">4'-6"</text><line stroke="#0055AA" stroke-width="0.5" x1="496.0" x2="496.0" y1="149.3" y2="94.30000000000001" /><line stroke="#0055AA" stroke-width="0.5" x1="733.6" x2="733.6" y1="149.3" y2="94.30000000000001" /><line stroke="#0055AA" stroke-width="0.75" x1="496.0" x2="733.6" y1="97.30000000000001" y2="97.30000000000001" /><polygon fill="#0055AA" points="496.0,97.30000000000001 491.4684610648168,99.41309130870351 491.4684610648168,95.18690869129651" stroke="none" /><polygon fill="#0055AA" points="733.6,97.30000000000001 738.1315389351832,95.18690869129651 738.1315389351832,99.41309130870351" stroke="none" /><rect fill="white" height="13" stroke="none" width="32.5" x="598.55" y="87.30000000000001" /><text fill="#0055AA" font-family="Arial, Helvetica, sans-serif" font-size="10px" text-anchor="middle" x="614.8" y="96.30000000000001">9'-0"</text><line stroke="#0055AA" stroke-width="0.5" x1="496.0" x2="496.0" y1="572.2" y2="602.2" /><line stroke="#0055AA" stroke-width="0.5" x1="654.4" x2="654.4" y1="572.2" y2="602.2" /><line stroke="#0055AA" stroke-width="0.75" x1="496.0" x2="654.4" y1="599.2" y2="599.2" /><polygon fill="#0055AA" points="496.0,599.2 491.4684610648168,601.3130913087035 491.4684610648168,597.0869086912966" stroke="none" /><polygon fill="#0055AA" points="654.4,599.2 658.9315389351832,597.0869086912966 658.9315389351832,601.3130913087035" stroke="none" /><rect fill="white" height="13" stroke="none" width="32.5" x="558.95" y="589.2" /><text fill="#0055AA" font-family="Arial, Helvetica, sans-serif" font-size="10px" text-anchor="middle" x="575.2" y="598.2">6'-0"</text><line stroke="#0055AA" stroke-width="0.5" x1="496.0" x2="496.0" y1="572.2" y2="627.2" /><line stroke="#0055AA" stroke-width="0.5" x1="601.6" x2="601.6" y1="572.2" y2="627.2" /><line stroke="#0055AA" stroke-width="0.75" x1="496.0" x2="601.6" y1="624.2" y2="624.2" /><polygon fill="#0055AA" points="496.0,624.2 491.4684610648168,626.3130913087035 491.4684610648168,622.0869086912966" stroke="none" /><polygon fill="#0055AA" points="601.6,624.2 606.1315389351832,622.0869086912966 606.1315389351832,626.3130913087035" stroke="none" /><rect fill="white" height="13" stroke="none" width="32.5" x="532.55" y="614.2" /><text fill="#0055AA" font-family="Arial, Helvetica, sans-serif" font-size="10px" text-anchor="middle" x="548.8" y="623.2">4'-0"</text><line stroke="#CC0000" stroke-dasharray="3,2" stroke-width="0.5" x1="654.4" x2="699.4" y1="450.40000000000003" y2="450.40000000000003" /><path d="M 689.4,450.40000000000003 A 35,35 0 0,1 684.7108891324553,467.90000000000003" fill="none" stroke="#CC0000" stroke-width="1" /><text fill="#CC0000" font-family="Arial, Helvetica, sans-serif" font-size="10px" font-weight="bold" x="701.7303654881644" y="466.0821332100235">30.0°</text><line stroke="#0055AA" stroke-width="0.5" x1="654.4" x2="654.4" y1="572.2" y2="602.2" /><line stroke="#0055AA" stroke-width="0.5" x1="860.1676359391827" x2="860.1676359391827" y1="572.2" y2="602.2" /><line stroke="#0055AA" stroke-width="0.75" x1="654.4" x2="860.1676359391827" y1="599.2" y2="599.2" /><polygon fill="#0055AA" points="654.4,599.2 649.8684610648168,601.3130913087035 649.8684610648168,597.0869086912966" stroke="none" /><polygon fill="#0055AA" points="860.1676359391827,599.2 864.6991748743659,597.0869086912966 864.6991748743659,601.3130913087035" stroke="none" /><rect fill="white" height="13" stroke="none" width="123.5" x="695.5338179695914" y="589.2" /><text fill="#0055AA" font-family="Arial, Helvetica, sans-serif" font-size="10px" text-anchor="middle" x="757.2838179695914" y="598.2">Landing run: 7'-10"</text><text fill="#CC0000" font-family="Arial, Helvetica, sans-serif" font-size="9px" font-weight="bold" x="252.0" y="139.3">Bridge: 10'-0" x 2'-0"</text><text fill="#CC0000" font-family="Arial, Helvetica, sans-serif" font-size="9px" font-weight="bold" x="410.4" y="191.66">6x6 pylons into hillside</text><text fill="#CC0000" font-family="Arial, Helvetica, sans-serif" font-size="9px" font-weight="bold" x="716.1302907817548" y="498.5300845364492">Compact lander fill in 6" lifts</text><text fill="#CC0000" font-family="Arial, Helvetica, sans-serif" font-size="9px" font-weight="bold" x="810.1676359391827" y="582.8336151214971">18° landing slope</text><text fill="#CC0000" font-family="Arial, Helvetica, sans-serif" font-size="9px" font-weight="bold" x="1044.1676359391827" y="591.48">Smooth transition to flat</text><text fill="#CC0000" font-family="Arial, Helvetica, sans-serif" font-size="9px" font-weight="bold" x="488.79999999999995" y="381.20000000000005">Steep hillside</text><line stroke="#CC0000" stroke-dasharray="3,2" stroke-width="0.6" x1="521.6" x2="592.8000000000001" y1="542.8000000000001" y2="542.8000000000001" /><text fill="#CC0000" font-family="Arial, Helvetica, sans-serif" font-size="9px" font-weight="bold" x="521.6" y="539.8000000000001">8.0" dia. logs</text><text fill="#555" font-family="Arial, Helvetica, sans-serif" font-size="8px" font-style="italic" text-anchor="middle" x="364.0" y="149.3">BRIDGE DECK</text><text fill="#555" font-family="Arial, Helvetica, sans-serif" font-size="9px" font-weight="bold" text-anchor="middle" x="716.1302907817548" y="442.40000000000003">LOG CRIB LANDER</text></g><g><text fill="#222" font-family="Arial, Helvetica, sans-serif" font-size="14px" font-weight="bold" text-anchor="middle" x="642.0838179695913" y="774.2">TOP VIEW (PLAN)</text><rect fill="#E8E0D0" height="52.800000000000004" stroke="#333333" stroke-width="1" width="132.0" x="100.0" y="822.8000000000001" /><text fill="#555" font-family="Arial, Helvetica, sans-serif" font-size="8px" font-style="italic" text-anchor="middle" x="166.0" y="853.2">Trail</text><rect fill="#D4B87A" height="52.800000000000004" stroke="#333333" stroke-width="1.5" width="264.0" x="232.0" y="822.8000000000001" /><line stroke="#B89860" stroke-width="0.3" x1="232" x2="232" y1="822.8000000000001" y2="875.6" /><line stroke="#B89860" stroke-width="0.3" x1="244" x2="244" y1="822.8000000000001" y2="875.6" /><line stroke="#B89860" stroke-width="0.3" x1="256" x2="256" y1="822.8000000000001" y2="875.6" /><line stroke="#B89860" stroke-width="0.3" x1="268" x2="268" y1="822.8000000000001" y2="875.6" /><line stroke="#B89860" stroke-width="0.3" x1="280" x2="280" y1="822.8000000000001" y2="875.6" /><line stroke="#B89860" stroke-width="0.3" x1="292" x2="292" y1="822.8000000000001" y2="875.6" /><line stroke="#B89860" stroke-width="0.3" x1="304" x2="304" y1="822.8000000000001" y2="875.6" /><line stroke="#B89860" stroke-width="0.3" x1="316" x2="316" y1="822.8000000000001" y2="875.6" /><line stroke="#B89860" stroke-width="0.3" x1="328" x2="328" y1="822.8000000000001" y2="875.6" /><line stroke="#B89860" stroke-width="0.3" x1="340" x2="340" y1="822.8000000000001" y2="875.6" /><line stroke="#B89860" stroke-width="0.3" x1="352" x2="352" y1="822.8000000000001" y2="875.6" /><line stroke="#B89860" stroke-width="0.3" x1="364" x2="364" y1="822.8000000000001" y2="875.6" /><line stroke="#B89860" stroke-width="0.3" x1="376" x2="376" y1="822.8000000000001" y2="875.6" /><line stroke="#B89860" stroke-width="0.3" x1="388" x2="388" y1="822.8000000000001" y2="875.6" /><line stroke="#B89860" stroke-width="0.3" x1="400" x2="400" y1="822.8000000000001" y2="875.6" /><line stroke="#B89860" stroke-width="0.3" x1="412" x2="412" y1="822.8000000000001" y2="875.6" /><line stroke="#B89860" stroke-width="0.3" x1="424" x2="424" y1="822.8000000000001" y2="875.6" /><line stroke="#B89860" stroke-width="0.3" x1="436" x2="436" y1="822.8000000000001" y2="875.6" /><line stroke="#B89860" stroke-width="0.3" x1="448" x2="448" y1="822.8000000000001" y2="875.6" /><line stroke="#B89860" stroke-width="0.3" x1="460" x2="460" y1="822.8000000000001" y2="875.6" /><line stroke="#B89860" stroke-width="0.3" x1="472" x2="472" y1="822.8000000000001" y2="875.6" /><line stroke="#B89860" stroke-width="0.3" x1="484" x2="484" y1="822.8000000000001" y2="875.6" /><text fill="#555" font-family="Arial, Helvetica, sans-serif" font-size="9px" font-weight="bold" text-anchor="middle" x="364.0" y="853.2">BRIDGE</text><rect fill="#F8F4F0" height="82.80000000000001" stroke="#333333" stroke-dasharray="4,2" stroke-width="0.5" width="105.60000000000001" x="496.0" y="807.8000000000001" /><line stroke="#DDD" stroke-width="0.4" x1="496" x2="514" y1="812.8000000000001" y2="885.6" /><line stroke="#DDD" stroke-width="0.4" x1="506" x2="524" y1="812.8000000000001" y2="885.6" /><line stroke="#DDD" stroke-width="0.4" x1="516" x2="534" y1="812.8000000000001" y2="885.6" /><line stroke="#DDD" stroke-width="0.4" x1="526" x2="544" y1="812.8000000000001" y2="885.6" /><line stroke="#DDD" stroke-width="0.4" x1="536" x2="554" y1="812.8000000000001" y2="885.6" /><line stroke="#DDD" stroke-width="0.4" x1="546" x2="564" y1="812.8000000000001" y2="885.6" /><line stroke="#DDD" stroke-width="0.4" x1="556" x2="574" y1="812.8000000000001" y2="885.6" /><line stroke="#DDD" stroke-width="0.4" x1="566" x2="584" y1="812.8000000000001" y2="885.6" /><line stroke="#DDD" stroke-width="0.4" x1="576" x2="594" y1="812.8000000000001" y2="885.6" /><line stroke="#DDD" stroke-width="0.4" x1="586" x2="604" y1="812.8000000000001" y2="885.6" /><line stroke="#DDD" stroke-width="0.4" x1="596" x2="614" y1="812.8000000000001" y2="885.6" /><text fill="#CC0000" font-family="Arial, Helvetica, sans-serif" font-size="9px" font-weight="bold" text-anchor="middle" x="548.8" y="853.2">GAP / DROP ZONE</text><polygon fill="#C4A265" opacity="0.45" points="601.6,770.0 860.1676359391827,793.76 1018.5676359391827,822.8000000000001 1018.5676359391827,875.6 860.1676359391827,904.6400000000001 601.6,928.4000000000001" stroke="#333333" stroke-width="1" /><rect fill="#8B6B3D" height="158.4" stroke="#333333" stroke-width="1.5" width="17.6" x="584.0" y="770.0" /><line stroke="#6B5030" stroke-width="0.5" x1="584.0" x2="601.6" y1="770.0" y2="770.0" /><line stroke="#6B5030" stroke-width="0.5" x1="584.0" x2="601.6" y1="784.08" y2="784.08" /><line stroke="#6B5030" stroke-width="0.5" x1="584.0" x2="601.6" y1="798.16" y2="798.16" /><line stroke="#6B5030" stroke-width="0.5" x1="584.0" x2="601.6" y1="812.24" y2="812.24" /><line stroke="#6B5030" stroke-width="0.5" x1="584.0" x2="601.6" y1="826.32" y2="826.32" /><line stroke="#6B5030" stroke-width="0.5" x1="584.0" x2="601.6" y1="840.4" y2="840.4" /><line stroke="#6B5030" stroke-width="0.5" x1="584.0" x2="601.6" y1="854.48" y2="854.48" /><line stroke="#6B5030" stroke-width="0.5" x1="584.0" x2="601.6" y1="868.5600000000001" y2="868.5600000000001" /><line stroke="#6B5030" stroke-width="0.5" x1="584.0" x2="601.6" y1="882.64" y2="882.64" /><line stroke="#6B5030" stroke-width="0.5" x1="584.0" x2="601.6" y1="896.72" y2="896.72" /><line stroke="#6B5030" stroke-width="0.5" x1="584.0" x2="601.6" y1="910.8" y2="910.8" /><rect fill="#8B6B3D" height="17.6" stroke="#333333" stroke-width="1" width="103.42705437567307" x="601.6" y="770.0" /><rect fill="#8B6B3D" height="17.6" stroke="#333333" stroke-width="1" width="103.42705437567307" x="601.6" y="910.8000000000001" /><line stroke="#6B5030" stroke-width="0.5" x1="601.6" x2="601.6" y1="770.0" y2="787.6" /><line stroke="#6B5030" stroke-width="0.5" x1="601.6" x2="601.6" y1="910.8000000000001" y2="928.4000000000001" /><line stroke="#6B5030" stroke-width="0.5" x1="615.6800000000001" x2="615.6800000000001" y1="770.0" y2="787.6" /><line stroke="#6B5030" stroke-width="0.5" x1="615.6800000000001" x2="615.6800000000001" y1="910.8000000000001" y2="928.4000000000001" /><line stroke="#6B5030" stroke-width="0.5" x1="629.76" x2="629.76" y1="770.0" y2="787.6" /><line stroke="#6B5030" stroke-width="0.5" x1="629.76" x2="629.76" y1="910.8000000000001" y2="928.4000000000001" /><line stroke="#6B5030" stroke-width="0.5" x1="643.84" x2="643.84" y1="770.0" y2="787.6" /><line stroke="#6B5030" stroke-width="0.5" x1="643.84" x2="643.84" y1="910.8000000000001" y2="928.4000000000001" /><line stroke="#6B5030" stroke-width="0.5" x1="657.9200000000001" x2="657.9200000000001" y1="770.0" y2="787.6" /><line stroke="#6B5030" stroke-width="0.5" x1="657.9200000000001" x2="657.9200000000001" y1="910.8000000000001" y2="928.4000000000001" /><line stroke="#6B5030" stroke-width="0.5" x1="672.0" x2="672.0" y1="770.0" y2="787.6" /><line stroke="#6B5030" stroke-width="0.5" x1="672.0" x2="672.0" y1="910.8000000000001" y2="928.4000000000001" /><line stroke="#6B5030" stroke-width="0.5" x1="686.08" x2="686.08" y1="770.0" y2="787.6" /><line stroke="#6B5030" stroke-width="0.5" x1="686.08" x2="686.08" y1="910.8000000000001" y2="928.4000000000001" /><text fill="#CC0000" font-family="Arial, Helvetica, sans-serif" font-size="7px" font-weight="bold" text-anchor="middle" x="592.8000000000001" y="762.0">Log crib wall (back)</text><text fill="#CC0000" font-family="Arial, Helvetica, sans-serif" font-size="7px" text-anchor="middle" x="653.3135271878366" y="767.0">Side crib</text><text fill="#CC0000" font-family="Arial, Helvetica, sans-serif" font-size="7px" text-anchor="middle" x="653.3135271878366" y="938.4000000000001">Side crib</text><rect fill="#8B6B3D" height="10.56" opacity="0.4" stroke="#333333" stroke-width="0.5" width="79.2" x="601.6" y="804.32" /><rect fill="#8B6B3D" height="10.56" opacity="0.4" stroke="#333333" stroke-width="0.5" width="79.2" x="601.6" y="843.9200000000001" /><rect fill="#8B6B3D" height="10.56" opacity="0.4" stroke="#333333" stroke-width="0.5" width="79.2" x="601.6" y="883.52" /><line stroke="#CC0000" stroke-dasharray="4,3" stroke-width="1" x1="733.6" x2="733.6" y1="775.0" y2="923.4000000000001" /><text fill="#CC0000" font-family="Arial, Helvetica, sans-serif" font-size="8px" font-weight="bold" text-anchor="middle" x="733.6" y="942.4000000000001">Sweet spot (9')</text><text fill="#555" font-family="Arial, Helvetica, sans-serif" font-size="9px" font-weight="bold" text-anchor="middle" x="757.2838179695914" y="853.2">LANDER (fill)</text><text fill="#555" font-family="Arial, Helvetica, sans-serif" font-size="8px" font-style="italic" text-anchor="middle" x="757.2838179695914" y="865.2">18° landing slope</text><rect fill="#E8E0D0" height="52.800000000000004" stroke="#333333" stroke-width="1" width="105.60000000000001" x="1018.5676359391827" y="822.8000000000001" /><text fill="#555" font-family="Arial, Helvetica, sans-serif" font-size="8px" font-style="italic" text-anchor="middle" x="1071.3676359391827" y="853.2">Runout</text><path d="M 496.0,885.6 C 556.0,983.4000000000001 733.6,983.4000000000001 860.1676359391827,885.6" fill="none" stroke="#66AA66" stroke-dasharray="6,3" stroke-width="1.5" /><text fill="#66AA66" font-family="Arial, Helvetica, sans-serif" font-size="9px" font-style="italic" text-anchor="middle" x="678.0838179695913" y="998.4000000000001">Bypass / roll-around</text><line stroke="#0055AA" stroke-width="0.5" x1="232.0" x2="232.0" y1="819.8000000000001" y2="794.8000000000001" /><line stroke="#0055AA" stroke-width="0.5" x1="496.0" x2="496.0" y1="819.8000000000001" y2="794.8000000000001" /><line stroke="#0055AA" stroke-width="0.75" x1="232.0" x2="496.0" y1="797.8000000000001" y2="797.8000000000001" /><polygon fill="#0055AA" points="232.0,797.8000000000001 227.46846106481675,799.9130913087035 227.46846106481675,795.6869086912966" stroke="none" /><polygon fill="#0055AA" points="496.0,797.8000000000001 500.5315389351833,795.6869086912966 500.5315389351832,799.9130913087035" stroke="none" /><rect fill="white" height="13" stroke="none" width="39.0" x="344.5" y="787.8000000000001" /><text fill="#0055AA" font-family="Arial, Helvetica, sans-serif" font-size="10px" text-anchor="middle" x="364.0" y="796.8000000000001">10'-0"</text><line stroke="#0055AA" stroke-width="0.5" x1="219.0" x2="189.0" y1="822.8000000000001" y2="822.8000000000001" /><line stroke="#0055AA" stroke-width="0.5" x1="219.0" x2="189.0" y1="875.6" y2="875.6" /><line stroke="#0055AA" stroke-width="0.75" x1="192.0" x2="192.0" y1="822.8000000000001" y2="875.6" /><polygon fill="#0055AA" points="192.0,822.8000000000001 189.8869086912965,818.2684610648168 194.1130913087035,818.2684610648168" stroke="none" /><polygon fill="#0055AA" points="192.0,875.6 194.1130913087035,880.1315389351832 189.8869086912965,880.1315389351832" stroke="none" /><text fill="#0055AA" font-family="Arial, Helvetica, sans-serif" font-size="10px" text-anchor="middle" transform="translate(187.0,849.2) rotate(-90)" x="0" y="0">2'-0"</text><line stroke="#0055AA" stroke-width="0.5" x1="496.0" x2="496.0" y1="819.8000000000001" y2="794.8000000000001" /><line stroke="#0055AA" stroke-width="0.5" x1="601.6" x2="601.6" y1="819.8000000000001" y2="794.8000000000001" /><line stroke="#0055AA" stroke-width="0.75" x1="496.0" x2="601.6" y1="797.8000000000001" y2="797.8000000000001" /><polygon fill="#0055AA" points="496.0,797.8000000000001 491.4684610648168,799.9130913087035 491.4684610648168,795.6869086912966" stroke="none" /><polygon fill="#0055AA" points="601.6,797.8000000000001 606.1315389351832,795.6869086912966 606.1315389351832,799.9130913087035" stroke="none" /><rect fill="white" height="13" stroke="none" width="32.5" x="532.55" y="787.8000000000001" /><text fill="#0055AA" font-family="Arial, Helvetica, sans-serif" font-size="10px" text-anchor="middle" x="548.8" y="796.8000000000001">4'-0"</text><line stroke="#0055AA" stroke-width="0.5" x1="496.0" x2="496.0" y1="767.0" y2="742.0" /><line stroke="#0055AA" stroke-width="0.5" x1="733.6" x2="733.6" y1="767.0" y2="742.0" /><line stroke="#0055AA" stroke-width="0.75" x1="496.0" x2="733.6" y1="745.0" y2="745.0" /><polygon fill="#0055AA" points="496.0,745.0 491.4684610648168,747.1130913087035 491.4684610648168,742.8869086912965" stroke="none" /><polygon fill="#0055AA" points="733.6,745.0 738.1315389351832,742.8869086912965 738.1315389351832,747.1130913087035" stroke="none" /><rect fill="white" height="13" stroke="none" width="32.5" x="598.55" y="735.0" /><text fill="#0055AA" font-family="Arial, Helvetica, sans-serif" font-size="10px" text-anchor="middle" x="614.8" y="744.0">9'-0"</text></g><g><text fill="#111" font-family="Arial, Helvetica, sans-serif" font-size="11px" font-weight="bold" x="100" y="1101.2">NOTES:</text><text fill="#333" font-family="Arial, Helvetica, sans-serif" font-size="10px" x="110" y="1117.2">1. All dimensions in inches unless noted</text><text fill="#333" font-family="Arial, Helvetica, sans-serif" font-size="10px" x="110" y="1133.2">2. Bridge: pressure-treated lumber or rot-resistant species (cedar, locust)</text><text fill="#333" font-family="Arial, Helvetica, sans-serif" font-size="10px" x="110" y="1149.2">3. Pylons: 6x6 PT posts driven/buried min 24" into hillside with compacted gravel</text><text fill="#333" font-family="Arial, Helvetica, sans-serif" font-size="10px" x="110" y="1165.2">4. All hardware: hot-dipped galvanized or stainless steel</text><text fill="#333" font-family="Arial, Helvetica, sans-serif" font-size="10px" x="110" y="1181.2">5. Attach non-slip mesh (chicken wire) to bridge deck surface</text><text fill="#333" font-family="Arial, Helvetica, sans-serif" font-size="10px" x="110" y="1197.2">6. Lander: compact fill in 6" lifts with plate compactor</text><text fill="#333" font-family="Arial, Helvetica, sans-serif" font-size="10px" x="110" y="1213.2">7. Use mineral soil only (clay/gravel mix, no organics)</text><text fill="#333" font-family="Arial, Helvetica, sans-serif" font-size="10px" x="110" y="1229.2">8. Landing slope (30.0°) provides gradual deceleration — no kicker at base</text><text fill="#333" font-family="Arial, Helvetica, sans-serif" font-size="10px" x="110" y="1245.2">9. Rider must have clear sight line from bridge to landing zone</text><text fill="#333" font-family="Arial, Helvetica, sans-serif" font-size="10px" x="110" y="1261.2">10. ALWAYS provide a bypass / roll-around for this feature</text><text fill="#333" font-family="Arial, Helvetica, sans-serif" font-size="10px" x="110" y="1277.2">11. Total vertical drop from deck to lander peak: 11'-0" — expert-level feature</text><text fill="#333" font-family="Arial, Helvetica, sans-serif" font-size="10px" x="110" y="1293.2">12. Log crib wall: 8.0" dia. logs, peeled, stacked horizontally, pinned with #4 rebar</text><text fill="#333" font-family="Arial, Helvetica, sans-serif" font-size="10px" x="110" y="1309.2">13. Pin each log course to the one below — drive 24" rebar through pre-drilled holes</text><text fill="#333" font-family="Arial, Helvetica, sans-serif" font-size="10px" x="110" y="1325.2">14. Deadman tie-backs every 2-3 courses extending 4 ft into compacted fill behind wall</text><text fill="#333" font-family="Arial, Helvetica, sans-serif" font-size="10px" x="110" y="1341.2">15. Place 3/4" crushed gravel behind crib wall with filter fabric for drainage</text><text fill="#333" font-family="Arial, Helvetica, sans-serif" font-size="10px" x="110" y="1357.2">16. Bottom course of logs set on compacted gravel pad, first rebar pins driven into native soil</text><text fill="#111" font-family="Arial, Helvetica, sans-serif" font-size="11px" font-weight="bold" x="100" y="1383.2">MATERIALS:</text><rect fill="#E8E8E8" height="18" stroke="#AAA" stroke-width="0.5" width="650" x="100" y="1388.2" /><text fill="#111" font-family="Arial, Helvetica, sans-serif" font-size="10px" font-weight="bold" x="105" y="1401.2">Item</text><text fill="#111" font-family="Arial, Helvetica, sans-serif" font-size="10px" font-weight="bold" x="295" y="1401.2">Size</text><text fill="#111" font-family="Arial, Helvetica, sans-serif" font-size="10px" font-weight="bold" x="415" y="1401.2">Qty</text><text fill="#111" font-family="Arial, Helvetica, sans-serif" font-size="10px" font-weight="bold" x="485" y="1401.2">Notes</text><rect fill="none" height="18" stroke="#CCC" stroke-width="0.5" width="650" x="100" y="1406.2" /><text fill="#333" font-family="Arial, Helvetica, sans-serif" font-size="10px" x="105" y="1419.2">Bridge beams</text><text fill="#333" font-family="Arial, Helvetica, sans-serif" font-size="10px" x="295" y="1419.2">4x8 or doubled 2x8</text><text fill="#333" font-family="Arial, Helvetica, sans-serif" font-size="10px" x="415" y="1419.2">2</text><text fill="#333" font-family="Arial, Helvetica, sans-serif" font-size="10px" x="485" y="1419.2">Full length (10'-0")</text><rect fill="none" height="18" stroke="#CCC" stroke-width="0.5" width="650" x="100" y="1424.2" /><text fill="#333" font-family="Arial, Helvetica, sans-serif" font-size="10px" x="105" y="1437.2">Bridge decking</text><text fill="#333" font-family="Arial, Helvetica, sans-serif" font-size="10px" x="295" y="1437.2">2x6</text><text fill="#333" font-family="Arial, Helvetica, sans-serif" font-size="10px" x="415" y="1437.2">5 boards x 10'-0"</text><text fill="#333" font-family="Arial, Helvetica, sans-serif" font-size="10px" x="485" y="1437.2">PT lumber, 1/8" gap</text><rect fill="none" height="18" stroke="#CCC" stroke-width="0.5" width="650" x="100" y="1442.2" /><text fill="#333" font-family="Arial, Helvetica, sans-serif" font-size="10px" x="105" y="1455.2">Joists</text><text fill="#333" font-family="Arial, Helvetica, sans-serif" font-size="10px" x="295" y="1455.2">2x6</text><text fill="#333" font-family="Arial, Helvetica, sans-serif" font-size="10px" x="415" y="1455.2">8</text><text fill="#333" font-family="Arial, Helvetica, sans-serif" font-size="10px" x="485" y="1455.2">16" OC</text><rect fill="none" height="18" stroke="#CCC" stroke-width="0.5" width="650" x="100" y="1460.2" /><text fill="#333" font-family="Arial, Helvetica, sans-serif" font-size="10px" x="105" y="1473.2">Pylons</text><text fill="#333" font-family="Arial, Helvetica, sans-serif" font-size="10px" x="295" y="1473.2">6x6</text><text fill="#333" font-family="Arial, Helvetica, sans-serif" font-size="10px" x="415" y="1473.2">5</text><text fill="#333" font-family="Arial, Helvetica, sans-serif" font-size="10px" x="485" y="1473.2">PT, min 24" buried into hillside</text><rect fill="none" height="18" stroke="#CCC" stroke-width="0.5" width="650" x="100" y="1478.2" /><text fill="#333" font-family="Arial, Helvetica, sans-serif" font-size="10px" x="105" y="1491.2">Cross-bracing</text><text fill="#333" font-family="Arial, Helvetica, sans-serif" font-size="10px" x="295" y="1491.2">2x6</text><text fill="#333" font-family="Arial, Helvetica, sans-serif" font-size="10px" x="415" y="1491.2">4</text><text fill="#333" font-family="Arial, Helvetica, sans-serif" font-size="10px" x="485" y="1491.2">Between pylons for lateral stability</text><rect fill="none" height="18" stroke="#CCC" stroke-width="0.5" width="650" x="100" y="1496.2" /><text fill="#333" font-family="Arial, Helvetica, sans-serif" font-size="10px" x="105" y="1509.2">Non-slip mesh</text><text fill="#333" font-family="Arial, Helvetica, sans-serif" font-size="10px" x="295" y="1509.2">Chicken wire</text><text fill="#333" font-family="Arial, Helvetica, sans-serif" font-size="10px" x="415" y="1509.2">10'-0" x 2'-0"</text><text fill="#333" font-family="Arial, Helvetica, sans-serif" font-size="10px" x="485" y="1509.2">Stapled to deck</text><rect fill="none" height="18" stroke="#CCC" stroke-width="0.5" width="650" x="100" y="1514.2" /><text fill="#333" font-family="Arial, Helvetica, sans-serif" font-size="10px" x="105" y="1527.2">Fill dirt (lander)</text><text fill="#333" font-family="Arial, Helvetica, sans-serif" font-size="10px" x="295" y="1527.2">Mineral soil</text><text fill="#333" font-family="Arial, Helvetica, sans-serif" font-size="10px" x="415" y="1527.2">~10-15 cu yd</text><text fill="#333" font-family="Arial, Helvetica, sans-serif" font-size="10px" x="485" y="1527.2">Compact in 6" lifts</text><rect fill="none" height="18" stroke="#CCC" stroke-width="0.5" width="650" x="100" y="1532.2" /><text fill="#333" font-family="Arial, Helvetica, sans-serif" font-size="10px" x="105" y="1545.2">Topsoil (lander finish)</text><text fill="#333" font-family="Arial, Helvetica, sans-serif" font-size="10px" x="295" y="1545.2" /><text fill="#333" font-family="Arial, Helvetica, sans-serif" font-size="10px" x="415" y="1545.2">~1-2 cu yd</text><text fill="#333" font-family="Arial, Helvetica, sans-serif" font-size="10px" x="485" y="1545.2">Final shaping layer only</text><rect fill="none" height="18" stroke="#CCC" stroke-width="0.5" width="650" x="100" y="1550.2" /><text fill="#333" font-family="Arial, Helvetica, sans-serif" font-size="10px" x="105" y="1563.2">Crib wall logs</text><text fill="#333" font-family="Arial, Helvetica, sans-serif" font-size="10px" x="295" y="1563.2">8.0" dia. x 6-8' long</text><text fill="#333" font-family="Arial, Helvetica, sans-serif" font-size="10px" x="415" y="1563.2">~28</text><text fill="#333" font-family="Arial, Helvetica, sans-serif" font-size="10px" x="485" y="1563.2">Back wall + 2 side walls, peeled</text><rect fill="none" height="18" stroke="#CCC" stroke-width="0.5" width="650" x="100" y="1568.2" /><text fill="#333" font-family="Arial, Helvetica, sans-serif" font-size="10px" x="105" y="1581.2">Deadman tie-back logs</text><text fill="#333" font-family="Arial, Helvetica, sans-serif" font-size="10px" x="295" y="1581.2">8.0" dia. x 4' long</text><text fill="#333" font-family="Arial, Helvetica, sans-serif" font-size="10px" x="415" y="1581.2">6-8</text><text fill="#333" font-family="Arial, Helvetica, sans-serif" font-size="10px" x="485" y="1581.2">Perpendicular tie-backs every 2-3 courses</text><rect fill="none" height="18" stroke="#CCC" stroke-width="0.5" width="650" x="100" y="1586.2" /><text fill="#333" font-family="Arial, Helvetica, sans-serif" font-size="10px" x="105" y="1599.2">Rebar pins</text><text fill="#333" font-family="Arial, Helvetica, sans-serif" font-size="10px" x="295" y="1599.2">#4 rebar, 24" long</text><text fill="#333" font-family="Arial, Helvetica, sans-serif" font-size="10px" x="415" y="1599.2">~20-24</text><text fill="#333" font-family="Arial, Helvetica, sans-serif" font-size="10px" x="485" y="1599.2">Pin logs together + anchor to ground</text><rect fill="none" height="18" stroke="#CCC" stroke-width="0.5" width="650" x="100" y="1604.2" /><text fill="#333" font-family="Arial, Helvetica, sans-serif" font-size="10px" x="105" y="1617.2">Gravel backfill</text><text fill="#333" font-family="Arial, Helvetica, sans-serif" font-size="10px" x="295" y="1617.2">3/4" crushed</text><text fill="#333" font-family="Arial, Helvetica, sans-serif" font-size="10px" x="415" y="1617.2">~2-3 cu yd</text><text fill="#333" font-family="Arial, Helvetica, sans-serif" font-size="10px" x="485" y="1617.2">Behind crib wall for drainage</text><rect fill="none" height="18" stroke="#CCC" stroke-width="0.5" width="650" x="100" y="1622.2" /><text fill="#333" font-family="Arial, Helvetica, sans-serif" font-size="10px" x="105" y="1635.2">Filter fabric</text><text fill="#333" font-family="Arial, Helvetica, sans-serif" font-size="10px" x="295" y="1635.2">Non-woven geotextile</text><text fill="#333" font-family="Arial, Helvetica, sans-serif" font-size="10px" x="415" y="1635.2">~50 sq ft</text><text fill="#333" font-family="Arial, Helvetica, sans-serif" font-size="10px" x="485" y="1635.2">Between gravel and fill behind crib</text></g><rect fill="#F0F0F0" height="100" stroke="#333" stroke-width="1.5" width="360" x="904.1676359391827" y="1501.2" /><text fill="#111" font-family="Arial, Helvetica, sans-serif" font-size="14px" font-weight="bold" x="914.1676359391827" y="1521.2">Bridge Drop — 30° Lander</text><text fill="#555" font-family="Arial, Helvetica, sans-serif" font-size="9px" x="914.1676359391827" y="1539.2">Bridge: 10'-0" x 2'-0"  |  Deck to ground: 3'-0"</text><text fill="#555" font-family="Arial, Helvetica, sans-serif" font-size="9px" x="914.1676359391827" y="1553.2">Vertical drop to lander: 11'-0"  |  Drop to ground: 15'-6"</text><text fill="#555" font-family="Arial, Helvetica, sans-serif" font-size="9px" x="914.1676359391827" y="1567.2">Sweet spot: 9'-0" horiz  |  Lander: 4'-6" tall  |  Landing: 30.0°</text><text fill="#CC0000" font-family="Arial, Helvetica, sans-serif" font-size="9px" font-weight="bold" x="914.1676359391827" y="1581.2">Rating: DOUBLE BLACK — Expert only</text><text fill="#555" font-family="Arial, Helvetica, sans-serif" font-size="9px" x="914.1676359391827" y="1594.2">Date: 2026-03-27</text></svg>