<?xml version="1.0" encoding="utf-8" ?>
<svg baseProfile="full" height="750px" version="1.1" viewBox="0 0 900 750" width="900px" xmlns="http://www.w3.org/2000/svg" xmlns:ev="http://www.w3.org/2001/xml-events" xmlns:xlink="http://www.w3.org/1999/xlink"><defs /><rect fill="#FFFFFF" height="750" width="900" x="0" y="0" /><rect fill="none" height="734" stroke="#333" stroke-width="1.5" width="884" x="8" y="8" /><text fill="#222" font-family="Arial, Helvetica, sans-serif" font-size="14px" font-weight="bold" text-anchor="middle" x="450" y="40">PLAN VIEW — SIDE ROLL-DOWN DETAIL</text><rect fill="#D2B48C" fill-opacity="0.5" height="56" stroke="#333" stroke-width="1.5" width="280" x="310" y="352" /><line stroke="#8B7355" stroke-width="0.5" x1="324.0" x2="324.0" y1="352" y2="408" /><line stroke="#8B7355" stroke-width="0.5" x1="338.0" x2="338.0" y1="352" y2="408" /><line stroke="#8B7355" stroke-width="0.5" x1="352.0" x2="352.0" y1="352" y2="408" /><line stroke="#8B7355" stroke-width="0.5" x1="366.0" x2="366.0" y1="352" y2="408" /><line stroke="#8B7355" stroke-width="0.5" x1="380.0" x2="380.0" y1="352" y2="408" /><line stroke="#8B7355" stroke-width="0.5" x1="394.0" x2="394.0" y1="352" y2="408" /><line stroke="#8B7355" stroke-width="0.5" x1="408.0" x2="408.0" y1="352" y2="408" /><line stroke="#8B7355" stroke-width="0.5" x1="422.0" x2="422.0" y1="352" y2="408" /><line stroke="#8B7355" stroke-width="0.5" x1="436.0" x2="436.0" y1="352" y2="408" /><line stroke="#8B7355" stroke-width="0.5" x1="450.0" x2="450.0" y1="352" y2="408" /><line stroke="#8B7355" stroke-width="0.5" x1="464.0" x2="464.0" y1="352" y2="408" /><line stroke="#8B7355" stroke-width="0.5" x1="478.0" x2="478.0" y1="352" y2="408" /><line stroke="#8B7355" stroke-width="0.5" x1="492.0" x2="492.0" y1="352" y2="408" /><line stroke="#8B7355" stroke-width="0.5" x1="506.0" x2="506.0" y1="352" y2="408" /><line stroke="#8B7355" stroke-width="0.5" x1="520.0" x2="520.0" y1="352" y2="408" /><line stroke="#8B7355" stroke-width="0.5" x1="534.0" x2="534.0" y1="352" y2="408" /><line stroke="#8B7355" stroke-width="0.5" x1="548.0" x2="548.0" y1="352" y2="408" /><line stroke="#8B7355" stroke-width="0.5" x1="562.0" x2="562.0" y1="352" y2="408" /><line stroke="#8B7355" stroke-width="0.5" x1="576.0" x2="576.0" y1="352" y2="408" /><text fill="#333" font-family="Arial" font-size="11px" font-weight="bold" text-anchor="middle" x="450" y="384">BRIDGE DECK</text><text fill="#555" font-family="Arial" font-size="10px" text-anchor="middle" x="450" y="396">10' × 2'</text><line stroke="#333" stroke-width="1.5" x1="330" x2="580" y1="332" y2="332" /><polygon fill="#333" points="580,327 580,337 590,332" /><text fill="#555" font-family="Arial" font-size="9px" text-anchor="middle" x="450" y="324">RIDER DIRECTION</text><g opacity="0.3"><line stroke="#666" stroke-width="0.5" x1="590" x2="590" y1="324" y2="324" /><line stroke="#666" stroke-width="0.5" x1="598" x2="590" y1="324" y2="332" /><line stroke="#666" stroke-width="0.5" x1="606" x2="590" y1="324" y2="340" /><line stroke="#666" stroke-width="0.5" x1="614" x2="590" y1="324" y2="348" /><line stroke="#666" stroke-width="0.5" x1="622" x2="590" y1="324" y2="356" /><line stroke="#666" stroke-width="0.5" x1="630" x2="590" y1="324" y2="364" /><line stroke="#666" stroke-width="0.5" x1="638" x2="590" y1="324" y2="372" /><line stroke="#666" stroke-width="0.5" x1="646" x2="590" y1="324" y2="380" /><line stroke="#666" stroke-width="0.5" x1="654" x2="590" y1="324" y2="388" /><line stroke="#666" stroke-width="0.5" x1="662" x2="590" y1="324" y2="396" /><line stroke="#666" stroke-width="0.5" x1="670" x2="590" y1="324" y2="404" /><line stroke="#666" stroke-width="0.5" x1="678" x2="590" y1="324" y2="412" /><line stroke="#666" stroke-width="0.5" x1="686" x2="590" y1="324" y2="420" /><line stroke="#666" stroke-width="0.5" x1="694" x2="590" y1="324" y2="428" /><line stroke="#666" stroke-width="0.5" x1="702" x2="590" y1="324" y2="436" /><line stroke="#666" stroke-width="0.5" x1="702" x2="598" y1="332" y2="436" /><line stroke="#666" stroke-width="0.5" x1="702" x2="606" y1="340" y2="436" /><line stroke="#666" stroke-width="0.5" x1="702" x2="614" y1="348" y2="436" /><line stroke="#666" stroke-width="0.5" x1="702" x2="622" y1="356" y2="436" /><line stroke="#666" stroke-width="0.5" x1="702" x2="630" y1="364" y2="436" /><line stroke="#666" stroke-width="0.5" x1="702" x2="638" y1="372" y2="436" /><line stroke="#666" stroke-width="0.5" x1="702" x2="646" y1="380" y2="436" /><line stroke="#666" stroke-width="0.5" x1="702" x2="654" y1="388" y2="436" /><line stroke="#666" stroke-width="0.5" x1="702" x2="662" y1="396" y2="436" /><line stroke="#666" stroke-width="0.5" x1="702" x2="670" y1="404" y2="436" /><line stroke="#666" stroke-width="0.5" x1="702" x2="678" y1="412" y2="436" /><line stroke="#666" stroke-width="0.5" x1="702" x2="686" y1="420" y2="436" /><line stroke="#666" stroke-width="0.5" x1="702" x2="694" y1="428" y2="436" /></g><rect fill="none" height="112" stroke="#999" stroke-dasharray="4,3" stroke-width="1" width="112" x="590" y="324" /><text fill="#666" font-family="Arial" font-size="10px" font-weight="bold" text-anchor="middle" x="646.0" y="378">DROP</text><text fill="#666" font-family="Arial" font-size="10px" font-weight="bold" text-anchor="middle" x="646.0" y="390">ZONE</text><rect fill="#8B6914" fill-opacity="0.3" height="140.0" stroke="#333" stroke-width="1.5" width="112" x="702" y="310.0" /><text fill="#333" font-family="Arial" font-size="9px" font-weight="bold" text-anchor="middle" x="758.0" y="378">CASE PAD</text><text fill="#555" font-family="Arial" font-size="9px" text-anchor="middle" x="758.0" y="390">4'</text><rect fill="#8B6914" fill-opacity="0.15" height="140.0" stroke="#333" stroke-width="1.5" width="224" x="814" y="310.0" /><text fill="#333" font-family="Arial" font-size="10px" text-anchor="middle" x="926.0" y="384">40° LANDING SLOPE</text><line stroke="#E00" stroke-dasharray="6,3" stroke-width="2" x1="926" x2="926" y1="305.0" y2="455.0" /><text fill="#E00" font-family="Arial" font-size="9px" font-weight="bold" text-anchor="middle" x="926" y="298.0">SWEET SPOT</text><text fill="#E00" font-family="Arial" font-size="8px" text-anchor="middle" x="926" y="308.0">12' from bridge end</text><line stroke="#0066CC" stroke-dasharray="8,4" stroke-width="1.5" x1="595" x2="921" y1="380" y2="380" /><polygon fill="#0066CC" points="921,376 921,384 926,380" /><text fill="#0066CC" font-family="Arial" font-size="9px" font-weight="bold" text-anchor="middle" x="758.0" y="265.0">DROP LINE</text><path d="M 564.8,408 C 604.8,468 728,575.2 758,615.2 C 788,655.2 840,742 870,772 L 895.2,688 C 850,658 788,578 758,548 C 728,508 620,458 590,408 Z" fill="#C4A050" fill-opacity="0.3" stroke="#333" stroke-width="1.5" /><path d="M 577.4,408 C 612.4,468 758,541.6 758,581.6 C 758,621.6 860,700.0 882.6,730.0" fill="none" stroke="#666" stroke-dasharray="4,3" stroke-width="1" /><text fill="#333" font-family="Arial" font-size="10px" font-weight="bold" text-anchor="middle" transform="rotate(50, 743, 586.6)" x="743" y="586.6">SIDE ROLL-DOWN</text><text fill="#555" font-family="Arial" font-size="9px" text-anchor="middle" transform="rotate(50, 743, 600.6)" x="743" y="600.6">38° slope, 14' run</text><line stroke="#228B22" stroke-width="1.5" x1="753" x2="855" y1="566.6" y2="710.0" /><polygon fill="#228B22" points="849,708.0 853,702.0 857,712.0" /><text fill="#228B22" font-family="Arial" font-size="9px" font-weight="bold" text-anchor="middle" x="783" y="556.6">ROLL LINE</text><ellipse cx="882.6" cy="786.0" fill="#8B6914" fill-opacity="0.1" rx="84" ry="56" stroke="#999" stroke-dasharray="4,3" stroke-width="1" /><text fill="#666" font-family="Arial" font-size="9px" text-anchor="middle" x="882.6" y="790.0">RUNOUT</text><line stroke="#333" stroke-width="0.8" x1="590" x2="590" y1="280.0" y2="270.0" /><line stroke="#333" stroke-width="0.8" x1="926" x2="926" y1="280.0" y2="270.0" /><line stroke="#333" stroke-width="0.8" x1="590" x2="926" y1="275.0" y2="275.0" /><text fill="#333" font-family="Arial" font-size="9px" text-anchor="middle" x="758.0" y="270.0">12'-0"</text><line stroke="#333" stroke-width="0.8" x1="590" x2="590" y1="470.0" y2="480.0" /><line stroke="#333" stroke-width="0.8" x1="702" x2="702" y1="470.0" y2="480.0" /><line stroke="#333" stroke-width="0.8" x1="590" x2="702" y1="475.0" y2="475.0" /><text fill="#333" font-family="Arial" font-size="9px" text-anchor="middle" x="646.0" y="470.0">4'-0" gap</text><line stroke="#333" stroke-width="0.8" x1="285" x2="295" y1="352" y2="352" /><line stroke="#333" stroke-width="0.8" x1="285" x2="295" y1="408" y2="408" /><line stroke="#333" stroke-width="0.8" x1="290" x2="290" y1="352" y2="408" /><text fill="#333" font-family="Arial" font-size="9px" text-anchor="end" transform="rotate(-90,285,384)" x="285" y="384">2'-0"</text><text fill="#333" font-family="Arial" font-size="10px" font-weight="bold" x="60" y="650">NOTES:</text><text fill="#555" font-family="Arial" font-size="9px" x="60" y="666">1. Side roll-down exits right side of bridge at ~55° from centerline</text><text fill="#555" font-family="Arial" font-size="9px" x="60" y="680">2. Roll-down: 14' horizontal run, 38° slope (expert-level rollable)</text><text fill="#555" font-family="Arial" font-size="9px" x="60" y="694">3. Drop line goes straight off bridge end — 11' vertical to lander top</text><text fill="#555" font-family="Arial" font-size="9px" x="60" y="708">4. Both lines merge at runout area below lander</text><text fill="#555" font-family="Arial" font-size="9px" x="60" y="722">5. Roll-down width: 3' minimum, compact fill with drainage</text></svg>